G04 #@! TF.GenerationSoftware,KiCad,Pcbnew,5.0.1+dfsg1-3*
G04 #@! TF.CreationDate,2018-12-12T18:27:28+01:00*
G04 #@! TF.ProjectId,BitkanoneV2,4269746B616E6F6E6556322E6B696361,2.0*
G04 #@! TF.SameCoordinates,Original*
G04 #@! TF.FileFunction,Copper,L2,Bot,Signal*
G04 #@! TF.FilePolarity,Positive*
%FSLAX46Y46*%
G04 Gerber Fmt 4.6, Leading zero omitted, Abs format (unit mm)*
G04 Created by KiCad (PCBNEW 5.0.1+dfsg1-3) date Mi 12 Dez 2018 18:27:28 CET*
%MOMM*%
%LPD*%
G01*
G04 APERTURE LIST*
G04 #@! TA.AperFunction,NonConductor*
%ADD10C,0.150000*%
G04 #@! TD*
G04 #@! TA.AperFunction,SMDPad,CuDef*
%ADD11C,0.500000*%
G04 #@! TD*
G04 #@! TA.AperFunction,Conductor*
%ADD12C,0.150000*%
G04 #@! TD*
G04 #@! TA.AperFunction,ComponentPad*
%ADD13C,1.450000*%
G04 #@! TD*
G04 #@! TA.AperFunction,ComponentPad*
%ADD14O,1.900000X1.200000*%
G04 #@! TD*
G04 #@! TA.AperFunction,ComponentPad*
%ADD15C,0.800000*%
G04 #@! TD*
G04 #@! TA.AperFunction,ComponentPad*
%ADD16C,6.400000*%
G04 #@! TD*
G04 #@! TA.AperFunction,ComponentPad*
%ADD17R,1.700000X1.700000*%
G04 #@! TD*
G04 #@! TA.AperFunction,ComponentPad*
%ADD18O,1.700000X1.700000*%
G04 #@! TD*
G04 #@! TA.AperFunction,ComponentPad*
%ADD19C,1.800000*%
G04 #@! TD*
G04 #@! TA.AperFunction,ComponentPad*
%ADD20R,1.800000X1.800000*%
G04 #@! TD*
G04 #@! TA.AperFunction,SMDPad,CuDef*
%ADD21R,1.000000X1.500000*%
G04 #@! TD*
G04 #@! TA.AperFunction,ComponentPad*
%ADD22O,1.727200X2.250000*%
G04 #@! TD*
G04 #@! TA.AperFunction,ComponentPad*
%ADD23R,1.727200X2.250000*%
G04 #@! TD*
G04 #@! TA.AperFunction,ViaPad*
%ADD24C,1.500000*%
G04 #@! TD*
G04 #@! TA.AperFunction,ViaPad*
%ADD25C,0.800000*%
G04 #@! TD*
G04 #@! TA.AperFunction,Conductor*
%ADD26C,0.800000*%
G04 #@! TD*
G04 #@! TA.AperFunction,Conductor*
%ADD27C,0.250000*%
G04 #@! TD*
G04 #@! TA.AperFunction,Conductor*
%ADD28C,1.000000*%
G04 #@! TD*
G04 #@! TA.AperFunction,Conductor*
%ADD29C,0.254000*%
G04 #@! TD*
G04 APERTURE END LIST*
D10*
X118000000Y-20000000D02*
X20000000Y-20000000D01*
X118000000Y-118000000D02*
X118000000Y-20000000D01*
X20000000Y-118000000D02*
X118000000Y-118000000D01*
X20000000Y-20000000D02*
X20000000Y-118000000D01*
D11*
G04 #@! TO.P,JU2,2*
G04 #@! TO.N,/USBD-*
X42395800Y-43600000D03*
D12*
G04 #@! TD*
G04 #@! TO.N,/USBD-*
G04 #@! TO.C,JU2*
G36*
X42395800Y-42850602D02*
X42420334Y-42850602D01*
X42469165Y-42855412D01*
X42517290Y-42864984D01*
X42564245Y-42879228D01*
X42609578Y-42898005D01*
X42652851Y-42921136D01*
X42693650Y-42948396D01*
X42731579Y-42979524D01*
X42766276Y-43014221D01*
X42797404Y-43052150D01*
X42824664Y-43092949D01*
X42847795Y-43136222D01*
X42866572Y-43181555D01*
X42880816Y-43228510D01*
X42890388Y-43276635D01*
X42895198Y-43325466D01*
X42895198Y-43350000D01*
X42895800Y-43350000D01*
X42895800Y-43850000D01*
X42895198Y-43850000D01*
X42895198Y-43874534D01*
X42890388Y-43923365D01*
X42880816Y-43971490D01*
X42866572Y-44018445D01*
X42847795Y-44063778D01*
X42824664Y-44107051D01*
X42797404Y-44147850D01*
X42766276Y-44185779D01*
X42731579Y-44220476D01*
X42693650Y-44251604D01*
X42652851Y-44278864D01*
X42609578Y-44301995D01*
X42564245Y-44320772D01*
X42517290Y-44335016D01*
X42469165Y-44344588D01*
X42420334Y-44349398D01*
X42395800Y-44349398D01*
X42395800Y-44350000D01*
X41895800Y-44350000D01*
X41895800Y-42850000D01*
X42395800Y-42850000D01*
X42395800Y-42850602D01*
X42395800Y-42850602D01*
G37*
D11*
G04 #@! TO.P,JU2,1*
G04 #@! TO.N,Net-(JU2-Pad1)*
X41095800Y-43600000D03*
D12*
G04 #@! TD*
G04 #@! TO.N,Net-(JU2-Pad1)*
G04 #@! TO.C,JU2*
G36*
X41595800Y-44350000D02*
X41095800Y-44350000D01*
X41095800Y-44349398D01*
X41071266Y-44349398D01*
X41022435Y-44344588D01*
X40974310Y-44335016D01*
X40927355Y-44320772D01*
X40882022Y-44301995D01*
X40838749Y-44278864D01*
X40797950Y-44251604D01*
X40760021Y-44220476D01*
X40725324Y-44185779D01*
X40694196Y-44147850D01*
X40666936Y-44107051D01*
X40643805Y-44063778D01*
X40625028Y-44018445D01*
X40610784Y-43971490D01*
X40601212Y-43923365D01*
X40596402Y-43874534D01*
X40596402Y-43850000D01*
X40595800Y-43850000D01*
X40595800Y-43350000D01*
X40596402Y-43350000D01*
X40596402Y-43325466D01*
X40601212Y-43276635D01*
X40610784Y-43228510D01*
X40625028Y-43181555D01*
X40643805Y-43136222D01*
X40666936Y-43092949D01*
X40694196Y-43052150D01*
X40725324Y-43014221D01*
X40760021Y-42979524D01*
X40797950Y-42948396D01*
X40838749Y-42921136D01*
X40882022Y-42898005D01*
X40927355Y-42879228D01*
X40974310Y-42864984D01*
X41022435Y-42855412D01*
X41071266Y-42850602D01*
X41095800Y-42850602D01*
X41095800Y-42850000D01*
X41595800Y-42850000D01*
X41595800Y-44350000D01*
X41595800Y-44350000D01*
G37*
D11*
G04 #@! TO.P,JU1,1*
G04 #@! TO.N,Net-(JU1-Pad1)*
X41080800Y-41060000D03*
D12*
G04 #@! TD*
G04 #@! TO.N,Net-(JU1-Pad1)*
G04 #@! TO.C,JU1*
G36*
X41580800Y-41810000D02*
X41080800Y-41810000D01*
X41080800Y-41809398D01*
X41056266Y-41809398D01*
X41007435Y-41804588D01*
X40959310Y-41795016D01*
X40912355Y-41780772D01*
X40867022Y-41761995D01*
X40823749Y-41738864D01*
X40782950Y-41711604D01*
X40745021Y-41680476D01*
X40710324Y-41645779D01*
X40679196Y-41607850D01*
X40651936Y-41567051D01*
X40628805Y-41523778D01*
X40610028Y-41478445D01*
X40595784Y-41431490D01*
X40586212Y-41383365D01*
X40581402Y-41334534D01*
X40581402Y-41310000D01*
X40580800Y-41310000D01*
X40580800Y-40810000D01*
X40581402Y-40810000D01*
X40581402Y-40785466D01*
X40586212Y-40736635D01*
X40595784Y-40688510D01*
X40610028Y-40641555D01*
X40628805Y-40596222D01*
X40651936Y-40552949D01*
X40679196Y-40512150D01*
X40710324Y-40474221D01*
X40745021Y-40439524D01*
X40782950Y-40408396D01*
X40823749Y-40381136D01*
X40867022Y-40358005D01*
X40912355Y-40339228D01*
X40959310Y-40324984D01*
X41007435Y-40315412D01*
X41056266Y-40310602D01*
X41080800Y-40310602D01*
X41080800Y-40310000D01*
X41580800Y-40310000D01*
X41580800Y-41810000D01*
X41580800Y-41810000D01*
G37*
D11*
G04 #@! TO.P,JU1,2*
G04 #@! TO.N,/USBD+*
X42380800Y-41060000D03*
D12*
G04 #@! TD*
G04 #@! TO.N,/USBD+*
G04 #@! TO.C,JU1*
G36*
X42380800Y-40310602D02*
X42405334Y-40310602D01*
X42454165Y-40315412D01*
X42502290Y-40324984D01*
X42549245Y-40339228D01*
X42594578Y-40358005D01*
X42637851Y-40381136D01*
X42678650Y-40408396D01*
X42716579Y-40439524D01*
X42751276Y-40474221D01*
X42782404Y-40512150D01*
X42809664Y-40552949D01*
X42832795Y-40596222D01*
X42851572Y-40641555D01*
X42865816Y-40688510D01*
X42875388Y-40736635D01*
X42880198Y-40785466D01*
X42880198Y-40810000D01*
X42880800Y-40810000D01*
X42880800Y-41310000D01*
X42880198Y-41310000D01*
X42880198Y-41334534D01*
X42875388Y-41383365D01*
X42865816Y-41431490D01*
X42851572Y-41478445D01*
X42832795Y-41523778D01*
X42809664Y-41567051D01*
X42782404Y-41607850D01*
X42751276Y-41645779D01*
X42716579Y-41680476D01*
X42678650Y-41711604D01*
X42637851Y-41738864D01*
X42594578Y-41761995D01*
X42549245Y-41780772D01*
X42502290Y-41795016D01*
X42454165Y-41804588D01*
X42405334Y-41809398D01*
X42380800Y-41809398D01*
X42380800Y-41810000D01*
X41880800Y-41810000D01*
X41880800Y-40310000D01*
X42380800Y-40310000D01*
X42380800Y-40310602D01*
X42380800Y-40310602D01*
G37*
D13*
G04 #@! TO.P,XU1,6*
G04 #@! TO.N,GND*
X24158300Y-45545000D03*
X24158300Y-50545000D03*
D14*
X21458300Y-44545000D03*
X21458300Y-51545000D03*
G04 #@! TD*
D15*
G04 #@! TO.P,H1,1*
G04 #@! TO.N,GND*
X35697056Y-32302944D03*
X34000000Y-31600000D03*
X32302944Y-32302944D03*
X31600000Y-34000000D03*
X32302944Y-35697056D03*
X34000000Y-36400000D03*
X35697056Y-35697056D03*
X36400000Y-34000000D03*
D16*
X34000000Y-34000000D03*
G04 #@! TD*
G04 #@! TO.P,H2,1*
G04 #@! TO.N,GND*
X104000000Y-34150000D03*
D15*
X106400000Y-34150000D03*
X105697056Y-35847056D03*
X104000000Y-36550000D03*
X102302944Y-35847056D03*
X101600000Y-34150000D03*
X102302944Y-32452944D03*
X104000000Y-31750000D03*
X105697056Y-32452944D03*
G04 #@! TD*
G04 #@! TO.P,H3,1*
G04 #@! TO.N,GND*
X49697056Y-102302944D03*
X48000000Y-101600000D03*
X46302944Y-102302944D03*
X45600000Y-104000000D03*
X46302944Y-105697056D03*
X48000000Y-106400000D03*
X49697056Y-105697056D03*
X50400000Y-104000000D03*
D16*
X48000000Y-104000000D03*
G04 #@! TD*
D17*
G04 #@! TO.P,J202,1*
G04 #@! TO.N,Net-(J202-Pad1)*
X98895800Y-61380000D03*
D18*
G04 #@! TO.P,J202,2*
G04 #@! TO.N,+5V*
X101435800Y-61380000D03*
G04 #@! TD*
D17*
G04 #@! TO.P,X102,1*
G04 #@! TO.N,GND*
X67780800Y-89955000D03*
D18*
G04 #@! TO.P,X102,2*
G04 #@! TO.N,+5V*
X70320800Y-89955000D03*
G04 #@! TD*
D17*
G04 #@! TO.P,X42,1*
G04 #@! TO.N,GND*
X71590800Y-33995001D03*
D18*
G04 #@! TO.P,X42,2*
G04 #@! TO.N,/X42_PB3*
X74130800Y-33995001D03*
G04 #@! TO.P,X42,3*
G04 #@! TO.N,/X42_PB4*
X76670800Y-33995001D03*
G04 #@! TO.P,X42,4*
G04 #@! TO.N,/X42_PB5*
X79210800Y-33995001D03*
G04 #@! TO.P,X42,5*
G04 #@! TO.N,/X42_SCL*
X81750800Y-33995001D03*
G04 #@! TO.P,X42,6*
G04 #@! TO.N,/X42_SDA*
X84290800Y-33995001D03*
G04 #@! TO.P,X42,7*
G04 #@! TO.N,+3V3*
X86830800Y-33995001D03*
G04 #@! TO.P,X42,8*
G04 #@! TO.N,+5V*
X89370800Y-33995001D03*
G04 #@! TD*
D19*
G04 #@! TO.P,Q502,2*
G04 #@! TO.N,GND*
X105880800Y-76620000D03*
D20*
G04 #@! TO.P,Q502,1*
G04 #@! TO.N,/Photo2*
X103340800Y-76620000D03*
G04 #@! TD*
G04 #@! TO.P,Q501,1*
G04 #@! TO.N,/Photo1*
X34760800Y-76620000D03*
D19*
G04 #@! TO.P,Q501,2*
G04 #@! TO.N,GND*
X32220800Y-76620000D03*
G04 #@! TD*
D17*
G04 #@! TO.P,X991,1*
G04 #@! TO.N,/LedGrid/DOUT*
X115990000Y-32170000D03*
G04 #@! TD*
D21*
G04 #@! TO.P,J212,2*
G04 #@! TO.N,/CANL*
X98210000Y-49950000D03*
D11*
G04 #@! TO.P,J212,3*
G04 #@! TO.N,Net-(J212-Pad3)*
X96910000Y-49950000D03*
D12*
G04 #@! TD*
G04 #@! TO.N,Net-(J212-Pad3)*
G04 #@! TO.C,J212*
G36*
X96910000Y-50699398D02*
X96885466Y-50699398D01*
X96836635Y-50694588D01*
X96788510Y-50685016D01*
X96741555Y-50670772D01*
X96696222Y-50651995D01*
X96652949Y-50628864D01*
X96612150Y-50601604D01*
X96574221Y-50570476D01*
X96539524Y-50535779D01*
X96508396Y-50497850D01*
X96481136Y-50457051D01*
X96458005Y-50413778D01*
X96439228Y-50368445D01*
X96424984Y-50321490D01*
X96415412Y-50273365D01*
X96410602Y-50224534D01*
X96410602Y-50200000D01*
X96410000Y-50200000D01*
X96410000Y-49700000D01*
X96410602Y-49700000D01*
X96410602Y-49675466D01*
X96415412Y-49626635D01*
X96424984Y-49578510D01*
X96439228Y-49531555D01*
X96458005Y-49486222D01*
X96481136Y-49442949D01*
X96508396Y-49402150D01*
X96539524Y-49364221D01*
X96574221Y-49329524D01*
X96612150Y-49298396D01*
X96652949Y-49271136D01*
X96696222Y-49248005D01*
X96741555Y-49229228D01*
X96788510Y-49214984D01*
X96836635Y-49205412D01*
X96885466Y-49200602D01*
X96910000Y-49200602D01*
X96910000Y-49200000D01*
X97460000Y-49200000D01*
X97460000Y-50700000D01*
X96910000Y-50700000D01*
X96910000Y-50699398D01*
X96910000Y-50699398D01*
G37*
D11*
G04 #@! TO.P,J212,1*
G04 #@! TO.N,/CANRX*
X99510000Y-49950000D03*
D12*
G04 #@! TD*
G04 #@! TO.N,/CANRX*
G04 #@! TO.C,J212*
G36*
X98960000Y-49200000D02*
X99510000Y-49200000D01*
X99510000Y-49200602D01*
X99534534Y-49200602D01*
X99583365Y-49205412D01*
X99631490Y-49214984D01*
X99678445Y-49229228D01*
X99723778Y-49248005D01*
X99767051Y-49271136D01*
X99807850Y-49298396D01*
X99845779Y-49329524D01*
X99880476Y-49364221D01*
X99911604Y-49402150D01*
X99938864Y-49442949D01*
X99961995Y-49486222D01*
X99980772Y-49531555D01*
X99995016Y-49578510D01*
X100004588Y-49626635D01*
X100009398Y-49675466D01*
X100009398Y-49700000D01*
X100010000Y-49700000D01*
X100010000Y-50200000D01*
X100009398Y-50200000D01*
X100009398Y-50224534D01*
X100004588Y-50273365D01*
X99995016Y-50321490D01*
X99980772Y-50368445D01*
X99961995Y-50413778D01*
X99938864Y-50457051D01*
X99911604Y-50497850D01*
X99880476Y-50535779D01*
X99845779Y-50570476D01*
X99807850Y-50601604D01*
X99767051Y-50628864D01*
X99723778Y-50651995D01*
X99678445Y-50670772D01*
X99631490Y-50685016D01*
X99583365Y-50694588D01*
X99534534Y-50699398D01*
X99510000Y-50699398D01*
X99510000Y-50700000D01*
X98960000Y-50700000D01*
X98960000Y-49200000D01*
X98960000Y-49200000D01*
G37*
D11*
G04 #@! TO.P,J211,1*
G04 #@! TO.N,/CANTX*
X99540000Y-46140000D03*
D12*
G04 #@! TD*
G04 #@! TO.N,/CANTX*
G04 #@! TO.C,J211*
G36*
X98990000Y-45390000D02*
X99540000Y-45390000D01*
X99540000Y-45390602D01*
X99564534Y-45390602D01*
X99613365Y-45395412D01*
X99661490Y-45404984D01*
X99708445Y-45419228D01*
X99753778Y-45438005D01*
X99797051Y-45461136D01*
X99837850Y-45488396D01*
X99875779Y-45519524D01*
X99910476Y-45554221D01*
X99941604Y-45592150D01*
X99968864Y-45632949D01*
X99991995Y-45676222D01*
X100010772Y-45721555D01*
X100025016Y-45768510D01*
X100034588Y-45816635D01*
X100039398Y-45865466D01*
X100039398Y-45890000D01*
X100040000Y-45890000D01*
X100040000Y-46390000D01*
X100039398Y-46390000D01*
X100039398Y-46414534D01*
X100034588Y-46463365D01*
X100025016Y-46511490D01*
X100010772Y-46558445D01*
X99991995Y-46603778D01*
X99968864Y-46647051D01*
X99941604Y-46687850D01*
X99910476Y-46725779D01*
X99875779Y-46760476D01*
X99837850Y-46791604D01*
X99797051Y-46818864D01*
X99753778Y-46841995D01*
X99708445Y-46860772D01*
X99661490Y-46875016D01*
X99613365Y-46884588D01*
X99564534Y-46889398D01*
X99540000Y-46889398D01*
X99540000Y-46890000D01*
X98990000Y-46890000D01*
X98990000Y-45390000D01*
X98990000Y-45390000D01*
G37*
D11*
G04 #@! TO.P,J211,3*
G04 #@! TO.N,Net-(J211-Pad3)*
X96940000Y-46140000D03*
D12*
G04 #@! TD*
G04 #@! TO.N,Net-(J211-Pad3)*
G04 #@! TO.C,J211*
G36*
X96940000Y-46889398D02*
X96915466Y-46889398D01*
X96866635Y-46884588D01*
X96818510Y-46875016D01*
X96771555Y-46860772D01*
X96726222Y-46841995D01*
X96682949Y-46818864D01*
X96642150Y-46791604D01*
X96604221Y-46760476D01*
X96569524Y-46725779D01*
X96538396Y-46687850D01*
X96511136Y-46647051D01*
X96488005Y-46603778D01*
X96469228Y-46558445D01*
X96454984Y-46511490D01*
X96445412Y-46463365D01*
X96440602Y-46414534D01*
X96440602Y-46390000D01*
X96440000Y-46390000D01*
X96440000Y-45890000D01*
X96440602Y-45890000D01*
X96440602Y-45865466D01*
X96445412Y-45816635D01*
X96454984Y-45768510D01*
X96469228Y-45721555D01*
X96488005Y-45676222D01*
X96511136Y-45632949D01*
X96538396Y-45592150D01*
X96569524Y-45554221D01*
X96604221Y-45519524D01*
X96642150Y-45488396D01*
X96682949Y-45461136D01*
X96726222Y-45438005D01*
X96771555Y-45419228D01*
X96818510Y-45404984D01*
X96866635Y-45395412D01*
X96915466Y-45390602D01*
X96940000Y-45390602D01*
X96940000Y-45390000D01*
X97490000Y-45390000D01*
X97490000Y-46890000D01*
X96940000Y-46890000D01*
X96940000Y-46889398D01*
X96940000Y-46889398D01*
G37*
D21*
G04 #@! TO.P,J211,2*
G04 #@! TO.N,/CANH*
X98240000Y-46140000D03*
G04 #@! TD*
D22*
G04 #@! TO.P,U201,40*
G04 #@! TO.N,+3V3*
X93231600Y-61380000D03*
G04 #@! TO.P,U201,39*
G04 #@! TO.N,GND*
X90640800Y-61380000D03*
G04 #@! TO.P,U201,38*
G04 #@! TO.N,Net-(J202-Pad1)*
X88100800Y-61380000D03*
G04 #@! TO.P,U201,37*
G04 #@! TO.N,/CANTX*
X85560800Y-61380000D03*
G04 #@! TO.P,U201,36*
G04 #@! TO.N,/CANRX*
X83020800Y-61380000D03*
G04 #@! TO.P,U201,35*
G04 #@! TO.N,/X42_SDA*
X80480800Y-61380000D03*
G04 #@! TO.P,U201,34*
G04 #@! TO.N,/X42_SCL*
X77940800Y-61380000D03*
G04 #@! TO.P,U201,33*
G04 #@! TO.N,/X42_PB5*
X75400800Y-61380000D03*
G04 #@! TO.P,U201,32*
G04 #@! TO.N,/X42_PB4*
X72860800Y-61380000D03*
G04 #@! TO.P,U201,31*
G04 #@! TO.N,/X42_PB3*
X70320800Y-61380000D03*
G04 #@! TO.P,U201,30*
G04 #@! TO.N,/TTop*
X67780800Y-61380000D03*
G04 #@! TO.P,U201,29*
G04 #@! TO.N,/USBD+*
X65240800Y-61380000D03*
G04 #@! TO.P,U201,28*
G04 #@! TO.N,/USBD-*
X62700800Y-61380000D03*
G04 #@! TO.P,U201,27*
G04 #@! TO.N,/RX1*
X60160800Y-61380000D03*
G04 #@! TO.P,U201,26*
G04 #@! TO.N,/TX1*
X57620800Y-61380000D03*
G04 #@! TO.P,U201,25*
G04 #@! TO.N,Net-(U201-Pad25)*
X55080800Y-61380000D03*
G04 #@! TO.P,U201,24*
G04 #@! TO.N,/DIN*
X52540800Y-61380000D03*
G04 #@! TO.P,U201,23*
G04 #@! TO.N,Net-(S1-Pad2)*
X50000800Y-61380000D03*
G04 #@! TO.P,U201,22*
G04 #@! TO.N,Net-(U201-Pad22)*
X47460800Y-61380000D03*
G04 #@! TO.P,U201,21*
G04 #@! TO.N,/TLeft*
X44920800Y-61380000D03*
G04 #@! TO.P,U201,20*
G04 #@! TO.N,GND*
X44920800Y-76620000D03*
G04 #@! TO.P,U201,19*
X47460800Y-76620000D03*
G04 #@! TO.P,U201,18*
G04 #@! TO.N,+3V3*
X50000800Y-76620000D03*
G04 #@! TO.P,U201,17*
G04 #@! TO.N,Net-(U201-Pad17)*
X52540800Y-76620000D03*
G04 #@! TO.P,U201,16*
G04 #@! TO.N,/SENS_SDA*
X55080800Y-76620000D03*
G04 #@! TO.P,U201,15*
G04 #@! TO.N,/SENS_SCL*
X57620800Y-76620000D03*
G04 #@! TO.P,U201,14*
G04 #@! TO.N,/Photo1*
X60160800Y-76620000D03*
G04 #@! TO.P,U201,13*
G04 #@! TO.N,/Photo2*
X62700800Y-76620000D03*
G04 #@! TO.P,U201,12*
G04 #@! TO.N,/TBottom*
X65240800Y-76620000D03*
G04 #@! TO.P,U201,11*
G04 #@! TO.N,/TRight*
X67780800Y-76620000D03*
G04 #@! TO.P,U201,10*
G04 #@! TO.N,Net-(S3-Pad2)*
X70320800Y-76620000D03*
G04 #@! TO.P,U201,9*
G04 #@! TO.N,Net-(S2-Pad2)*
X72860800Y-76620000D03*
G04 #@! TO.P,U201,8*
G04 #@! TO.N,/EN2*
X75400800Y-76620000D03*
G04 #@! TO.P,U201,7*
G04 #@! TO.N,/PWM2*
X77940800Y-76620000D03*
G04 #@! TO.P,U201,6*
G04 #@! TO.N,/EN1*
X80480800Y-76620000D03*
G04 #@! TO.P,U201,5*
G04 #@! TO.N,/PWM1*
X83020800Y-76620000D03*
G04 #@! TO.P,U201,4*
G04 #@! TO.N,Net-(U201-Pad4)*
X85560800Y-76620000D03*
G04 #@! TO.P,U201,3*
G04 #@! TO.N,Net-(U201-Pad3)*
X88100800Y-76620000D03*
G04 #@! TO.P,U201,2*
G04 #@! TO.N,Net-(U201-Pad2)*
X90640800Y-76620000D03*
D23*
G04 #@! TO.P,U201,1*
G04 #@! TO.N,Net-(U201-Pad1)*
X93180800Y-76620000D03*
G04 #@! TD*
D17*
G04 #@! TO.P,X101,1*
G04 #@! TO.N,GND*
X22010000Y-102655000D03*
D18*
G04 #@! TO.P,X101,2*
G04 #@! TO.N,+5V*
X22010000Y-105195000D03*
G04 #@! TD*
D17*
G04 #@! TO.P,X200,1*
G04 #@! TO.N,/TX1*
X33985000Y-48045000D03*
D18*
G04 #@! TO.P,X200,2*
G04 #@! TO.N,/RX1*
X36525000Y-48045000D03*
G04 #@! TO.P,X200,3*
G04 #@! TO.N,GND*
X39065000Y-48045000D03*
G04 #@! TD*
G04 #@! TO.P,X233,5*
G04 #@! TO.N,GND*
X74080000Y-115990000D03*
G04 #@! TO.P,X233,4*
G04 #@! TO.N,/TBottom*
X71540000Y-115990000D03*
G04 #@! TO.P,X233,3*
G04 #@! TO.N,/CANL*
X69000000Y-115990000D03*
G04 #@! TO.P,X233,2*
G04 #@! TO.N,/CANH*
X66460000Y-115990000D03*
D17*
G04 #@! TO.P,X233,1*
G04 #@! TO.N,Net-(J233-Pad2)*
X63920000Y-115990000D03*
G04 #@! TD*
G04 #@! TO.P,X232,1*
G04 #@! TO.N,Net-(J232-Pad2)*
X115990000Y-63920000D03*
D18*
G04 #@! TO.P,X232,2*
G04 #@! TO.N,/CANH*
X115990000Y-66460000D03*
G04 #@! TO.P,X232,3*
G04 #@! TO.N,/CANL*
X115990000Y-69000000D03*
G04 #@! TO.P,X232,4*
G04 #@! TO.N,/TRight*
X115990000Y-71540000D03*
G04 #@! TO.P,X232,5*
G04 #@! TO.N,GND*
X115990000Y-74080000D03*
G04 #@! TD*
G04 #@! TO.P,X234,5*
G04 #@! TO.N,GND*
X22010000Y-74080000D03*
G04 #@! TO.P,X234,4*
G04 #@! TO.N,/TLeft*
X22010000Y-71540000D03*
G04 #@! TO.P,X234,3*
G04 #@! TO.N,/CANL*
X22010000Y-69000000D03*
G04 #@! TO.P,X234,2*
G04 #@! TO.N,/CANH*
X22010000Y-66460000D03*
D17*
G04 #@! TO.P,X234,1*
G04 #@! TO.N,Net-(J234-Pad2)*
X22010000Y-63920000D03*
G04 #@! TD*
G04 #@! TO.P,X231,1*
G04 #@! TO.N,Net-(J231-Pad2)*
X63920000Y-22010000D03*
D18*
G04 #@! TO.P,X231,2*
G04 #@! TO.N,/CANH*
X66460000Y-22010000D03*
G04 #@! TO.P,X231,3*
G04 #@! TO.N,/CANL*
X69000000Y-22010000D03*
G04 #@! TO.P,X231,4*
G04 #@! TO.N,/TTop*
X71540000Y-22010000D03*
G04 #@! TO.P,X231,5*
G04 #@! TO.N,GND*
X74080000Y-22010000D03*
G04 #@! TD*
G04 #@! TO.P,U301,8*
G04 #@! TO.N,Net-(U301-Pad8)*
X44920800Y-48045000D03*
G04 #@! TO.P,U301,7*
G04 #@! TO.N,GND*
X47460800Y-48045000D03*
G04 #@! TO.P,U301,6*
G04 #@! TO.N,Net-(U301-Pad6)*
X50000800Y-48045000D03*
G04 #@! TO.P,U301,5*
G04 #@! TO.N,Net-(U301-Pad5)*
X52540800Y-48045000D03*
G04 #@! TO.P,U301,4*
G04 #@! TO.N,/SENS_SDA*
X55080800Y-48045000D03*
G04 #@! TO.P,U301,3*
G04 #@! TO.N,/SENS_SCL*
X57620800Y-48045000D03*
G04 #@! TO.P,U301,2*
G04 #@! TO.N,GND*
X60160800Y-48045000D03*
D17*
G04 #@! TO.P,U301,1*
G04 #@! TO.N,+3V3*
X62700800Y-48045000D03*
G04 #@! TD*
G04 #@! TO.P,X401,1*
G04 #@! TO.N,GND*
X90000000Y-104000000D03*
D18*
G04 #@! TO.P,X401,2*
G04 #@! TO.N,+5V*
X87460000Y-104000000D03*
G04 #@! TO.P,X401,3*
G04 #@! TO.N,/PWM1*
X84920000Y-104000000D03*
G04 #@! TO.P,X401,4*
G04 #@! TO.N,/EN1*
X82380000Y-104000000D03*
G04 #@! TO.P,X401,5*
G04 #@! TO.N,GND*
X79840000Y-104000000D03*
G04 #@! TO.P,X401,6*
G04 #@! TO.N,+5V*
X77300000Y-104000000D03*
G04 #@! TO.P,X401,7*
G04 #@! TO.N,/PWM2*
X74760000Y-104000000D03*
G04 #@! TO.P,X401,8*
G04 #@! TO.N,/EN2*
X72220000Y-104000000D03*
G04 #@! TD*
D21*
G04 #@! TO.P,X201,2*
G04 #@! TO.N,+5V*
X90000000Y-55000000D03*
G04 #@! TO.P,X201,1*
G04 #@! TO.N,Net-(J202-Pad1)*
X88700000Y-55000000D03*
G04 #@! TD*
D17*
G04 #@! TO.P,X990,1*
G04 #@! TO.N,/DIN*
X26505800Y-105195000D03*
G04 #@! TD*
D24*
G04 #@! TO.N,+3V3*
X82385800Y-48045000D03*
X59525800Y-64555000D03*
X74130800Y-64555000D03*
D25*
G04 #@! TO.N,/CANRX*
X82385800Y-49950000D03*
X89370800Y-49950000D03*
G04 #@! TO.N,/CANTX*
X77305800Y-47410000D03*
X89370800Y-46140000D03*
D24*
G04 #@! TO.N,GND*
X65240800Y-27090000D03*
X109690800Y-76620000D03*
G04 #@! TO.N,+5V*
X77300000Y-113444200D03*
X87460000Y-113444200D03*
X95720800Y-103925000D03*
X68415800Y-103925000D03*
X69050800Y-110910000D03*
X31080002Y-99480000D03*
X55080800Y-27090000D03*
X56350800Y-22010000D03*
X92545800Y-57450000D03*
X26505800Y-55030000D03*
X22060800Y-55030000D03*
X27140800Y-47410000D03*
D25*
G04 #@! TO.N,Net-(D915-Pad4)*
X29045800Y-55030000D03*
X29045800Y-60110000D03*
G04 #@! TO.N,/TTop*
X62700800Y-32805000D03*
X62700800Y-35980000D03*
G04 #@! TO.N,Net-(J212-Pad3)*
X95250000Y-49315000D03*
G04 #@! TO.N,Net-(J211-Pad3)*
X95250000Y-46775000D03*
G04 #@! TO.N,/CANH*
X53175800Y-32805000D03*
X56350800Y-32805000D03*
X94450800Y-63840001D03*
X96990800Y-63840001D03*
G04 #@! TO.N,Net-(S2-Pad2)*
X102070800Y-89955000D03*
G04 #@! TO.N,Net-(S1-Pad2)*
X34125800Y-89955000D03*
G04 #@! TO.N,Net-(S3-Pad2)*
X105245800Y-89955000D03*
G04 #@! TO.N,Net-(JU1-Pad1)*
X30950800Y-46775000D03*
G04 #@! TO.N,Net-(JU2-Pad1)*
X30950800Y-48680000D03*
G04 #@! TD*
D26*
G04 #@! TO.N,+3V3*
X93231600Y-61380000D02*
X93815800Y-61380000D01*
X93815800Y-61380000D02*
X94450800Y-60745000D01*
X94450800Y-60745000D02*
X94450800Y-55030000D01*
X94450800Y-55030000D02*
X90640800Y-51220000D01*
X85560800Y-51220000D02*
X82385800Y-48045000D01*
X90640800Y-51220000D02*
X85560800Y-51220000D01*
X93231600Y-61380000D02*
X93231600Y-61641400D01*
X50000800Y-76358600D02*
X59525800Y-66833600D01*
X50000800Y-76620000D02*
X50000800Y-76358600D01*
X59525800Y-66833600D02*
X59525800Y-64555000D01*
X59525800Y-64555000D02*
X59525800Y-64555000D01*
X93231600Y-63305000D02*
X91981600Y-64555000D01*
X93231600Y-61380000D02*
X93231600Y-63305000D01*
X91981600Y-64555000D02*
X74130800Y-64555000D01*
X74130800Y-64555000D02*
X74130800Y-64555000D01*
X86830800Y-43600000D02*
X86830800Y-33995001D01*
X82385800Y-48045000D02*
X86830800Y-43600000D01*
D27*
G04 #@! TO.N,/CANRX*
X83020800Y-61380000D02*
X83020800Y-50585000D01*
X83020800Y-50585000D02*
X82385800Y-49950000D01*
X82385800Y-49950000D02*
X82385800Y-49950000D01*
X99510000Y-50797592D02*
X99087592Y-51220000D01*
X99510000Y-49950000D02*
X99510000Y-50797592D01*
X89936485Y-49950000D02*
X89370800Y-49950000D01*
X90396118Y-49950000D02*
X89936485Y-49950000D01*
X91666118Y-51220000D02*
X90396118Y-49950000D01*
X99087592Y-51220000D02*
X91666118Y-51220000D01*
G04 #@! TO.N,/CANTX*
X81750800Y-62052348D02*
X81750800Y-51855000D01*
X82528462Y-62830010D02*
X81750800Y-62052348D01*
X84372190Y-62830010D02*
X82528462Y-62830010D01*
X85560800Y-61380000D02*
X85560800Y-61641400D01*
X85560800Y-61641400D02*
X84372190Y-62830010D01*
X81750800Y-51855000D02*
X79845800Y-49950000D01*
X79845800Y-49950000D02*
X77305800Y-47410000D01*
X90445810Y-45064990D02*
X89770799Y-45740001D01*
X99540000Y-45292408D02*
X99312582Y-45064990D01*
X89770799Y-45740001D02*
X89370800Y-46140000D01*
X99312582Y-45064990D02*
X90445810Y-45064990D01*
X99540000Y-46140000D02*
X99540000Y-45292408D01*
D26*
G04 #@! TO.N,GND*
X74080000Y-115990000D02*
X78575800Y-115990000D01*
X78575800Y-115990000D02*
X79845800Y-114720000D01*
X79840000Y-114714200D02*
X79840000Y-104000000D01*
X79845800Y-114720000D02*
X79840000Y-114714200D01*
X74080000Y-23965800D02*
X74080000Y-22010000D01*
X65240800Y-27090000D02*
X70955800Y-27090000D01*
X70955800Y-27090000D02*
X74080000Y-23965800D01*
X113450000Y-76620000D02*
X115990000Y-74080000D01*
X109690800Y-76620000D02*
X113450000Y-76620000D01*
D28*
G04 #@! TO.N,+5V*
X77300000Y-113444200D02*
X77300000Y-113444200D01*
X87460000Y-104000000D02*
X87460000Y-113444200D01*
X87460000Y-113444200D02*
X87460000Y-113444200D01*
X87460000Y-105202081D02*
X88722919Y-106465000D01*
X87460000Y-104000000D02*
X87460000Y-105202081D01*
X93180800Y-106465000D02*
X95720800Y-103925000D01*
X88722919Y-106465000D02*
X93180800Y-106465000D01*
X76030000Y-106465000D02*
X77300000Y-105195000D01*
X70955800Y-106465000D02*
X76030000Y-106465000D01*
X68415800Y-103925000D02*
X70955800Y-106465000D01*
X77300000Y-104000000D02*
X77300000Y-105195000D01*
X77300000Y-105195000D02*
X77300000Y-113444200D01*
X69050800Y-110910000D02*
X68415800Y-110275000D01*
X68415800Y-110275000D02*
X68415800Y-103925000D01*
X55080800Y-27090000D02*
X55080800Y-23280000D01*
X55080800Y-23280000D02*
X56350800Y-22010000D01*
X56350800Y-22010000D02*
X56350800Y-22010000D01*
X90000000Y-55000000D02*
X91245800Y-55000000D01*
X91245800Y-55000000D02*
X92545800Y-56300000D01*
X92545800Y-56300000D02*
X92545800Y-57450000D01*
X28145002Y-99480000D02*
X24600800Y-103024202D01*
X31080002Y-99480000D02*
X28145002Y-99480000D01*
X24600800Y-103024202D02*
X24600800Y-103925000D01*
X23330800Y-105195000D02*
X22010000Y-105195000D01*
X24600800Y-103925000D02*
X23330800Y-105195000D01*
X26505800Y-55030000D02*
X22060800Y-55030000D01*
X22060800Y-55030000D02*
X22060800Y-55030000D01*
X26505800Y-48045000D02*
X27140800Y-47410000D01*
X26505800Y-55030000D02*
X26505800Y-48045000D01*
D27*
G04 #@! TO.N,/DIN*
X52540800Y-61380000D02*
X52540800Y-61641400D01*
X27775800Y-105195000D02*
X26505800Y-105195000D01*
X36030800Y-96940000D02*
X27775800Y-105195000D01*
X36030800Y-79795000D02*
X36030800Y-96940000D01*
X52540800Y-61380000D02*
X52540800Y-63285000D01*
X52540800Y-63285000D02*
X36030800Y-79795000D01*
G04 #@! TO.N,Net-(D915-Pad4)*
X29045800Y-55030000D02*
X29045800Y-60110000D01*
X29045800Y-60110000D02*
X29045800Y-60110000D01*
G04 #@! TO.N,/SENS_SCL*
X57620800Y-76881400D02*
X57620800Y-76620000D01*
X57620800Y-76620000D02*
X57620800Y-76358600D01*
X63889410Y-70089990D02*
X63889410Y-56218610D01*
X57620800Y-76358600D02*
X63889410Y-70089990D01*
X63889410Y-56218610D02*
X57620800Y-49950000D01*
X57620800Y-49950000D02*
X57620800Y-48045000D01*
G04 #@! TO.N,/SENS_SDA*
X55080800Y-76620000D02*
X55080800Y-76881400D01*
X61349410Y-70089990D02*
X61349410Y-56218610D01*
X55080800Y-76620000D02*
X55080800Y-76358600D01*
X55080800Y-76358600D02*
X61349410Y-70089990D01*
X61349410Y-56218610D02*
X55080800Y-49950000D01*
X55080800Y-49950000D02*
X55080800Y-48045000D01*
G04 #@! TO.N,/EN2*
X72220000Y-96945800D02*
X72220000Y-104000000D01*
X75400800Y-76620000D02*
X75400800Y-93765000D01*
X75400800Y-93765000D02*
X72220000Y-96945800D01*
G04 #@! TO.N,/PWM2*
X77940800Y-76620000D02*
X77940800Y-95035000D01*
X74760000Y-98215800D02*
X74760000Y-104000000D01*
X77940800Y-95035000D02*
X74760000Y-98215800D01*
G04 #@! TO.N,/EN1*
X80480800Y-76620000D02*
X80480800Y-95035000D01*
X80480800Y-95035000D02*
X82385800Y-96940000D01*
X82380000Y-96945800D02*
X82380000Y-104000000D01*
X82385800Y-96940000D02*
X82380000Y-96945800D01*
G04 #@! TO.N,/PWM1*
X83020800Y-76620000D02*
X83020800Y-93765000D01*
X83020800Y-93765000D02*
X84925800Y-95670000D01*
X84920000Y-95675800D02*
X84920000Y-104000000D01*
X84925800Y-95670000D02*
X84920000Y-95675800D01*
G04 #@! TO.N,/TTop*
X71540000Y-22010000D02*
X71540000Y-23330800D01*
X71540000Y-23330800D02*
X69685800Y-25185000D01*
X69685800Y-25185000D02*
X63970800Y-25185000D01*
X63970800Y-25185000D02*
X62700800Y-26455000D01*
X62700800Y-26455000D02*
X62700800Y-32805000D01*
X62700800Y-32805000D02*
X62700800Y-32805000D01*
X67780800Y-41060000D02*
X67780800Y-61380000D01*
X62700800Y-35980000D02*
X67780800Y-41060000D01*
G04 #@! TO.N,/TRight*
X115990000Y-71540000D02*
X70955800Y-71540000D01*
X67780800Y-74715000D02*
X67780800Y-76620000D01*
X70955800Y-71540000D02*
X67780800Y-74715000D01*
G04 #@! TO.N,/TBottom*
X65240800Y-77890000D02*
X65240800Y-76620000D01*
X65240800Y-109640000D02*
X65240800Y-77890000D01*
X70320800Y-112815000D02*
X68415800Y-112815000D01*
X68415800Y-112815000D02*
X65240800Y-109640000D01*
X71540000Y-115990000D02*
X71540000Y-114034200D01*
X71540000Y-114034200D02*
X70320800Y-112815000D01*
G04 #@! TO.N,/TLeft*
X22010000Y-71540000D02*
X24600800Y-71540000D01*
X34760800Y-61380000D02*
X44920800Y-61380000D01*
X24600800Y-71540000D02*
X34760800Y-61380000D01*
G04 #@! TO.N,Net-(J212-Pad3)*
X95250000Y-49315000D02*
X95885000Y-49950000D01*
X95885000Y-49950000D02*
X96910000Y-49950000D01*
G04 #@! TO.N,Net-(J211-Pad3)*
X95250000Y-46775000D02*
X95885000Y-46140000D01*
X95885000Y-46140000D02*
X96940000Y-46140000D01*
G04 #@! TO.N,/CANH*
X66460000Y-23212081D02*
X66460000Y-22010000D01*
X65757081Y-23915000D02*
X66460000Y-23212081D01*
X62065800Y-23915000D02*
X65757081Y-23915000D01*
X57620800Y-28360000D02*
X62065800Y-23915000D01*
X57620800Y-28360000D02*
X53175800Y-32805000D01*
X53175800Y-32805000D02*
X53175800Y-32805000D01*
X94450800Y-68920001D02*
X94450800Y-63840001D01*
X66460000Y-114669200D02*
X61430800Y-109640000D01*
X66460000Y-115990000D02*
X66460000Y-114669200D01*
X61430800Y-74715000D02*
X65875800Y-70270000D01*
X93100801Y-70270000D02*
X94450800Y-68920001D01*
X61430800Y-109640000D02*
X61430800Y-74715000D01*
X65875800Y-70270000D02*
X93100801Y-70270000D01*
X96990800Y-68920001D02*
X96990800Y-63840001D01*
X115990000Y-66460000D02*
X114690801Y-66460000D01*
X98260800Y-70190001D02*
X96990800Y-68920001D01*
X110960800Y-70190001D02*
X98260800Y-70190001D01*
X114690801Y-66460000D02*
X110960800Y-70190001D01*
X99530800Y-53680001D02*
X97625800Y-53680001D01*
X98240000Y-47140000D02*
X98510000Y-47410000D01*
X98510000Y-47410000D02*
X100880799Y-47410000D01*
X102070800Y-51140001D02*
X99530800Y-53680001D01*
X98240000Y-46140000D02*
X98240000Y-47140000D01*
X100880799Y-47410000D02*
X102070800Y-48600001D01*
X96990800Y-54315001D02*
X96990800Y-63840001D01*
X97625800Y-53680001D02*
X96990800Y-54315001D01*
X102070800Y-48600001D02*
X102070800Y-51140001D01*
X102070800Y-46219999D02*
X100880799Y-47410000D01*
X102070800Y-44790001D02*
X102070800Y-46219999D01*
X93180800Y-44155001D02*
X101435800Y-44155001D01*
X57620800Y-34075000D02*
X62503802Y-34075000D01*
X101435800Y-44155001D02*
X102070800Y-44790001D01*
X91910800Y-42885001D02*
X93180800Y-44155001D01*
X62503802Y-34075000D02*
X66313802Y-30265000D01*
X66313802Y-30265000D02*
X88815799Y-30265000D01*
X88815799Y-30265000D02*
X91910800Y-33360001D01*
X56350800Y-32805000D02*
X57620800Y-34075000D01*
X91910800Y-33360001D02*
X91910800Y-42885001D01*
X30950800Y-53125000D02*
X30950800Y-60110000D01*
X24600800Y-66460000D02*
X22010000Y-66460000D01*
X42380800Y-32805000D02*
X37935800Y-28360000D01*
X53175800Y-32805000D02*
X42380800Y-32805000D01*
X30950800Y-60110000D02*
X24600800Y-66460000D01*
X37935800Y-28360000D02*
X30315800Y-28360000D01*
X30315800Y-28360000D02*
X28410800Y-30265000D01*
X28410800Y-30265000D02*
X28410800Y-46140000D01*
X28410800Y-46140000D02*
X29045800Y-46775000D01*
X29045800Y-46775000D02*
X29045800Y-48045000D01*
X29045800Y-48045000D02*
X28410800Y-48680000D01*
X28410800Y-48680000D02*
X28410800Y-50585000D01*
X28410800Y-50585000D02*
X30950800Y-53125000D01*
G04 #@! TO.N,/CANL*
X69000000Y-23330800D02*
X67780800Y-24550000D01*
X69000000Y-22010000D02*
X69000000Y-23330800D01*
X67780800Y-24550000D02*
X62700800Y-24550000D01*
X62700800Y-24550000D02*
X58255800Y-28995000D01*
X58255800Y-28995000D02*
X54445800Y-32805000D01*
X54445800Y-32805000D02*
X54445800Y-32805000D01*
X54445800Y-33440000D02*
X54445800Y-32805000D01*
X54445800Y-33440000D02*
X55715800Y-34710000D01*
X55715800Y-34710000D02*
X63335800Y-34710000D01*
X63335800Y-34710000D02*
X66510800Y-31535000D01*
X66510800Y-31535000D02*
X88735800Y-31535000D01*
X88735800Y-31535000D02*
X90640800Y-33440000D01*
X90640800Y-33440000D02*
X90640800Y-42965000D01*
X90640800Y-42965000D02*
X88100800Y-45505000D01*
X88100800Y-45505000D02*
X88100800Y-46775000D01*
X89370800Y-48045000D02*
X97406600Y-48045000D01*
X88100800Y-46775000D02*
X89370800Y-48045000D01*
X69000000Y-114787919D02*
X69000000Y-115990000D01*
X63970800Y-75350000D02*
X63970800Y-109758719D01*
X68415800Y-70905000D02*
X63970800Y-75350000D01*
X63970800Y-109758719D02*
X69000000Y-114787919D01*
X98210000Y-48848400D02*
X98210000Y-49950000D01*
X97406600Y-48045000D02*
X98210000Y-48848400D01*
X95720800Y-69635000D02*
X94450800Y-70905000D01*
X95720800Y-53680001D02*
X95720800Y-69635000D01*
X96990800Y-52410001D02*
X95720800Y-53680001D01*
X99530800Y-52410001D02*
X96990800Y-52410001D01*
X94450800Y-70905000D02*
X68415800Y-70905000D01*
X100800800Y-48600001D02*
X101435800Y-49235001D01*
X101435800Y-50505001D02*
X99530800Y-52410001D01*
X98210000Y-49950000D02*
X98210000Y-48950000D01*
X101435800Y-49235001D02*
X101435800Y-50505001D01*
X98559999Y-48600001D02*
X100800800Y-48600001D01*
X98210000Y-48950000D02*
X98559999Y-48600001D01*
X96990800Y-70905000D02*
X95720800Y-69635000D01*
X112882919Y-70905000D02*
X96990800Y-70905000D01*
X114787919Y-69000000D02*
X112882919Y-70905000D01*
X115990000Y-69000000D02*
X114787919Y-69000000D01*
X24600800Y-69000000D02*
X22010000Y-69000000D01*
X32220800Y-61380000D02*
X24600800Y-69000000D01*
X32220800Y-53125000D02*
X32220800Y-61380000D01*
X53810800Y-34075000D02*
X42380800Y-34075000D01*
X54445800Y-33440000D02*
X53810800Y-34075000D01*
X42380800Y-34075000D02*
X37300800Y-28995000D01*
X37300800Y-28995000D02*
X31585800Y-28995000D01*
X29680800Y-30900000D02*
X29680800Y-50585000D01*
X31585800Y-28995000D02*
X29680800Y-30900000D01*
X29680800Y-50585000D02*
X32220800Y-53125000D01*
G04 #@! TO.N,Net-(S2-Pad2)*
X102070800Y-89955000D02*
X102070800Y-89955000D01*
X94450800Y-73445000D02*
X102070800Y-81065000D01*
X74660800Y-73445000D02*
X94450800Y-73445000D01*
X102070800Y-81065000D02*
X102070800Y-89955000D01*
X72860800Y-76620000D02*
X72860800Y-75245000D01*
X72860800Y-75245000D02*
X74660800Y-73445000D01*
G04 #@! TO.N,Net-(S1-Pad2)*
X34125800Y-89955000D02*
X34125800Y-89955000D01*
X34125800Y-80430000D02*
X34125800Y-89955000D01*
X50000800Y-61380000D02*
X50000800Y-64555000D01*
X50000800Y-64555000D02*
X34125800Y-80430000D01*
G04 #@! TO.N,Net-(S3-Pad2)*
X105245800Y-89955000D02*
X105245800Y-89955000D01*
X72755800Y-72810000D02*
X95085800Y-72810000D01*
X95085800Y-72810000D02*
X105245800Y-82970000D01*
X70320800Y-76620000D02*
X70320800Y-75245000D01*
X105245800Y-82970000D02*
X105245800Y-89955000D01*
X70320800Y-75245000D02*
X72755800Y-72810000D01*
G04 #@! TO.N,/X42_PB3*
X74130800Y-41060000D02*
X74130800Y-33995001D01*
X70320800Y-61380000D02*
X70320800Y-44870000D01*
X70320800Y-44870000D02*
X74130800Y-41060000D01*
G04 #@! TO.N,/X42_PB4*
X71590800Y-57570000D02*
X72860800Y-58840000D01*
X72860800Y-58840000D02*
X72860800Y-61380000D01*
X71590800Y-57570000D02*
X71590800Y-45505000D01*
X76670800Y-40425000D02*
X76670800Y-33995001D01*
X71590800Y-45505000D02*
X76670800Y-40425000D01*
G04 #@! TO.N,/X42_PB5*
X72860800Y-46140000D02*
X79210800Y-39790000D01*
X79210800Y-39790000D02*
X79210800Y-33995001D01*
X72860800Y-56300000D02*
X72860800Y-46140000D01*
X75400800Y-61380000D02*
X75400800Y-58840000D01*
X75400800Y-58840000D02*
X72860800Y-56300000D01*
G04 #@! TO.N,/X42_SCL*
X74130800Y-55030000D02*
X77940800Y-58840000D01*
X77940800Y-61380000D02*
X77940800Y-58840000D01*
X74130800Y-55030000D02*
X74130800Y-46775000D01*
X81750800Y-39155000D02*
X81750800Y-33995001D01*
X74130800Y-46775000D02*
X81750800Y-39155000D01*
G04 #@! TO.N,/X42_SDA*
X84290800Y-38520000D02*
X84290800Y-33995001D01*
X75400800Y-47410000D02*
X84290800Y-38520000D01*
X75400800Y-53760000D02*
X75400800Y-47410000D01*
X80480800Y-61380000D02*
X80480800Y-58840000D01*
X80480800Y-58840000D02*
X75400800Y-53760000D01*
D28*
G04 #@! TO.N,Net-(J202-Pad1)*
X88100800Y-55599200D02*
X88700000Y-55000000D01*
X88100800Y-61380000D02*
X88100800Y-55599200D01*
D27*
G04 #@! TO.N,/TX1*
X55715800Y-57570000D02*
X57620800Y-59475000D01*
X42410000Y-57570000D02*
X55715800Y-57570000D01*
X57620800Y-59475000D02*
X57620800Y-61380000D01*
X33985000Y-49145000D02*
X42410000Y-57570000D01*
X33985000Y-48045000D02*
X33985000Y-49145000D01*
G04 #@! TO.N,/RX1*
X60160800Y-59475000D02*
X60160800Y-61380000D01*
X46825800Y-56300000D02*
X56985800Y-56300000D01*
X56985800Y-56300000D02*
X60160800Y-59475000D01*
X43577919Y-56300000D02*
X46825800Y-56300000D01*
X36525000Y-49247081D02*
X43577919Y-56300000D01*
X36525000Y-48045000D02*
X36525000Y-49247081D01*
G04 #@! TO.N,/USBD-*
X62700800Y-56300000D02*
X62700800Y-61380000D01*
X56350800Y-49950000D02*
X62700800Y-56300000D01*
X56350800Y-46775000D02*
X56350800Y-49950000D01*
X42395800Y-43600000D02*
X53175800Y-43600000D01*
X53175800Y-43600000D02*
X56350800Y-46775000D01*
G04 #@! TO.N,/USBD+*
X53175800Y-41060000D02*
X42380800Y-41060000D01*
X58890800Y-46775000D02*
X53175800Y-41060000D01*
X58890800Y-49950000D02*
X58890800Y-46775000D01*
X65240800Y-61380000D02*
X65240800Y-56300000D01*
X65240800Y-56300000D02*
X58890800Y-49950000D01*
G04 #@! TO.N,Net-(JU1-Pad1)*
X30950800Y-46775000D02*
X36665800Y-41060000D01*
X36665800Y-41060000D02*
X41080800Y-41060000D01*
G04 #@! TO.N,Net-(JU2-Pad1)*
X32220800Y-48045000D02*
X31585800Y-48680000D01*
X32220800Y-46775000D02*
X32220800Y-48045000D01*
X41095800Y-43600000D02*
X35395800Y-43600000D01*
X31585800Y-48680000D02*
X30950800Y-48680000D01*
X35395800Y-43600000D02*
X32220800Y-46775000D01*
G04 #@! TD*
D29*
G04 #@! TO.N,GND*
G36*
X114919375Y-72610625D02*
X115238478Y-72823843D01*
X115108642Y-72884817D01*
X114718355Y-73313076D01*
X114548524Y-73723110D01*
X114669845Y-73953000D01*
X115863000Y-73953000D01*
X115863000Y-73933000D01*
X116117000Y-73933000D01*
X116117000Y-73953000D01*
X116137000Y-73953000D01*
X116137000Y-74207000D01*
X116117000Y-74207000D01*
X116117000Y-75400819D01*
X116346892Y-75521486D01*
X116871358Y-75275183D01*
X117261645Y-74846924D01*
X117290000Y-74778465D01*
X117290000Y-117290000D01*
X74778465Y-117290000D01*
X74846924Y-117261645D01*
X75275183Y-116871358D01*
X75521486Y-116346892D01*
X75400819Y-116117000D01*
X74207000Y-116117000D01*
X74207000Y-116137000D01*
X73953000Y-116137000D01*
X73953000Y-116117000D01*
X73933000Y-116117000D01*
X73933000Y-115863000D01*
X73953000Y-115863000D01*
X73953000Y-114669845D01*
X74207000Y-114669845D01*
X74207000Y-115863000D01*
X75400819Y-115863000D01*
X75521486Y-115633108D01*
X75275183Y-115108642D01*
X74846924Y-114718355D01*
X74436890Y-114548524D01*
X74207000Y-114669845D01*
X73953000Y-114669845D01*
X73723110Y-114548524D01*
X73313076Y-114718355D01*
X72884817Y-115108642D01*
X72823843Y-115238478D01*
X72610625Y-114919375D01*
X72300000Y-114711822D01*
X72300000Y-114109046D01*
X72314888Y-114034199D01*
X72300000Y-113959352D01*
X72300000Y-113959348D01*
X72255904Y-113737663D01*
X72087929Y-113486271D01*
X72024473Y-113443871D01*
X70911131Y-112330530D01*
X70868729Y-112267071D01*
X70617337Y-112099096D01*
X70395652Y-112055000D01*
X70395647Y-112055000D01*
X70320800Y-112040112D01*
X70245953Y-112055000D01*
X69864487Y-112055000D01*
X70224947Y-111694540D01*
X70435800Y-111185494D01*
X70435800Y-110634506D01*
X70224947Y-110125460D01*
X69835340Y-109735853D01*
X69550800Y-109617993D01*
X69550800Y-106665132D01*
X70074189Y-107188521D01*
X70137511Y-107283289D01*
X70512945Y-107534146D01*
X70844017Y-107600000D01*
X70955799Y-107622235D01*
X71067581Y-107600000D01*
X75918217Y-107600000D01*
X76030000Y-107622235D01*
X76141783Y-107600000D01*
X76165000Y-107595382D01*
X76165001Y-112620512D01*
X76125853Y-112659660D01*
X75915000Y-113168706D01*
X75915000Y-113719694D01*
X76125853Y-114228740D01*
X76515460Y-114618347D01*
X77024506Y-114829200D01*
X77575494Y-114829200D01*
X78084540Y-114618347D01*
X78474147Y-114228740D01*
X78685000Y-113719694D01*
X78685000Y-113168706D01*
X78474147Y-112659660D01*
X78435000Y-112620513D01*
X78435000Y-105306783D01*
X78457235Y-105195001D01*
X78435000Y-105083217D01*
X78435000Y-104974281D01*
X78583843Y-104751522D01*
X78644817Y-104881358D01*
X79073076Y-105271645D01*
X79483110Y-105441476D01*
X79713000Y-105320155D01*
X79713000Y-104127000D01*
X79693000Y-104127000D01*
X79693000Y-103873000D01*
X79713000Y-103873000D01*
X79713000Y-102679845D01*
X79483110Y-102558524D01*
X79073076Y-102728355D01*
X78644817Y-103118642D01*
X78583843Y-103248478D01*
X78370625Y-102929375D01*
X77879418Y-102601161D01*
X77446256Y-102515000D01*
X77153744Y-102515000D01*
X76720582Y-102601161D01*
X76229375Y-102929375D01*
X76030000Y-103227761D01*
X75830625Y-102929375D01*
X75520000Y-102721822D01*
X75520000Y-98530601D01*
X78425276Y-95625327D01*
X78488729Y-95582929D01*
X78531127Y-95519476D01*
X78531129Y-95519474D01*
X78628689Y-95373464D01*
X78656704Y-95331537D01*
X78700800Y-95109852D01*
X78700800Y-95109848D01*
X78715688Y-95035001D01*
X78700800Y-94960154D01*
X78700800Y-78175934D01*
X79021230Y-77961830D01*
X79210800Y-77678119D01*
X79400370Y-77961830D01*
X79720800Y-78175935D01*
X79720801Y-94960148D01*
X79705912Y-95035000D01*
X79764897Y-95331537D01*
X79796787Y-95379263D01*
X79932872Y-95582929D01*
X79996328Y-95625329D01*
X81620000Y-97249002D01*
X81620001Y-102721821D01*
X81309375Y-102929375D01*
X81096157Y-103248478D01*
X81035183Y-103118642D01*
X80606924Y-102728355D01*
X80196890Y-102558524D01*
X79967000Y-102679845D01*
X79967000Y-103873000D01*
X79987000Y-103873000D01*
X79987000Y-104127000D01*
X79967000Y-104127000D01*
X79967000Y-105320155D01*
X80196890Y-105441476D01*
X80606924Y-105271645D01*
X81035183Y-104881358D01*
X81096157Y-104751522D01*
X81309375Y-105070625D01*
X81800582Y-105398839D01*
X82233744Y-105485000D01*
X82526256Y-105485000D01*
X82959418Y-105398839D01*
X83450625Y-105070625D01*
X83650000Y-104772239D01*
X83849375Y-105070625D01*
X84340582Y-105398839D01*
X84773744Y-105485000D01*
X85066256Y-105485000D01*
X85499418Y-105398839D01*
X85990625Y-105070625D01*
X86190000Y-104772239D01*
X86325000Y-104974281D01*
X86325000Y-105090297D01*
X86302765Y-105202081D01*
X86325000Y-105313864D01*
X86325001Y-112620512D01*
X86285853Y-112659660D01*
X86075000Y-113168706D01*
X86075000Y-113719694D01*
X86285853Y-114228740D01*
X86675460Y-114618347D01*
X87184506Y-114829200D01*
X87735494Y-114829200D01*
X88244540Y-114618347D01*
X88634147Y-114228740D01*
X88845000Y-113719694D01*
X88845000Y-113168706D01*
X88634147Y-112659660D01*
X88595000Y-112620513D01*
X88595000Y-107596791D01*
X88722918Y-107622235D01*
X88834701Y-107600000D01*
X93069017Y-107600000D01*
X93180800Y-107622235D01*
X93292583Y-107600000D01*
X93623655Y-107534146D01*
X93999089Y-107283289D01*
X94062413Y-107188518D01*
X95940932Y-105310000D01*
X95996294Y-105310000D01*
X96505340Y-105099147D01*
X96894947Y-104709540D01*
X97105800Y-104200494D01*
X97105800Y-103649506D01*
X96894947Y-103140460D01*
X96505340Y-102750853D01*
X95996294Y-102540000D01*
X95445306Y-102540000D01*
X94936260Y-102750853D01*
X94546653Y-103140460D01*
X94335800Y-103649506D01*
X94335800Y-103704868D01*
X92710669Y-105330000D01*
X91268026Y-105330000D01*
X91388327Y-105209698D01*
X91485000Y-104976309D01*
X91485000Y-104285750D01*
X91326250Y-104127000D01*
X90127000Y-104127000D01*
X90127000Y-104147000D01*
X89873000Y-104147000D01*
X89873000Y-104127000D01*
X89853000Y-104127000D01*
X89853000Y-103873000D01*
X89873000Y-103873000D01*
X89873000Y-102673750D01*
X90127000Y-102673750D01*
X90127000Y-103873000D01*
X91326250Y-103873000D01*
X91485000Y-103714250D01*
X91485000Y-103023691D01*
X91388327Y-102790302D01*
X91209699Y-102611673D01*
X90976310Y-102515000D01*
X90285750Y-102515000D01*
X90127000Y-102673750D01*
X89873000Y-102673750D01*
X89714250Y-102515000D01*
X89023690Y-102515000D01*
X88790301Y-102611673D01*
X88611673Y-102790302D01*
X88545096Y-102951033D01*
X88530625Y-102929375D01*
X88039418Y-102601161D01*
X87606256Y-102515000D01*
X87313744Y-102515000D01*
X86880582Y-102601161D01*
X86389375Y-102929375D01*
X86190000Y-103227761D01*
X85990625Y-102929375D01*
X85680000Y-102721822D01*
X85680000Y-95774007D01*
X85690902Y-95719199D01*
X85700688Y-95670001D01*
X85686953Y-95600949D01*
X85641704Y-95373462D01*
X85516129Y-95185527D01*
X85516124Y-95185522D01*
X85473728Y-95122072D01*
X85410278Y-95079676D01*
X83780800Y-93450199D01*
X83780800Y-78175934D01*
X84101230Y-77961830D01*
X84290800Y-77678119D01*
X84480370Y-77961830D01*
X84976075Y-78293050D01*
X85560800Y-78409359D01*
X86145524Y-78293050D01*
X86641230Y-77961830D01*
X86830800Y-77678119D01*
X87020370Y-77961830D01*
X87516075Y-78293050D01*
X88100800Y-78409359D01*
X88685524Y-78293050D01*
X89181230Y-77961830D01*
X89370800Y-77678119D01*
X89560370Y-77961830D01*
X90056075Y-78293050D01*
X90640800Y-78409359D01*
X91225524Y-78293050D01*
X91713868Y-77966749D01*
X91719043Y-77992765D01*
X91859391Y-78202809D01*
X92069435Y-78343157D01*
X92317200Y-78392440D01*
X94044400Y-78392440D01*
X94292165Y-78343157D01*
X94502209Y-78202809D01*
X94642557Y-77992765D01*
X94691840Y-77745000D01*
X94691840Y-75495000D01*
X94642557Y-75247235D01*
X94502209Y-75037191D01*
X94292165Y-74896843D01*
X94044400Y-74847560D01*
X92317200Y-74847560D01*
X92069435Y-74896843D01*
X91859391Y-75037191D01*
X91719043Y-75247235D01*
X91713868Y-75273251D01*
X91225525Y-74946950D01*
X90640800Y-74830641D01*
X90056076Y-74946950D01*
X89560370Y-75278170D01*
X89370800Y-75561881D01*
X89181230Y-75278170D01*
X88685525Y-74946950D01*
X88100800Y-74830641D01*
X87516076Y-74946950D01*
X87020370Y-75278170D01*
X86830800Y-75561881D01*
X86641230Y-75278170D01*
X86145525Y-74946950D01*
X85560800Y-74830641D01*
X84976076Y-74946950D01*
X84480370Y-75278170D01*
X84290800Y-75561881D01*
X84101230Y-75278170D01*
X83605525Y-74946950D01*
X83020800Y-74830641D01*
X82436076Y-74946950D01*
X81940370Y-75278170D01*
X81750800Y-75561881D01*
X81561230Y-75278170D01*
X81065525Y-74946950D01*
X80480800Y-74830641D01*
X79896076Y-74946950D01*
X79400370Y-75278170D01*
X79210800Y-75561881D01*
X79021230Y-75278170D01*
X78525525Y-74946950D01*
X77940800Y-74830641D01*
X77356076Y-74946950D01*
X76860370Y-75278170D01*
X76670800Y-75561881D01*
X76481230Y-75278170D01*
X75985525Y-74946950D01*
X75400800Y-74830641D01*
X74816076Y-74946950D01*
X74320370Y-75278170D01*
X74130800Y-75561881D01*
X73941230Y-75278170D01*
X73917972Y-75262630D01*
X74975603Y-74205000D01*
X94135999Y-74205000D01*
X101310800Y-81379803D01*
X101310801Y-89251288D01*
X101193369Y-89368720D01*
X101035800Y-89749126D01*
X101035800Y-90160874D01*
X101193369Y-90541280D01*
X101484520Y-90832431D01*
X101864926Y-90990000D01*
X102276674Y-90990000D01*
X102657080Y-90832431D01*
X102948231Y-90541280D01*
X103105800Y-90160874D01*
X103105800Y-89749126D01*
X102948231Y-89368720D01*
X102830800Y-89251289D01*
X102830800Y-81629802D01*
X104485800Y-83284802D01*
X104485801Y-89251288D01*
X104368369Y-89368720D01*
X104210800Y-89749126D01*
X104210800Y-90160874D01*
X104368369Y-90541280D01*
X104659520Y-90832431D01*
X105039926Y-90990000D01*
X105451674Y-90990000D01*
X105832080Y-90832431D01*
X106123231Y-90541280D01*
X106280800Y-90160874D01*
X106280800Y-89749126D01*
X106123231Y-89368720D01*
X106005800Y-89251289D01*
X106005800Y-83044848D01*
X106020688Y-82970000D01*
X106005800Y-82895152D01*
X106005800Y-82895148D01*
X105961704Y-82673463D01*
X105961704Y-82673462D01*
X105836129Y-82485527D01*
X105793729Y-82422071D01*
X105730273Y-82379671D01*
X99070602Y-75720000D01*
X101793360Y-75720000D01*
X101793360Y-77520000D01*
X101842643Y-77767765D01*
X101982991Y-77977809D01*
X102193035Y-78118157D01*
X102440800Y-78167440D01*
X104240800Y-78167440D01*
X104488565Y-78118157D01*
X104698609Y-77977809D01*
X104830858Y-77779886D01*
X104865690Y-77814718D01*
X104980247Y-77700161D01*
X105066652Y-77956643D01*
X105640136Y-78166458D01*
X106250260Y-78140839D01*
X106694948Y-77956643D01*
X106781354Y-77700159D01*
X105880800Y-76799605D01*
X105866658Y-76813748D01*
X105687053Y-76634143D01*
X105701195Y-76620000D01*
X106060405Y-76620000D01*
X106960959Y-77520554D01*
X107217443Y-77434148D01*
X107427258Y-76860664D01*
X107401639Y-76250540D01*
X107217443Y-75805852D01*
X106960959Y-75719446D01*
X106060405Y-76620000D01*
X105701195Y-76620000D01*
X105687053Y-76605858D01*
X105866658Y-76426253D01*
X105880800Y-76440395D01*
X106781354Y-75539841D01*
X106694948Y-75283357D01*
X106121464Y-75073542D01*
X105511340Y-75099161D01*
X105066652Y-75283357D01*
X104980247Y-75539839D01*
X104865690Y-75425282D01*
X104830858Y-75460114D01*
X104698609Y-75262191D01*
X104488565Y-75121843D01*
X104240800Y-75072560D01*
X102440800Y-75072560D01*
X102193035Y-75121843D01*
X101982991Y-75262191D01*
X101842643Y-75472235D01*
X101793360Y-75720000D01*
X99070602Y-75720000D01*
X97787492Y-74436890D01*
X114548524Y-74436890D01*
X114718355Y-74846924D01*
X115108642Y-75275183D01*
X115633108Y-75521486D01*
X115863000Y-75400819D01*
X115863000Y-74207000D01*
X114669845Y-74207000D01*
X114548524Y-74436890D01*
X97787492Y-74436890D01*
X95676131Y-72325530D01*
X95659072Y-72300000D01*
X114711822Y-72300000D01*
X114919375Y-72610625D01*
X114919375Y-72610625D01*
G37*
X114919375Y-72610625D02*
X115238478Y-72823843D01*
X115108642Y-72884817D01*
X114718355Y-73313076D01*
X114548524Y-73723110D01*
X114669845Y-73953000D01*
X115863000Y-73953000D01*
X115863000Y-73933000D01*
X116117000Y-73933000D01*
X116117000Y-73953000D01*
X116137000Y-73953000D01*
X116137000Y-74207000D01*
X116117000Y-74207000D01*
X116117000Y-75400819D01*
X116346892Y-75521486D01*
X116871358Y-75275183D01*
X117261645Y-74846924D01*
X117290000Y-74778465D01*
X117290000Y-117290000D01*
X74778465Y-117290000D01*
X74846924Y-117261645D01*
X75275183Y-116871358D01*
X75521486Y-116346892D01*
X75400819Y-116117000D01*
X74207000Y-116117000D01*
X74207000Y-116137000D01*
X73953000Y-116137000D01*
X73953000Y-116117000D01*
X73933000Y-116117000D01*
X73933000Y-115863000D01*
X73953000Y-115863000D01*
X73953000Y-114669845D01*
X74207000Y-114669845D01*
X74207000Y-115863000D01*
X75400819Y-115863000D01*
X75521486Y-115633108D01*
X75275183Y-115108642D01*
X74846924Y-114718355D01*
X74436890Y-114548524D01*
X74207000Y-114669845D01*
X73953000Y-114669845D01*
X73723110Y-114548524D01*
X73313076Y-114718355D01*
X72884817Y-115108642D01*
X72823843Y-115238478D01*
X72610625Y-114919375D01*
X72300000Y-114711822D01*
X72300000Y-114109046D01*
X72314888Y-114034199D01*
X72300000Y-113959352D01*
X72300000Y-113959348D01*
X72255904Y-113737663D01*
X72087929Y-113486271D01*
X72024473Y-113443871D01*
X70911131Y-112330530D01*
X70868729Y-112267071D01*
X70617337Y-112099096D01*
X70395652Y-112055000D01*
X70395647Y-112055000D01*
X70320800Y-112040112D01*
X70245953Y-112055000D01*
X69864487Y-112055000D01*
X70224947Y-111694540D01*
X70435800Y-111185494D01*
X70435800Y-110634506D01*
X70224947Y-110125460D01*
X69835340Y-109735853D01*
X69550800Y-109617993D01*
X69550800Y-106665132D01*
X70074189Y-107188521D01*
X70137511Y-107283289D01*
X70512945Y-107534146D01*
X70844017Y-107600000D01*
X70955799Y-107622235D01*
X71067581Y-107600000D01*
X75918217Y-107600000D01*
X76030000Y-107622235D01*
X76141783Y-107600000D01*
X76165000Y-107595382D01*
X76165001Y-112620512D01*
X76125853Y-112659660D01*
X75915000Y-113168706D01*
X75915000Y-113719694D01*
X76125853Y-114228740D01*
X76515460Y-114618347D01*
X77024506Y-114829200D01*
X77575494Y-114829200D01*
X78084540Y-114618347D01*
X78474147Y-114228740D01*
X78685000Y-113719694D01*
X78685000Y-113168706D01*
X78474147Y-112659660D01*
X78435000Y-112620513D01*
X78435000Y-105306783D01*
X78457235Y-105195001D01*
X78435000Y-105083217D01*
X78435000Y-104974281D01*
X78583843Y-104751522D01*
X78644817Y-104881358D01*
X79073076Y-105271645D01*
X79483110Y-105441476D01*
X79713000Y-105320155D01*
X79713000Y-104127000D01*
X79693000Y-104127000D01*
X79693000Y-103873000D01*
X79713000Y-103873000D01*
X79713000Y-102679845D01*
X79483110Y-102558524D01*
X79073076Y-102728355D01*
X78644817Y-103118642D01*
X78583843Y-103248478D01*
X78370625Y-102929375D01*
X77879418Y-102601161D01*
X77446256Y-102515000D01*
X77153744Y-102515000D01*
X76720582Y-102601161D01*
X76229375Y-102929375D01*
X76030000Y-103227761D01*
X75830625Y-102929375D01*
X75520000Y-102721822D01*
X75520000Y-98530601D01*
X78425276Y-95625327D01*
X78488729Y-95582929D01*
X78531127Y-95519476D01*
X78531129Y-95519474D01*
X78628689Y-95373464D01*
X78656704Y-95331537D01*
X78700800Y-95109852D01*
X78700800Y-95109848D01*
X78715688Y-95035001D01*
X78700800Y-94960154D01*
X78700800Y-78175934D01*
X79021230Y-77961830D01*
X79210800Y-77678119D01*
X79400370Y-77961830D01*
X79720800Y-78175935D01*
X79720801Y-94960148D01*
X79705912Y-95035000D01*
X79764897Y-95331537D01*
X79796787Y-95379263D01*
X79932872Y-95582929D01*
X79996328Y-95625329D01*
X81620000Y-97249002D01*
X81620001Y-102721821D01*
X81309375Y-102929375D01*
X81096157Y-103248478D01*
X81035183Y-103118642D01*
X80606924Y-102728355D01*
X80196890Y-102558524D01*
X79967000Y-102679845D01*
X79967000Y-103873000D01*
X79987000Y-103873000D01*
X79987000Y-104127000D01*
X79967000Y-104127000D01*
X79967000Y-105320155D01*
X80196890Y-105441476D01*
X80606924Y-105271645D01*
X81035183Y-104881358D01*
X81096157Y-104751522D01*
X81309375Y-105070625D01*
X81800582Y-105398839D01*
X82233744Y-105485000D01*
X82526256Y-105485000D01*
X82959418Y-105398839D01*
X83450625Y-105070625D01*
X83650000Y-104772239D01*
X83849375Y-105070625D01*
X84340582Y-105398839D01*
X84773744Y-105485000D01*
X85066256Y-105485000D01*
X85499418Y-105398839D01*
X85990625Y-105070625D01*
X86190000Y-104772239D01*
X86325000Y-104974281D01*
X86325000Y-105090297D01*
X86302765Y-105202081D01*
X86325000Y-105313864D01*
X86325001Y-112620512D01*
X86285853Y-112659660D01*
X86075000Y-113168706D01*
X86075000Y-113719694D01*
X86285853Y-114228740D01*
X86675460Y-114618347D01*
X87184506Y-114829200D01*
X87735494Y-114829200D01*
X88244540Y-114618347D01*
X88634147Y-114228740D01*
X88845000Y-113719694D01*
X88845000Y-113168706D01*
X88634147Y-112659660D01*
X88595000Y-112620513D01*
X88595000Y-107596791D01*
X88722918Y-107622235D01*
X88834701Y-107600000D01*
X93069017Y-107600000D01*
X93180800Y-107622235D01*
X93292583Y-107600000D01*
X93623655Y-107534146D01*
X93999089Y-107283289D01*
X94062413Y-107188518D01*
X95940932Y-105310000D01*
X95996294Y-105310000D01*
X96505340Y-105099147D01*
X96894947Y-104709540D01*
X97105800Y-104200494D01*
X97105800Y-103649506D01*
X96894947Y-103140460D01*
X96505340Y-102750853D01*
X95996294Y-102540000D01*
X95445306Y-102540000D01*
X94936260Y-102750853D01*
X94546653Y-103140460D01*
X94335800Y-103649506D01*
X94335800Y-103704868D01*
X92710669Y-105330000D01*
X91268026Y-105330000D01*
X91388327Y-105209698D01*
X91485000Y-104976309D01*
X91485000Y-104285750D01*
X91326250Y-104127000D01*
X90127000Y-104127000D01*
X90127000Y-104147000D01*
X89873000Y-104147000D01*
X89873000Y-104127000D01*
X89853000Y-104127000D01*
X89853000Y-103873000D01*
X89873000Y-103873000D01*
X89873000Y-102673750D01*
X90127000Y-102673750D01*
X90127000Y-103873000D01*
X91326250Y-103873000D01*
X91485000Y-103714250D01*
X91485000Y-103023691D01*
X91388327Y-102790302D01*
X91209699Y-102611673D01*
X90976310Y-102515000D01*
X90285750Y-102515000D01*
X90127000Y-102673750D01*
X89873000Y-102673750D01*
X89714250Y-102515000D01*
X89023690Y-102515000D01*
X88790301Y-102611673D01*
X88611673Y-102790302D01*
X88545096Y-102951033D01*
X88530625Y-102929375D01*
X88039418Y-102601161D01*
X87606256Y-102515000D01*
X87313744Y-102515000D01*
X86880582Y-102601161D01*
X86389375Y-102929375D01*
X86190000Y-103227761D01*
X85990625Y-102929375D01*
X85680000Y-102721822D01*
X85680000Y-95774007D01*
X85690902Y-95719199D01*
X85700688Y-95670001D01*
X85686953Y-95600949D01*
X85641704Y-95373462D01*
X85516129Y-95185527D01*
X85516124Y-95185522D01*
X85473728Y-95122072D01*
X85410278Y-95079676D01*
X83780800Y-93450199D01*
X83780800Y-78175934D01*
X84101230Y-77961830D01*
X84290800Y-77678119D01*
X84480370Y-77961830D01*
X84976075Y-78293050D01*
X85560800Y-78409359D01*
X86145524Y-78293050D01*
X86641230Y-77961830D01*
X86830800Y-77678119D01*
X87020370Y-77961830D01*
X87516075Y-78293050D01*
X88100800Y-78409359D01*
X88685524Y-78293050D01*
X89181230Y-77961830D01*
X89370800Y-77678119D01*
X89560370Y-77961830D01*
X90056075Y-78293050D01*
X90640800Y-78409359D01*
X91225524Y-78293050D01*
X91713868Y-77966749D01*
X91719043Y-77992765D01*
X91859391Y-78202809D01*
X92069435Y-78343157D01*
X92317200Y-78392440D01*
X94044400Y-78392440D01*
X94292165Y-78343157D01*
X94502209Y-78202809D01*
X94642557Y-77992765D01*
X94691840Y-77745000D01*
X94691840Y-75495000D01*
X94642557Y-75247235D01*
X94502209Y-75037191D01*
X94292165Y-74896843D01*
X94044400Y-74847560D01*
X92317200Y-74847560D01*
X92069435Y-74896843D01*
X91859391Y-75037191D01*
X91719043Y-75247235D01*
X91713868Y-75273251D01*
X91225525Y-74946950D01*
X90640800Y-74830641D01*
X90056076Y-74946950D01*
X89560370Y-75278170D01*
X89370800Y-75561881D01*
X89181230Y-75278170D01*
X88685525Y-74946950D01*
X88100800Y-74830641D01*
X87516076Y-74946950D01*
X87020370Y-75278170D01*
X86830800Y-75561881D01*
X86641230Y-75278170D01*
X86145525Y-74946950D01*
X85560800Y-74830641D01*
X84976076Y-74946950D01*
X84480370Y-75278170D01*
X84290800Y-75561881D01*
X84101230Y-75278170D01*
X83605525Y-74946950D01*
X83020800Y-74830641D01*
X82436076Y-74946950D01*
X81940370Y-75278170D01*
X81750800Y-75561881D01*
X81561230Y-75278170D01*
X81065525Y-74946950D01*
X80480800Y-74830641D01*
X79896076Y-74946950D01*
X79400370Y-75278170D01*
X79210800Y-75561881D01*
X79021230Y-75278170D01*
X78525525Y-74946950D01*
X77940800Y-74830641D01*
X77356076Y-74946950D01*
X76860370Y-75278170D01*
X76670800Y-75561881D01*
X76481230Y-75278170D01*
X75985525Y-74946950D01*
X75400800Y-74830641D01*
X74816076Y-74946950D01*
X74320370Y-75278170D01*
X74130800Y-75561881D01*
X73941230Y-75278170D01*
X73917972Y-75262630D01*
X74975603Y-74205000D01*
X94135999Y-74205000D01*
X101310800Y-81379803D01*
X101310801Y-89251288D01*
X101193369Y-89368720D01*
X101035800Y-89749126D01*
X101035800Y-90160874D01*
X101193369Y-90541280D01*
X101484520Y-90832431D01*
X101864926Y-90990000D01*
X102276674Y-90990000D01*
X102657080Y-90832431D01*
X102948231Y-90541280D01*
X103105800Y-90160874D01*
X103105800Y-89749126D01*
X102948231Y-89368720D01*
X102830800Y-89251289D01*
X102830800Y-81629802D01*
X104485800Y-83284802D01*
X104485801Y-89251288D01*
X104368369Y-89368720D01*
X104210800Y-89749126D01*
X104210800Y-90160874D01*
X104368369Y-90541280D01*
X104659520Y-90832431D01*
X105039926Y-90990000D01*
X105451674Y-90990000D01*
X105832080Y-90832431D01*
X106123231Y-90541280D01*
X106280800Y-90160874D01*
X106280800Y-89749126D01*
X106123231Y-89368720D01*
X106005800Y-89251289D01*
X106005800Y-83044848D01*
X106020688Y-82970000D01*
X106005800Y-82895152D01*
X106005800Y-82895148D01*
X105961704Y-82673463D01*
X105961704Y-82673462D01*
X105836129Y-82485527D01*
X105793729Y-82422071D01*
X105730273Y-82379671D01*
X99070602Y-75720000D01*
X101793360Y-75720000D01*
X101793360Y-77520000D01*
X101842643Y-77767765D01*
X101982991Y-77977809D01*
X102193035Y-78118157D01*
X102440800Y-78167440D01*
X104240800Y-78167440D01*
X104488565Y-78118157D01*
X104698609Y-77977809D01*
X104830858Y-77779886D01*
X104865690Y-77814718D01*
X104980247Y-77700161D01*
X105066652Y-77956643D01*
X105640136Y-78166458D01*
X106250260Y-78140839D01*
X106694948Y-77956643D01*
X106781354Y-77700159D01*
X105880800Y-76799605D01*
X105866658Y-76813748D01*
X105687053Y-76634143D01*
X105701195Y-76620000D01*
X106060405Y-76620000D01*
X106960959Y-77520554D01*
X107217443Y-77434148D01*
X107427258Y-76860664D01*
X107401639Y-76250540D01*
X107217443Y-75805852D01*
X106960959Y-75719446D01*
X106060405Y-76620000D01*
X105701195Y-76620000D01*
X105687053Y-76605858D01*
X105866658Y-76426253D01*
X105880800Y-76440395D01*
X106781354Y-75539841D01*
X106694948Y-75283357D01*
X106121464Y-75073542D01*
X105511340Y-75099161D01*
X105066652Y-75283357D01*
X104980247Y-75539839D01*
X104865690Y-75425282D01*
X104830858Y-75460114D01*
X104698609Y-75262191D01*
X104488565Y-75121843D01*
X104240800Y-75072560D01*
X102440800Y-75072560D01*
X102193035Y-75121843D01*
X101982991Y-75262191D01*
X101842643Y-75472235D01*
X101793360Y-75720000D01*
X99070602Y-75720000D01*
X97787492Y-74436890D01*
X114548524Y-74436890D01*
X114718355Y-74846924D01*
X115108642Y-75275183D01*
X115633108Y-75521486D01*
X115863000Y-75400819D01*
X115863000Y-74207000D01*
X114669845Y-74207000D01*
X114548524Y-74436890D01*
X97787492Y-74436890D01*
X95676131Y-72325530D01*
X95659072Y-72300000D01*
X114711822Y-72300000D01*
X114919375Y-72610625D01*
G36*
X59080370Y-62721830D02*
X59576076Y-63053050D01*
X60160800Y-63169359D01*
X60589411Y-63084103D01*
X60589410Y-63659923D01*
X60310340Y-63380853D01*
X59801294Y-63170000D01*
X59250306Y-63170000D01*
X58741260Y-63380853D01*
X58351653Y-63770460D01*
X58140800Y-64279506D01*
X58140800Y-64830494D01*
X58351653Y-65339540D01*
X58490801Y-65478688D01*
X58490800Y-66404889D01*
X50054389Y-74841301D01*
X50000800Y-74830641D01*
X49416076Y-74946950D01*
X48920370Y-75278170D01*
X48722327Y-75574561D01*
X48430668Y-75209127D01*
X47916957Y-74925473D01*
X47819826Y-74903642D01*
X47587800Y-75024783D01*
X47587800Y-76493000D01*
X47607800Y-76493000D01*
X47607800Y-76747000D01*
X47587800Y-76747000D01*
X47587800Y-78215217D01*
X47819826Y-78336358D01*
X47916957Y-78314527D01*
X48430668Y-78030873D01*
X48722328Y-77665438D01*
X48920370Y-77961830D01*
X49416075Y-78293050D01*
X50000800Y-78409359D01*
X50585524Y-78293050D01*
X51081230Y-77961830D01*
X51270800Y-77678119D01*
X51460370Y-77961830D01*
X51956075Y-78293050D01*
X52540800Y-78409359D01*
X53125524Y-78293050D01*
X53621230Y-77961830D01*
X53810800Y-77678119D01*
X54000370Y-77961830D01*
X54496075Y-78293050D01*
X55080800Y-78409359D01*
X55665524Y-78293050D01*
X56161230Y-77961830D01*
X56350800Y-77678119D01*
X56540370Y-77961830D01*
X57036075Y-78293050D01*
X57620800Y-78409359D01*
X58205524Y-78293050D01*
X58701230Y-77961830D01*
X58890800Y-77678119D01*
X59080370Y-77961830D01*
X59576075Y-78293050D01*
X60160800Y-78409359D01*
X60670801Y-78307913D01*
X60670800Y-109565153D01*
X60655912Y-109640000D01*
X60670800Y-109714847D01*
X60670800Y-109714851D01*
X60714896Y-109936536D01*
X60882871Y-110187929D01*
X60946330Y-110230331D01*
X65536840Y-114820842D01*
X65389375Y-114919375D01*
X65377184Y-114937619D01*
X65368157Y-114892235D01*
X65227809Y-114682191D01*
X65017765Y-114541843D01*
X64770000Y-114492560D01*
X63070000Y-114492560D01*
X62822235Y-114541843D01*
X62612191Y-114682191D01*
X62471843Y-114892235D01*
X62422560Y-115140000D01*
X62422560Y-116840000D01*
X62471843Y-117087765D01*
X62606973Y-117290000D01*
X20710000Y-117290000D01*
X20710000Y-106740910D01*
X45438695Y-106740910D01*
X45805640Y-107236343D01*
X47211171Y-107829736D01*
X48736793Y-107840087D01*
X50150246Y-107265819D01*
X50194360Y-107236343D01*
X50561305Y-106740910D01*
X48000000Y-104179605D01*
X45438695Y-106740910D01*
X20710000Y-106740910D01*
X20710000Y-105922341D01*
X20939375Y-106265625D01*
X21430582Y-106593839D01*
X21863744Y-106680000D01*
X22156256Y-106680000D01*
X22589418Y-106593839D01*
X22984281Y-106330000D01*
X23219017Y-106330000D01*
X23330800Y-106352235D01*
X23442583Y-106330000D01*
X23773655Y-106264146D01*
X24149089Y-106013289D01*
X24212413Y-105918518D01*
X25008360Y-105122572D01*
X25008360Y-106045000D01*
X25057643Y-106292765D01*
X25197991Y-106502809D01*
X25408035Y-106643157D01*
X25655800Y-106692440D01*
X27355800Y-106692440D01*
X27603565Y-106643157D01*
X27813609Y-106502809D01*
X27953957Y-106292765D01*
X28003240Y-106045000D01*
X28003240Y-105924648D01*
X28072337Y-105910904D01*
X28323729Y-105742929D01*
X28366131Y-105679470D01*
X29308808Y-104736793D01*
X44159913Y-104736793D01*
X44734181Y-106150246D01*
X44763657Y-106194360D01*
X45259090Y-106561305D01*
X47820395Y-104000000D01*
X48179605Y-104000000D01*
X50740910Y-106561305D01*
X51236343Y-106194360D01*
X51829736Y-104788829D01*
X51840087Y-103263207D01*
X51265819Y-101849754D01*
X51236343Y-101805640D01*
X50740910Y-101438695D01*
X48179605Y-104000000D01*
X47820395Y-104000000D01*
X45259090Y-101438695D01*
X44763657Y-101805640D01*
X44170264Y-103211171D01*
X44159913Y-104736793D01*
X29308808Y-104736793D01*
X32786511Y-101259090D01*
X45438695Y-101259090D01*
X48000000Y-103820395D01*
X50561305Y-101259090D01*
X50194360Y-100763657D01*
X48788829Y-100170264D01*
X47263207Y-100159913D01*
X45849754Y-100734181D01*
X45805640Y-100763657D01*
X45438695Y-101259090D01*
X32786511Y-101259090D01*
X36515273Y-97530329D01*
X36578729Y-97487929D01*
X36746704Y-97236537D01*
X36790800Y-97014852D01*
X36790800Y-97014847D01*
X36805688Y-96940000D01*
X36790800Y-96865153D01*
X36790800Y-80109801D01*
X40153601Y-76747000D01*
X43422200Y-76747000D01*
X43422200Y-77008400D01*
X43584875Y-77572222D01*
X43950932Y-78030873D01*
X44464643Y-78314527D01*
X44561774Y-78336358D01*
X44793800Y-78215217D01*
X44793800Y-76747000D01*
X45047800Y-76747000D01*
X45047800Y-78215217D01*
X45279826Y-78336358D01*
X45376957Y-78314527D01*
X45890668Y-78030873D01*
X46190800Y-77654823D01*
X46490932Y-78030873D01*
X47004643Y-78314527D01*
X47101774Y-78336358D01*
X47333800Y-78215217D01*
X47333800Y-76747000D01*
X45047800Y-76747000D01*
X44793800Y-76747000D01*
X43422200Y-76747000D01*
X40153601Y-76747000D01*
X40669001Y-76231600D01*
X43422200Y-76231600D01*
X43422200Y-76493000D01*
X44793800Y-76493000D01*
X44793800Y-75024783D01*
X45047800Y-75024783D01*
X45047800Y-76493000D01*
X47333800Y-76493000D01*
X47333800Y-75024783D01*
X47101774Y-74903642D01*
X47004643Y-74925473D01*
X46490932Y-75209127D01*
X46190800Y-75585177D01*
X45890668Y-75209127D01*
X45376957Y-74925473D01*
X45279826Y-74903642D01*
X45047800Y-75024783D01*
X44793800Y-75024783D01*
X44561774Y-74903642D01*
X44464643Y-74925473D01*
X43950932Y-75209127D01*
X43584875Y-75667778D01*
X43422200Y-76231600D01*
X40669001Y-76231600D01*
X53025273Y-63875329D01*
X53088729Y-63832929D01*
X53256704Y-63581537D01*
X53300800Y-63359852D01*
X53300800Y-63359847D01*
X53315688Y-63285000D01*
X53300800Y-63210153D01*
X53300800Y-62935935D01*
X53621230Y-62721830D01*
X53810800Y-62438119D01*
X54000370Y-62721830D01*
X54496076Y-63053050D01*
X55080800Y-63169359D01*
X55665525Y-63053050D01*
X56161230Y-62721830D01*
X56350800Y-62438119D01*
X56540370Y-62721830D01*
X57036076Y-63053050D01*
X57620800Y-63169359D01*
X58205525Y-63053050D01*
X58701230Y-62721830D01*
X58890800Y-62438119D01*
X59080370Y-62721830D01*
X59080370Y-62721830D01*
G37*
X59080370Y-62721830D02*
X59576076Y-63053050D01*
X60160800Y-63169359D01*
X60589411Y-63084103D01*
X60589410Y-63659923D01*
X60310340Y-63380853D01*
X59801294Y-63170000D01*
X59250306Y-63170000D01*
X58741260Y-63380853D01*
X58351653Y-63770460D01*
X58140800Y-64279506D01*
X58140800Y-64830494D01*
X58351653Y-65339540D01*
X58490801Y-65478688D01*
X58490800Y-66404889D01*
X50054389Y-74841301D01*
X50000800Y-74830641D01*
X49416076Y-74946950D01*
X48920370Y-75278170D01*
X48722327Y-75574561D01*
X48430668Y-75209127D01*
X47916957Y-74925473D01*
X47819826Y-74903642D01*
X47587800Y-75024783D01*
X47587800Y-76493000D01*
X47607800Y-76493000D01*
X47607800Y-76747000D01*
X47587800Y-76747000D01*
X47587800Y-78215217D01*
X47819826Y-78336358D01*
X47916957Y-78314527D01*
X48430668Y-78030873D01*
X48722328Y-77665438D01*
X48920370Y-77961830D01*
X49416075Y-78293050D01*
X50000800Y-78409359D01*
X50585524Y-78293050D01*
X51081230Y-77961830D01*
X51270800Y-77678119D01*
X51460370Y-77961830D01*
X51956075Y-78293050D01*
X52540800Y-78409359D01*
X53125524Y-78293050D01*
X53621230Y-77961830D01*
X53810800Y-77678119D01*
X54000370Y-77961830D01*
X54496075Y-78293050D01*
X55080800Y-78409359D01*
X55665524Y-78293050D01*
X56161230Y-77961830D01*
X56350800Y-77678119D01*
X56540370Y-77961830D01*
X57036075Y-78293050D01*
X57620800Y-78409359D01*
X58205524Y-78293050D01*
X58701230Y-77961830D01*
X58890800Y-77678119D01*
X59080370Y-77961830D01*
X59576075Y-78293050D01*
X60160800Y-78409359D01*
X60670801Y-78307913D01*
X60670800Y-109565153D01*
X60655912Y-109640000D01*
X60670800Y-109714847D01*
X60670800Y-109714851D01*
X60714896Y-109936536D01*
X60882871Y-110187929D01*
X60946330Y-110230331D01*
X65536840Y-114820842D01*
X65389375Y-114919375D01*
X65377184Y-114937619D01*
X65368157Y-114892235D01*
X65227809Y-114682191D01*
X65017765Y-114541843D01*
X64770000Y-114492560D01*
X63070000Y-114492560D01*
X62822235Y-114541843D01*
X62612191Y-114682191D01*
X62471843Y-114892235D01*
X62422560Y-115140000D01*
X62422560Y-116840000D01*
X62471843Y-117087765D01*
X62606973Y-117290000D01*
X20710000Y-117290000D01*
X20710000Y-106740910D01*
X45438695Y-106740910D01*
X45805640Y-107236343D01*
X47211171Y-107829736D01*
X48736793Y-107840087D01*
X50150246Y-107265819D01*
X50194360Y-107236343D01*
X50561305Y-106740910D01*
X48000000Y-104179605D01*
X45438695Y-106740910D01*
X20710000Y-106740910D01*
X20710000Y-105922341D01*
X20939375Y-106265625D01*
X21430582Y-106593839D01*
X21863744Y-106680000D01*
X22156256Y-106680000D01*
X22589418Y-106593839D01*
X22984281Y-106330000D01*
X23219017Y-106330000D01*
X23330800Y-106352235D01*
X23442583Y-106330000D01*
X23773655Y-106264146D01*
X24149089Y-106013289D01*
X24212413Y-105918518D01*
X25008360Y-105122572D01*
X25008360Y-106045000D01*
X25057643Y-106292765D01*
X25197991Y-106502809D01*
X25408035Y-106643157D01*
X25655800Y-106692440D01*
X27355800Y-106692440D01*
X27603565Y-106643157D01*
X27813609Y-106502809D01*
X27953957Y-106292765D01*
X28003240Y-106045000D01*
X28003240Y-105924648D01*
X28072337Y-105910904D01*
X28323729Y-105742929D01*
X28366131Y-105679470D01*
X29308808Y-104736793D01*
X44159913Y-104736793D01*
X44734181Y-106150246D01*
X44763657Y-106194360D01*
X45259090Y-106561305D01*
X47820395Y-104000000D01*
X48179605Y-104000000D01*
X50740910Y-106561305D01*
X51236343Y-106194360D01*
X51829736Y-104788829D01*
X51840087Y-103263207D01*
X51265819Y-101849754D01*
X51236343Y-101805640D01*
X50740910Y-101438695D01*
X48179605Y-104000000D01*
X47820395Y-104000000D01*
X45259090Y-101438695D01*
X44763657Y-101805640D01*
X44170264Y-103211171D01*
X44159913Y-104736793D01*
X29308808Y-104736793D01*
X32786511Y-101259090D01*
X45438695Y-101259090D01*
X48000000Y-103820395D01*
X50561305Y-101259090D01*
X50194360Y-100763657D01*
X48788829Y-100170264D01*
X47263207Y-100159913D01*
X45849754Y-100734181D01*
X45805640Y-100763657D01*
X45438695Y-101259090D01*
X32786511Y-101259090D01*
X36515273Y-97530329D01*
X36578729Y-97487929D01*
X36746704Y-97236537D01*
X36790800Y-97014852D01*
X36790800Y-97014847D01*
X36805688Y-96940000D01*
X36790800Y-96865153D01*
X36790800Y-80109801D01*
X40153601Y-76747000D01*
X43422200Y-76747000D01*
X43422200Y-77008400D01*
X43584875Y-77572222D01*
X43950932Y-78030873D01*
X44464643Y-78314527D01*
X44561774Y-78336358D01*
X44793800Y-78215217D01*
X44793800Y-76747000D01*
X45047800Y-76747000D01*
X45047800Y-78215217D01*
X45279826Y-78336358D01*
X45376957Y-78314527D01*
X45890668Y-78030873D01*
X46190800Y-77654823D01*
X46490932Y-78030873D01*
X47004643Y-78314527D01*
X47101774Y-78336358D01*
X47333800Y-78215217D01*
X47333800Y-76747000D01*
X45047800Y-76747000D01*
X44793800Y-76747000D01*
X43422200Y-76747000D01*
X40153601Y-76747000D01*
X40669001Y-76231600D01*
X43422200Y-76231600D01*
X43422200Y-76493000D01*
X44793800Y-76493000D01*
X44793800Y-75024783D01*
X45047800Y-75024783D01*
X45047800Y-76493000D01*
X47333800Y-76493000D01*
X47333800Y-75024783D01*
X47101774Y-74903642D01*
X47004643Y-74925473D01*
X46490932Y-75209127D01*
X46190800Y-75585177D01*
X45890668Y-75209127D01*
X45376957Y-74925473D01*
X45279826Y-74903642D01*
X45047800Y-75024783D01*
X44793800Y-75024783D01*
X44561774Y-74903642D01*
X44464643Y-74925473D01*
X43950932Y-75209127D01*
X43584875Y-75667778D01*
X43422200Y-76231600D01*
X40669001Y-76231600D01*
X53025273Y-63875329D01*
X53088729Y-63832929D01*
X53256704Y-63581537D01*
X53300800Y-63359852D01*
X53300800Y-63359847D01*
X53315688Y-63285000D01*
X53300800Y-63210153D01*
X53300800Y-62935935D01*
X53621230Y-62721830D01*
X53810800Y-62438119D01*
X54000370Y-62721830D01*
X54496076Y-63053050D01*
X55080800Y-63169359D01*
X55665525Y-63053050D01*
X56161230Y-62721830D01*
X56350800Y-62438119D01*
X56540370Y-62721830D01*
X57036076Y-63053050D01*
X57620800Y-63169359D01*
X58205525Y-63053050D01*
X58701230Y-62721830D01*
X58890800Y-62438119D01*
X59080370Y-62721830D01*
G36*
X74320370Y-77961830D02*
X74640800Y-78175935D01*
X74640801Y-93450196D01*
X71735530Y-96355469D01*
X71672071Y-96397871D01*
X71504096Y-96649264D01*
X71460000Y-96870949D01*
X71460000Y-96870953D01*
X71445112Y-96945800D01*
X71460000Y-97020647D01*
X71460001Y-102721821D01*
X71149375Y-102929375D01*
X70821161Y-103420582D01*
X70705908Y-104000000D01*
X70821161Y-104579418D01*
X71114777Y-105018845D01*
X69800800Y-103704869D01*
X69800800Y-103649506D01*
X69589947Y-103140460D01*
X69200340Y-102750853D01*
X68691294Y-102540000D01*
X68140306Y-102540000D01*
X67631260Y-102750853D01*
X67241653Y-103140460D01*
X67030800Y-103649506D01*
X67030800Y-104200494D01*
X67241653Y-104709540D01*
X67280801Y-104748688D01*
X67280800Y-110163217D01*
X67258565Y-110275000D01*
X67310005Y-110533608D01*
X67335033Y-110659432D01*
X66000800Y-109325199D01*
X66000800Y-90240750D01*
X66295800Y-90240750D01*
X66295800Y-90931309D01*
X66392473Y-91164698D01*
X66571101Y-91343327D01*
X66804490Y-91440000D01*
X67495050Y-91440000D01*
X67653800Y-91281250D01*
X67653800Y-90082000D01*
X66454550Y-90082000D01*
X66295800Y-90240750D01*
X66000800Y-90240750D01*
X66000800Y-88978691D01*
X66295800Y-88978691D01*
X66295800Y-89669250D01*
X66454550Y-89828000D01*
X67653800Y-89828000D01*
X67653800Y-88628750D01*
X67907800Y-88628750D01*
X67907800Y-89828000D01*
X67927800Y-89828000D01*
X67927800Y-90082000D01*
X67907800Y-90082000D01*
X67907800Y-91281250D01*
X68066550Y-91440000D01*
X68757110Y-91440000D01*
X68990499Y-91343327D01*
X69169127Y-91164698D01*
X69235704Y-91003967D01*
X69250175Y-91025625D01*
X69741382Y-91353839D01*
X70174544Y-91440000D01*
X70467056Y-91440000D01*
X70900218Y-91353839D01*
X71391425Y-91025625D01*
X71719639Y-90534418D01*
X71834892Y-89955000D01*
X71719639Y-89375582D01*
X71391425Y-88884375D01*
X70900218Y-88556161D01*
X70467056Y-88470000D01*
X70174544Y-88470000D01*
X69741382Y-88556161D01*
X69250175Y-88884375D01*
X69235704Y-88906033D01*
X69169127Y-88745302D01*
X68990499Y-88566673D01*
X68757110Y-88470000D01*
X68066550Y-88470000D01*
X67907800Y-88628750D01*
X67653800Y-88628750D01*
X67495050Y-88470000D01*
X66804490Y-88470000D01*
X66571101Y-88566673D01*
X66392473Y-88745302D01*
X66295800Y-88978691D01*
X66000800Y-88978691D01*
X66000800Y-78175934D01*
X66321230Y-77961830D01*
X66510800Y-77678119D01*
X66700370Y-77961830D01*
X67196075Y-78293050D01*
X67780800Y-78409359D01*
X68365524Y-78293050D01*
X68861230Y-77961830D01*
X69050800Y-77678119D01*
X69240370Y-77961830D01*
X69736075Y-78293050D01*
X70320800Y-78409359D01*
X70905524Y-78293050D01*
X71401230Y-77961830D01*
X71590800Y-77678119D01*
X71780370Y-77961830D01*
X72276075Y-78293050D01*
X72860800Y-78409359D01*
X73445524Y-78293050D01*
X73941230Y-77961830D01*
X74130800Y-77678119D01*
X74320370Y-77961830D01*
X74320370Y-77961830D01*
G37*
X74320370Y-77961830D02*
X74640800Y-78175935D01*
X74640801Y-93450196D01*
X71735530Y-96355469D01*
X71672071Y-96397871D01*
X71504096Y-96649264D01*
X71460000Y-96870949D01*
X71460000Y-96870953D01*
X71445112Y-96945800D01*
X71460000Y-97020647D01*
X71460001Y-102721821D01*
X71149375Y-102929375D01*
X70821161Y-103420582D01*
X70705908Y-104000000D01*
X70821161Y-104579418D01*
X71114777Y-105018845D01*
X69800800Y-103704869D01*
X69800800Y-103649506D01*
X69589947Y-103140460D01*
X69200340Y-102750853D01*
X68691294Y-102540000D01*
X68140306Y-102540000D01*
X67631260Y-102750853D01*
X67241653Y-103140460D01*
X67030800Y-103649506D01*
X67030800Y-104200494D01*
X67241653Y-104709540D01*
X67280801Y-104748688D01*
X67280800Y-110163217D01*
X67258565Y-110275000D01*
X67310005Y-110533608D01*
X67335033Y-110659432D01*
X66000800Y-109325199D01*
X66000800Y-90240750D01*
X66295800Y-90240750D01*
X66295800Y-90931309D01*
X66392473Y-91164698D01*
X66571101Y-91343327D01*
X66804490Y-91440000D01*
X67495050Y-91440000D01*
X67653800Y-91281250D01*
X67653800Y-90082000D01*
X66454550Y-90082000D01*
X66295800Y-90240750D01*
X66000800Y-90240750D01*
X66000800Y-88978691D01*
X66295800Y-88978691D01*
X66295800Y-89669250D01*
X66454550Y-89828000D01*
X67653800Y-89828000D01*
X67653800Y-88628750D01*
X67907800Y-88628750D01*
X67907800Y-89828000D01*
X67927800Y-89828000D01*
X67927800Y-90082000D01*
X67907800Y-90082000D01*
X67907800Y-91281250D01*
X68066550Y-91440000D01*
X68757110Y-91440000D01*
X68990499Y-91343327D01*
X69169127Y-91164698D01*
X69235704Y-91003967D01*
X69250175Y-91025625D01*
X69741382Y-91353839D01*
X70174544Y-91440000D01*
X70467056Y-91440000D01*
X70900218Y-91353839D01*
X71391425Y-91025625D01*
X71719639Y-90534418D01*
X71834892Y-89955000D01*
X71719639Y-89375582D01*
X71391425Y-88884375D01*
X70900218Y-88556161D01*
X70467056Y-88470000D01*
X70174544Y-88470000D01*
X69741382Y-88556161D01*
X69250175Y-88884375D01*
X69235704Y-88906033D01*
X69169127Y-88745302D01*
X68990499Y-88566673D01*
X68757110Y-88470000D01*
X68066550Y-88470000D01*
X67907800Y-88628750D01*
X67653800Y-88628750D01*
X67495050Y-88470000D01*
X66804490Y-88470000D01*
X66571101Y-88566673D01*
X66392473Y-88745302D01*
X66295800Y-88978691D01*
X66000800Y-88978691D01*
X66000800Y-78175934D01*
X66321230Y-77961830D01*
X66510800Y-77678119D01*
X66700370Y-77961830D01*
X67196075Y-78293050D01*
X67780800Y-78409359D01*
X68365524Y-78293050D01*
X68861230Y-77961830D01*
X69050800Y-77678119D01*
X69240370Y-77961830D01*
X69736075Y-78293050D01*
X70320800Y-78409359D01*
X70905524Y-78293050D01*
X71401230Y-77961830D01*
X71590800Y-77678119D01*
X71780370Y-77961830D01*
X72276075Y-78293050D01*
X72860800Y-78409359D01*
X73445524Y-78293050D01*
X73941230Y-77961830D01*
X74130800Y-77678119D01*
X74320370Y-77961830D01*
G36*
X43509150Y-62226125D02*
X43840370Y-62721830D01*
X44336076Y-63053050D01*
X44920800Y-63169359D01*
X45505525Y-63053050D01*
X46001230Y-62721830D01*
X46190800Y-62438119D01*
X46380370Y-62721830D01*
X46876076Y-63053050D01*
X47460800Y-63169359D01*
X48045525Y-63053050D01*
X48541230Y-62721830D01*
X48730800Y-62438119D01*
X48920370Y-62721830D01*
X49240800Y-62935935D01*
X49240801Y-64240196D01*
X36308240Y-77172759D01*
X36308240Y-75720000D01*
X36258957Y-75472235D01*
X36118609Y-75262191D01*
X35908565Y-75121843D01*
X35660800Y-75072560D01*
X33860800Y-75072560D01*
X33613035Y-75121843D01*
X33402991Y-75262191D01*
X33270742Y-75460114D01*
X33235910Y-75425282D01*
X33121353Y-75539839D01*
X33034948Y-75283357D01*
X32461464Y-75073542D01*
X31851340Y-75099161D01*
X31406652Y-75283357D01*
X31320246Y-75539841D01*
X32220800Y-76440395D01*
X32234943Y-76426253D01*
X32414548Y-76605858D01*
X32400405Y-76620000D01*
X32414548Y-76634143D01*
X32234943Y-76813748D01*
X32220800Y-76799605D01*
X31320246Y-77700159D01*
X31406652Y-77956643D01*
X31980136Y-78166458D01*
X32590260Y-78140839D01*
X33034948Y-77956643D01*
X33121353Y-77700161D01*
X33235910Y-77814718D01*
X33270742Y-77779886D01*
X33402991Y-77977809D01*
X33613035Y-78118157D01*
X33860800Y-78167440D01*
X35313559Y-78167440D01*
X33641330Y-79839669D01*
X33577871Y-79882071D01*
X33409896Y-80133464D01*
X33365800Y-80355149D01*
X33365800Y-80355153D01*
X33350912Y-80430000D01*
X33365800Y-80504847D01*
X33365801Y-89251288D01*
X33248369Y-89368720D01*
X33090800Y-89749126D01*
X33090800Y-90160874D01*
X33248369Y-90541280D01*
X33539520Y-90832431D01*
X33919926Y-90990000D01*
X34331674Y-90990000D01*
X34712080Y-90832431D01*
X35003231Y-90541280D01*
X35160800Y-90160874D01*
X35160800Y-89749126D01*
X35003231Y-89368720D01*
X34885800Y-89251289D01*
X34885800Y-80744801D01*
X35270800Y-80359801D01*
X35270801Y-96625197D01*
X32465002Y-99430996D01*
X32465002Y-99204506D01*
X32254149Y-98695460D01*
X31864542Y-98305853D01*
X31355496Y-98095000D01*
X30804508Y-98095000D01*
X30295462Y-98305853D01*
X30256315Y-98345000D01*
X28256785Y-98345000D01*
X28145002Y-98322765D01*
X28033219Y-98345000D01*
X27702147Y-98410854D01*
X27326713Y-98661711D01*
X27263393Y-98756476D01*
X23877282Y-102142589D01*
X23782511Y-102205913D01*
X23531655Y-102581347D01*
X23531654Y-102581348D01*
X23465944Y-102911694D01*
X23336250Y-102782000D01*
X22137000Y-102782000D01*
X22137000Y-102802000D01*
X21883000Y-102802000D01*
X21883000Y-102782000D01*
X21863000Y-102782000D01*
X21863000Y-102528000D01*
X21883000Y-102528000D01*
X21883000Y-101328750D01*
X22137000Y-101328750D01*
X22137000Y-102528000D01*
X23336250Y-102528000D01*
X23495000Y-102369250D01*
X23495000Y-101678690D01*
X23398327Y-101445301D01*
X23219698Y-101266673D01*
X22986309Y-101170000D01*
X22295750Y-101170000D01*
X22137000Y-101328750D01*
X21883000Y-101328750D01*
X21724250Y-101170000D01*
X21033691Y-101170000D01*
X20800302Y-101266673D01*
X20710000Y-101356974D01*
X20710000Y-76379336D01*
X30674342Y-76379336D01*
X30699961Y-76989460D01*
X30884157Y-77434148D01*
X31140641Y-77520554D01*
X32041195Y-76620000D01*
X31140641Y-75719446D01*
X30884157Y-75805852D01*
X30674342Y-76379336D01*
X20710000Y-76379336D01*
X20710000Y-74778465D01*
X20738355Y-74846924D01*
X21128642Y-75275183D01*
X21653108Y-75521486D01*
X21883000Y-75400819D01*
X21883000Y-74207000D01*
X22137000Y-74207000D01*
X22137000Y-75400819D01*
X22366892Y-75521486D01*
X22891358Y-75275183D01*
X23281645Y-74846924D01*
X23451476Y-74436890D01*
X23330155Y-74207000D01*
X22137000Y-74207000D01*
X21883000Y-74207000D01*
X21863000Y-74207000D01*
X21863000Y-73953000D01*
X21883000Y-73953000D01*
X21883000Y-73933000D01*
X22137000Y-73933000D01*
X22137000Y-73953000D01*
X23330155Y-73953000D01*
X23451476Y-73723110D01*
X23281645Y-73313076D01*
X22891358Y-72884817D01*
X22761522Y-72823843D01*
X23080625Y-72610625D01*
X23288178Y-72300000D01*
X24525953Y-72300000D01*
X24600800Y-72314888D01*
X24675647Y-72300000D01*
X24675652Y-72300000D01*
X24897337Y-72255904D01*
X25148729Y-72087929D01*
X25191131Y-72024470D01*
X35075602Y-62140000D01*
X43492019Y-62140000D01*
X43509150Y-62226125D01*
X43509150Y-62226125D01*
G37*
X43509150Y-62226125D02*
X43840370Y-62721830D01*
X44336076Y-63053050D01*
X44920800Y-63169359D01*
X45505525Y-63053050D01*
X46001230Y-62721830D01*
X46190800Y-62438119D01*
X46380370Y-62721830D01*
X46876076Y-63053050D01*
X47460800Y-63169359D01*
X48045525Y-63053050D01*
X48541230Y-62721830D01*
X48730800Y-62438119D01*
X48920370Y-62721830D01*
X49240800Y-62935935D01*
X49240801Y-64240196D01*
X36308240Y-77172759D01*
X36308240Y-75720000D01*
X36258957Y-75472235D01*
X36118609Y-75262191D01*
X35908565Y-75121843D01*
X35660800Y-75072560D01*
X33860800Y-75072560D01*
X33613035Y-75121843D01*
X33402991Y-75262191D01*
X33270742Y-75460114D01*
X33235910Y-75425282D01*
X33121353Y-75539839D01*
X33034948Y-75283357D01*
X32461464Y-75073542D01*
X31851340Y-75099161D01*
X31406652Y-75283357D01*
X31320246Y-75539841D01*
X32220800Y-76440395D01*
X32234943Y-76426253D01*
X32414548Y-76605858D01*
X32400405Y-76620000D01*
X32414548Y-76634143D01*
X32234943Y-76813748D01*
X32220800Y-76799605D01*
X31320246Y-77700159D01*
X31406652Y-77956643D01*
X31980136Y-78166458D01*
X32590260Y-78140839D01*
X33034948Y-77956643D01*
X33121353Y-77700161D01*
X33235910Y-77814718D01*
X33270742Y-77779886D01*
X33402991Y-77977809D01*
X33613035Y-78118157D01*
X33860800Y-78167440D01*
X35313559Y-78167440D01*
X33641330Y-79839669D01*
X33577871Y-79882071D01*
X33409896Y-80133464D01*
X33365800Y-80355149D01*
X33365800Y-80355153D01*
X33350912Y-80430000D01*
X33365800Y-80504847D01*
X33365801Y-89251288D01*
X33248369Y-89368720D01*
X33090800Y-89749126D01*
X33090800Y-90160874D01*
X33248369Y-90541280D01*
X33539520Y-90832431D01*
X33919926Y-90990000D01*
X34331674Y-90990000D01*
X34712080Y-90832431D01*
X35003231Y-90541280D01*
X35160800Y-90160874D01*
X35160800Y-89749126D01*
X35003231Y-89368720D01*
X34885800Y-89251289D01*
X34885800Y-80744801D01*
X35270800Y-80359801D01*
X35270801Y-96625197D01*
X32465002Y-99430996D01*
X32465002Y-99204506D01*
X32254149Y-98695460D01*
X31864542Y-98305853D01*
X31355496Y-98095000D01*
X30804508Y-98095000D01*
X30295462Y-98305853D01*
X30256315Y-98345000D01*
X28256785Y-98345000D01*
X28145002Y-98322765D01*
X28033219Y-98345000D01*
X27702147Y-98410854D01*
X27326713Y-98661711D01*
X27263393Y-98756476D01*
X23877282Y-102142589D01*
X23782511Y-102205913D01*
X23531655Y-102581347D01*
X23531654Y-102581348D01*
X23465944Y-102911694D01*
X23336250Y-102782000D01*
X22137000Y-102782000D01*
X22137000Y-102802000D01*
X21883000Y-102802000D01*
X21883000Y-102782000D01*
X21863000Y-102782000D01*
X21863000Y-102528000D01*
X21883000Y-102528000D01*
X21883000Y-101328750D01*
X22137000Y-101328750D01*
X22137000Y-102528000D01*
X23336250Y-102528000D01*
X23495000Y-102369250D01*
X23495000Y-101678690D01*
X23398327Y-101445301D01*
X23219698Y-101266673D01*
X22986309Y-101170000D01*
X22295750Y-101170000D01*
X22137000Y-101328750D01*
X21883000Y-101328750D01*
X21724250Y-101170000D01*
X21033691Y-101170000D01*
X20800302Y-101266673D01*
X20710000Y-101356974D01*
X20710000Y-76379336D01*
X30674342Y-76379336D01*
X30699961Y-76989460D01*
X30884157Y-77434148D01*
X31140641Y-77520554D01*
X32041195Y-76620000D01*
X31140641Y-75719446D01*
X30884157Y-75805852D01*
X30674342Y-76379336D01*
X20710000Y-76379336D01*
X20710000Y-74778465D01*
X20738355Y-74846924D01*
X21128642Y-75275183D01*
X21653108Y-75521486D01*
X21883000Y-75400819D01*
X21883000Y-74207000D01*
X22137000Y-74207000D01*
X22137000Y-75400819D01*
X22366892Y-75521486D01*
X22891358Y-75275183D01*
X23281645Y-74846924D01*
X23451476Y-74436890D01*
X23330155Y-74207000D01*
X22137000Y-74207000D01*
X21883000Y-74207000D01*
X21863000Y-74207000D01*
X21863000Y-73953000D01*
X21883000Y-73953000D01*
X21883000Y-73933000D01*
X22137000Y-73933000D01*
X22137000Y-73953000D01*
X23330155Y-73953000D01*
X23451476Y-73723110D01*
X23281645Y-73313076D01*
X22891358Y-72884817D01*
X22761522Y-72823843D01*
X23080625Y-72610625D01*
X23288178Y-72300000D01*
X24525953Y-72300000D01*
X24600800Y-72314888D01*
X24675647Y-72300000D01*
X24675652Y-72300000D01*
X24897337Y-72255904D01*
X25148729Y-72087929D01*
X25191131Y-72024470D01*
X35075602Y-62140000D01*
X43492019Y-62140000D01*
X43509150Y-62226125D01*
G36*
X117290001Y-30856974D02*
X117087765Y-30721843D01*
X116840000Y-30672560D01*
X115140000Y-30672560D01*
X114892235Y-30721843D01*
X114682191Y-30862191D01*
X114541843Y-31072235D01*
X114492560Y-31320000D01*
X114492560Y-33020000D01*
X114541843Y-33267765D01*
X114682191Y-33477809D01*
X114892235Y-33618157D01*
X115140000Y-33667440D01*
X116840000Y-33667440D01*
X117087765Y-33618157D01*
X117290001Y-33483026D01*
X117290001Y-62606974D01*
X117087765Y-62471843D01*
X116840000Y-62422560D01*
X115140000Y-62422560D01*
X114892235Y-62471843D01*
X114682191Y-62612191D01*
X114541843Y-62822235D01*
X114492560Y-63070000D01*
X114492560Y-64770000D01*
X114541843Y-65017765D01*
X114682191Y-65227809D01*
X114892235Y-65368157D01*
X114937619Y-65377184D01*
X114919375Y-65389375D01*
X114718137Y-65690550D01*
X114690800Y-65685112D01*
X114615953Y-65700000D01*
X114615949Y-65700000D01*
X114394264Y-65744096D01*
X114142872Y-65912071D01*
X114100472Y-65975527D01*
X110645999Y-69430001D01*
X98575602Y-69430001D01*
X97750800Y-68605200D01*
X97750800Y-64543712D01*
X97868231Y-64426281D01*
X98025800Y-64045875D01*
X98025800Y-63634127D01*
X97868231Y-63253721D01*
X97750800Y-63136290D01*
X97750800Y-62796595D01*
X97798035Y-62828157D01*
X98045800Y-62877440D01*
X99745800Y-62877440D01*
X99993565Y-62828157D01*
X100203609Y-62687809D01*
X100343957Y-62477765D01*
X100352984Y-62432381D01*
X100365175Y-62450625D01*
X100856382Y-62778839D01*
X101289544Y-62865000D01*
X101582056Y-62865000D01*
X102015218Y-62778839D01*
X102506425Y-62450625D01*
X102834639Y-61959418D01*
X102949892Y-61380000D01*
X102834639Y-60800582D01*
X102506425Y-60309375D01*
X102015218Y-59981161D01*
X101582056Y-59895000D01*
X101289544Y-59895000D01*
X100856382Y-59981161D01*
X100365175Y-60309375D01*
X100352984Y-60327619D01*
X100343957Y-60282235D01*
X100203609Y-60072191D01*
X99993565Y-59931843D01*
X99745800Y-59882560D01*
X98045800Y-59882560D01*
X97798035Y-59931843D01*
X97750800Y-59963405D01*
X97750800Y-54629802D01*
X97940602Y-54440001D01*
X99455953Y-54440001D01*
X99530800Y-54454889D01*
X99605647Y-54440001D01*
X99605652Y-54440001D01*
X99827337Y-54395905D01*
X100078729Y-54227930D01*
X100121131Y-54164471D01*
X102555276Y-51730328D01*
X102618729Y-51687930D01*
X102661127Y-51624477D01*
X102661129Y-51624475D01*
X102786703Y-51436539D01*
X102786704Y-51436538D01*
X102830800Y-51214853D01*
X102830800Y-51214849D01*
X102845688Y-51140002D01*
X102830800Y-51065155D01*
X102830800Y-48674849D01*
X102845688Y-48600001D01*
X102830800Y-48525153D01*
X102830800Y-48525149D01*
X102786704Y-48303464D01*
X102618729Y-48052072D01*
X102555273Y-48009672D01*
X101955600Y-47410000D01*
X102555273Y-46810328D01*
X102618729Y-46767928D01*
X102786704Y-46516536D01*
X102830800Y-46294851D01*
X102830800Y-46294847D01*
X102845688Y-46219999D01*
X102830800Y-46145151D01*
X102830800Y-44864849D01*
X102845688Y-44790001D01*
X102830800Y-44715153D01*
X102830800Y-44715149D01*
X102786704Y-44493464D01*
X102618729Y-44242072D01*
X102555273Y-44199672D01*
X102026131Y-43670531D01*
X101983729Y-43607072D01*
X101732337Y-43439097D01*
X101510652Y-43395001D01*
X101510647Y-43395001D01*
X101435800Y-43380113D01*
X101360953Y-43395001D01*
X93495602Y-43395001D01*
X92670800Y-42570200D01*
X92670800Y-36890910D01*
X101438695Y-36890910D01*
X101805640Y-37386343D01*
X103211171Y-37979736D01*
X104736793Y-37990087D01*
X106150246Y-37415819D01*
X106194360Y-37386343D01*
X106561305Y-36890910D01*
X104000000Y-34329605D01*
X101438695Y-36890910D01*
X92670800Y-36890910D01*
X92670800Y-34886793D01*
X100159913Y-34886793D01*
X100734181Y-36300246D01*
X100763657Y-36344360D01*
X101259090Y-36711305D01*
X103820395Y-34150000D01*
X104179605Y-34150000D01*
X106740910Y-36711305D01*
X107236343Y-36344360D01*
X107829736Y-34938829D01*
X107840087Y-33413207D01*
X107265819Y-31999754D01*
X107236343Y-31955640D01*
X106740910Y-31588695D01*
X104179605Y-34150000D01*
X103820395Y-34150000D01*
X101259090Y-31588695D01*
X100763657Y-31955640D01*
X100170264Y-33361171D01*
X100159913Y-34886793D01*
X92670800Y-34886793D01*
X92670800Y-33434847D01*
X92685688Y-33360000D01*
X92670800Y-33285153D01*
X92670800Y-33285149D01*
X92626704Y-33063464D01*
X92574382Y-32985158D01*
X92501129Y-32875527D01*
X92501127Y-32875525D01*
X92458729Y-32812072D01*
X92395276Y-32769674D01*
X91034692Y-31409090D01*
X101438695Y-31409090D01*
X104000000Y-33970395D01*
X106561305Y-31409090D01*
X106194360Y-30913657D01*
X104788829Y-30320264D01*
X103263207Y-30309913D01*
X101849754Y-30884181D01*
X101805640Y-30913657D01*
X101438695Y-31409090D01*
X91034692Y-31409090D01*
X89406130Y-29780530D01*
X89363728Y-29717071D01*
X89112336Y-29549096D01*
X88890651Y-29505000D01*
X88890646Y-29505000D01*
X88815799Y-29490112D01*
X88740952Y-29505000D01*
X66388650Y-29505000D01*
X66313802Y-29490112D01*
X66238954Y-29505000D01*
X66238950Y-29505000D01*
X66065407Y-29539520D01*
X66017264Y-29549096D01*
X65830220Y-29674076D01*
X65765873Y-29717071D01*
X65723473Y-29780527D01*
X63460800Y-32043201D01*
X63460800Y-26769801D01*
X64285602Y-25945000D01*
X69610953Y-25945000D01*
X69685800Y-25959888D01*
X69760647Y-25945000D01*
X69760652Y-25945000D01*
X69982337Y-25900904D01*
X70233729Y-25732929D01*
X70276131Y-25669470D01*
X72024473Y-23921129D01*
X72087929Y-23878729D01*
X72167255Y-23760010D01*
X72255904Y-23627338D01*
X72265480Y-23579195D01*
X72300000Y-23405652D01*
X72300000Y-23405648D01*
X72314888Y-23330800D01*
X72305658Y-23284397D01*
X72610625Y-23080625D01*
X72823843Y-22761522D01*
X72884817Y-22891358D01*
X73313076Y-23281645D01*
X73723110Y-23451476D01*
X73953000Y-23330155D01*
X73953000Y-22137000D01*
X74207000Y-22137000D01*
X74207000Y-23330155D01*
X74436890Y-23451476D01*
X74846924Y-23281645D01*
X75275183Y-22891358D01*
X75521486Y-22366892D01*
X75400819Y-22137000D01*
X74207000Y-22137000D01*
X73953000Y-22137000D01*
X73933000Y-22137000D01*
X73933000Y-21883000D01*
X73953000Y-21883000D01*
X73953000Y-21863000D01*
X74207000Y-21863000D01*
X74207000Y-21883000D01*
X75400819Y-21883000D01*
X75521486Y-21653108D01*
X75275183Y-21128642D01*
X74846924Y-20738355D01*
X74778465Y-20710000D01*
X117290001Y-20710000D01*
X117290001Y-30856974D01*
X117290001Y-30856974D01*
G37*
X117290001Y-30856974D02*
X117087765Y-30721843D01*
X116840000Y-30672560D01*
X115140000Y-30672560D01*
X114892235Y-30721843D01*
X114682191Y-30862191D01*
X114541843Y-31072235D01*
X114492560Y-31320000D01*
X114492560Y-33020000D01*
X114541843Y-33267765D01*
X114682191Y-33477809D01*
X114892235Y-33618157D01*
X115140000Y-33667440D01*
X116840000Y-33667440D01*
X117087765Y-33618157D01*
X117290001Y-33483026D01*
X117290001Y-62606974D01*
X117087765Y-62471843D01*
X116840000Y-62422560D01*
X115140000Y-62422560D01*
X114892235Y-62471843D01*
X114682191Y-62612191D01*
X114541843Y-62822235D01*
X114492560Y-63070000D01*
X114492560Y-64770000D01*
X114541843Y-65017765D01*
X114682191Y-65227809D01*
X114892235Y-65368157D01*
X114937619Y-65377184D01*
X114919375Y-65389375D01*
X114718137Y-65690550D01*
X114690800Y-65685112D01*
X114615953Y-65700000D01*
X114615949Y-65700000D01*
X114394264Y-65744096D01*
X114142872Y-65912071D01*
X114100472Y-65975527D01*
X110645999Y-69430001D01*
X98575602Y-69430001D01*
X97750800Y-68605200D01*
X97750800Y-64543712D01*
X97868231Y-64426281D01*
X98025800Y-64045875D01*
X98025800Y-63634127D01*
X97868231Y-63253721D01*
X97750800Y-63136290D01*
X97750800Y-62796595D01*
X97798035Y-62828157D01*
X98045800Y-62877440D01*
X99745800Y-62877440D01*
X99993565Y-62828157D01*
X100203609Y-62687809D01*
X100343957Y-62477765D01*
X100352984Y-62432381D01*
X100365175Y-62450625D01*
X100856382Y-62778839D01*
X101289544Y-62865000D01*
X101582056Y-62865000D01*
X102015218Y-62778839D01*
X102506425Y-62450625D01*
X102834639Y-61959418D01*
X102949892Y-61380000D01*
X102834639Y-60800582D01*
X102506425Y-60309375D01*
X102015218Y-59981161D01*
X101582056Y-59895000D01*
X101289544Y-59895000D01*
X100856382Y-59981161D01*
X100365175Y-60309375D01*
X100352984Y-60327619D01*
X100343957Y-60282235D01*
X100203609Y-60072191D01*
X99993565Y-59931843D01*
X99745800Y-59882560D01*
X98045800Y-59882560D01*
X97798035Y-59931843D01*
X97750800Y-59963405D01*
X97750800Y-54629802D01*
X97940602Y-54440001D01*
X99455953Y-54440001D01*
X99530800Y-54454889D01*
X99605647Y-54440001D01*
X99605652Y-54440001D01*
X99827337Y-54395905D01*
X100078729Y-54227930D01*
X100121131Y-54164471D01*
X102555276Y-51730328D01*
X102618729Y-51687930D01*
X102661127Y-51624477D01*
X102661129Y-51624475D01*
X102786703Y-51436539D01*
X102786704Y-51436538D01*
X102830800Y-51214853D01*
X102830800Y-51214849D01*
X102845688Y-51140002D01*
X102830800Y-51065155D01*
X102830800Y-48674849D01*
X102845688Y-48600001D01*
X102830800Y-48525153D01*
X102830800Y-48525149D01*
X102786704Y-48303464D01*
X102618729Y-48052072D01*
X102555273Y-48009672D01*
X101955600Y-47410000D01*
X102555273Y-46810328D01*
X102618729Y-46767928D01*
X102786704Y-46516536D01*
X102830800Y-46294851D01*
X102830800Y-46294847D01*
X102845688Y-46219999D01*
X102830800Y-46145151D01*
X102830800Y-44864849D01*
X102845688Y-44790001D01*
X102830800Y-44715153D01*
X102830800Y-44715149D01*
X102786704Y-44493464D01*
X102618729Y-44242072D01*
X102555273Y-44199672D01*
X102026131Y-43670531D01*
X101983729Y-43607072D01*
X101732337Y-43439097D01*
X101510652Y-43395001D01*
X101510647Y-43395001D01*
X101435800Y-43380113D01*
X101360953Y-43395001D01*
X93495602Y-43395001D01*
X92670800Y-42570200D01*
X92670800Y-36890910D01*
X101438695Y-36890910D01*
X101805640Y-37386343D01*
X103211171Y-37979736D01*
X104736793Y-37990087D01*
X106150246Y-37415819D01*
X106194360Y-37386343D01*
X106561305Y-36890910D01*
X104000000Y-34329605D01*
X101438695Y-36890910D01*
X92670800Y-36890910D01*
X92670800Y-34886793D01*
X100159913Y-34886793D01*
X100734181Y-36300246D01*
X100763657Y-36344360D01*
X101259090Y-36711305D01*
X103820395Y-34150000D01*
X104179605Y-34150000D01*
X106740910Y-36711305D01*
X107236343Y-36344360D01*
X107829736Y-34938829D01*
X107840087Y-33413207D01*
X107265819Y-31999754D01*
X107236343Y-31955640D01*
X106740910Y-31588695D01*
X104179605Y-34150000D01*
X103820395Y-34150000D01*
X101259090Y-31588695D01*
X100763657Y-31955640D01*
X100170264Y-33361171D01*
X100159913Y-34886793D01*
X92670800Y-34886793D01*
X92670800Y-33434847D01*
X92685688Y-33360000D01*
X92670800Y-33285153D01*
X92670800Y-33285149D01*
X92626704Y-33063464D01*
X92574382Y-32985158D01*
X92501129Y-32875527D01*
X92501127Y-32875525D01*
X92458729Y-32812072D01*
X92395276Y-32769674D01*
X91034692Y-31409090D01*
X101438695Y-31409090D01*
X104000000Y-33970395D01*
X106561305Y-31409090D01*
X106194360Y-30913657D01*
X104788829Y-30320264D01*
X103263207Y-30309913D01*
X101849754Y-30884181D01*
X101805640Y-30913657D01*
X101438695Y-31409090D01*
X91034692Y-31409090D01*
X89406130Y-29780530D01*
X89363728Y-29717071D01*
X89112336Y-29549096D01*
X88890651Y-29505000D01*
X88890646Y-29505000D01*
X88815799Y-29490112D01*
X88740952Y-29505000D01*
X66388650Y-29505000D01*
X66313802Y-29490112D01*
X66238954Y-29505000D01*
X66238950Y-29505000D01*
X66065407Y-29539520D01*
X66017264Y-29549096D01*
X65830220Y-29674076D01*
X65765873Y-29717071D01*
X65723473Y-29780527D01*
X63460800Y-32043201D01*
X63460800Y-26769801D01*
X64285602Y-25945000D01*
X69610953Y-25945000D01*
X69685800Y-25959888D01*
X69760647Y-25945000D01*
X69760652Y-25945000D01*
X69982337Y-25900904D01*
X70233729Y-25732929D01*
X70276131Y-25669470D01*
X72024473Y-23921129D01*
X72087929Y-23878729D01*
X72167255Y-23760010D01*
X72255904Y-23627338D01*
X72265480Y-23579195D01*
X72300000Y-23405652D01*
X72300000Y-23405648D01*
X72314888Y-23330800D01*
X72305658Y-23284397D01*
X72610625Y-23080625D01*
X72823843Y-22761522D01*
X72884817Y-22891358D01*
X73313076Y-23281645D01*
X73723110Y-23451476D01*
X73953000Y-23330155D01*
X73953000Y-22137000D01*
X74207000Y-22137000D01*
X74207000Y-23330155D01*
X74436890Y-23451476D01*
X74846924Y-23281645D01*
X75275183Y-22891358D01*
X75521486Y-22366892D01*
X75400819Y-22137000D01*
X74207000Y-22137000D01*
X73953000Y-22137000D01*
X73933000Y-22137000D01*
X73933000Y-21883000D01*
X73953000Y-21883000D01*
X73953000Y-21863000D01*
X74207000Y-21863000D01*
X74207000Y-21883000D01*
X75400819Y-21883000D01*
X75521486Y-21653108D01*
X75275183Y-21128642D01*
X74846924Y-20738355D01*
X74778465Y-20710000D01*
X117290001Y-20710000D01*
X117290001Y-30856974D01*
G36*
X91352461Y-56711793D02*
X91160800Y-57174506D01*
X91160800Y-57725494D01*
X91371653Y-58234540D01*
X91761260Y-58624147D01*
X92270306Y-58835000D01*
X92821294Y-58835000D01*
X93330340Y-58624147D01*
X93415800Y-58538687D01*
X93415800Y-59627281D01*
X93231600Y-59590641D01*
X92646875Y-59706950D01*
X92151170Y-60038170D01*
X91929978Y-60369207D01*
X91610668Y-59969127D01*
X91096957Y-59685473D01*
X90999826Y-59663642D01*
X90767800Y-59784783D01*
X90767800Y-61253000D01*
X90787800Y-61253000D01*
X90787800Y-61507000D01*
X90767800Y-61507000D01*
X90767800Y-62975217D01*
X90999826Y-63096358D01*
X91096957Y-63074527D01*
X91610668Y-62790873D01*
X91929978Y-62390793D01*
X92151170Y-62721830D01*
X92196601Y-62752186D01*
X92196601Y-62876289D01*
X91552890Y-63520000D01*
X84707510Y-63520000D01*
X84920119Y-63377939D01*
X84962521Y-63314480D01*
X85182826Y-63094175D01*
X85560800Y-63169359D01*
X86145525Y-63053050D01*
X86641230Y-62721830D01*
X86830800Y-62438119D01*
X87020370Y-62721830D01*
X87516076Y-63053050D01*
X88100800Y-63169359D01*
X88685525Y-63053050D01*
X89181230Y-62721830D01*
X89379273Y-62425439D01*
X89670932Y-62790873D01*
X90184643Y-63074527D01*
X90281774Y-63096358D01*
X90513800Y-62975217D01*
X90513800Y-61507000D01*
X90493800Y-61507000D01*
X90493800Y-61253000D01*
X90513800Y-61253000D01*
X90513800Y-59784783D01*
X90281774Y-59663642D01*
X90184643Y-59685473D01*
X89670932Y-59969127D01*
X89379273Y-60334561D01*
X89235800Y-60119840D01*
X89235800Y-56390319D01*
X89350000Y-56367603D01*
X89500000Y-56397440D01*
X90500000Y-56397440D01*
X90747765Y-56348157D01*
X90892270Y-56251601D01*
X91352461Y-56711793D01*
X91352461Y-56711793D01*
G37*
X91352461Y-56711793D02*
X91160800Y-57174506D01*
X91160800Y-57725494D01*
X91371653Y-58234540D01*
X91761260Y-58624147D01*
X92270306Y-58835000D01*
X92821294Y-58835000D01*
X93330340Y-58624147D01*
X93415800Y-58538687D01*
X93415800Y-59627281D01*
X93231600Y-59590641D01*
X92646875Y-59706950D01*
X92151170Y-60038170D01*
X91929978Y-60369207D01*
X91610668Y-59969127D01*
X91096957Y-59685473D01*
X90999826Y-59663642D01*
X90767800Y-59784783D01*
X90767800Y-61253000D01*
X90787800Y-61253000D01*
X90787800Y-61507000D01*
X90767800Y-61507000D01*
X90767800Y-62975217D01*
X90999826Y-63096358D01*
X91096957Y-63074527D01*
X91610668Y-62790873D01*
X91929978Y-62390793D01*
X92151170Y-62721830D01*
X92196601Y-62752186D01*
X92196601Y-62876289D01*
X91552890Y-63520000D01*
X84707510Y-63520000D01*
X84920119Y-63377939D01*
X84962521Y-63314480D01*
X85182826Y-63094175D01*
X85560800Y-63169359D01*
X86145525Y-63053050D01*
X86641230Y-62721830D01*
X86830800Y-62438119D01*
X87020370Y-62721830D01*
X87516076Y-63053050D01*
X88100800Y-63169359D01*
X88685525Y-63053050D01*
X89181230Y-62721830D01*
X89379273Y-62425439D01*
X89670932Y-62790873D01*
X90184643Y-63074527D01*
X90281774Y-63096358D01*
X90513800Y-62975217D01*
X90513800Y-61507000D01*
X90493800Y-61507000D01*
X90493800Y-61253000D01*
X90513800Y-61253000D01*
X90513800Y-59784783D01*
X90281774Y-59663642D01*
X90184643Y-59685473D01*
X89670932Y-59969127D01*
X89379273Y-60334561D01*
X89235800Y-60119840D01*
X89235800Y-56390319D01*
X89350000Y-56367603D01*
X89500000Y-56397440D01*
X90500000Y-56397440D01*
X90747765Y-56348157D01*
X90892270Y-56251601D01*
X91352461Y-56711793D01*
G36*
X88749887Y-32623888D02*
X88300175Y-32924376D01*
X88100800Y-33222762D01*
X87901425Y-32924376D01*
X87410218Y-32596162D01*
X86977056Y-32510001D01*
X86684544Y-32510001D01*
X86251382Y-32596162D01*
X85760175Y-32924376D01*
X85560800Y-33222762D01*
X85361425Y-32924376D01*
X84870218Y-32596162D01*
X84437056Y-32510001D01*
X84144544Y-32510001D01*
X83711382Y-32596162D01*
X83220175Y-32924376D01*
X83020800Y-33222762D01*
X82821425Y-32924376D01*
X82330218Y-32596162D01*
X81897056Y-32510001D01*
X81604544Y-32510001D01*
X81171382Y-32596162D01*
X80680175Y-32924376D01*
X80480800Y-33222762D01*
X80281425Y-32924376D01*
X79790218Y-32596162D01*
X79357056Y-32510001D01*
X79064544Y-32510001D01*
X78631382Y-32596162D01*
X78140175Y-32924376D01*
X77940800Y-33222762D01*
X77741425Y-32924376D01*
X77250218Y-32596162D01*
X76817056Y-32510001D01*
X76524544Y-32510001D01*
X76091382Y-32596162D01*
X75600175Y-32924376D01*
X75400800Y-33222762D01*
X75201425Y-32924376D01*
X74710218Y-32596162D01*
X74277056Y-32510001D01*
X73984544Y-32510001D01*
X73551382Y-32596162D01*
X73060175Y-32924376D01*
X73045704Y-32946034D01*
X72979127Y-32785303D01*
X72800499Y-32606674D01*
X72567110Y-32510001D01*
X71876550Y-32510001D01*
X71717800Y-32668751D01*
X71717800Y-33868001D01*
X71737800Y-33868001D01*
X71737800Y-34122001D01*
X71717800Y-34122001D01*
X71717800Y-35321251D01*
X71876550Y-35480001D01*
X72567110Y-35480001D01*
X72800499Y-35383328D01*
X72979127Y-35204699D01*
X73045704Y-35043968D01*
X73060175Y-35065626D01*
X73370801Y-35273180D01*
X73370800Y-40745198D01*
X69836328Y-44279671D01*
X69772872Y-44322071D01*
X69730472Y-44385527D01*
X69730471Y-44385528D01*
X69604897Y-44573463D01*
X69545912Y-44870000D01*
X69560801Y-44944852D01*
X69560800Y-59824065D01*
X69240370Y-60038170D01*
X69050800Y-60321881D01*
X68861230Y-60038170D01*
X68540800Y-59824066D01*
X68540800Y-41134847D01*
X68555688Y-41060000D01*
X68540800Y-40985153D01*
X68540800Y-40985148D01*
X68496704Y-40763463D01*
X68328729Y-40512071D01*
X68265273Y-40469671D01*
X63735800Y-35940199D01*
X63735800Y-35774126D01*
X63594666Y-35433397D01*
X63632337Y-35425904D01*
X63883729Y-35257929D01*
X63926131Y-35194470D01*
X64839850Y-34280751D01*
X70105800Y-34280751D01*
X70105800Y-34971310D01*
X70202473Y-35204699D01*
X70381101Y-35383328D01*
X70614490Y-35480001D01*
X71305050Y-35480001D01*
X71463800Y-35321251D01*
X71463800Y-34122001D01*
X70264550Y-34122001D01*
X70105800Y-34280751D01*
X64839850Y-34280751D01*
X66101909Y-33018692D01*
X70105800Y-33018692D01*
X70105800Y-33709251D01*
X70264550Y-33868001D01*
X71463800Y-33868001D01*
X71463800Y-32668751D01*
X71305050Y-32510001D01*
X70614490Y-32510001D01*
X70381101Y-32606674D01*
X70202473Y-32785303D01*
X70105800Y-33018692D01*
X66101909Y-33018692D01*
X66825602Y-32295000D01*
X88420999Y-32295000D01*
X88749887Y-32623888D01*
X88749887Y-32623888D01*
G37*
X88749887Y-32623888D02*
X88300175Y-32924376D01*
X88100800Y-33222762D01*
X87901425Y-32924376D01*
X87410218Y-32596162D01*
X86977056Y-32510001D01*
X86684544Y-32510001D01*
X86251382Y-32596162D01*
X85760175Y-32924376D01*
X85560800Y-33222762D01*
X85361425Y-32924376D01*
X84870218Y-32596162D01*
X84437056Y-32510001D01*
X84144544Y-32510001D01*
X83711382Y-32596162D01*
X83220175Y-32924376D01*
X83020800Y-33222762D01*
X82821425Y-32924376D01*
X82330218Y-32596162D01*
X81897056Y-32510001D01*
X81604544Y-32510001D01*
X81171382Y-32596162D01*
X80680175Y-32924376D01*
X80480800Y-33222762D01*
X80281425Y-32924376D01*
X79790218Y-32596162D01*
X79357056Y-32510001D01*
X79064544Y-32510001D01*
X78631382Y-32596162D01*
X78140175Y-32924376D01*
X77940800Y-33222762D01*
X77741425Y-32924376D01*
X77250218Y-32596162D01*
X76817056Y-32510001D01*
X76524544Y-32510001D01*
X76091382Y-32596162D01*
X75600175Y-32924376D01*
X75400800Y-33222762D01*
X75201425Y-32924376D01*
X74710218Y-32596162D01*
X74277056Y-32510001D01*
X73984544Y-32510001D01*
X73551382Y-32596162D01*
X73060175Y-32924376D01*
X73045704Y-32946034D01*
X72979127Y-32785303D01*
X72800499Y-32606674D01*
X72567110Y-32510001D01*
X71876550Y-32510001D01*
X71717800Y-32668751D01*
X71717800Y-33868001D01*
X71737800Y-33868001D01*
X71737800Y-34122001D01*
X71717800Y-34122001D01*
X71717800Y-35321251D01*
X71876550Y-35480001D01*
X72567110Y-35480001D01*
X72800499Y-35383328D01*
X72979127Y-35204699D01*
X73045704Y-35043968D01*
X73060175Y-35065626D01*
X73370801Y-35273180D01*
X73370800Y-40745198D01*
X69836328Y-44279671D01*
X69772872Y-44322071D01*
X69730472Y-44385527D01*
X69730471Y-44385528D01*
X69604897Y-44573463D01*
X69545912Y-44870000D01*
X69560801Y-44944852D01*
X69560800Y-59824065D01*
X69240370Y-60038170D01*
X69050800Y-60321881D01*
X68861230Y-60038170D01*
X68540800Y-59824066D01*
X68540800Y-41134847D01*
X68555688Y-41060000D01*
X68540800Y-40985153D01*
X68540800Y-40985148D01*
X68496704Y-40763463D01*
X68328729Y-40512071D01*
X68265273Y-40469671D01*
X63735800Y-35940199D01*
X63735800Y-35774126D01*
X63594666Y-35433397D01*
X63632337Y-35425904D01*
X63883729Y-35257929D01*
X63926131Y-35194470D01*
X64839850Y-34280751D01*
X70105800Y-34280751D01*
X70105800Y-34971310D01*
X70202473Y-35204699D01*
X70381101Y-35383328D01*
X70614490Y-35480001D01*
X71305050Y-35480001D01*
X71463800Y-35321251D01*
X71463800Y-34122001D01*
X70264550Y-34122001D01*
X70105800Y-34280751D01*
X64839850Y-34280751D01*
X66101909Y-33018692D01*
X70105800Y-33018692D01*
X70105800Y-33709251D01*
X70264550Y-33868001D01*
X71463800Y-33868001D01*
X71463800Y-32668751D01*
X71305050Y-32510001D01*
X70614490Y-32510001D01*
X70381101Y-32606674D01*
X70202473Y-32785303D01*
X70105800Y-33018692D01*
X66101909Y-33018692D01*
X66825602Y-32295000D01*
X88420999Y-32295000D01*
X88749887Y-32623888D01*
G36*
X41790471Y-34559473D02*
X41832871Y-34622929D01*
X42084263Y-34790904D01*
X42305948Y-34835000D01*
X42305953Y-34835000D01*
X42380800Y-34849888D01*
X42455647Y-34835000D01*
X53735953Y-34835000D01*
X53810800Y-34849888D01*
X53885647Y-34835000D01*
X53885652Y-34835000D01*
X54107337Y-34790904D01*
X54358729Y-34622929D01*
X54401131Y-34559470D01*
X54445800Y-34514801D01*
X55125471Y-35194473D01*
X55167871Y-35257929D01*
X55419263Y-35425904D01*
X55640948Y-35470000D01*
X55640952Y-35470000D01*
X55715799Y-35484888D01*
X55790646Y-35470000D01*
X61791773Y-35470000D01*
X61665800Y-35774126D01*
X61665800Y-36185874D01*
X61823369Y-36566280D01*
X62114520Y-36857431D01*
X62494926Y-37015000D01*
X62660999Y-37015000D01*
X67020800Y-41374802D01*
X67020801Y-59824065D01*
X66700370Y-60038170D01*
X66510800Y-60321881D01*
X66321230Y-60038170D01*
X66000800Y-59824066D01*
X66000800Y-56374846D01*
X66015688Y-56299999D01*
X66000800Y-56225152D01*
X66000800Y-56225148D01*
X65956704Y-56003463D01*
X65788729Y-55752071D01*
X65725273Y-55709671D01*
X59650800Y-49635199D01*
X59650800Y-49423060D01*
X59803910Y-49486476D01*
X60033800Y-49365155D01*
X60033800Y-48172000D01*
X60013800Y-48172000D01*
X60013800Y-47918000D01*
X60033800Y-47918000D01*
X60033800Y-46724845D01*
X60287800Y-46724845D01*
X60287800Y-47918000D01*
X60307800Y-47918000D01*
X60307800Y-48172000D01*
X60287800Y-48172000D01*
X60287800Y-49365155D01*
X60517690Y-49486476D01*
X60927724Y-49316645D01*
X61232061Y-49039292D01*
X61252643Y-49142765D01*
X61392991Y-49352809D01*
X61603035Y-49493157D01*
X61850800Y-49542440D01*
X63550800Y-49542440D01*
X63798565Y-49493157D01*
X64008609Y-49352809D01*
X64148957Y-49142765D01*
X64198240Y-48895000D01*
X64198240Y-47195000D01*
X64148957Y-46947235D01*
X64008609Y-46737191D01*
X63798565Y-46596843D01*
X63550800Y-46547560D01*
X61850800Y-46547560D01*
X61603035Y-46596843D01*
X61392991Y-46737191D01*
X61252643Y-46947235D01*
X61232061Y-47050708D01*
X60927724Y-46773355D01*
X60517690Y-46603524D01*
X60287800Y-46724845D01*
X60033800Y-46724845D01*
X59803910Y-46603524D01*
X59644697Y-46669468D01*
X59606704Y-46478463D01*
X59438729Y-46227071D01*
X59375273Y-46184671D01*
X53766131Y-40575530D01*
X53723729Y-40512071D01*
X53472337Y-40344096D01*
X53250652Y-40300000D01*
X53250647Y-40300000D01*
X53175800Y-40285112D01*
X53100953Y-40300000D01*
X43405733Y-40300000D01*
X43360087Y-40214603D01*
X43305631Y-40133104D01*
X43225114Y-40034994D01*
X43155806Y-39965686D01*
X43057696Y-39885169D01*
X42976197Y-39830713D01*
X42864260Y-39770881D01*
X42773704Y-39733372D01*
X42652251Y-39696530D01*
X42556118Y-39677408D01*
X42429809Y-39664968D01*
X42392906Y-39664968D01*
X42380800Y-39662560D01*
X41880800Y-39662560D01*
X41730800Y-39692397D01*
X41580800Y-39662560D01*
X41080800Y-39662560D01*
X41068694Y-39664968D01*
X41031791Y-39664968D01*
X40905482Y-39677408D01*
X40809349Y-39696530D01*
X40687896Y-39733372D01*
X40597340Y-39770881D01*
X40485403Y-39830713D01*
X40403904Y-39885169D01*
X40305794Y-39965686D01*
X40236486Y-40034994D01*
X40155969Y-40133104D01*
X40101513Y-40214603D01*
X40055867Y-40300000D01*
X36740648Y-40300000D01*
X36665800Y-40285112D01*
X36590952Y-40300000D01*
X36590948Y-40300000D01*
X36369263Y-40344096D01*
X36117871Y-40512071D01*
X36075471Y-40575527D01*
X30910999Y-45740000D01*
X30744926Y-45740000D01*
X30440800Y-45865973D01*
X30440800Y-36740910D01*
X31438695Y-36740910D01*
X31805640Y-37236343D01*
X33211171Y-37829736D01*
X34736793Y-37840087D01*
X36150246Y-37265819D01*
X36194360Y-37236343D01*
X36561305Y-36740910D01*
X34000000Y-34179605D01*
X31438695Y-36740910D01*
X30440800Y-36740910D01*
X30440800Y-35428144D01*
X30734181Y-36150246D01*
X30763657Y-36194360D01*
X31259090Y-36561305D01*
X33820395Y-34000000D01*
X34179605Y-34000000D01*
X36740910Y-36561305D01*
X37236343Y-36194360D01*
X37829736Y-34788829D01*
X37840087Y-33263207D01*
X37265819Y-31849754D01*
X37236343Y-31805640D01*
X36740910Y-31438695D01*
X34179605Y-34000000D01*
X33820395Y-34000000D01*
X31259090Y-31438695D01*
X30763657Y-31805640D01*
X30440800Y-32570370D01*
X30440800Y-31259090D01*
X31438695Y-31259090D01*
X34000000Y-33820395D01*
X36561305Y-31259090D01*
X36194360Y-30763657D01*
X34788829Y-30170264D01*
X33263207Y-30159913D01*
X31849754Y-30734181D01*
X31805640Y-30763657D01*
X31438695Y-31259090D01*
X30440800Y-31259090D01*
X30440800Y-31214801D01*
X31900602Y-29755000D01*
X36985999Y-29755000D01*
X41790471Y-34559473D01*
X41790471Y-34559473D01*
G37*
X41790471Y-34559473D02*
X41832871Y-34622929D01*
X42084263Y-34790904D01*
X42305948Y-34835000D01*
X42305953Y-34835000D01*
X42380800Y-34849888D01*
X42455647Y-34835000D01*
X53735953Y-34835000D01*
X53810800Y-34849888D01*
X53885647Y-34835000D01*
X53885652Y-34835000D01*
X54107337Y-34790904D01*
X54358729Y-34622929D01*
X54401131Y-34559470D01*
X54445800Y-34514801D01*
X55125471Y-35194473D01*
X55167871Y-35257929D01*
X55419263Y-35425904D01*
X55640948Y-35470000D01*
X55640952Y-35470000D01*
X55715799Y-35484888D01*
X55790646Y-35470000D01*
X61791773Y-35470000D01*
X61665800Y-35774126D01*
X61665800Y-36185874D01*
X61823369Y-36566280D01*
X62114520Y-36857431D01*
X62494926Y-37015000D01*
X62660999Y-37015000D01*
X67020800Y-41374802D01*
X67020801Y-59824065D01*
X66700370Y-60038170D01*
X66510800Y-60321881D01*
X66321230Y-60038170D01*
X66000800Y-59824066D01*
X66000800Y-56374846D01*
X66015688Y-56299999D01*
X66000800Y-56225152D01*
X66000800Y-56225148D01*
X65956704Y-56003463D01*
X65788729Y-55752071D01*
X65725273Y-55709671D01*
X59650800Y-49635199D01*
X59650800Y-49423060D01*
X59803910Y-49486476D01*
X60033800Y-49365155D01*
X60033800Y-48172000D01*
X60013800Y-48172000D01*
X60013800Y-47918000D01*
X60033800Y-47918000D01*
X60033800Y-46724845D01*
X60287800Y-46724845D01*
X60287800Y-47918000D01*
X60307800Y-47918000D01*
X60307800Y-48172000D01*
X60287800Y-48172000D01*
X60287800Y-49365155D01*
X60517690Y-49486476D01*
X60927724Y-49316645D01*
X61232061Y-49039292D01*
X61252643Y-49142765D01*
X61392991Y-49352809D01*
X61603035Y-49493157D01*
X61850800Y-49542440D01*
X63550800Y-49542440D01*
X63798565Y-49493157D01*
X64008609Y-49352809D01*
X64148957Y-49142765D01*
X64198240Y-48895000D01*
X64198240Y-47195000D01*
X64148957Y-46947235D01*
X64008609Y-46737191D01*
X63798565Y-46596843D01*
X63550800Y-46547560D01*
X61850800Y-46547560D01*
X61603035Y-46596843D01*
X61392991Y-46737191D01*
X61252643Y-46947235D01*
X61232061Y-47050708D01*
X60927724Y-46773355D01*
X60517690Y-46603524D01*
X60287800Y-46724845D01*
X60033800Y-46724845D01*
X59803910Y-46603524D01*
X59644697Y-46669468D01*
X59606704Y-46478463D01*
X59438729Y-46227071D01*
X59375273Y-46184671D01*
X53766131Y-40575530D01*
X53723729Y-40512071D01*
X53472337Y-40344096D01*
X53250652Y-40300000D01*
X53250647Y-40300000D01*
X53175800Y-40285112D01*
X53100953Y-40300000D01*
X43405733Y-40300000D01*
X43360087Y-40214603D01*
X43305631Y-40133104D01*
X43225114Y-40034994D01*
X43155806Y-39965686D01*
X43057696Y-39885169D01*
X42976197Y-39830713D01*
X42864260Y-39770881D01*
X42773704Y-39733372D01*
X42652251Y-39696530D01*
X42556118Y-39677408D01*
X42429809Y-39664968D01*
X42392906Y-39664968D01*
X42380800Y-39662560D01*
X41880800Y-39662560D01*
X41730800Y-39692397D01*
X41580800Y-39662560D01*
X41080800Y-39662560D01*
X41068694Y-39664968D01*
X41031791Y-39664968D01*
X40905482Y-39677408D01*
X40809349Y-39696530D01*
X40687896Y-39733372D01*
X40597340Y-39770881D01*
X40485403Y-39830713D01*
X40403904Y-39885169D01*
X40305794Y-39965686D01*
X40236486Y-40034994D01*
X40155969Y-40133104D01*
X40101513Y-40214603D01*
X40055867Y-40300000D01*
X36740648Y-40300000D01*
X36665800Y-40285112D01*
X36590952Y-40300000D01*
X36590948Y-40300000D01*
X36369263Y-40344096D01*
X36117871Y-40512071D01*
X36075471Y-40575527D01*
X30910999Y-45740000D01*
X30744926Y-45740000D01*
X30440800Y-45865973D01*
X30440800Y-36740910D01*
X31438695Y-36740910D01*
X31805640Y-37236343D01*
X33211171Y-37829736D01*
X34736793Y-37840087D01*
X36150246Y-37265819D01*
X36194360Y-37236343D01*
X36561305Y-36740910D01*
X34000000Y-34179605D01*
X31438695Y-36740910D01*
X30440800Y-36740910D01*
X30440800Y-35428144D01*
X30734181Y-36150246D01*
X30763657Y-36194360D01*
X31259090Y-36561305D01*
X33820395Y-34000000D01*
X34179605Y-34000000D01*
X36740910Y-36561305D01*
X37236343Y-36194360D01*
X37829736Y-34788829D01*
X37840087Y-33263207D01*
X37265819Y-31849754D01*
X37236343Y-31805640D01*
X36740910Y-31438695D01*
X34179605Y-34000000D01*
X33820395Y-34000000D01*
X31259090Y-31438695D01*
X30763657Y-31805640D01*
X30440800Y-32570370D01*
X30440800Y-31259090D01*
X31438695Y-31259090D01*
X34000000Y-33820395D01*
X36561305Y-31259090D01*
X36194360Y-30763657D01*
X34788829Y-30170264D01*
X33263207Y-30159913D01*
X31849754Y-30734181D01*
X31805640Y-30763657D01*
X31438695Y-31259090D01*
X30440800Y-31259090D01*
X30440800Y-31214801D01*
X31900602Y-29755000D01*
X36985999Y-29755000D01*
X41790471Y-34559473D01*
G36*
X40116513Y-44445397D02*
X40170969Y-44526896D01*
X40251486Y-44625006D01*
X40320794Y-44694314D01*
X40418904Y-44774831D01*
X40500403Y-44829287D01*
X40612340Y-44889119D01*
X40702896Y-44926628D01*
X40824349Y-44963470D01*
X40920482Y-44982592D01*
X41046791Y-44995032D01*
X41083694Y-44995032D01*
X41095800Y-44997440D01*
X41595800Y-44997440D01*
X41745800Y-44967603D01*
X41895800Y-44997440D01*
X42395800Y-44997440D01*
X42407906Y-44995032D01*
X42444809Y-44995032D01*
X42571118Y-44982592D01*
X42667251Y-44963470D01*
X42788704Y-44926628D01*
X42879260Y-44889119D01*
X42991197Y-44829287D01*
X43072696Y-44774831D01*
X43170806Y-44694314D01*
X43240114Y-44625006D01*
X43320631Y-44526896D01*
X43375087Y-44445397D01*
X43420733Y-44360000D01*
X52860999Y-44360000D01*
X55060998Y-46560000D01*
X54934544Y-46560000D01*
X54501382Y-46646161D01*
X54010175Y-46974375D01*
X53810800Y-47272761D01*
X53611425Y-46974375D01*
X53120218Y-46646161D01*
X52687056Y-46560000D01*
X52394544Y-46560000D01*
X51961382Y-46646161D01*
X51470175Y-46974375D01*
X51270800Y-47272761D01*
X51071425Y-46974375D01*
X50580218Y-46646161D01*
X50147056Y-46560000D01*
X49854544Y-46560000D01*
X49421382Y-46646161D01*
X48930175Y-46974375D01*
X48716957Y-47293478D01*
X48655983Y-47163642D01*
X48227724Y-46773355D01*
X47817690Y-46603524D01*
X47587800Y-46724845D01*
X47587800Y-47918000D01*
X47607800Y-47918000D01*
X47607800Y-48172000D01*
X47587800Y-48172000D01*
X47587800Y-49365155D01*
X47817690Y-49486476D01*
X48227724Y-49316645D01*
X48655983Y-48926358D01*
X48716957Y-48796522D01*
X48930175Y-49115625D01*
X49421382Y-49443839D01*
X49854544Y-49530000D01*
X50147056Y-49530000D01*
X50580218Y-49443839D01*
X51071425Y-49115625D01*
X51270800Y-48817239D01*
X51470175Y-49115625D01*
X51961382Y-49443839D01*
X52394544Y-49530000D01*
X52687056Y-49530000D01*
X53120218Y-49443839D01*
X53611425Y-49115625D01*
X53810800Y-48817239D01*
X54010175Y-49115625D01*
X54320800Y-49323178D01*
X54320800Y-49875153D01*
X54305912Y-49950000D01*
X54320800Y-50024847D01*
X54320800Y-50024851D01*
X54364896Y-50246536D01*
X54532871Y-50497929D01*
X54596330Y-50540331D01*
X60589411Y-56533413D01*
X60589411Y-58828809D01*
X57576131Y-55815530D01*
X57533729Y-55752071D01*
X57282337Y-55584096D01*
X57060652Y-55540000D01*
X57060647Y-55540000D01*
X56985800Y-55525112D01*
X56910953Y-55540000D01*
X43892721Y-55540000D01*
X37519326Y-49166606D01*
X37595625Y-49115625D01*
X37808843Y-48796522D01*
X37869817Y-48926358D01*
X38298076Y-49316645D01*
X38708110Y-49486476D01*
X38938000Y-49365155D01*
X38938000Y-48172000D01*
X39192000Y-48172000D01*
X39192000Y-49365155D01*
X39421890Y-49486476D01*
X39831924Y-49316645D01*
X40260183Y-48926358D01*
X40506486Y-48401892D01*
X40385819Y-48172000D01*
X39192000Y-48172000D01*
X38938000Y-48172000D01*
X38918000Y-48172000D01*
X38918000Y-48045000D01*
X43406708Y-48045000D01*
X43521961Y-48624418D01*
X43850175Y-49115625D01*
X44341382Y-49443839D01*
X44774544Y-49530000D01*
X45067056Y-49530000D01*
X45500218Y-49443839D01*
X45991425Y-49115625D01*
X46204643Y-48796522D01*
X46265617Y-48926358D01*
X46693876Y-49316645D01*
X47103910Y-49486476D01*
X47333800Y-49365155D01*
X47333800Y-48172000D01*
X47313800Y-48172000D01*
X47313800Y-47918000D01*
X47333800Y-47918000D01*
X47333800Y-46724845D01*
X47103910Y-46603524D01*
X46693876Y-46773355D01*
X46265617Y-47163642D01*
X46204643Y-47293478D01*
X45991425Y-46974375D01*
X45500218Y-46646161D01*
X45067056Y-46560000D01*
X44774544Y-46560000D01*
X44341382Y-46646161D01*
X43850175Y-46974375D01*
X43521961Y-47465582D01*
X43406708Y-48045000D01*
X38918000Y-48045000D01*
X38918000Y-47918000D01*
X38938000Y-47918000D01*
X38938000Y-46724845D01*
X39192000Y-46724845D01*
X39192000Y-47918000D01*
X40385819Y-47918000D01*
X40506486Y-47688108D01*
X40260183Y-47163642D01*
X39831924Y-46773355D01*
X39421890Y-46603524D01*
X39192000Y-46724845D01*
X38938000Y-46724845D01*
X38708110Y-46603524D01*
X38298076Y-46773355D01*
X37869817Y-47163642D01*
X37808843Y-47293478D01*
X37595625Y-46974375D01*
X37104418Y-46646161D01*
X36671256Y-46560000D01*
X36378744Y-46560000D01*
X35945582Y-46646161D01*
X35454375Y-46974375D01*
X35442184Y-46992619D01*
X35433157Y-46947235D01*
X35292809Y-46737191D01*
X35082765Y-46596843D01*
X34835000Y-46547560D01*
X33523041Y-46547560D01*
X35710602Y-44360000D01*
X40070867Y-44360000D01*
X40116513Y-44445397D01*
X40116513Y-44445397D01*
G37*
X40116513Y-44445397D02*
X40170969Y-44526896D01*
X40251486Y-44625006D01*
X40320794Y-44694314D01*
X40418904Y-44774831D01*
X40500403Y-44829287D01*
X40612340Y-44889119D01*
X40702896Y-44926628D01*
X40824349Y-44963470D01*
X40920482Y-44982592D01*
X41046791Y-44995032D01*
X41083694Y-44995032D01*
X41095800Y-44997440D01*
X41595800Y-44997440D01*
X41745800Y-44967603D01*
X41895800Y-44997440D01*
X42395800Y-44997440D01*
X42407906Y-44995032D01*
X42444809Y-44995032D01*
X42571118Y-44982592D01*
X42667251Y-44963470D01*
X42788704Y-44926628D01*
X42879260Y-44889119D01*
X42991197Y-44829287D01*
X43072696Y-44774831D01*
X43170806Y-44694314D01*
X43240114Y-44625006D01*
X43320631Y-44526896D01*
X43375087Y-44445397D01*
X43420733Y-44360000D01*
X52860999Y-44360000D01*
X55060998Y-46560000D01*
X54934544Y-46560000D01*
X54501382Y-46646161D01*
X54010175Y-46974375D01*
X53810800Y-47272761D01*
X53611425Y-46974375D01*
X53120218Y-46646161D01*
X52687056Y-46560000D01*
X52394544Y-46560000D01*
X51961382Y-46646161D01*
X51470175Y-46974375D01*
X51270800Y-47272761D01*
X51071425Y-46974375D01*
X50580218Y-46646161D01*
X50147056Y-46560000D01*
X49854544Y-46560000D01*
X49421382Y-46646161D01*
X48930175Y-46974375D01*
X48716957Y-47293478D01*
X48655983Y-47163642D01*
X48227724Y-46773355D01*
X47817690Y-46603524D01*
X47587800Y-46724845D01*
X47587800Y-47918000D01*
X47607800Y-47918000D01*
X47607800Y-48172000D01*
X47587800Y-48172000D01*
X47587800Y-49365155D01*
X47817690Y-49486476D01*
X48227724Y-49316645D01*
X48655983Y-48926358D01*
X48716957Y-48796522D01*
X48930175Y-49115625D01*
X49421382Y-49443839D01*
X49854544Y-49530000D01*
X50147056Y-49530000D01*
X50580218Y-49443839D01*
X51071425Y-49115625D01*
X51270800Y-48817239D01*
X51470175Y-49115625D01*
X51961382Y-49443839D01*
X52394544Y-49530000D01*
X52687056Y-49530000D01*
X53120218Y-49443839D01*
X53611425Y-49115625D01*
X53810800Y-48817239D01*
X54010175Y-49115625D01*
X54320800Y-49323178D01*
X54320800Y-49875153D01*
X54305912Y-49950000D01*
X54320800Y-50024847D01*
X54320800Y-50024851D01*
X54364896Y-50246536D01*
X54532871Y-50497929D01*
X54596330Y-50540331D01*
X60589411Y-56533413D01*
X60589411Y-58828809D01*
X57576131Y-55815530D01*
X57533729Y-55752071D01*
X57282337Y-55584096D01*
X57060652Y-55540000D01*
X57060647Y-55540000D01*
X56985800Y-55525112D01*
X56910953Y-55540000D01*
X43892721Y-55540000D01*
X37519326Y-49166606D01*
X37595625Y-49115625D01*
X37808843Y-48796522D01*
X37869817Y-48926358D01*
X38298076Y-49316645D01*
X38708110Y-49486476D01*
X38938000Y-49365155D01*
X38938000Y-48172000D01*
X39192000Y-48172000D01*
X39192000Y-49365155D01*
X39421890Y-49486476D01*
X39831924Y-49316645D01*
X40260183Y-48926358D01*
X40506486Y-48401892D01*
X40385819Y-48172000D01*
X39192000Y-48172000D01*
X38938000Y-48172000D01*
X38918000Y-48172000D01*
X38918000Y-48045000D01*
X43406708Y-48045000D01*
X43521961Y-48624418D01*
X43850175Y-49115625D01*
X44341382Y-49443839D01*
X44774544Y-49530000D01*
X45067056Y-49530000D01*
X45500218Y-49443839D01*
X45991425Y-49115625D01*
X46204643Y-48796522D01*
X46265617Y-48926358D01*
X46693876Y-49316645D01*
X47103910Y-49486476D01*
X47333800Y-49365155D01*
X47333800Y-48172000D01*
X47313800Y-48172000D01*
X47313800Y-47918000D01*
X47333800Y-47918000D01*
X47333800Y-46724845D01*
X47103910Y-46603524D01*
X46693876Y-46773355D01*
X46265617Y-47163642D01*
X46204643Y-47293478D01*
X45991425Y-46974375D01*
X45500218Y-46646161D01*
X45067056Y-46560000D01*
X44774544Y-46560000D01*
X44341382Y-46646161D01*
X43850175Y-46974375D01*
X43521961Y-47465582D01*
X43406708Y-48045000D01*
X38918000Y-48045000D01*
X38918000Y-47918000D01*
X38938000Y-47918000D01*
X38938000Y-46724845D01*
X39192000Y-46724845D01*
X39192000Y-47918000D01*
X40385819Y-47918000D01*
X40506486Y-47688108D01*
X40260183Y-47163642D01*
X39831924Y-46773355D01*
X39421890Y-46603524D01*
X39192000Y-46724845D01*
X38938000Y-46724845D01*
X38708110Y-46603524D01*
X38298076Y-46773355D01*
X37869817Y-47163642D01*
X37808843Y-47293478D01*
X37595625Y-46974375D01*
X37104418Y-46646161D01*
X36671256Y-46560000D01*
X36378744Y-46560000D01*
X35945582Y-46646161D01*
X35454375Y-46974375D01*
X35442184Y-46992619D01*
X35433157Y-46947235D01*
X35292809Y-46737191D01*
X35082765Y-46596843D01*
X34835000Y-46547560D01*
X33523041Y-46547560D01*
X35710602Y-44360000D01*
X40070867Y-44360000D01*
X40116513Y-44445397D01*
G36*
X55566260Y-20835853D02*
X55176653Y-21225460D01*
X54965800Y-21734506D01*
X54965800Y-21789868D01*
X54357280Y-22398389D01*
X54262512Y-22461711D01*
X54155576Y-22621752D01*
X54011654Y-22837146D01*
X53923565Y-23280000D01*
X53945801Y-23391788D01*
X53945800Y-26266313D01*
X53906653Y-26305460D01*
X53695800Y-26814506D01*
X53695800Y-27365494D01*
X53906653Y-27874540D01*
X54296260Y-28264147D01*
X54805306Y-28475000D01*
X55356294Y-28475000D01*
X55865340Y-28264147D01*
X56254947Y-27874540D01*
X56465800Y-27365494D01*
X56465800Y-26814506D01*
X56254947Y-26305460D01*
X56215800Y-26266313D01*
X56215800Y-23750131D01*
X56570932Y-23395000D01*
X56626294Y-23395000D01*
X57135340Y-23184147D01*
X57524947Y-22794540D01*
X57735800Y-22285494D01*
X57735800Y-21734506D01*
X57524947Y-21225460D01*
X57135340Y-20835853D01*
X56831503Y-20710000D01*
X62606973Y-20710000D01*
X62471843Y-20912235D01*
X62422560Y-21160000D01*
X62422560Y-22860000D01*
X62471843Y-23107765D01*
X62503405Y-23155000D01*
X62140646Y-23155000D01*
X62065799Y-23140112D01*
X61990952Y-23155000D01*
X61990948Y-23155000D01*
X61769263Y-23199096D01*
X61517871Y-23367071D01*
X61475471Y-23430527D01*
X57136330Y-27769669D01*
X57136327Y-27769671D01*
X53135999Y-31770000D01*
X52969926Y-31770000D01*
X52589520Y-31927569D01*
X52472089Y-32045000D01*
X42695602Y-32045000D01*
X38526131Y-27875530D01*
X38483729Y-27812071D01*
X38232337Y-27644096D01*
X38010652Y-27600000D01*
X38010647Y-27600000D01*
X37935800Y-27585112D01*
X37860953Y-27600000D01*
X30390648Y-27600000D01*
X30315800Y-27585112D01*
X30240952Y-27600000D01*
X30240948Y-27600000D01*
X30067405Y-27634520D01*
X30019262Y-27644096D01*
X29832218Y-27769076D01*
X29767871Y-27812071D01*
X29725471Y-27875527D01*
X27926330Y-29674669D01*
X27862871Y-29717071D01*
X27694896Y-29968464D01*
X27650800Y-30190149D01*
X27650800Y-30190153D01*
X27635912Y-30265000D01*
X27650800Y-30339847D01*
X27650801Y-46065148D01*
X27640328Y-46117798D01*
X27416294Y-46025000D01*
X26865306Y-46025000D01*
X26356260Y-46235853D01*
X25966653Y-46625460D01*
X25755800Y-47134506D01*
X25755800Y-47181082D01*
X25687512Y-47226711D01*
X25527205Y-47466628D01*
X25436654Y-47602146D01*
X25348565Y-48045000D01*
X25370801Y-48156788D01*
X25370801Y-49886211D01*
X25350053Y-49836122D01*
X25111698Y-49771207D01*
X24337905Y-50545000D01*
X25111698Y-51318793D01*
X25350053Y-51253878D01*
X25370801Y-51195273D01*
X25370800Y-53895000D01*
X22884487Y-53895000D01*
X22845340Y-53855853D01*
X22336294Y-53645000D01*
X21785306Y-53645000D01*
X21276260Y-53855853D01*
X20886653Y-54245460D01*
X20710000Y-54671940D01*
X20710000Y-52696427D01*
X20981300Y-52780000D01*
X21331300Y-52780000D01*
X21331300Y-51672000D01*
X21585300Y-51672000D01*
X21585300Y-52780000D01*
X21935300Y-52780000D01*
X22398247Y-52637390D01*
X22771380Y-52328474D01*
X22997892Y-51900281D01*
X23001762Y-51862609D01*
X22877031Y-51672000D01*
X21585300Y-51672000D01*
X21331300Y-51672000D01*
X21311300Y-51672000D01*
X21311300Y-51498398D01*
X23384507Y-51498398D01*
X23449422Y-51736753D01*
X23959446Y-51917312D01*
X24499744Y-51888949D01*
X24867178Y-51736753D01*
X24932093Y-51498398D01*
X24158300Y-50724605D01*
X23384507Y-51498398D01*
X21311300Y-51498398D01*
X21311300Y-51418000D01*
X21331300Y-51418000D01*
X21331300Y-50310000D01*
X21585300Y-50310000D01*
X21585300Y-51418000D01*
X22877031Y-51418000D01*
X22981724Y-51258012D01*
X23204902Y-51318793D01*
X23978695Y-50545000D01*
X23204902Y-49771207D01*
X22966547Y-49836122D01*
X22785988Y-50346146D01*
X22811805Y-50837945D01*
X22771380Y-50761526D01*
X22398247Y-50452610D01*
X21935300Y-50310000D01*
X21585300Y-50310000D01*
X21331300Y-50310000D01*
X20981300Y-50310000D01*
X20710000Y-50393573D01*
X20710000Y-49591602D01*
X23384507Y-49591602D01*
X24158300Y-50365395D01*
X24932093Y-49591602D01*
X24867178Y-49353247D01*
X24357154Y-49172688D01*
X23816856Y-49201051D01*
X23449422Y-49353247D01*
X23384507Y-49591602D01*
X20710000Y-49591602D01*
X20710000Y-46498398D01*
X23384507Y-46498398D01*
X23449422Y-46736753D01*
X23959446Y-46917312D01*
X24499744Y-46888949D01*
X24867178Y-46736753D01*
X24932093Y-46498398D01*
X24158300Y-45724605D01*
X23384507Y-46498398D01*
X20710000Y-46498398D01*
X20710000Y-45696427D01*
X20981300Y-45780000D01*
X21331300Y-45780000D01*
X21331300Y-44672000D01*
X21585300Y-44672000D01*
X21585300Y-45780000D01*
X21935300Y-45780000D01*
X22398247Y-45637390D01*
X22771380Y-45328474D01*
X22834458Y-45209232D01*
X22785988Y-45346146D01*
X22814351Y-45886444D01*
X22966547Y-46253878D01*
X23204902Y-46318793D01*
X23978695Y-45545000D01*
X24337905Y-45545000D01*
X25111698Y-46318793D01*
X25350053Y-46253878D01*
X25530612Y-45743854D01*
X25502249Y-45203556D01*
X25350053Y-44836122D01*
X25111698Y-44771207D01*
X24337905Y-45545000D01*
X23978695Y-45545000D01*
X23204902Y-44771207D01*
X22981724Y-44831988D01*
X22877031Y-44672000D01*
X21585300Y-44672000D01*
X21331300Y-44672000D01*
X21311300Y-44672000D01*
X21311300Y-44591602D01*
X23384507Y-44591602D01*
X24158300Y-45365395D01*
X24932093Y-44591602D01*
X24867178Y-44353247D01*
X24357154Y-44172688D01*
X23816856Y-44201051D01*
X23449422Y-44353247D01*
X23384507Y-44591602D01*
X21311300Y-44591602D01*
X21311300Y-44418000D01*
X21331300Y-44418000D01*
X21331300Y-43310000D01*
X21585300Y-43310000D01*
X21585300Y-44418000D01*
X22877031Y-44418000D01*
X23001762Y-44227391D01*
X22997892Y-44189719D01*
X22771380Y-43761526D01*
X22398247Y-43452610D01*
X21935300Y-43310000D01*
X21585300Y-43310000D01*
X21331300Y-43310000D01*
X20981300Y-43310000D01*
X20710000Y-43393573D01*
X20710000Y-20710000D01*
X55870097Y-20710000D01*
X55566260Y-20835853D01*
X55566260Y-20835853D01*
G37*
X55566260Y-20835853D02*
X55176653Y-21225460D01*
X54965800Y-21734506D01*
X54965800Y-21789868D01*
X54357280Y-22398389D01*
X54262512Y-22461711D01*
X54155576Y-22621752D01*
X54011654Y-22837146D01*
X53923565Y-23280000D01*
X53945801Y-23391788D01*
X53945800Y-26266313D01*
X53906653Y-26305460D01*
X53695800Y-26814506D01*
X53695800Y-27365494D01*
X53906653Y-27874540D01*
X54296260Y-28264147D01*
X54805306Y-28475000D01*
X55356294Y-28475000D01*
X55865340Y-28264147D01*
X56254947Y-27874540D01*
X56465800Y-27365494D01*
X56465800Y-26814506D01*
X56254947Y-26305460D01*
X56215800Y-26266313D01*
X56215800Y-23750131D01*
X56570932Y-23395000D01*
X56626294Y-23395000D01*
X57135340Y-23184147D01*
X57524947Y-22794540D01*
X57735800Y-22285494D01*
X57735800Y-21734506D01*
X57524947Y-21225460D01*
X57135340Y-20835853D01*
X56831503Y-20710000D01*
X62606973Y-20710000D01*
X62471843Y-20912235D01*
X62422560Y-21160000D01*
X62422560Y-22860000D01*
X62471843Y-23107765D01*
X62503405Y-23155000D01*
X62140646Y-23155000D01*
X62065799Y-23140112D01*
X61990952Y-23155000D01*
X61990948Y-23155000D01*
X61769263Y-23199096D01*
X61517871Y-23367071D01*
X61475471Y-23430527D01*
X57136330Y-27769669D01*
X57136327Y-27769671D01*
X53135999Y-31770000D01*
X52969926Y-31770000D01*
X52589520Y-31927569D01*
X52472089Y-32045000D01*
X42695602Y-32045000D01*
X38526131Y-27875530D01*
X38483729Y-27812071D01*
X38232337Y-27644096D01*
X38010652Y-27600000D01*
X38010647Y-27600000D01*
X37935800Y-27585112D01*
X37860953Y-27600000D01*
X30390648Y-27600000D01*
X30315800Y-27585112D01*
X30240952Y-27600000D01*
X30240948Y-27600000D01*
X30067405Y-27634520D01*
X30019262Y-27644096D01*
X29832218Y-27769076D01*
X29767871Y-27812071D01*
X29725471Y-27875527D01*
X27926330Y-29674669D01*
X27862871Y-29717071D01*
X27694896Y-29968464D01*
X27650800Y-30190149D01*
X27650800Y-30190153D01*
X27635912Y-30265000D01*
X27650800Y-30339847D01*
X27650801Y-46065148D01*
X27640328Y-46117798D01*
X27416294Y-46025000D01*
X26865306Y-46025000D01*
X26356260Y-46235853D01*
X25966653Y-46625460D01*
X25755800Y-47134506D01*
X25755800Y-47181082D01*
X25687512Y-47226711D01*
X25527205Y-47466628D01*
X25436654Y-47602146D01*
X25348565Y-48045000D01*
X25370801Y-48156788D01*
X25370801Y-49886211D01*
X25350053Y-49836122D01*
X25111698Y-49771207D01*
X24337905Y-50545000D01*
X25111698Y-51318793D01*
X25350053Y-51253878D01*
X25370801Y-51195273D01*
X25370800Y-53895000D01*
X22884487Y-53895000D01*
X22845340Y-53855853D01*
X22336294Y-53645000D01*
X21785306Y-53645000D01*
X21276260Y-53855853D01*
X20886653Y-54245460D01*
X20710000Y-54671940D01*
X20710000Y-52696427D01*
X20981300Y-52780000D01*
X21331300Y-52780000D01*
X21331300Y-51672000D01*
X21585300Y-51672000D01*
X21585300Y-52780000D01*
X21935300Y-52780000D01*
X22398247Y-52637390D01*
X22771380Y-52328474D01*
X22997892Y-51900281D01*
X23001762Y-51862609D01*
X22877031Y-51672000D01*
X21585300Y-51672000D01*
X21331300Y-51672000D01*
X21311300Y-51672000D01*
X21311300Y-51498398D01*
X23384507Y-51498398D01*
X23449422Y-51736753D01*
X23959446Y-51917312D01*
X24499744Y-51888949D01*
X24867178Y-51736753D01*
X24932093Y-51498398D01*
X24158300Y-50724605D01*
X23384507Y-51498398D01*
X21311300Y-51498398D01*
X21311300Y-51418000D01*
X21331300Y-51418000D01*
X21331300Y-50310000D01*
X21585300Y-50310000D01*
X21585300Y-51418000D01*
X22877031Y-51418000D01*
X22981724Y-51258012D01*
X23204902Y-51318793D01*
X23978695Y-50545000D01*
X23204902Y-49771207D01*
X22966547Y-49836122D01*
X22785988Y-50346146D01*
X22811805Y-50837945D01*
X22771380Y-50761526D01*
X22398247Y-50452610D01*
X21935300Y-50310000D01*
X21585300Y-50310000D01*
X21331300Y-50310000D01*
X20981300Y-50310000D01*
X20710000Y-50393573D01*
X20710000Y-49591602D01*
X23384507Y-49591602D01*
X24158300Y-50365395D01*
X24932093Y-49591602D01*
X24867178Y-49353247D01*
X24357154Y-49172688D01*
X23816856Y-49201051D01*
X23449422Y-49353247D01*
X23384507Y-49591602D01*
X20710000Y-49591602D01*
X20710000Y-46498398D01*
X23384507Y-46498398D01*
X23449422Y-46736753D01*
X23959446Y-46917312D01*
X24499744Y-46888949D01*
X24867178Y-46736753D01*
X24932093Y-46498398D01*
X24158300Y-45724605D01*
X23384507Y-46498398D01*
X20710000Y-46498398D01*
X20710000Y-45696427D01*
X20981300Y-45780000D01*
X21331300Y-45780000D01*
X21331300Y-44672000D01*
X21585300Y-44672000D01*
X21585300Y-45780000D01*
X21935300Y-45780000D01*
X22398247Y-45637390D01*
X22771380Y-45328474D01*
X22834458Y-45209232D01*
X22785988Y-45346146D01*
X22814351Y-45886444D01*
X22966547Y-46253878D01*
X23204902Y-46318793D01*
X23978695Y-45545000D01*
X24337905Y-45545000D01*
X25111698Y-46318793D01*
X25350053Y-46253878D01*
X25530612Y-45743854D01*
X25502249Y-45203556D01*
X25350053Y-44836122D01*
X25111698Y-44771207D01*
X24337905Y-45545000D01*
X23978695Y-45545000D01*
X23204902Y-44771207D01*
X22981724Y-44831988D01*
X22877031Y-44672000D01*
X21585300Y-44672000D01*
X21331300Y-44672000D01*
X21311300Y-44672000D01*
X21311300Y-44591602D01*
X23384507Y-44591602D01*
X24158300Y-45365395D01*
X24932093Y-44591602D01*
X24867178Y-44353247D01*
X24357154Y-44172688D01*
X23816856Y-44201051D01*
X23449422Y-44353247D01*
X23384507Y-44591602D01*
X21311300Y-44591602D01*
X21311300Y-44418000D01*
X21331300Y-44418000D01*
X21331300Y-43310000D01*
X21585300Y-43310000D01*
X21585300Y-44418000D01*
X22877031Y-44418000D01*
X23001762Y-44227391D01*
X22997892Y-44189719D01*
X22771380Y-43761526D01*
X22398247Y-43452610D01*
X21935300Y-43310000D01*
X21585300Y-43310000D01*
X21331300Y-43310000D01*
X20981300Y-43310000D01*
X20710000Y-43393573D01*
X20710000Y-20710000D01*
X55870097Y-20710000D01*
X55566260Y-20835853D01*
G04 #@! TD*
M02*
