M48
;DRILL file {KiCad 5.0.1+dfsg1-3} date Mi 12 Dez 2018 18:27:09 CET
;FORMAT={-:-/ absolute / inch / decimal}
FMAT,2
INCH,TZ
T1C0.0157
T2C0.0197
T3C0.0236
T4C0.0335
T5C0.0354
T6C0.0394
T7C0.0400
T8C0.1260
%
G90
G05
M72
T1
X0.8685Y-2.1665
X1.0435Y-2.1665
X1.0685Y-1.8665
X1.1435Y-2.1665
X1.1435Y-2.3665
X1.2185Y-1.8415
X1.2185Y-1.9165
X1.2236Y-3.9165
X1.3435Y-3.5415
X2.0935Y-1.2915
X2.1685Y-1.0665
X2.2185Y-0.8665
X2.2185Y-1.2915
X2.3435Y-2.5415
X2.4685Y-1.2915
X2.4685Y-1.4165
X2.5685Y-1.0665
X2.6935Y-4.0915
X2.7185Y-4.3665
X2.9185Y-2.5415
X3.0433Y-4.4663
X3.0435Y-1.8665
X3.2435Y-1.8915
X3.2435Y-1.9665
X3.4433Y-4.4663
X3.5185Y-1.8165
X3.5185Y-1.9665
X3.6435Y-2.2618
X3.7185Y-2.5134
X3.75Y-1.8415
X3.75Y-1.9415
X3.7685Y-4.0915
X3.8185Y-2.5134
X4.0185Y-3.5415
X4.1435Y-3.5415
X4.3185Y-3.0165
T2
X1.7953Y-4.0945
X1.823Y-4.0277
X1.823Y-4.1613
X1.8898Y-4.
X1.8898Y-4.189
X1.9566Y-4.0277
X1.9566Y-4.1613
X1.9843Y-4.0945
X1.2441Y-1.3386
X1.2718Y-1.2718
X1.2718Y-1.4054
X1.3386Y-1.2441
X1.3386Y-1.4331
X1.4054Y-1.2718
X1.4054Y-1.4054
X1.4331Y-1.3386
X4.Y-1.3445
X4.0277Y-1.2777
X4.0277Y-1.4113
X4.0945Y-1.25
X4.0945Y-1.439
X4.1613Y-1.2777
X4.1613Y-1.4113
X4.189Y-1.3445
T4
X0.9511Y-1.7931
X0.9511Y-1.99
T5
X1.2685Y-3.0165
X1.3685Y-3.0165
X4.0685Y-3.0165
X4.1685Y-3.0165
T6
X0.8665Y-4.0415
X0.8665Y-4.1415
X1.338Y-1.8915
X1.438Y-1.8915
X1.538Y-1.8915
X1.7685Y-1.8915
X1.8685Y-1.8915
X1.9685Y-1.8915
X2.0685Y-1.8915
X2.1685Y-1.8915
X2.2685Y-1.8915
X2.3685Y-1.8915
X2.4685Y-1.8915
X2.5165Y-0.8665
X2.6165Y-0.8665
X2.7165Y-0.8665
X2.8165Y-0.8665
X2.9165Y-0.8665
X2.8433Y-4.0945
X2.9433Y-4.0945
X3.0433Y-4.0945
X3.1433Y-4.0945
X3.2433Y-4.0945
X3.3433Y-4.0945
X3.4433Y-4.0945
X3.5433Y-4.0945
X1.0435Y-4.1415
X0.8665Y-2.5165
X0.8665Y-2.6165
X0.8665Y-2.7165
X0.8665Y-2.8165
X0.8665Y-2.9165
X4.5665Y-1.2665
X2.8185Y-1.3384
X2.9185Y-1.3384
X3.0185Y-1.3384
X3.1185Y-1.3384
X3.2185Y-1.3384
X3.3185Y-1.3384
X3.4185Y-1.3384
X3.5185Y-1.3384
X4.5665Y-2.5165
X4.5665Y-2.6165
X4.5665Y-2.7165
X4.5665Y-2.8165
X4.5665Y-2.9165
X3.8935Y-2.4165
X3.9935Y-2.4165
X2.5165Y-4.5665
X2.6165Y-4.5665
X2.7165Y-4.5665
X2.8165Y-4.5665
X2.9165Y-4.5665
X2.6685Y-3.5415
X2.7685Y-3.5415
T7
X1.7685Y-2.4165
X1.7685Y-3.0165
X1.8685Y-2.4165
X1.8685Y-3.0165
X1.9685Y-2.4165
X1.9685Y-3.0165
X2.0685Y-2.4165
X2.0685Y-3.0165
X2.1685Y-2.4165
X2.1685Y-3.0165
X2.2685Y-2.4165
X2.2685Y-3.0165
X2.3685Y-2.4165
X2.3685Y-3.0165
X2.4685Y-2.4165
X2.4685Y-3.0165
X2.5685Y-2.4165
X2.5685Y-3.0165
X2.6685Y-2.4165
X2.6685Y-3.0165
X2.7685Y-2.4165
X2.7685Y-3.0165
X2.8685Y-2.4165
X2.8685Y-3.0165
X2.9685Y-2.4165
X2.9685Y-3.0165
X3.0685Y-2.4165
X3.0685Y-3.0165
X3.1685Y-2.4165
X3.1685Y-3.0165
X3.2685Y-2.4165
X3.2685Y-3.0165
X3.3685Y-2.4165
X3.3685Y-3.0165
X3.4685Y-2.4165
X3.4685Y-3.0165
X3.5685Y-2.4165
X3.5685Y-3.0165
X3.6685Y-3.0165
X3.6705Y-2.4165
T8
X1.8898Y-4.0945
X1.3386Y-1.3386
X4.0945Y-1.3445
T3
X0.831Y-1.7537G85X0.8586Y-1.7537
G05
X0.8586Y-2.0293G85X0.831Y-2.0293
G05
T0
M30
