G04 #@! TF.GenerationSoftware,KiCad,Pcbnew,5.0.1+dfsg1-3*
G04 #@! TF.CreationDate,2018-12-12T18:27:28+01:00*
G04 #@! TF.ProjectId,BitkanoneV2,4269746B616E6F6E6556322E6B696361,2.0*
G04 #@! TF.SameCoordinates,Original*
G04 #@! TF.FileFunction,Paste,Top*
G04 #@! TF.FilePolarity,Positive*
%FSLAX46Y46*%
G04 Gerber Fmt 4.6, Leading zero omitted, Abs format (unit mm)*
G04 Created by KiCad (PCBNEW 5.0.1+dfsg1-3) date Mi 12 Dez 2018 18:27:28 CET*
%MOMM*%
%LPD*%
G01*
G04 APERTURE LIST*
%ADD10C,0.150000*%
%ADD11R,1.900000X1.500000*%
%ADD12R,1.350000X0.400000*%
%ADD13R,3.500000X1.600000*%
%ADD14C,0.950000*%
%ADD15R,2.180000X1.600000*%
%ADD16R,1.000000X1.500000*%
%ADD17C,0.875000*%
%ADD18R,1.550000X0.600000*%
G04 APERTURE END LIST*
D10*
X118000000Y-20000000D02*
X20000000Y-20000000D01*
X118000000Y-118000000D02*
X118000000Y-20000000D01*
X20000000Y-118000000D02*
X118000000Y-118000000D01*
X20000000Y-20000000D02*
X20000000Y-118000000D01*
D11*
G04 #@! TO.C,XU1*
X21458300Y-49045000D03*
D12*
X24158300Y-47395000D03*
X24158300Y-46745000D03*
X24158300Y-49345000D03*
X24158300Y-48695000D03*
X24158300Y-48045000D03*
D11*
X21458300Y-47045000D03*
G04 #@! TD*
D13*
G04 #@! TO.C,C950*
X45295800Y-89955000D03*
X50895800Y-89955000D03*
G04 #@! TD*
D10*
G04 #@! TO.C,R502*
G36*
X99791579Y-75221144D02*
X99814634Y-75224563D01*
X99837243Y-75230227D01*
X99859187Y-75238079D01*
X99880257Y-75248044D01*
X99900248Y-75260026D01*
X99918968Y-75273910D01*
X99936238Y-75289562D01*
X99951890Y-75306832D01*
X99965774Y-75325552D01*
X99977756Y-75345543D01*
X99987721Y-75366613D01*
X99995573Y-75388557D01*
X100001237Y-75411166D01*
X100004656Y-75434221D01*
X100005800Y-75457500D01*
X100005800Y-76032500D01*
X100004656Y-76055779D01*
X100001237Y-76078834D01*
X99995573Y-76101443D01*
X99987721Y-76123387D01*
X99977756Y-76144457D01*
X99965774Y-76164448D01*
X99951890Y-76183168D01*
X99936238Y-76200438D01*
X99918968Y-76216090D01*
X99900248Y-76229974D01*
X99880257Y-76241956D01*
X99859187Y-76251921D01*
X99837243Y-76259773D01*
X99814634Y-76265437D01*
X99791579Y-76268856D01*
X99768300Y-76270000D01*
X99293300Y-76270000D01*
X99270021Y-76268856D01*
X99246966Y-76265437D01*
X99224357Y-76259773D01*
X99202413Y-76251921D01*
X99181343Y-76241956D01*
X99161352Y-76229974D01*
X99142632Y-76216090D01*
X99125362Y-76200438D01*
X99109710Y-76183168D01*
X99095826Y-76164448D01*
X99083844Y-76144457D01*
X99073879Y-76123387D01*
X99066027Y-76101443D01*
X99060363Y-76078834D01*
X99056944Y-76055779D01*
X99055800Y-76032500D01*
X99055800Y-75457500D01*
X99056944Y-75434221D01*
X99060363Y-75411166D01*
X99066027Y-75388557D01*
X99073879Y-75366613D01*
X99083844Y-75345543D01*
X99095826Y-75325552D01*
X99109710Y-75306832D01*
X99125362Y-75289562D01*
X99142632Y-75273910D01*
X99161352Y-75260026D01*
X99181343Y-75248044D01*
X99202413Y-75238079D01*
X99224357Y-75230227D01*
X99246966Y-75224563D01*
X99270021Y-75221144D01*
X99293300Y-75220000D01*
X99768300Y-75220000D01*
X99791579Y-75221144D01*
X99791579Y-75221144D01*
G37*
D14*
X99530800Y-75745000D03*
D10*
G36*
X99791579Y-76971144D02*
X99814634Y-76974563D01*
X99837243Y-76980227D01*
X99859187Y-76988079D01*
X99880257Y-76998044D01*
X99900248Y-77010026D01*
X99918968Y-77023910D01*
X99936238Y-77039562D01*
X99951890Y-77056832D01*
X99965774Y-77075552D01*
X99977756Y-77095543D01*
X99987721Y-77116613D01*
X99995573Y-77138557D01*
X100001237Y-77161166D01*
X100004656Y-77184221D01*
X100005800Y-77207500D01*
X100005800Y-77782500D01*
X100004656Y-77805779D01*
X100001237Y-77828834D01*
X99995573Y-77851443D01*
X99987721Y-77873387D01*
X99977756Y-77894457D01*
X99965774Y-77914448D01*
X99951890Y-77933168D01*
X99936238Y-77950438D01*
X99918968Y-77966090D01*
X99900248Y-77979974D01*
X99880257Y-77991956D01*
X99859187Y-78001921D01*
X99837243Y-78009773D01*
X99814634Y-78015437D01*
X99791579Y-78018856D01*
X99768300Y-78020000D01*
X99293300Y-78020000D01*
X99270021Y-78018856D01*
X99246966Y-78015437D01*
X99224357Y-78009773D01*
X99202413Y-78001921D01*
X99181343Y-77991956D01*
X99161352Y-77979974D01*
X99142632Y-77966090D01*
X99125362Y-77950438D01*
X99109710Y-77933168D01*
X99095826Y-77914448D01*
X99083844Y-77894457D01*
X99073879Y-77873387D01*
X99066027Y-77851443D01*
X99060363Y-77828834D01*
X99056944Y-77805779D01*
X99055800Y-77782500D01*
X99055800Y-77207500D01*
X99056944Y-77184221D01*
X99060363Y-77161166D01*
X99066027Y-77138557D01*
X99073879Y-77116613D01*
X99083844Y-77095543D01*
X99095826Y-77075552D01*
X99109710Y-77056832D01*
X99125362Y-77039562D01*
X99142632Y-77023910D01*
X99161352Y-77010026D01*
X99181343Y-76998044D01*
X99202413Y-76988079D01*
X99224357Y-76980227D01*
X99246966Y-76974563D01*
X99270021Y-76971144D01*
X99293300Y-76970000D01*
X99768300Y-76970000D01*
X99791579Y-76971144D01*
X99791579Y-76971144D01*
G37*
D14*
X99530800Y-77495000D03*
G04 #@! TD*
D10*
G04 #@! TO.C,R501*
G36*
X38831579Y-76731144D02*
X38854634Y-76734563D01*
X38877243Y-76740227D01*
X38899187Y-76748079D01*
X38920257Y-76758044D01*
X38940248Y-76770026D01*
X38958968Y-76783910D01*
X38976238Y-76799562D01*
X38991890Y-76816832D01*
X39005774Y-76835552D01*
X39017756Y-76855543D01*
X39027721Y-76876613D01*
X39035573Y-76898557D01*
X39041237Y-76921166D01*
X39044656Y-76944221D01*
X39045800Y-76967500D01*
X39045800Y-77542500D01*
X39044656Y-77565779D01*
X39041237Y-77588834D01*
X39035573Y-77611443D01*
X39027721Y-77633387D01*
X39017756Y-77654457D01*
X39005774Y-77674448D01*
X38991890Y-77693168D01*
X38976238Y-77710438D01*
X38958968Y-77726090D01*
X38940248Y-77739974D01*
X38920257Y-77751956D01*
X38899187Y-77761921D01*
X38877243Y-77769773D01*
X38854634Y-77775437D01*
X38831579Y-77778856D01*
X38808300Y-77780000D01*
X38333300Y-77780000D01*
X38310021Y-77778856D01*
X38286966Y-77775437D01*
X38264357Y-77769773D01*
X38242413Y-77761921D01*
X38221343Y-77751956D01*
X38201352Y-77739974D01*
X38182632Y-77726090D01*
X38165362Y-77710438D01*
X38149710Y-77693168D01*
X38135826Y-77674448D01*
X38123844Y-77654457D01*
X38113879Y-77633387D01*
X38106027Y-77611443D01*
X38100363Y-77588834D01*
X38096944Y-77565779D01*
X38095800Y-77542500D01*
X38095800Y-76967500D01*
X38096944Y-76944221D01*
X38100363Y-76921166D01*
X38106027Y-76898557D01*
X38113879Y-76876613D01*
X38123844Y-76855543D01*
X38135826Y-76835552D01*
X38149710Y-76816832D01*
X38165362Y-76799562D01*
X38182632Y-76783910D01*
X38201352Y-76770026D01*
X38221343Y-76758044D01*
X38242413Y-76748079D01*
X38264357Y-76740227D01*
X38286966Y-76734563D01*
X38310021Y-76731144D01*
X38333300Y-76730000D01*
X38808300Y-76730000D01*
X38831579Y-76731144D01*
X38831579Y-76731144D01*
G37*
D14*
X38570800Y-77255000D03*
D10*
G36*
X38831579Y-74981144D02*
X38854634Y-74984563D01*
X38877243Y-74990227D01*
X38899187Y-74998079D01*
X38920257Y-75008044D01*
X38940248Y-75020026D01*
X38958968Y-75033910D01*
X38976238Y-75049562D01*
X38991890Y-75066832D01*
X39005774Y-75085552D01*
X39017756Y-75105543D01*
X39027721Y-75126613D01*
X39035573Y-75148557D01*
X39041237Y-75171166D01*
X39044656Y-75194221D01*
X39045800Y-75217500D01*
X39045800Y-75792500D01*
X39044656Y-75815779D01*
X39041237Y-75838834D01*
X39035573Y-75861443D01*
X39027721Y-75883387D01*
X39017756Y-75904457D01*
X39005774Y-75924448D01*
X38991890Y-75943168D01*
X38976238Y-75960438D01*
X38958968Y-75976090D01*
X38940248Y-75989974D01*
X38920257Y-76001956D01*
X38899187Y-76011921D01*
X38877243Y-76019773D01*
X38854634Y-76025437D01*
X38831579Y-76028856D01*
X38808300Y-76030000D01*
X38333300Y-76030000D01*
X38310021Y-76028856D01*
X38286966Y-76025437D01*
X38264357Y-76019773D01*
X38242413Y-76011921D01*
X38221343Y-76001956D01*
X38201352Y-75989974D01*
X38182632Y-75976090D01*
X38165362Y-75960438D01*
X38149710Y-75943168D01*
X38135826Y-75924448D01*
X38123844Y-75904457D01*
X38113879Y-75883387D01*
X38106027Y-75861443D01*
X38100363Y-75838834D01*
X38096944Y-75815779D01*
X38095800Y-75792500D01*
X38095800Y-75217500D01*
X38096944Y-75194221D01*
X38100363Y-75171166D01*
X38106027Y-75148557D01*
X38113879Y-75126613D01*
X38123844Y-75105543D01*
X38135826Y-75085552D01*
X38149710Y-75066832D01*
X38165362Y-75049562D01*
X38182632Y-75033910D01*
X38201352Y-75020026D01*
X38221343Y-75008044D01*
X38242413Y-74998079D01*
X38264357Y-74990227D01*
X38286966Y-74984563D01*
X38310021Y-74981144D01*
X38333300Y-74980000D01*
X38808300Y-74980000D01*
X38831579Y-74981144D01*
X38831579Y-74981144D01*
G37*
D14*
X38570800Y-75505000D03*
G04 #@! TD*
D15*
G04 #@! TO.C,S1*
X38715800Y-89955000D03*
X29535800Y-89955000D03*
G04 #@! TD*
G04 #@! TO.C,S3*
X99385800Y-89955000D03*
X108565800Y-89955000D03*
G04 #@! TD*
G04 #@! TO.C,S2*
X85415800Y-89955000D03*
X94595800Y-89955000D03*
G04 #@! TD*
D13*
G04 #@! TO.C,C900*
X31325800Y-104000000D03*
X36925800Y-104000000D03*
G04 #@! TD*
D16*
G04 #@! TO.C,D949*
X109400000Y-113450000D03*
X112600000Y-113450000D03*
X109400000Y-108550000D03*
X112600000Y-108550000D03*
G04 #@! TD*
D13*
G04 #@! TO.C,C402*
X106775800Y-103925000D03*
X101175800Y-103925000D03*
G04 #@! TD*
G04 #@! TO.C,C401*
X64865800Y-103925000D03*
X59265800Y-103925000D03*
G04 #@! TD*
D10*
G04 #@! TO.C,C901*
G36*
X32277691Y-25776053D02*
X32298926Y-25779203D01*
X32319750Y-25784419D01*
X32339962Y-25791651D01*
X32359368Y-25800830D01*
X32377781Y-25811866D01*
X32395024Y-25824654D01*
X32410930Y-25839070D01*
X32425346Y-25854976D01*
X32438134Y-25872219D01*
X32449170Y-25890632D01*
X32458349Y-25910038D01*
X32465581Y-25930250D01*
X32470797Y-25951074D01*
X32473947Y-25972309D01*
X32475000Y-25993750D01*
X32475000Y-26431250D01*
X32473947Y-26452691D01*
X32470797Y-26473926D01*
X32465581Y-26494750D01*
X32458349Y-26514962D01*
X32449170Y-26534368D01*
X32438134Y-26552781D01*
X32425346Y-26570024D01*
X32410930Y-26585930D01*
X32395024Y-26600346D01*
X32377781Y-26613134D01*
X32359368Y-26624170D01*
X32339962Y-26633349D01*
X32319750Y-26640581D01*
X32298926Y-26645797D01*
X32277691Y-26648947D01*
X32256250Y-26650000D01*
X31743750Y-26650000D01*
X31722309Y-26648947D01*
X31701074Y-26645797D01*
X31680250Y-26640581D01*
X31660038Y-26633349D01*
X31640632Y-26624170D01*
X31622219Y-26613134D01*
X31604976Y-26600346D01*
X31589070Y-26585930D01*
X31574654Y-26570024D01*
X31561866Y-26552781D01*
X31550830Y-26534368D01*
X31541651Y-26514962D01*
X31534419Y-26494750D01*
X31529203Y-26473926D01*
X31526053Y-26452691D01*
X31525000Y-26431250D01*
X31525000Y-25993750D01*
X31526053Y-25972309D01*
X31529203Y-25951074D01*
X31534419Y-25930250D01*
X31541651Y-25910038D01*
X31550830Y-25890632D01*
X31561866Y-25872219D01*
X31574654Y-25854976D01*
X31589070Y-25839070D01*
X31604976Y-25824654D01*
X31622219Y-25811866D01*
X31640632Y-25800830D01*
X31660038Y-25791651D01*
X31680250Y-25784419D01*
X31701074Y-25779203D01*
X31722309Y-25776053D01*
X31743750Y-25775000D01*
X32256250Y-25775000D01*
X32277691Y-25776053D01*
X32277691Y-25776053D01*
G37*
D17*
X32000000Y-26212500D03*
D10*
G36*
X32277691Y-27351053D02*
X32298926Y-27354203D01*
X32319750Y-27359419D01*
X32339962Y-27366651D01*
X32359368Y-27375830D01*
X32377781Y-27386866D01*
X32395024Y-27399654D01*
X32410930Y-27414070D01*
X32425346Y-27429976D01*
X32438134Y-27447219D01*
X32449170Y-27465632D01*
X32458349Y-27485038D01*
X32465581Y-27505250D01*
X32470797Y-27526074D01*
X32473947Y-27547309D01*
X32475000Y-27568750D01*
X32475000Y-28006250D01*
X32473947Y-28027691D01*
X32470797Y-28048926D01*
X32465581Y-28069750D01*
X32458349Y-28089962D01*
X32449170Y-28109368D01*
X32438134Y-28127781D01*
X32425346Y-28145024D01*
X32410930Y-28160930D01*
X32395024Y-28175346D01*
X32377781Y-28188134D01*
X32359368Y-28199170D01*
X32339962Y-28208349D01*
X32319750Y-28215581D01*
X32298926Y-28220797D01*
X32277691Y-28223947D01*
X32256250Y-28225000D01*
X31743750Y-28225000D01*
X31722309Y-28223947D01*
X31701074Y-28220797D01*
X31680250Y-28215581D01*
X31660038Y-28208349D01*
X31640632Y-28199170D01*
X31622219Y-28188134D01*
X31604976Y-28175346D01*
X31589070Y-28160930D01*
X31574654Y-28145024D01*
X31561866Y-28127781D01*
X31550830Y-28109368D01*
X31541651Y-28089962D01*
X31534419Y-28069750D01*
X31529203Y-28048926D01*
X31526053Y-28027691D01*
X31525000Y-28006250D01*
X31525000Y-27568750D01*
X31526053Y-27547309D01*
X31529203Y-27526074D01*
X31534419Y-27505250D01*
X31541651Y-27485038D01*
X31550830Y-27465632D01*
X31561866Y-27447219D01*
X31574654Y-27429976D01*
X31589070Y-27414070D01*
X31604976Y-27399654D01*
X31622219Y-27386866D01*
X31640632Y-27375830D01*
X31660038Y-27366651D01*
X31680250Y-27359419D01*
X31701074Y-27354203D01*
X31722309Y-27351053D01*
X31743750Y-27350000D01*
X32256250Y-27350000D01*
X32277691Y-27351053D01*
X32277691Y-27351053D01*
G37*
D17*
X32000000Y-27787500D03*
G04 #@! TD*
D10*
G04 #@! TO.C,C904*
G36*
X74277691Y-27351053D02*
X74298926Y-27354203D01*
X74319750Y-27359419D01*
X74339962Y-27366651D01*
X74359368Y-27375830D01*
X74377781Y-27386866D01*
X74395024Y-27399654D01*
X74410930Y-27414070D01*
X74425346Y-27429976D01*
X74438134Y-27447219D01*
X74449170Y-27465632D01*
X74458349Y-27485038D01*
X74465581Y-27505250D01*
X74470797Y-27526074D01*
X74473947Y-27547309D01*
X74475000Y-27568750D01*
X74475000Y-28006250D01*
X74473947Y-28027691D01*
X74470797Y-28048926D01*
X74465581Y-28069750D01*
X74458349Y-28089962D01*
X74449170Y-28109368D01*
X74438134Y-28127781D01*
X74425346Y-28145024D01*
X74410930Y-28160930D01*
X74395024Y-28175346D01*
X74377781Y-28188134D01*
X74359368Y-28199170D01*
X74339962Y-28208349D01*
X74319750Y-28215581D01*
X74298926Y-28220797D01*
X74277691Y-28223947D01*
X74256250Y-28225000D01*
X73743750Y-28225000D01*
X73722309Y-28223947D01*
X73701074Y-28220797D01*
X73680250Y-28215581D01*
X73660038Y-28208349D01*
X73640632Y-28199170D01*
X73622219Y-28188134D01*
X73604976Y-28175346D01*
X73589070Y-28160930D01*
X73574654Y-28145024D01*
X73561866Y-28127781D01*
X73550830Y-28109368D01*
X73541651Y-28089962D01*
X73534419Y-28069750D01*
X73529203Y-28048926D01*
X73526053Y-28027691D01*
X73525000Y-28006250D01*
X73525000Y-27568750D01*
X73526053Y-27547309D01*
X73529203Y-27526074D01*
X73534419Y-27505250D01*
X73541651Y-27485038D01*
X73550830Y-27465632D01*
X73561866Y-27447219D01*
X73574654Y-27429976D01*
X73589070Y-27414070D01*
X73604976Y-27399654D01*
X73622219Y-27386866D01*
X73640632Y-27375830D01*
X73660038Y-27366651D01*
X73680250Y-27359419D01*
X73701074Y-27354203D01*
X73722309Y-27351053D01*
X73743750Y-27350000D01*
X74256250Y-27350000D01*
X74277691Y-27351053D01*
X74277691Y-27351053D01*
G37*
D17*
X74000000Y-27787500D03*
D10*
G36*
X74277691Y-25776053D02*
X74298926Y-25779203D01*
X74319750Y-25784419D01*
X74339962Y-25791651D01*
X74359368Y-25800830D01*
X74377781Y-25811866D01*
X74395024Y-25824654D01*
X74410930Y-25839070D01*
X74425346Y-25854976D01*
X74438134Y-25872219D01*
X74449170Y-25890632D01*
X74458349Y-25910038D01*
X74465581Y-25930250D01*
X74470797Y-25951074D01*
X74473947Y-25972309D01*
X74475000Y-25993750D01*
X74475000Y-26431250D01*
X74473947Y-26452691D01*
X74470797Y-26473926D01*
X74465581Y-26494750D01*
X74458349Y-26514962D01*
X74449170Y-26534368D01*
X74438134Y-26552781D01*
X74425346Y-26570024D01*
X74410930Y-26585930D01*
X74395024Y-26600346D01*
X74377781Y-26613134D01*
X74359368Y-26624170D01*
X74339962Y-26633349D01*
X74319750Y-26640581D01*
X74298926Y-26645797D01*
X74277691Y-26648947D01*
X74256250Y-26650000D01*
X73743750Y-26650000D01*
X73722309Y-26648947D01*
X73701074Y-26645797D01*
X73680250Y-26640581D01*
X73660038Y-26633349D01*
X73640632Y-26624170D01*
X73622219Y-26613134D01*
X73604976Y-26600346D01*
X73589070Y-26585930D01*
X73574654Y-26570024D01*
X73561866Y-26552781D01*
X73550830Y-26534368D01*
X73541651Y-26514962D01*
X73534419Y-26494750D01*
X73529203Y-26473926D01*
X73526053Y-26452691D01*
X73525000Y-26431250D01*
X73525000Y-25993750D01*
X73526053Y-25972309D01*
X73529203Y-25951074D01*
X73534419Y-25930250D01*
X73541651Y-25910038D01*
X73550830Y-25890632D01*
X73561866Y-25872219D01*
X73574654Y-25854976D01*
X73589070Y-25839070D01*
X73604976Y-25824654D01*
X73622219Y-25811866D01*
X73640632Y-25800830D01*
X73660038Y-25791651D01*
X73680250Y-25784419D01*
X73701074Y-25779203D01*
X73722309Y-25776053D01*
X73743750Y-25775000D01*
X74256250Y-25775000D01*
X74277691Y-25776053D01*
X74277691Y-25776053D01*
G37*
D17*
X74000000Y-26212500D03*
G04 #@! TD*
D10*
G04 #@! TO.C,C905*
G36*
X88277691Y-25776053D02*
X88298926Y-25779203D01*
X88319750Y-25784419D01*
X88339962Y-25791651D01*
X88359368Y-25800830D01*
X88377781Y-25811866D01*
X88395024Y-25824654D01*
X88410930Y-25839070D01*
X88425346Y-25854976D01*
X88438134Y-25872219D01*
X88449170Y-25890632D01*
X88458349Y-25910038D01*
X88465581Y-25930250D01*
X88470797Y-25951074D01*
X88473947Y-25972309D01*
X88475000Y-25993750D01*
X88475000Y-26431250D01*
X88473947Y-26452691D01*
X88470797Y-26473926D01*
X88465581Y-26494750D01*
X88458349Y-26514962D01*
X88449170Y-26534368D01*
X88438134Y-26552781D01*
X88425346Y-26570024D01*
X88410930Y-26585930D01*
X88395024Y-26600346D01*
X88377781Y-26613134D01*
X88359368Y-26624170D01*
X88339962Y-26633349D01*
X88319750Y-26640581D01*
X88298926Y-26645797D01*
X88277691Y-26648947D01*
X88256250Y-26650000D01*
X87743750Y-26650000D01*
X87722309Y-26648947D01*
X87701074Y-26645797D01*
X87680250Y-26640581D01*
X87660038Y-26633349D01*
X87640632Y-26624170D01*
X87622219Y-26613134D01*
X87604976Y-26600346D01*
X87589070Y-26585930D01*
X87574654Y-26570024D01*
X87561866Y-26552781D01*
X87550830Y-26534368D01*
X87541651Y-26514962D01*
X87534419Y-26494750D01*
X87529203Y-26473926D01*
X87526053Y-26452691D01*
X87525000Y-26431250D01*
X87525000Y-25993750D01*
X87526053Y-25972309D01*
X87529203Y-25951074D01*
X87534419Y-25930250D01*
X87541651Y-25910038D01*
X87550830Y-25890632D01*
X87561866Y-25872219D01*
X87574654Y-25854976D01*
X87589070Y-25839070D01*
X87604976Y-25824654D01*
X87622219Y-25811866D01*
X87640632Y-25800830D01*
X87660038Y-25791651D01*
X87680250Y-25784419D01*
X87701074Y-25779203D01*
X87722309Y-25776053D01*
X87743750Y-25775000D01*
X88256250Y-25775000D01*
X88277691Y-25776053D01*
X88277691Y-25776053D01*
G37*
D17*
X88000000Y-26212500D03*
D10*
G36*
X88277691Y-27351053D02*
X88298926Y-27354203D01*
X88319750Y-27359419D01*
X88339962Y-27366651D01*
X88359368Y-27375830D01*
X88377781Y-27386866D01*
X88395024Y-27399654D01*
X88410930Y-27414070D01*
X88425346Y-27429976D01*
X88438134Y-27447219D01*
X88449170Y-27465632D01*
X88458349Y-27485038D01*
X88465581Y-27505250D01*
X88470797Y-27526074D01*
X88473947Y-27547309D01*
X88475000Y-27568750D01*
X88475000Y-28006250D01*
X88473947Y-28027691D01*
X88470797Y-28048926D01*
X88465581Y-28069750D01*
X88458349Y-28089962D01*
X88449170Y-28109368D01*
X88438134Y-28127781D01*
X88425346Y-28145024D01*
X88410930Y-28160930D01*
X88395024Y-28175346D01*
X88377781Y-28188134D01*
X88359368Y-28199170D01*
X88339962Y-28208349D01*
X88319750Y-28215581D01*
X88298926Y-28220797D01*
X88277691Y-28223947D01*
X88256250Y-28225000D01*
X87743750Y-28225000D01*
X87722309Y-28223947D01*
X87701074Y-28220797D01*
X87680250Y-28215581D01*
X87660038Y-28208349D01*
X87640632Y-28199170D01*
X87622219Y-28188134D01*
X87604976Y-28175346D01*
X87589070Y-28160930D01*
X87574654Y-28145024D01*
X87561866Y-28127781D01*
X87550830Y-28109368D01*
X87541651Y-28089962D01*
X87534419Y-28069750D01*
X87529203Y-28048926D01*
X87526053Y-28027691D01*
X87525000Y-28006250D01*
X87525000Y-27568750D01*
X87526053Y-27547309D01*
X87529203Y-27526074D01*
X87534419Y-27505250D01*
X87541651Y-27485038D01*
X87550830Y-27465632D01*
X87561866Y-27447219D01*
X87574654Y-27429976D01*
X87589070Y-27414070D01*
X87604976Y-27399654D01*
X87622219Y-27386866D01*
X87640632Y-27375830D01*
X87660038Y-27366651D01*
X87680250Y-27359419D01*
X87701074Y-27354203D01*
X87722309Y-27351053D01*
X87743750Y-27350000D01*
X88256250Y-27350000D01*
X88277691Y-27351053D01*
X88277691Y-27351053D01*
G37*
D17*
X88000000Y-27787500D03*
G04 #@! TD*
D10*
G04 #@! TO.C,C906*
G36*
X102277691Y-27351053D02*
X102298926Y-27354203D01*
X102319750Y-27359419D01*
X102339962Y-27366651D01*
X102359368Y-27375830D01*
X102377781Y-27386866D01*
X102395024Y-27399654D01*
X102410930Y-27414070D01*
X102425346Y-27429976D01*
X102438134Y-27447219D01*
X102449170Y-27465632D01*
X102458349Y-27485038D01*
X102465581Y-27505250D01*
X102470797Y-27526074D01*
X102473947Y-27547309D01*
X102475000Y-27568750D01*
X102475000Y-28006250D01*
X102473947Y-28027691D01*
X102470797Y-28048926D01*
X102465581Y-28069750D01*
X102458349Y-28089962D01*
X102449170Y-28109368D01*
X102438134Y-28127781D01*
X102425346Y-28145024D01*
X102410930Y-28160930D01*
X102395024Y-28175346D01*
X102377781Y-28188134D01*
X102359368Y-28199170D01*
X102339962Y-28208349D01*
X102319750Y-28215581D01*
X102298926Y-28220797D01*
X102277691Y-28223947D01*
X102256250Y-28225000D01*
X101743750Y-28225000D01*
X101722309Y-28223947D01*
X101701074Y-28220797D01*
X101680250Y-28215581D01*
X101660038Y-28208349D01*
X101640632Y-28199170D01*
X101622219Y-28188134D01*
X101604976Y-28175346D01*
X101589070Y-28160930D01*
X101574654Y-28145024D01*
X101561866Y-28127781D01*
X101550830Y-28109368D01*
X101541651Y-28089962D01*
X101534419Y-28069750D01*
X101529203Y-28048926D01*
X101526053Y-28027691D01*
X101525000Y-28006250D01*
X101525000Y-27568750D01*
X101526053Y-27547309D01*
X101529203Y-27526074D01*
X101534419Y-27505250D01*
X101541651Y-27485038D01*
X101550830Y-27465632D01*
X101561866Y-27447219D01*
X101574654Y-27429976D01*
X101589070Y-27414070D01*
X101604976Y-27399654D01*
X101622219Y-27386866D01*
X101640632Y-27375830D01*
X101660038Y-27366651D01*
X101680250Y-27359419D01*
X101701074Y-27354203D01*
X101722309Y-27351053D01*
X101743750Y-27350000D01*
X102256250Y-27350000D01*
X102277691Y-27351053D01*
X102277691Y-27351053D01*
G37*
D17*
X102000000Y-27787500D03*
D10*
G36*
X102277691Y-25776053D02*
X102298926Y-25779203D01*
X102319750Y-25784419D01*
X102339962Y-25791651D01*
X102359368Y-25800830D01*
X102377781Y-25811866D01*
X102395024Y-25824654D01*
X102410930Y-25839070D01*
X102425346Y-25854976D01*
X102438134Y-25872219D01*
X102449170Y-25890632D01*
X102458349Y-25910038D01*
X102465581Y-25930250D01*
X102470797Y-25951074D01*
X102473947Y-25972309D01*
X102475000Y-25993750D01*
X102475000Y-26431250D01*
X102473947Y-26452691D01*
X102470797Y-26473926D01*
X102465581Y-26494750D01*
X102458349Y-26514962D01*
X102449170Y-26534368D01*
X102438134Y-26552781D01*
X102425346Y-26570024D01*
X102410930Y-26585930D01*
X102395024Y-26600346D01*
X102377781Y-26613134D01*
X102359368Y-26624170D01*
X102339962Y-26633349D01*
X102319750Y-26640581D01*
X102298926Y-26645797D01*
X102277691Y-26648947D01*
X102256250Y-26650000D01*
X101743750Y-26650000D01*
X101722309Y-26648947D01*
X101701074Y-26645797D01*
X101680250Y-26640581D01*
X101660038Y-26633349D01*
X101640632Y-26624170D01*
X101622219Y-26613134D01*
X101604976Y-26600346D01*
X101589070Y-26585930D01*
X101574654Y-26570024D01*
X101561866Y-26552781D01*
X101550830Y-26534368D01*
X101541651Y-26514962D01*
X101534419Y-26494750D01*
X101529203Y-26473926D01*
X101526053Y-26452691D01*
X101525000Y-26431250D01*
X101525000Y-25993750D01*
X101526053Y-25972309D01*
X101529203Y-25951074D01*
X101534419Y-25930250D01*
X101541651Y-25910038D01*
X101550830Y-25890632D01*
X101561866Y-25872219D01*
X101574654Y-25854976D01*
X101589070Y-25839070D01*
X101604976Y-25824654D01*
X101622219Y-25811866D01*
X101640632Y-25800830D01*
X101660038Y-25791651D01*
X101680250Y-25784419D01*
X101701074Y-25779203D01*
X101722309Y-25776053D01*
X101743750Y-25775000D01*
X102256250Y-25775000D01*
X102277691Y-25776053D01*
X102277691Y-25776053D01*
G37*
D17*
X102000000Y-26212500D03*
G04 #@! TD*
D10*
G04 #@! TO.C,C907*
G36*
X116277691Y-25776053D02*
X116298926Y-25779203D01*
X116319750Y-25784419D01*
X116339962Y-25791651D01*
X116359368Y-25800830D01*
X116377781Y-25811866D01*
X116395024Y-25824654D01*
X116410930Y-25839070D01*
X116425346Y-25854976D01*
X116438134Y-25872219D01*
X116449170Y-25890632D01*
X116458349Y-25910038D01*
X116465581Y-25930250D01*
X116470797Y-25951074D01*
X116473947Y-25972309D01*
X116475000Y-25993750D01*
X116475000Y-26431250D01*
X116473947Y-26452691D01*
X116470797Y-26473926D01*
X116465581Y-26494750D01*
X116458349Y-26514962D01*
X116449170Y-26534368D01*
X116438134Y-26552781D01*
X116425346Y-26570024D01*
X116410930Y-26585930D01*
X116395024Y-26600346D01*
X116377781Y-26613134D01*
X116359368Y-26624170D01*
X116339962Y-26633349D01*
X116319750Y-26640581D01*
X116298926Y-26645797D01*
X116277691Y-26648947D01*
X116256250Y-26650000D01*
X115743750Y-26650000D01*
X115722309Y-26648947D01*
X115701074Y-26645797D01*
X115680250Y-26640581D01*
X115660038Y-26633349D01*
X115640632Y-26624170D01*
X115622219Y-26613134D01*
X115604976Y-26600346D01*
X115589070Y-26585930D01*
X115574654Y-26570024D01*
X115561866Y-26552781D01*
X115550830Y-26534368D01*
X115541651Y-26514962D01*
X115534419Y-26494750D01*
X115529203Y-26473926D01*
X115526053Y-26452691D01*
X115525000Y-26431250D01*
X115525000Y-25993750D01*
X115526053Y-25972309D01*
X115529203Y-25951074D01*
X115534419Y-25930250D01*
X115541651Y-25910038D01*
X115550830Y-25890632D01*
X115561866Y-25872219D01*
X115574654Y-25854976D01*
X115589070Y-25839070D01*
X115604976Y-25824654D01*
X115622219Y-25811866D01*
X115640632Y-25800830D01*
X115660038Y-25791651D01*
X115680250Y-25784419D01*
X115701074Y-25779203D01*
X115722309Y-25776053D01*
X115743750Y-25775000D01*
X116256250Y-25775000D01*
X116277691Y-25776053D01*
X116277691Y-25776053D01*
G37*
D17*
X116000000Y-26212500D03*
D10*
G36*
X116277691Y-27351053D02*
X116298926Y-27354203D01*
X116319750Y-27359419D01*
X116339962Y-27366651D01*
X116359368Y-27375830D01*
X116377781Y-27386866D01*
X116395024Y-27399654D01*
X116410930Y-27414070D01*
X116425346Y-27429976D01*
X116438134Y-27447219D01*
X116449170Y-27465632D01*
X116458349Y-27485038D01*
X116465581Y-27505250D01*
X116470797Y-27526074D01*
X116473947Y-27547309D01*
X116475000Y-27568750D01*
X116475000Y-28006250D01*
X116473947Y-28027691D01*
X116470797Y-28048926D01*
X116465581Y-28069750D01*
X116458349Y-28089962D01*
X116449170Y-28109368D01*
X116438134Y-28127781D01*
X116425346Y-28145024D01*
X116410930Y-28160930D01*
X116395024Y-28175346D01*
X116377781Y-28188134D01*
X116359368Y-28199170D01*
X116339962Y-28208349D01*
X116319750Y-28215581D01*
X116298926Y-28220797D01*
X116277691Y-28223947D01*
X116256250Y-28225000D01*
X115743750Y-28225000D01*
X115722309Y-28223947D01*
X115701074Y-28220797D01*
X115680250Y-28215581D01*
X115660038Y-28208349D01*
X115640632Y-28199170D01*
X115622219Y-28188134D01*
X115604976Y-28175346D01*
X115589070Y-28160930D01*
X115574654Y-28145024D01*
X115561866Y-28127781D01*
X115550830Y-28109368D01*
X115541651Y-28089962D01*
X115534419Y-28069750D01*
X115529203Y-28048926D01*
X115526053Y-28027691D01*
X115525000Y-28006250D01*
X115525000Y-27568750D01*
X115526053Y-27547309D01*
X115529203Y-27526074D01*
X115534419Y-27505250D01*
X115541651Y-27485038D01*
X115550830Y-27465632D01*
X115561866Y-27447219D01*
X115574654Y-27429976D01*
X115589070Y-27414070D01*
X115604976Y-27399654D01*
X115622219Y-27386866D01*
X115640632Y-27375830D01*
X115660038Y-27366651D01*
X115680250Y-27359419D01*
X115701074Y-27354203D01*
X115722309Y-27351053D01*
X115743750Y-27350000D01*
X116256250Y-27350000D01*
X116277691Y-27351053D01*
X116277691Y-27351053D01*
G37*
D17*
X116000000Y-27787500D03*
G04 #@! TD*
D10*
G04 #@! TO.C,C908*
G36*
X32277691Y-41351053D02*
X32298926Y-41354203D01*
X32319750Y-41359419D01*
X32339962Y-41366651D01*
X32359368Y-41375830D01*
X32377781Y-41386866D01*
X32395024Y-41399654D01*
X32410930Y-41414070D01*
X32425346Y-41429976D01*
X32438134Y-41447219D01*
X32449170Y-41465632D01*
X32458349Y-41485038D01*
X32465581Y-41505250D01*
X32470797Y-41526074D01*
X32473947Y-41547309D01*
X32475000Y-41568750D01*
X32475000Y-42006250D01*
X32473947Y-42027691D01*
X32470797Y-42048926D01*
X32465581Y-42069750D01*
X32458349Y-42089962D01*
X32449170Y-42109368D01*
X32438134Y-42127781D01*
X32425346Y-42145024D01*
X32410930Y-42160930D01*
X32395024Y-42175346D01*
X32377781Y-42188134D01*
X32359368Y-42199170D01*
X32339962Y-42208349D01*
X32319750Y-42215581D01*
X32298926Y-42220797D01*
X32277691Y-42223947D01*
X32256250Y-42225000D01*
X31743750Y-42225000D01*
X31722309Y-42223947D01*
X31701074Y-42220797D01*
X31680250Y-42215581D01*
X31660038Y-42208349D01*
X31640632Y-42199170D01*
X31622219Y-42188134D01*
X31604976Y-42175346D01*
X31589070Y-42160930D01*
X31574654Y-42145024D01*
X31561866Y-42127781D01*
X31550830Y-42109368D01*
X31541651Y-42089962D01*
X31534419Y-42069750D01*
X31529203Y-42048926D01*
X31526053Y-42027691D01*
X31525000Y-42006250D01*
X31525000Y-41568750D01*
X31526053Y-41547309D01*
X31529203Y-41526074D01*
X31534419Y-41505250D01*
X31541651Y-41485038D01*
X31550830Y-41465632D01*
X31561866Y-41447219D01*
X31574654Y-41429976D01*
X31589070Y-41414070D01*
X31604976Y-41399654D01*
X31622219Y-41386866D01*
X31640632Y-41375830D01*
X31660038Y-41366651D01*
X31680250Y-41359419D01*
X31701074Y-41354203D01*
X31722309Y-41351053D01*
X31743750Y-41350000D01*
X32256250Y-41350000D01*
X32277691Y-41351053D01*
X32277691Y-41351053D01*
G37*
D17*
X32000000Y-41787500D03*
D10*
G36*
X32277691Y-39776053D02*
X32298926Y-39779203D01*
X32319750Y-39784419D01*
X32339962Y-39791651D01*
X32359368Y-39800830D01*
X32377781Y-39811866D01*
X32395024Y-39824654D01*
X32410930Y-39839070D01*
X32425346Y-39854976D01*
X32438134Y-39872219D01*
X32449170Y-39890632D01*
X32458349Y-39910038D01*
X32465581Y-39930250D01*
X32470797Y-39951074D01*
X32473947Y-39972309D01*
X32475000Y-39993750D01*
X32475000Y-40431250D01*
X32473947Y-40452691D01*
X32470797Y-40473926D01*
X32465581Y-40494750D01*
X32458349Y-40514962D01*
X32449170Y-40534368D01*
X32438134Y-40552781D01*
X32425346Y-40570024D01*
X32410930Y-40585930D01*
X32395024Y-40600346D01*
X32377781Y-40613134D01*
X32359368Y-40624170D01*
X32339962Y-40633349D01*
X32319750Y-40640581D01*
X32298926Y-40645797D01*
X32277691Y-40648947D01*
X32256250Y-40650000D01*
X31743750Y-40650000D01*
X31722309Y-40648947D01*
X31701074Y-40645797D01*
X31680250Y-40640581D01*
X31660038Y-40633349D01*
X31640632Y-40624170D01*
X31622219Y-40613134D01*
X31604976Y-40600346D01*
X31589070Y-40585930D01*
X31574654Y-40570024D01*
X31561866Y-40552781D01*
X31550830Y-40534368D01*
X31541651Y-40514962D01*
X31534419Y-40494750D01*
X31529203Y-40473926D01*
X31526053Y-40452691D01*
X31525000Y-40431250D01*
X31525000Y-39993750D01*
X31526053Y-39972309D01*
X31529203Y-39951074D01*
X31534419Y-39930250D01*
X31541651Y-39910038D01*
X31550830Y-39890632D01*
X31561866Y-39872219D01*
X31574654Y-39854976D01*
X31589070Y-39839070D01*
X31604976Y-39824654D01*
X31622219Y-39811866D01*
X31640632Y-39800830D01*
X31660038Y-39791651D01*
X31680250Y-39784419D01*
X31701074Y-39779203D01*
X31722309Y-39776053D01*
X31743750Y-39775000D01*
X32256250Y-39775000D01*
X32277691Y-39776053D01*
X32277691Y-39776053D01*
G37*
D17*
X32000000Y-40212500D03*
G04 #@! TD*
D10*
G04 #@! TO.C,C909*
G36*
X46277691Y-39776053D02*
X46298926Y-39779203D01*
X46319750Y-39784419D01*
X46339962Y-39791651D01*
X46359368Y-39800830D01*
X46377781Y-39811866D01*
X46395024Y-39824654D01*
X46410930Y-39839070D01*
X46425346Y-39854976D01*
X46438134Y-39872219D01*
X46449170Y-39890632D01*
X46458349Y-39910038D01*
X46465581Y-39930250D01*
X46470797Y-39951074D01*
X46473947Y-39972309D01*
X46475000Y-39993750D01*
X46475000Y-40431250D01*
X46473947Y-40452691D01*
X46470797Y-40473926D01*
X46465581Y-40494750D01*
X46458349Y-40514962D01*
X46449170Y-40534368D01*
X46438134Y-40552781D01*
X46425346Y-40570024D01*
X46410930Y-40585930D01*
X46395024Y-40600346D01*
X46377781Y-40613134D01*
X46359368Y-40624170D01*
X46339962Y-40633349D01*
X46319750Y-40640581D01*
X46298926Y-40645797D01*
X46277691Y-40648947D01*
X46256250Y-40650000D01*
X45743750Y-40650000D01*
X45722309Y-40648947D01*
X45701074Y-40645797D01*
X45680250Y-40640581D01*
X45660038Y-40633349D01*
X45640632Y-40624170D01*
X45622219Y-40613134D01*
X45604976Y-40600346D01*
X45589070Y-40585930D01*
X45574654Y-40570024D01*
X45561866Y-40552781D01*
X45550830Y-40534368D01*
X45541651Y-40514962D01*
X45534419Y-40494750D01*
X45529203Y-40473926D01*
X45526053Y-40452691D01*
X45525000Y-40431250D01*
X45525000Y-39993750D01*
X45526053Y-39972309D01*
X45529203Y-39951074D01*
X45534419Y-39930250D01*
X45541651Y-39910038D01*
X45550830Y-39890632D01*
X45561866Y-39872219D01*
X45574654Y-39854976D01*
X45589070Y-39839070D01*
X45604976Y-39824654D01*
X45622219Y-39811866D01*
X45640632Y-39800830D01*
X45660038Y-39791651D01*
X45680250Y-39784419D01*
X45701074Y-39779203D01*
X45722309Y-39776053D01*
X45743750Y-39775000D01*
X46256250Y-39775000D01*
X46277691Y-39776053D01*
X46277691Y-39776053D01*
G37*
D17*
X46000000Y-40212500D03*
D10*
G36*
X46277691Y-41351053D02*
X46298926Y-41354203D01*
X46319750Y-41359419D01*
X46339962Y-41366651D01*
X46359368Y-41375830D01*
X46377781Y-41386866D01*
X46395024Y-41399654D01*
X46410930Y-41414070D01*
X46425346Y-41429976D01*
X46438134Y-41447219D01*
X46449170Y-41465632D01*
X46458349Y-41485038D01*
X46465581Y-41505250D01*
X46470797Y-41526074D01*
X46473947Y-41547309D01*
X46475000Y-41568750D01*
X46475000Y-42006250D01*
X46473947Y-42027691D01*
X46470797Y-42048926D01*
X46465581Y-42069750D01*
X46458349Y-42089962D01*
X46449170Y-42109368D01*
X46438134Y-42127781D01*
X46425346Y-42145024D01*
X46410930Y-42160930D01*
X46395024Y-42175346D01*
X46377781Y-42188134D01*
X46359368Y-42199170D01*
X46339962Y-42208349D01*
X46319750Y-42215581D01*
X46298926Y-42220797D01*
X46277691Y-42223947D01*
X46256250Y-42225000D01*
X45743750Y-42225000D01*
X45722309Y-42223947D01*
X45701074Y-42220797D01*
X45680250Y-42215581D01*
X45660038Y-42208349D01*
X45640632Y-42199170D01*
X45622219Y-42188134D01*
X45604976Y-42175346D01*
X45589070Y-42160930D01*
X45574654Y-42145024D01*
X45561866Y-42127781D01*
X45550830Y-42109368D01*
X45541651Y-42089962D01*
X45534419Y-42069750D01*
X45529203Y-42048926D01*
X45526053Y-42027691D01*
X45525000Y-42006250D01*
X45525000Y-41568750D01*
X45526053Y-41547309D01*
X45529203Y-41526074D01*
X45534419Y-41505250D01*
X45541651Y-41485038D01*
X45550830Y-41465632D01*
X45561866Y-41447219D01*
X45574654Y-41429976D01*
X45589070Y-41414070D01*
X45604976Y-41399654D01*
X45622219Y-41386866D01*
X45640632Y-41375830D01*
X45660038Y-41366651D01*
X45680250Y-41359419D01*
X45701074Y-41354203D01*
X45722309Y-41351053D01*
X45743750Y-41350000D01*
X46256250Y-41350000D01*
X46277691Y-41351053D01*
X46277691Y-41351053D01*
G37*
D17*
X46000000Y-41787500D03*
G04 #@! TD*
D10*
G04 #@! TO.C,C910*
G36*
X60277691Y-41351053D02*
X60298926Y-41354203D01*
X60319750Y-41359419D01*
X60339962Y-41366651D01*
X60359368Y-41375830D01*
X60377781Y-41386866D01*
X60395024Y-41399654D01*
X60410930Y-41414070D01*
X60425346Y-41429976D01*
X60438134Y-41447219D01*
X60449170Y-41465632D01*
X60458349Y-41485038D01*
X60465581Y-41505250D01*
X60470797Y-41526074D01*
X60473947Y-41547309D01*
X60475000Y-41568750D01*
X60475000Y-42006250D01*
X60473947Y-42027691D01*
X60470797Y-42048926D01*
X60465581Y-42069750D01*
X60458349Y-42089962D01*
X60449170Y-42109368D01*
X60438134Y-42127781D01*
X60425346Y-42145024D01*
X60410930Y-42160930D01*
X60395024Y-42175346D01*
X60377781Y-42188134D01*
X60359368Y-42199170D01*
X60339962Y-42208349D01*
X60319750Y-42215581D01*
X60298926Y-42220797D01*
X60277691Y-42223947D01*
X60256250Y-42225000D01*
X59743750Y-42225000D01*
X59722309Y-42223947D01*
X59701074Y-42220797D01*
X59680250Y-42215581D01*
X59660038Y-42208349D01*
X59640632Y-42199170D01*
X59622219Y-42188134D01*
X59604976Y-42175346D01*
X59589070Y-42160930D01*
X59574654Y-42145024D01*
X59561866Y-42127781D01*
X59550830Y-42109368D01*
X59541651Y-42089962D01*
X59534419Y-42069750D01*
X59529203Y-42048926D01*
X59526053Y-42027691D01*
X59525000Y-42006250D01*
X59525000Y-41568750D01*
X59526053Y-41547309D01*
X59529203Y-41526074D01*
X59534419Y-41505250D01*
X59541651Y-41485038D01*
X59550830Y-41465632D01*
X59561866Y-41447219D01*
X59574654Y-41429976D01*
X59589070Y-41414070D01*
X59604976Y-41399654D01*
X59622219Y-41386866D01*
X59640632Y-41375830D01*
X59660038Y-41366651D01*
X59680250Y-41359419D01*
X59701074Y-41354203D01*
X59722309Y-41351053D01*
X59743750Y-41350000D01*
X60256250Y-41350000D01*
X60277691Y-41351053D01*
X60277691Y-41351053D01*
G37*
D17*
X60000000Y-41787500D03*
D10*
G36*
X60277691Y-39776053D02*
X60298926Y-39779203D01*
X60319750Y-39784419D01*
X60339962Y-39791651D01*
X60359368Y-39800830D01*
X60377781Y-39811866D01*
X60395024Y-39824654D01*
X60410930Y-39839070D01*
X60425346Y-39854976D01*
X60438134Y-39872219D01*
X60449170Y-39890632D01*
X60458349Y-39910038D01*
X60465581Y-39930250D01*
X60470797Y-39951074D01*
X60473947Y-39972309D01*
X60475000Y-39993750D01*
X60475000Y-40431250D01*
X60473947Y-40452691D01*
X60470797Y-40473926D01*
X60465581Y-40494750D01*
X60458349Y-40514962D01*
X60449170Y-40534368D01*
X60438134Y-40552781D01*
X60425346Y-40570024D01*
X60410930Y-40585930D01*
X60395024Y-40600346D01*
X60377781Y-40613134D01*
X60359368Y-40624170D01*
X60339962Y-40633349D01*
X60319750Y-40640581D01*
X60298926Y-40645797D01*
X60277691Y-40648947D01*
X60256250Y-40650000D01*
X59743750Y-40650000D01*
X59722309Y-40648947D01*
X59701074Y-40645797D01*
X59680250Y-40640581D01*
X59660038Y-40633349D01*
X59640632Y-40624170D01*
X59622219Y-40613134D01*
X59604976Y-40600346D01*
X59589070Y-40585930D01*
X59574654Y-40570024D01*
X59561866Y-40552781D01*
X59550830Y-40534368D01*
X59541651Y-40514962D01*
X59534419Y-40494750D01*
X59529203Y-40473926D01*
X59526053Y-40452691D01*
X59525000Y-40431250D01*
X59525000Y-39993750D01*
X59526053Y-39972309D01*
X59529203Y-39951074D01*
X59534419Y-39930250D01*
X59541651Y-39910038D01*
X59550830Y-39890632D01*
X59561866Y-39872219D01*
X59574654Y-39854976D01*
X59589070Y-39839070D01*
X59604976Y-39824654D01*
X59622219Y-39811866D01*
X59640632Y-39800830D01*
X59660038Y-39791651D01*
X59680250Y-39784419D01*
X59701074Y-39779203D01*
X59722309Y-39776053D01*
X59743750Y-39775000D01*
X60256250Y-39775000D01*
X60277691Y-39776053D01*
X60277691Y-39776053D01*
G37*
D17*
X60000000Y-40212500D03*
G04 #@! TD*
D10*
G04 #@! TO.C,C911*
G36*
X74277691Y-39776053D02*
X74298926Y-39779203D01*
X74319750Y-39784419D01*
X74339962Y-39791651D01*
X74359368Y-39800830D01*
X74377781Y-39811866D01*
X74395024Y-39824654D01*
X74410930Y-39839070D01*
X74425346Y-39854976D01*
X74438134Y-39872219D01*
X74449170Y-39890632D01*
X74458349Y-39910038D01*
X74465581Y-39930250D01*
X74470797Y-39951074D01*
X74473947Y-39972309D01*
X74475000Y-39993750D01*
X74475000Y-40431250D01*
X74473947Y-40452691D01*
X74470797Y-40473926D01*
X74465581Y-40494750D01*
X74458349Y-40514962D01*
X74449170Y-40534368D01*
X74438134Y-40552781D01*
X74425346Y-40570024D01*
X74410930Y-40585930D01*
X74395024Y-40600346D01*
X74377781Y-40613134D01*
X74359368Y-40624170D01*
X74339962Y-40633349D01*
X74319750Y-40640581D01*
X74298926Y-40645797D01*
X74277691Y-40648947D01*
X74256250Y-40650000D01*
X73743750Y-40650000D01*
X73722309Y-40648947D01*
X73701074Y-40645797D01*
X73680250Y-40640581D01*
X73660038Y-40633349D01*
X73640632Y-40624170D01*
X73622219Y-40613134D01*
X73604976Y-40600346D01*
X73589070Y-40585930D01*
X73574654Y-40570024D01*
X73561866Y-40552781D01*
X73550830Y-40534368D01*
X73541651Y-40514962D01*
X73534419Y-40494750D01*
X73529203Y-40473926D01*
X73526053Y-40452691D01*
X73525000Y-40431250D01*
X73525000Y-39993750D01*
X73526053Y-39972309D01*
X73529203Y-39951074D01*
X73534419Y-39930250D01*
X73541651Y-39910038D01*
X73550830Y-39890632D01*
X73561866Y-39872219D01*
X73574654Y-39854976D01*
X73589070Y-39839070D01*
X73604976Y-39824654D01*
X73622219Y-39811866D01*
X73640632Y-39800830D01*
X73660038Y-39791651D01*
X73680250Y-39784419D01*
X73701074Y-39779203D01*
X73722309Y-39776053D01*
X73743750Y-39775000D01*
X74256250Y-39775000D01*
X74277691Y-39776053D01*
X74277691Y-39776053D01*
G37*
D17*
X74000000Y-40212500D03*
D10*
G36*
X74277691Y-41351053D02*
X74298926Y-41354203D01*
X74319750Y-41359419D01*
X74339962Y-41366651D01*
X74359368Y-41375830D01*
X74377781Y-41386866D01*
X74395024Y-41399654D01*
X74410930Y-41414070D01*
X74425346Y-41429976D01*
X74438134Y-41447219D01*
X74449170Y-41465632D01*
X74458349Y-41485038D01*
X74465581Y-41505250D01*
X74470797Y-41526074D01*
X74473947Y-41547309D01*
X74475000Y-41568750D01*
X74475000Y-42006250D01*
X74473947Y-42027691D01*
X74470797Y-42048926D01*
X74465581Y-42069750D01*
X74458349Y-42089962D01*
X74449170Y-42109368D01*
X74438134Y-42127781D01*
X74425346Y-42145024D01*
X74410930Y-42160930D01*
X74395024Y-42175346D01*
X74377781Y-42188134D01*
X74359368Y-42199170D01*
X74339962Y-42208349D01*
X74319750Y-42215581D01*
X74298926Y-42220797D01*
X74277691Y-42223947D01*
X74256250Y-42225000D01*
X73743750Y-42225000D01*
X73722309Y-42223947D01*
X73701074Y-42220797D01*
X73680250Y-42215581D01*
X73660038Y-42208349D01*
X73640632Y-42199170D01*
X73622219Y-42188134D01*
X73604976Y-42175346D01*
X73589070Y-42160930D01*
X73574654Y-42145024D01*
X73561866Y-42127781D01*
X73550830Y-42109368D01*
X73541651Y-42089962D01*
X73534419Y-42069750D01*
X73529203Y-42048926D01*
X73526053Y-42027691D01*
X73525000Y-42006250D01*
X73525000Y-41568750D01*
X73526053Y-41547309D01*
X73529203Y-41526074D01*
X73534419Y-41505250D01*
X73541651Y-41485038D01*
X73550830Y-41465632D01*
X73561866Y-41447219D01*
X73574654Y-41429976D01*
X73589070Y-41414070D01*
X73604976Y-41399654D01*
X73622219Y-41386866D01*
X73640632Y-41375830D01*
X73660038Y-41366651D01*
X73680250Y-41359419D01*
X73701074Y-41354203D01*
X73722309Y-41351053D01*
X73743750Y-41350000D01*
X74256250Y-41350000D01*
X74277691Y-41351053D01*
X74277691Y-41351053D01*
G37*
D17*
X74000000Y-41787500D03*
G04 #@! TD*
D10*
G04 #@! TO.C,C948*
G36*
X102277691Y-111351053D02*
X102298926Y-111354203D01*
X102319750Y-111359419D01*
X102339962Y-111366651D01*
X102359368Y-111375830D01*
X102377781Y-111386866D01*
X102395024Y-111399654D01*
X102410930Y-111414070D01*
X102425346Y-111429976D01*
X102438134Y-111447219D01*
X102449170Y-111465632D01*
X102458349Y-111485038D01*
X102465581Y-111505250D01*
X102470797Y-111526074D01*
X102473947Y-111547309D01*
X102475000Y-111568750D01*
X102475000Y-112006250D01*
X102473947Y-112027691D01*
X102470797Y-112048926D01*
X102465581Y-112069750D01*
X102458349Y-112089962D01*
X102449170Y-112109368D01*
X102438134Y-112127781D01*
X102425346Y-112145024D01*
X102410930Y-112160930D01*
X102395024Y-112175346D01*
X102377781Y-112188134D01*
X102359368Y-112199170D01*
X102339962Y-112208349D01*
X102319750Y-112215581D01*
X102298926Y-112220797D01*
X102277691Y-112223947D01*
X102256250Y-112225000D01*
X101743750Y-112225000D01*
X101722309Y-112223947D01*
X101701074Y-112220797D01*
X101680250Y-112215581D01*
X101660038Y-112208349D01*
X101640632Y-112199170D01*
X101622219Y-112188134D01*
X101604976Y-112175346D01*
X101589070Y-112160930D01*
X101574654Y-112145024D01*
X101561866Y-112127781D01*
X101550830Y-112109368D01*
X101541651Y-112089962D01*
X101534419Y-112069750D01*
X101529203Y-112048926D01*
X101526053Y-112027691D01*
X101525000Y-112006250D01*
X101525000Y-111568750D01*
X101526053Y-111547309D01*
X101529203Y-111526074D01*
X101534419Y-111505250D01*
X101541651Y-111485038D01*
X101550830Y-111465632D01*
X101561866Y-111447219D01*
X101574654Y-111429976D01*
X101589070Y-111414070D01*
X101604976Y-111399654D01*
X101622219Y-111386866D01*
X101640632Y-111375830D01*
X101660038Y-111366651D01*
X101680250Y-111359419D01*
X101701074Y-111354203D01*
X101722309Y-111351053D01*
X101743750Y-111350000D01*
X102256250Y-111350000D01*
X102277691Y-111351053D01*
X102277691Y-111351053D01*
G37*
D17*
X102000000Y-111787500D03*
D10*
G36*
X102277691Y-109776053D02*
X102298926Y-109779203D01*
X102319750Y-109784419D01*
X102339962Y-109791651D01*
X102359368Y-109800830D01*
X102377781Y-109811866D01*
X102395024Y-109824654D01*
X102410930Y-109839070D01*
X102425346Y-109854976D01*
X102438134Y-109872219D01*
X102449170Y-109890632D01*
X102458349Y-109910038D01*
X102465581Y-109930250D01*
X102470797Y-109951074D01*
X102473947Y-109972309D01*
X102475000Y-109993750D01*
X102475000Y-110431250D01*
X102473947Y-110452691D01*
X102470797Y-110473926D01*
X102465581Y-110494750D01*
X102458349Y-110514962D01*
X102449170Y-110534368D01*
X102438134Y-110552781D01*
X102425346Y-110570024D01*
X102410930Y-110585930D01*
X102395024Y-110600346D01*
X102377781Y-110613134D01*
X102359368Y-110624170D01*
X102339962Y-110633349D01*
X102319750Y-110640581D01*
X102298926Y-110645797D01*
X102277691Y-110648947D01*
X102256250Y-110650000D01*
X101743750Y-110650000D01*
X101722309Y-110648947D01*
X101701074Y-110645797D01*
X101680250Y-110640581D01*
X101660038Y-110633349D01*
X101640632Y-110624170D01*
X101622219Y-110613134D01*
X101604976Y-110600346D01*
X101589070Y-110585930D01*
X101574654Y-110570024D01*
X101561866Y-110552781D01*
X101550830Y-110534368D01*
X101541651Y-110514962D01*
X101534419Y-110494750D01*
X101529203Y-110473926D01*
X101526053Y-110452691D01*
X101525000Y-110431250D01*
X101525000Y-109993750D01*
X101526053Y-109972309D01*
X101529203Y-109951074D01*
X101534419Y-109930250D01*
X101541651Y-109910038D01*
X101550830Y-109890632D01*
X101561866Y-109872219D01*
X101574654Y-109854976D01*
X101589070Y-109839070D01*
X101604976Y-109824654D01*
X101622219Y-109811866D01*
X101640632Y-109800830D01*
X101660038Y-109791651D01*
X101680250Y-109784419D01*
X101701074Y-109779203D01*
X101722309Y-109776053D01*
X101743750Y-109775000D01*
X102256250Y-109775000D01*
X102277691Y-109776053D01*
X102277691Y-109776053D01*
G37*
D17*
X102000000Y-110212500D03*
G04 #@! TD*
D10*
G04 #@! TO.C,C913*
G36*
X102277691Y-39776053D02*
X102298926Y-39779203D01*
X102319750Y-39784419D01*
X102339962Y-39791651D01*
X102359368Y-39800830D01*
X102377781Y-39811866D01*
X102395024Y-39824654D01*
X102410930Y-39839070D01*
X102425346Y-39854976D01*
X102438134Y-39872219D01*
X102449170Y-39890632D01*
X102458349Y-39910038D01*
X102465581Y-39930250D01*
X102470797Y-39951074D01*
X102473947Y-39972309D01*
X102475000Y-39993750D01*
X102475000Y-40431250D01*
X102473947Y-40452691D01*
X102470797Y-40473926D01*
X102465581Y-40494750D01*
X102458349Y-40514962D01*
X102449170Y-40534368D01*
X102438134Y-40552781D01*
X102425346Y-40570024D01*
X102410930Y-40585930D01*
X102395024Y-40600346D01*
X102377781Y-40613134D01*
X102359368Y-40624170D01*
X102339962Y-40633349D01*
X102319750Y-40640581D01*
X102298926Y-40645797D01*
X102277691Y-40648947D01*
X102256250Y-40650000D01*
X101743750Y-40650000D01*
X101722309Y-40648947D01*
X101701074Y-40645797D01*
X101680250Y-40640581D01*
X101660038Y-40633349D01*
X101640632Y-40624170D01*
X101622219Y-40613134D01*
X101604976Y-40600346D01*
X101589070Y-40585930D01*
X101574654Y-40570024D01*
X101561866Y-40552781D01*
X101550830Y-40534368D01*
X101541651Y-40514962D01*
X101534419Y-40494750D01*
X101529203Y-40473926D01*
X101526053Y-40452691D01*
X101525000Y-40431250D01*
X101525000Y-39993750D01*
X101526053Y-39972309D01*
X101529203Y-39951074D01*
X101534419Y-39930250D01*
X101541651Y-39910038D01*
X101550830Y-39890632D01*
X101561866Y-39872219D01*
X101574654Y-39854976D01*
X101589070Y-39839070D01*
X101604976Y-39824654D01*
X101622219Y-39811866D01*
X101640632Y-39800830D01*
X101660038Y-39791651D01*
X101680250Y-39784419D01*
X101701074Y-39779203D01*
X101722309Y-39776053D01*
X101743750Y-39775000D01*
X102256250Y-39775000D01*
X102277691Y-39776053D01*
X102277691Y-39776053D01*
G37*
D17*
X102000000Y-40212500D03*
D10*
G36*
X102277691Y-41351053D02*
X102298926Y-41354203D01*
X102319750Y-41359419D01*
X102339962Y-41366651D01*
X102359368Y-41375830D01*
X102377781Y-41386866D01*
X102395024Y-41399654D01*
X102410930Y-41414070D01*
X102425346Y-41429976D01*
X102438134Y-41447219D01*
X102449170Y-41465632D01*
X102458349Y-41485038D01*
X102465581Y-41505250D01*
X102470797Y-41526074D01*
X102473947Y-41547309D01*
X102475000Y-41568750D01*
X102475000Y-42006250D01*
X102473947Y-42027691D01*
X102470797Y-42048926D01*
X102465581Y-42069750D01*
X102458349Y-42089962D01*
X102449170Y-42109368D01*
X102438134Y-42127781D01*
X102425346Y-42145024D01*
X102410930Y-42160930D01*
X102395024Y-42175346D01*
X102377781Y-42188134D01*
X102359368Y-42199170D01*
X102339962Y-42208349D01*
X102319750Y-42215581D01*
X102298926Y-42220797D01*
X102277691Y-42223947D01*
X102256250Y-42225000D01*
X101743750Y-42225000D01*
X101722309Y-42223947D01*
X101701074Y-42220797D01*
X101680250Y-42215581D01*
X101660038Y-42208349D01*
X101640632Y-42199170D01*
X101622219Y-42188134D01*
X101604976Y-42175346D01*
X101589070Y-42160930D01*
X101574654Y-42145024D01*
X101561866Y-42127781D01*
X101550830Y-42109368D01*
X101541651Y-42089962D01*
X101534419Y-42069750D01*
X101529203Y-42048926D01*
X101526053Y-42027691D01*
X101525000Y-42006250D01*
X101525000Y-41568750D01*
X101526053Y-41547309D01*
X101529203Y-41526074D01*
X101534419Y-41505250D01*
X101541651Y-41485038D01*
X101550830Y-41465632D01*
X101561866Y-41447219D01*
X101574654Y-41429976D01*
X101589070Y-41414070D01*
X101604976Y-41399654D01*
X101622219Y-41386866D01*
X101640632Y-41375830D01*
X101660038Y-41366651D01*
X101680250Y-41359419D01*
X101701074Y-41354203D01*
X101722309Y-41351053D01*
X101743750Y-41350000D01*
X102256250Y-41350000D01*
X102277691Y-41351053D01*
X102277691Y-41351053D01*
G37*
D17*
X102000000Y-41787500D03*
G04 #@! TD*
D10*
G04 #@! TO.C,C914*
G36*
X114692691Y-36141053D02*
X114713926Y-36144203D01*
X114734750Y-36149419D01*
X114754962Y-36156651D01*
X114774368Y-36165830D01*
X114792781Y-36176866D01*
X114810024Y-36189654D01*
X114825930Y-36204070D01*
X114840346Y-36219976D01*
X114853134Y-36237219D01*
X114864170Y-36255632D01*
X114873349Y-36275038D01*
X114880581Y-36295250D01*
X114885797Y-36316074D01*
X114888947Y-36337309D01*
X114890000Y-36358750D01*
X114890000Y-36871250D01*
X114888947Y-36892691D01*
X114885797Y-36913926D01*
X114880581Y-36934750D01*
X114873349Y-36954962D01*
X114864170Y-36974368D01*
X114853134Y-36992781D01*
X114840346Y-37010024D01*
X114825930Y-37025930D01*
X114810024Y-37040346D01*
X114792781Y-37053134D01*
X114774368Y-37064170D01*
X114754962Y-37073349D01*
X114734750Y-37080581D01*
X114713926Y-37085797D01*
X114692691Y-37088947D01*
X114671250Y-37090000D01*
X114233750Y-37090000D01*
X114212309Y-37088947D01*
X114191074Y-37085797D01*
X114170250Y-37080581D01*
X114150038Y-37073349D01*
X114130632Y-37064170D01*
X114112219Y-37053134D01*
X114094976Y-37040346D01*
X114079070Y-37025930D01*
X114064654Y-37010024D01*
X114051866Y-36992781D01*
X114040830Y-36974368D01*
X114031651Y-36954962D01*
X114024419Y-36934750D01*
X114019203Y-36913926D01*
X114016053Y-36892691D01*
X114015000Y-36871250D01*
X114015000Y-36358750D01*
X114016053Y-36337309D01*
X114019203Y-36316074D01*
X114024419Y-36295250D01*
X114031651Y-36275038D01*
X114040830Y-36255632D01*
X114051866Y-36237219D01*
X114064654Y-36219976D01*
X114079070Y-36204070D01*
X114094976Y-36189654D01*
X114112219Y-36176866D01*
X114130632Y-36165830D01*
X114150038Y-36156651D01*
X114170250Y-36149419D01*
X114191074Y-36144203D01*
X114212309Y-36141053D01*
X114233750Y-36140000D01*
X114671250Y-36140000D01*
X114692691Y-36141053D01*
X114692691Y-36141053D01*
G37*
D17*
X114452500Y-36615000D03*
D10*
G36*
X113117691Y-36141053D02*
X113138926Y-36144203D01*
X113159750Y-36149419D01*
X113179962Y-36156651D01*
X113199368Y-36165830D01*
X113217781Y-36176866D01*
X113235024Y-36189654D01*
X113250930Y-36204070D01*
X113265346Y-36219976D01*
X113278134Y-36237219D01*
X113289170Y-36255632D01*
X113298349Y-36275038D01*
X113305581Y-36295250D01*
X113310797Y-36316074D01*
X113313947Y-36337309D01*
X113315000Y-36358750D01*
X113315000Y-36871250D01*
X113313947Y-36892691D01*
X113310797Y-36913926D01*
X113305581Y-36934750D01*
X113298349Y-36954962D01*
X113289170Y-36974368D01*
X113278134Y-36992781D01*
X113265346Y-37010024D01*
X113250930Y-37025930D01*
X113235024Y-37040346D01*
X113217781Y-37053134D01*
X113199368Y-37064170D01*
X113179962Y-37073349D01*
X113159750Y-37080581D01*
X113138926Y-37085797D01*
X113117691Y-37088947D01*
X113096250Y-37090000D01*
X112658750Y-37090000D01*
X112637309Y-37088947D01*
X112616074Y-37085797D01*
X112595250Y-37080581D01*
X112575038Y-37073349D01*
X112555632Y-37064170D01*
X112537219Y-37053134D01*
X112519976Y-37040346D01*
X112504070Y-37025930D01*
X112489654Y-37010024D01*
X112476866Y-36992781D01*
X112465830Y-36974368D01*
X112456651Y-36954962D01*
X112449419Y-36934750D01*
X112444203Y-36913926D01*
X112441053Y-36892691D01*
X112440000Y-36871250D01*
X112440000Y-36358750D01*
X112441053Y-36337309D01*
X112444203Y-36316074D01*
X112449419Y-36295250D01*
X112456651Y-36275038D01*
X112465830Y-36255632D01*
X112476866Y-36237219D01*
X112489654Y-36219976D01*
X112504070Y-36204070D01*
X112519976Y-36189654D01*
X112537219Y-36176866D01*
X112555632Y-36165830D01*
X112575038Y-36156651D01*
X112595250Y-36149419D01*
X112616074Y-36144203D01*
X112637309Y-36141053D01*
X112658750Y-36140000D01*
X113096250Y-36140000D01*
X113117691Y-36141053D01*
X113117691Y-36141053D01*
G37*
D17*
X112877500Y-36615000D03*
G04 #@! TD*
D10*
G04 #@! TO.C,C915*
G36*
X32277691Y-53776053D02*
X32298926Y-53779203D01*
X32319750Y-53784419D01*
X32339962Y-53791651D01*
X32359368Y-53800830D01*
X32377781Y-53811866D01*
X32395024Y-53824654D01*
X32410930Y-53839070D01*
X32425346Y-53854976D01*
X32438134Y-53872219D01*
X32449170Y-53890632D01*
X32458349Y-53910038D01*
X32465581Y-53930250D01*
X32470797Y-53951074D01*
X32473947Y-53972309D01*
X32475000Y-53993750D01*
X32475000Y-54431250D01*
X32473947Y-54452691D01*
X32470797Y-54473926D01*
X32465581Y-54494750D01*
X32458349Y-54514962D01*
X32449170Y-54534368D01*
X32438134Y-54552781D01*
X32425346Y-54570024D01*
X32410930Y-54585930D01*
X32395024Y-54600346D01*
X32377781Y-54613134D01*
X32359368Y-54624170D01*
X32339962Y-54633349D01*
X32319750Y-54640581D01*
X32298926Y-54645797D01*
X32277691Y-54648947D01*
X32256250Y-54650000D01*
X31743750Y-54650000D01*
X31722309Y-54648947D01*
X31701074Y-54645797D01*
X31680250Y-54640581D01*
X31660038Y-54633349D01*
X31640632Y-54624170D01*
X31622219Y-54613134D01*
X31604976Y-54600346D01*
X31589070Y-54585930D01*
X31574654Y-54570024D01*
X31561866Y-54552781D01*
X31550830Y-54534368D01*
X31541651Y-54514962D01*
X31534419Y-54494750D01*
X31529203Y-54473926D01*
X31526053Y-54452691D01*
X31525000Y-54431250D01*
X31525000Y-53993750D01*
X31526053Y-53972309D01*
X31529203Y-53951074D01*
X31534419Y-53930250D01*
X31541651Y-53910038D01*
X31550830Y-53890632D01*
X31561866Y-53872219D01*
X31574654Y-53854976D01*
X31589070Y-53839070D01*
X31604976Y-53824654D01*
X31622219Y-53811866D01*
X31640632Y-53800830D01*
X31660038Y-53791651D01*
X31680250Y-53784419D01*
X31701074Y-53779203D01*
X31722309Y-53776053D01*
X31743750Y-53775000D01*
X32256250Y-53775000D01*
X32277691Y-53776053D01*
X32277691Y-53776053D01*
G37*
D17*
X32000000Y-54212500D03*
D10*
G36*
X32277691Y-55351053D02*
X32298926Y-55354203D01*
X32319750Y-55359419D01*
X32339962Y-55366651D01*
X32359368Y-55375830D01*
X32377781Y-55386866D01*
X32395024Y-55399654D01*
X32410930Y-55414070D01*
X32425346Y-55429976D01*
X32438134Y-55447219D01*
X32449170Y-55465632D01*
X32458349Y-55485038D01*
X32465581Y-55505250D01*
X32470797Y-55526074D01*
X32473947Y-55547309D01*
X32475000Y-55568750D01*
X32475000Y-56006250D01*
X32473947Y-56027691D01*
X32470797Y-56048926D01*
X32465581Y-56069750D01*
X32458349Y-56089962D01*
X32449170Y-56109368D01*
X32438134Y-56127781D01*
X32425346Y-56145024D01*
X32410930Y-56160930D01*
X32395024Y-56175346D01*
X32377781Y-56188134D01*
X32359368Y-56199170D01*
X32339962Y-56208349D01*
X32319750Y-56215581D01*
X32298926Y-56220797D01*
X32277691Y-56223947D01*
X32256250Y-56225000D01*
X31743750Y-56225000D01*
X31722309Y-56223947D01*
X31701074Y-56220797D01*
X31680250Y-56215581D01*
X31660038Y-56208349D01*
X31640632Y-56199170D01*
X31622219Y-56188134D01*
X31604976Y-56175346D01*
X31589070Y-56160930D01*
X31574654Y-56145024D01*
X31561866Y-56127781D01*
X31550830Y-56109368D01*
X31541651Y-56089962D01*
X31534419Y-56069750D01*
X31529203Y-56048926D01*
X31526053Y-56027691D01*
X31525000Y-56006250D01*
X31525000Y-55568750D01*
X31526053Y-55547309D01*
X31529203Y-55526074D01*
X31534419Y-55505250D01*
X31541651Y-55485038D01*
X31550830Y-55465632D01*
X31561866Y-55447219D01*
X31574654Y-55429976D01*
X31589070Y-55414070D01*
X31604976Y-55399654D01*
X31622219Y-55386866D01*
X31640632Y-55375830D01*
X31660038Y-55366651D01*
X31680250Y-55359419D01*
X31701074Y-55354203D01*
X31722309Y-55351053D01*
X31743750Y-55350000D01*
X32256250Y-55350000D01*
X32277691Y-55351053D01*
X32277691Y-55351053D01*
G37*
D17*
X32000000Y-55787500D03*
G04 #@! TD*
D10*
G04 #@! TO.C,C916*
G36*
X46277691Y-55351053D02*
X46298926Y-55354203D01*
X46319750Y-55359419D01*
X46339962Y-55366651D01*
X46359368Y-55375830D01*
X46377781Y-55386866D01*
X46395024Y-55399654D01*
X46410930Y-55414070D01*
X46425346Y-55429976D01*
X46438134Y-55447219D01*
X46449170Y-55465632D01*
X46458349Y-55485038D01*
X46465581Y-55505250D01*
X46470797Y-55526074D01*
X46473947Y-55547309D01*
X46475000Y-55568750D01*
X46475000Y-56006250D01*
X46473947Y-56027691D01*
X46470797Y-56048926D01*
X46465581Y-56069750D01*
X46458349Y-56089962D01*
X46449170Y-56109368D01*
X46438134Y-56127781D01*
X46425346Y-56145024D01*
X46410930Y-56160930D01*
X46395024Y-56175346D01*
X46377781Y-56188134D01*
X46359368Y-56199170D01*
X46339962Y-56208349D01*
X46319750Y-56215581D01*
X46298926Y-56220797D01*
X46277691Y-56223947D01*
X46256250Y-56225000D01*
X45743750Y-56225000D01*
X45722309Y-56223947D01*
X45701074Y-56220797D01*
X45680250Y-56215581D01*
X45660038Y-56208349D01*
X45640632Y-56199170D01*
X45622219Y-56188134D01*
X45604976Y-56175346D01*
X45589070Y-56160930D01*
X45574654Y-56145024D01*
X45561866Y-56127781D01*
X45550830Y-56109368D01*
X45541651Y-56089962D01*
X45534419Y-56069750D01*
X45529203Y-56048926D01*
X45526053Y-56027691D01*
X45525000Y-56006250D01*
X45525000Y-55568750D01*
X45526053Y-55547309D01*
X45529203Y-55526074D01*
X45534419Y-55505250D01*
X45541651Y-55485038D01*
X45550830Y-55465632D01*
X45561866Y-55447219D01*
X45574654Y-55429976D01*
X45589070Y-55414070D01*
X45604976Y-55399654D01*
X45622219Y-55386866D01*
X45640632Y-55375830D01*
X45660038Y-55366651D01*
X45680250Y-55359419D01*
X45701074Y-55354203D01*
X45722309Y-55351053D01*
X45743750Y-55350000D01*
X46256250Y-55350000D01*
X46277691Y-55351053D01*
X46277691Y-55351053D01*
G37*
D17*
X46000000Y-55787500D03*
D10*
G36*
X46277691Y-53776053D02*
X46298926Y-53779203D01*
X46319750Y-53784419D01*
X46339962Y-53791651D01*
X46359368Y-53800830D01*
X46377781Y-53811866D01*
X46395024Y-53824654D01*
X46410930Y-53839070D01*
X46425346Y-53854976D01*
X46438134Y-53872219D01*
X46449170Y-53890632D01*
X46458349Y-53910038D01*
X46465581Y-53930250D01*
X46470797Y-53951074D01*
X46473947Y-53972309D01*
X46475000Y-53993750D01*
X46475000Y-54431250D01*
X46473947Y-54452691D01*
X46470797Y-54473926D01*
X46465581Y-54494750D01*
X46458349Y-54514962D01*
X46449170Y-54534368D01*
X46438134Y-54552781D01*
X46425346Y-54570024D01*
X46410930Y-54585930D01*
X46395024Y-54600346D01*
X46377781Y-54613134D01*
X46359368Y-54624170D01*
X46339962Y-54633349D01*
X46319750Y-54640581D01*
X46298926Y-54645797D01*
X46277691Y-54648947D01*
X46256250Y-54650000D01*
X45743750Y-54650000D01*
X45722309Y-54648947D01*
X45701074Y-54645797D01*
X45680250Y-54640581D01*
X45660038Y-54633349D01*
X45640632Y-54624170D01*
X45622219Y-54613134D01*
X45604976Y-54600346D01*
X45589070Y-54585930D01*
X45574654Y-54570024D01*
X45561866Y-54552781D01*
X45550830Y-54534368D01*
X45541651Y-54514962D01*
X45534419Y-54494750D01*
X45529203Y-54473926D01*
X45526053Y-54452691D01*
X45525000Y-54431250D01*
X45525000Y-53993750D01*
X45526053Y-53972309D01*
X45529203Y-53951074D01*
X45534419Y-53930250D01*
X45541651Y-53910038D01*
X45550830Y-53890632D01*
X45561866Y-53872219D01*
X45574654Y-53854976D01*
X45589070Y-53839070D01*
X45604976Y-53824654D01*
X45622219Y-53811866D01*
X45640632Y-53800830D01*
X45660038Y-53791651D01*
X45680250Y-53784419D01*
X45701074Y-53779203D01*
X45722309Y-53776053D01*
X45743750Y-53775000D01*
X46256250Y-53775000D01*
X46277691Y-53776053D01*
X46277691Y-53776053D01*
G37*
D17*
X46000000Y-54212500D03*
G04 #@! TD*
D10*
G04 #@! TO.C,C917*
G36*
X60277691Y-53776053D02*
X60298926Y-53779203D01*
X60319750Y-53784419D01*
X60339962Y-53791651D01*
X60359368Y-53800830D01*
X60377781Y-53811866D01*
X60395024Y-53824654D01*
X60410930Y-53839070D01*
X60425346Y-53854976D01*
X60438134Y-53872219D01*
X60449170Y-53890632D01*
X60458349Y-53910038D01*
X60465581Y-53930250D01*
X60470797Y-53951074D01*
X60473947Y-53972309D01*
X60475000Y-53993750D01*
X60475000Y-54431250D01*
X60473947Y-54452691D01*
X60470797Y-54473926D01*
X60465581Y-54494750D01*
X60458349Y-54514962D01*
X60449170Y-54534368D01*
X60438134Y-54552781D01*
X60425346Y-54570024D01*
X60410930Y-54585930D01*
X60395024Y-54600346D01*
X60377781Y-54613134D01*
X60359368Y-54624170D01*
X60339962Y-54633349D01*
X60319750Y-54640581D01*
X60298926Y-54645797D01*
X60277691Y-54648947D01*
X60256250Y-54650000D01*
X59743750Y-54650000D01*
X59722309Y-54648947D01*
X59701074Y-54645797D01*
X59680250Y-54640581D01*
X59660038Y-54633349D01*
X59640632Y-54624170D01*
X59622219Y-54613134D01*
X59604976Y-54600346D01*
X59589070Y-54585930D01*
X59574654Y-54570024D01*
X59561866Y-54552781D01*
X59550830Y-54534368D01*
X59541651Y-54514962D01*
X59534419Y-54494750D01*
X59529203Y-54473926D01*
X59526053Y-54452691D01*
X59525000Y-54431250D01*
X59525000Y-53993750D01*
X59526053Y-53972309D01*
X59529203Y-53951074D01*
X59534419Y-53930250D01*
X59541651Y-53910038D01*
X59550830Y-53890632D01*
X59561866Y-53872219D01*
X59574654Y-53854976D01*
X59589070Y-53839070D01*
X59604976Y-53824654D01*
X59622219Y-53811866D01*
X59640632Y-53800830D01*
X59660038Y-53791651D01*
X59680250Y-53784419D01*
X59701074Y-53779203D01*
X59722309Y-53776053D01*
X59743750Y-53775000D01*
X60256250Y-53775000D01*
X60277691Y-53776053D01*
X60277691Y-53776053D01*
G37*
D17*
X60000000Y-54212500D03*
D10*
G36*
X60277691Y-55351053D02*
X60298926Y-55354203D01*
X60319750Y-55359419D01*
X60339962Y-55366651D01*
X60359368Y-55375830D01*
X60377781Y-55386866D01*
X60395024Y-55399654D01*
X60410930Y-55414070D01*
X60425346Y-55429976D01*
X60438134Y-55447219D01*
X60449170Y-55465632D01*
X60458349Y-55485038D01*
X60465581Y-55505250D01*
X60470797Y-55526074D01*
X60473947Y-55547309D01*
X60475000Y-55568750D01*
X60475000Y-56006250D01*
X60473947Y-56027691D01*
X60470797Y-56048926D01*
X60465581Y-56069750D01*
X60458349Y-56089962D01*
X60449170Y-56109368D01*
X60438134Y-56127781D01*
X60425346Y-56145024D01*
X60410930Y-56160930D01*
X60395024Y-56175346D01*
X60377781Y-56188134D01*
X60359368Y-56199170D01*
X60339962Y-56208349D01*
X60319750Y-56215581D01*
X60298926Y-56220797D01*
X60277691Y-56223947D01*
X60256250Y-56225000D01*
X59743750Y-56225000D01*
X59722309Y-56223947D01*
X59701074Y-56220797D01*
X59680250Y-56215581D01*
X59660038Y-56208349D01*
X59640632Y-56199170D01*
X59622219Y-56188134D01*
X59604976Y-56175346D01*
X59589070Y-56160930D01*
X59574654Y-56145024D01*
X59561866Y-56127781D01*
X59550830Y-56109368D01*
X59541651Y-56089962D01*
X59534419Y-56069750D01*
X59529203Y-56048926D01*
X59526053Y-56027691D01*
X59525000Y-56006250D01*
X59525000Y-55568750D01*
X59526053Y-55547309D01*
X59529203Y-55526074D01*
X59534419Y-55505250D01*
X59541651Y-55485038D01*
X59550830Y-55465632D01*
X59561866Y-55447219D01*
X59574654Y-55429976D01*
X59589070Y-55414070D01*
X59604976Y-55399654D01*
X59622219Y-55386866D01*
X59640632Y-55375830D01*
X59660038Y-55366651D01*
X59680250Y-55359419D01*
X59701074Y-55354203D01*
X59722309Y-55351053D01*
X59743750Y-55350000D01*
X60256250Y-55350000D01*
X60277691Y-55351053D01*
X60277691Y-55351053D01*
G37*
D17*
X60000000Y-55787500D03*
G04 #@! TD*
D10*
G04 #@! TO.C,C918*
G36*
X74277691Y-55351053D02*
X74298926Y-55354203D01*
X74319750Y-55359419D01*
X74339962Y-55366651D01*
X74359368Y-55375830D01*
X74377781Y-55386866D01*
X74395024Y-55399654D01*
X74410930Y-55414070D01*
X74425346Y-55429976D01*
X74438134Y-55447219D01*
X74449170Y-55465632D01*
X74458349Y-55485038D01*
X74465581Y-55505250D01*
X74470797Y-55526074D01*
X74473947Y-55547309D01*
X74475000Y-55568750D01*
X74475000Y-56006250D01*
X74473947Y-56027691D01*
X74470797Y-56048926D01*
X74465581Y-56069750D01*
X74458349Y-56089962D01*
X74449170Y-56109368D01*
X74438134Y-56127781D01*
X74425346Y-56145024D01*
X74410930Y-56160930D01*
X74395024Y-56175346D01*
X74377781Y-56188134D01*
X74359368Y-56199170D01*
X74339962Y-56208349D01*
X74319750Y-56215581D01*
X74298926Y-56220797D01*
X74277691Y-56223947D01*
X74256250Y-56225000D01*
X73743750Y-56225000D01*
X73722309Y-56223947D01*
X73701074Y-56220797D01*
X73680250Y-56215581D01*
X73660038Y-56208349D01*
X73640632Y-56199170D01*
X73622219Y-56188134D01*
X73604976Y-56175346D01*
X73589070Y-56160930D01*
X73574654Y-56145024D01*
X73561866Y-56127781D01*
X73550830Y-56109368D01*
X73541651Y-56089962D01*
X73534419Y-56069750D01*
X73529203Y-56048926D01*
X73526053Y-56027691D01*
X73525000Y-56006250D01*
X73525000Y-55568750D01*
X73526053Y-55547309D01*
X73529203Y-55526074D01*
X73534419Y-55505250D01*
X73541651Y-55485038D01*
X73550830Y-55465632D01*
X73561866Y-55447219D01*
X73574654Y-55429976D01*
X73589070Y-55414070D01*
X73604976Y-55399654D01*
X73622219Y-55386866D01*
X73640632Y-55375830D01*
X73660038Y-55366651D01*
X73680250Y-55359419D01*
X73701074Y-55354203D01*
X73722309Y-55351053D01*
X73743750Y-55350000D01*
X74256250Y-55350000D01*
X74277691Y-55351053D01*
X74277691Y-55351053D01*
G37*
D17*
X74000000Y-55787500D03*
D10*
G36*
X74277691Y-53776053D02*
X74298926Y-53779203D01*
X74319750Y-53784419D01*
X74339962Y-53791651D01*
X74359368Y-53800830D01*
X74377781Y-53811866D01*
X74395024Y-53824654D01*
X74410930Y-53839070D01*
X74425346Y-53854976D01*
X74438134Y-53872219D01*
X74449170Y-53890632D01*
X74458349Y-53910038D01*
X74465581Y-53930250D01*
X74470797Y-53951074D01*
X74473947Y-53972309D01*
X74475000Y-53993750D01*
X74475000Y-54431250D01*
X74473947Y-54452691D01*
X74470797Y-54473926D01*
X74465581Y-54494750D01*
X74458349Y-54514962D01*
X74449170Y-54534368D01*
X74438134Y-54552781D01*
X74425346Y-54570024D01*
X74410930Y-54585930D01*
X74395024Y-54600346D01*
X74377781Y-54613134D01*
X74359368Y-54624170D01*
X74339962Y-54633349D01*
X74319750Y-54640581D01*
X74298926Y-54645797D01*
X74277691Y-54648947D01*
X74256250Y-54650000D01*
X73743750Y-54650000D01*
X73722309Y-54648947D01*
X73701074Y-54645797D01*
X73680250Y-54640581D01*
X73660038Y-54633349D01*
X73640632Y-54624170D01*
X73622219Y-54613134D01*
X73604976Y-54600346D01*
X73589070Y-54585930D01*
X73574654Y-54570024D01*
X73561866Y-54552781D01*
X73550830Y-54534368D01*
X73541651Y-54514962D01*
X73534419Y-54494750D01*
X73529203Y-54473926D01*
X73526053Y-54452691D01*
X73525000Y-54431250D01*
X73525000Y-53993750D01*
X73526053Y-53972309D01*
X73529203Y-53951074D01*
X73534419Y-53930250D01*
X73541651Y-53910038D01*
X73550830Y-53890632D01*
X73561866Y-53872219D01*
X73574654Y-53854976D01*
X73589070Y-53839070D01*
X73604976Y-53824654D01*
X73622219Y-53811866D01*
X73640632Y-53800830D01*
X73660038Y-53791651D01*
X73680250Y-53784419D01*
X73701074Y-53779203D01*
X73722309Y-53776053D01*
X73743750Y-53775000D01*
X74256250Y-53775000D01*
X74277691Y-53776053D01*
X74277691Y-53776053D01*
G37*
D17*
X74000000Y-54212500D03*
G04 #@! TD*
D10*
G04 #@! TO.C,C919*
G36*
X88277691Y-53776053D02*
X88298926Y-53779203D01*
X88319750Y-53784419D01*
X88339962Y-53791651D01*
X88359368Y-53800830D01*
X88377781Y-53811866D01*
X88395024Y-53824654D01*
X88410930Y-53839070D01*
X88425346Y-53854976D01*
X88438134Y-53872219D01*
X88449170Y-53890632D01*
X88458349Y-53910038D01*
X88465581Y-53930250D01*
X88470797Y-53951074D01*
X88473947Y-53972309D01*
X88475000Y-53993750D01*
X88475000Y-54431250D01*
X88473947Y-54452691D01*
X88470797Y-54473926D01*
X88465581Y-54494750D01*
X88458349Y-54514962D01*
X88449170Y-54534368D01*
X88438134Y-54552781D01*
X88425346Y-54570024D01*
X88410930Y-54585930D01*
X88395024Y-54600346D01*
X88377781Y-54613134D01*
X88359368Y-54624170D01*
X88339962Y-54633349D01*
X88319750Y-54640581D01*
X88298926Y-54645797D01*
X88277691Y-54648947D01*
X88256250Y-54650000D01*
X87743750Y-54650000D01*
X87722309Y-54648947D01*
X87701074Y-54645797D01*
X87680250Y-54640581D01*
X87660038Y-54633349D01*
X87640632Y-54624170D01*
X87622219Y-54613134D01*
X87604976Y-54600346D01*
X87589070Y-54585930D01*
X87574654Y-54570024D01*
X87561866Y-54552781D01*
X87550830Y-54534368D01*
X87541651Y-54514962D01*
X87534419Y-54494750D01*
X87529203Y-54473926D01*
X87526053Y-54452691D01*
X87525000Y-54431250D01*
X87525000Y-53993750D01*
X87526053Y-53972309D01*
X87529203Y-53951074D01*
X87534419Y-53930250D01*
X87541651Y-53910038D01*
X87550830Y-53890632D01*
X87561866Y-53872219D01*
X87574654Y-53854976D01*
X87589070Y-53839070D01*
X87604976Y-53824654D01*
X87622219Y-53811866D01*
X87640632Y-53800830D01*
X87660038Y-53791651D01*
X87680250Y-53784419D01*
X87701074Y-53779203D01*
X87722309Y-53776053D01*
X87743750Y-53775000D01*
X88256250Y-53775000D01*
X88277691Y-53776053D01*
X88277691Y-53776053D01*
G37*
D17*
X88000000Y-54212500D03*
D10*
G36*
X88277691Y-55351053D02*
X88298926Y-55354203D01*
X88319750Y-55359419D01*
X88339962Y-55366651D01*
X88359368Y-55375830D01*
X88377781Y-55386866D01*
X88395024Y-55399654D01*
X88410930Y-55414070D01*
X88425346Y-55429976D01*
X88438134Y-55447219D01*
X88449170Y-55465632D01*
X88458349Y-55485038D01*
X88465581Y-55505250D01*
X88470797Y-55526074D01*
X88473947Y-55547309D01*
X88475000Y-55568750D01*
X88475000Y-56006250D01*
X88473947Y-56027691D01*
X88470797Y-56048926D01*
X88465581Y-56069750D01*
X88458349Y-56089962D01*
X88449170Y-56109368D01*
X88438134Y-56127781D01*
X88425346Y-56145024D01*
X88410930Y-56160930D01*
X88395024Y-56175346D01*
X88377781Y-56188134D01*
X88359368Y-56199170D01*
X88339962Y-56208349D01*
X88319750Y-56215581D01*
X88298926Y-56220797D01*
X88277691Y-56223947D01*
X88256250Y-56225000D01*
X87743750Y-56225000D01*
X87722309Y-56223947D01*
X87701074Y-56220797D01*
X87680250Y-56215581D01*
X87660038Y-56208349D01*
X87640632Y-56199170D01*
X87622219Y-56188134D01*
X87604976Y-56175346D01*
X87589070Y-56160930D01*
X87574654Y-56145024D01*
X87561866Y-56127781D01*
X87550830Y-56109368D01*
X87541651Y-56089962D01*
X87534419Y-56069750D01*
X87529203Y-56048926D01*
X87526053Y-56027691D01*
X87525000Y-56006250D01*
X87525000Y-55568750D01*
X87526053Y-55547309D01*
X87529203Y-55526074D01*
X87534419Y-55505250D01*
X87541651Y-55485038D01*
X87550830Y-55465632D01*
X87561866Y-55447219D01*
X87574654Y-55429976D01*
X87589070Y-55414070D01*
X87604976Y-55399654D01*
X87622219Y-55386866D01*
X87640632Y-55375830D01*
X87660038Y-55366651D01*
X87680250Y-55359419D01*
X87701074Y-55354203D01*
X87722309Y-55351053D01*
X87743750Y-55350000D01*
X88256250Y-55350000D01*
X88277691Y-55351053D01*
X88277691Y-55351053D01*
G37*
D17*
X88000000Y-55787500D03*
G04 #@! TD*
D10*
G04 #@! TO.C,C920*
G36*
X102277691Y-55351053D02*
X102298926Y-55354203D01*
X102319750Y-55359419D01*
X102339962Y-55366651D01*
X102359368Y-55375830D01*
X102377781Y-55386866D01*
X102395024Y-55399654D01*
X102410930Y-55414070D01*
X102425346Y-55429976D01*
X102438134Y-55447219D01*
X102449170Y-55465632D01*
X102458349Y-55485038D01*
X102465581Y-55505250D01*
X102470797Y-55526074D01*
X102473947Y-55547309D01*
X102475000Y-55568750D01*
X102475000Y-56006250D01*
X102473947Y-56027691D01*
X102470797Y-56048926D01*
X102465581Y-56069750D01*
X102458349Y-56089962D01*
X102449170Y-56109368D01*
X102438134Y-56127781D01*
X102425346Y-56145024D01*
X102410930Y-56160930D01*
X102395024Y-56175346D01*
X102377781Y-56188134D01*
X102359368Y-56199170D01*
X102339962Y-56208349D01*
X102319750Y-56215581D01*
X102298926Y-56220797D01*
X102277691Y-56223947D01*
X102256250Y-56225000D01*
X101743750Y-56225000D01*
X101722309Y-56223947D01*
X101701074Y-56220797D01*
X101680250Y-56215581D01*
X101660038Y-56208349D01*
X101640632Y-56199170D01*
X101622219Y-56188134D01*
X101604976Y-56175346D01*
X101589070Y-56160930D01*
X101574654Y-56145024D01*
X101561866Y-56127781D01*
X101550830Y-56109368D01*
X101541651Y-56089962D01*
X101534419Y-56069750D01*
X101529203Y-56048926D01*
X101526053Y-56027691D01*
X101525000Y-56006250D01*
X101525000Y-55568750D01*
X101526053Y-55547309D01*
X101529203Y-55526074D01*
X101534419Y-55505250D01*
X101541651Y-55485038D01*
X101550830Y-55465632D01*
X101561866Y-55447219D01*
X101574654Y-55429976D01*
X101589070Y-55414070D01*
X101604976Y-55399654D01*
X101622219Y-55386866D01*
X101640632Y-55375830D01*
X101660038Y-55366651D01*
X101680250Y-55359419D01*
X101701074Y-55354203D01*
X101722309Y-55351053D01*
X101743750Y-55350000D01*
X102256250Y-55350000D01*
X102277691Y-55351053D01*
X102277691Y-55351053D01*
G37*
D17*
X102000000Y-55787500D03*
D10*
G36*
X102277691Y-53776053D02*
X102298926Y-53779203D01*
X102319750Y-53784419D01*
X102339962Y-53791651D01*
X102359368Y-53800830D01*
X102377781Y-53811866D01*
X102395024Y-53824654D01*
X102410930Y-53839070D01*
X102425346Y-53854976D01*
X102438134Y-53872219D01*
X102449170Y-53890632D01*
X102458349Y-53910038D01*
X102465581Y-53930250D01*
X102470797Y-53951074D01*
X102473947Y-53972309D01*
X102475000Y-53993750D01*
X102475000Y-54431250D01*
X102473947Y-54452691D01*
X102470797Y-54473926D01*
X102465581Y-54494750D01*
X102458349Y-54514962D01*
X102449170Y-54534368D01*
X102438134Y-54552781D01*
X102425346Y-54570024D01*
X102410930Y-54585930D01*
X102395024Y-54600346D01*
X102377781Y-54613134D01*
X102359368Y-54624170D01*
X102339962Y-54633349D01*
X102319750Y-54640581D01*
X102298926Y-54645797D01*
X102277691Y-54648947D01*
X102256250Y-54650000D01*
X101743750Y-54650000D01*
X101722309Y-54648947D01*
X101701074Y-54645797D01*
X101680250Y-54640581D01*
X101660038Y-54633349D01*
X101640632Y-54624170D01*
X101622219Y-54613134D01*
X101604976Y-54600346D01*
X101589070Y-54585930D01*
X101574654Y-54570024D01*
X101561866Y-54552781D01*
X101550830Y-54534368D01*
X101541651Y-54514962D01*
X101534419Y-54494750D01*
X101529203Y-54473926D01*
X101526053Y-54452691D01*
X101525000Y-54431250D01*
X101525000Y-53993750D01*
X101526053Y-53972309D01*
X101529203Y-53951074D01*
X101534419Y-53930250D01*
X101541651Y-53910038D01*
X101550830Y-53890632D01*
X101561866Y-53872219D01*
X101574654Y-53854976D01*
X101589070Y-53839070D01*
X101604976Y-53824654D01*
X101622219Y-53811866D01*
X101640632Y-53800830D01*
X101660038Y-53791651D01*
X101680250Y-53784419D01*
X101701074Y-53779203D01*
X101722309Y-53776053D01*
X101743750Y-53775000D01*
X102256250Y-53775000D01*
X102277691Y-53776053D01*
X102277691Y-53776053D01*
G37*
D17*
X102000000Y-54212500D03*
G04 #@! TD*
D10*
G04 #@! TO.C,C921*
G36*
X113117691Y-50111053D02*
X113138926Y-50114203D01*
X113159750Y-50119419D01*
X113179962Y-50126651D01*
X113199368Y-50135830D01*
X113217781Y-50146866D01*
X113235024Y-50159654D01*
X113250930Y-50174070D01*
X113265346Y-50189976D01*
X113278134Y-50207219D01*
X113289170Y-50225632D01*
X113298349Y-50245038D01*
X113305581Y-50265250D01*
X113310797Y-50286074D01*
X113313947Y-50307309D01*
X113315000Y-50328750D01*
X113315000Y-50841250D01*
X113313947Y-50862691D01*
X113310797Y-50883926D01*
X113305581Y-50904750D01*
X113298349Y-50924962D01*
X113289170Y-50944368D01*
X113278134Y-50962781D01*
X113265346Y-50980024D01*
X113250930Y-50995930D01*
X113235024Y-51010346D01*
X113217781Y-51023134D01*
X113199368Y-51034170D01*
X113179962Y-51043349D01*
X113159750Y-51050581D01*
X113138926Y-51055797D01*
X113117691Y-51058947D01*
X113096250Y-51060000D01*
X112658750Y-51060000D01*
X112637309Y-51058947D01*
X112616074Y-51055797D01*
X112595250Y-51050581D01*
X112575038Y-51043349D01*
X112555632Y-51034170D01*
X112537219Y-51023134D01*
X112519976Y-51010346D01*
X112504070Y-50995930D01*
X112489654Y-50980024D01*
X112476866Y-50962781D01*
X112465830Y-50944368D01*
X112456651Y-50924962D01*
X112449419Y-50904750D01*
X112444203Y-50883926D01*
X112441053Y-50862691D01*
X112440000Y-50841250D01*
X112440000Y-50328750D01*
X112441053Y-50307309D01*
X112444203Y-50286074D01*
X112449419Y-50265250D01*
X112456651Y-50245038D01*
X112465830Y-50225632D01*
X112476866Y-50207219D01*
X112489654Y-50189976D01*
X112504070Y-50174070D01*
X112519976Y-50159654D01*
X112537219Y-50146866D01*
X112555632Y-50135830D01*
X112575038Y-50126651D01*
X112595250Y-50119419D01*
X112616074Y-50114203D01*
X112637309Y-50111053D01*
X112658750Y-50110000D01*
X113096250Y-50110000D01*
X113117691Y-50111053D01*
X113117691Y-50111053D01*
G37*
D17*
X112877500Y-50585000D03*
D10*
G36*
X114692691Y-50111053D02*
X114713926Y-50114203D01*
X114734750Y-50119419D01*
X114754962Y-50126651D01*
X114774368Y-50135830D01*
X114792781Y-50146866D01*
X114810024Y-50159654D01*
X114825930Y-50174070D01*
X114840346Y-50189976D01*
X114853134Y-50207219D01*
X114864170Y-50225632D01*
X114873349Y-50245038D01*
X114880581Y-50265250D01*
X114885797Y-50286074D01*
X114888947Y-50307309D01*
X114890000Y-50328750D01*
X114890000Y-50841250D01*
X114888947Y-50862691D01*
X114885797Y-50883926D01*
X114880581Y-50904750D01*
X114873349Y-50924962D01*
X114864170Y-50944368D01*
X114853134Y-50962781D01*
X114840346Y-50980024D01*
X114825930Y-50995930D01*
X114810024Y-51010346D01*
X114792781Y-51023134D01*
X114774368Y-51034170D01*
X114754962Y-51043349D01*
X114734750Y-51050581D01*
X114713926Y-51055797D01*
X114692691Y-51058947D01*
X114671250Y-51060000D01*
X114233750Y-51060000D01*
X114212309Y-51058947D01*
X114191074Y-51055797D01*
X114170250Y-51050581D01*
X114150038Y-51043349D01*
X114130632Y-51034170D01*
X114112219Y-51023134D01*
X114094976Y-51010346D01*
X114079070Y-50995930D01*
X114064654Y-50980024D01*
X114051866Y-50962781D01*
X114040830Y-50944368D01*
X114031651Y-50924962D01*
X114024419Y-50904750D01*
X114019203Y-50883926D01*
X114016053Y-50862691D01*
X114015000Y-50841250D01*
X114015000Y-50328750D01*
X114016053Y-50307309D01*
X114019203Y-50286074D01*
X114024419Y-50265250D01*
X114031651Y-50245038D01*
X114040830Y-50225632D01*
X114051866Y-50207219D01*
X114064654Y-50189976D01*
X114079070Y-50174070D01*
X114094976Y-50159654D01*
X114112219Y-50146866D01*
X114130632Y-50135830D01*
X114150038Y-50126651D01*
X114170250Y-50119419D01*
X114191074Y-50114203D01*
X114212309Y-50111053D01*
X114233750Y-50110000D01*
X114671250Y-50110000D01*
X114692691Y-50111053D01*
X114692691Y-50111053D01*
G37*
D17*
X114452500Y-50585000D03*
G04 #@! TD*
D10*
G04 #@! TO.C,C922*
G36*
X32277691Y-69351053D02*
X32298926Y-69354203D01*
X32319750Y-69359419D01*
X32339962Y-69366651D01*
X32359368Y-69375830D01*
X32377781Y-69386866D01*
X32395024Y-69399654D01*
X32410930Y-69414070D01*
X32425346Y-69429976D01*
X32438134Y-69447219D01*
X32449170Y-69465632D01*
X32458349Y-69485038D01*
X32465581Y-69505250D01*
X32470797Y-69526074D01*
X32473947Y-69547309D01*
X32475000Y-69568750D01*
X32475000Y-70006250D01*
X32473947Y-70027691D01*
X32470797Y-70048926D01*
X32465581Y-70069750D01*
X32458349Y-70089962D01*
X32449170Y-70109368D01*
X32438134Y-70127781D01*
X32425346Y-70145024D01*
X32410930Y-70160930D01*
X32395024Y-70175346D01*
X32377781Y-70188134D01*
X32359368Y-70199170D01*
X32339962Y-70208349D01*
X32319750Y-70215581D01*
X32298926Y-70220797D01*
X32277691Y-70223947D01*
X32256250Y-70225000D01*
X31743750Y-70225000D01*
X31722309Y-70223947D01*
X31701074Y-70220797D01*
X31680250Y-70215581D01*
X31660038Y-70208349D01*
X31640632Y-70199170D01*
X31622219Y-70188134D01*
X31604976Y-70175346D01*
X31589070Y-70160930D01*
X31574654Y-70145024D01*
X31561866Y-70127781D01*
X31550830Y-70109368D01*
X31541651Y-70089962D01*
X31534419Y-70069750D01*
X31529203Y-70048926D01*
X31526053Y-70027691D01*
X31525000Y-70006250D01*
X31525000Y-69568750D01*
X31526053Y-69547309D01*
X31529203Y-69526074D01*
X31534419Y-69505250D01*
X31541651Y-69485038D01*
X31550830Y-69465632D01*
X31561866Y-69447219D01*
X31574654Y-69429976D01*
X31589070Y-69414070D01*
X31604976Y-69399654D01*
X31622219Y-69386866D01*
X31640632Y-69375830D01*
X31660038Y-69366651D01*
X31680250Y-69359419D01*
X31701074Y-69354203D01*
X31722309Y-69351053D01*
X31743750Y-69350000D01*
X32256250Y-69350000D01*
X32277691Y-69351053D01*
X32277691Y-69351053D01*
G37*
D17*
X32000000Y-69787500D03*
D10*
G36*
X32277691Y-67776053D02*
X32298926Y-67779203D01*
X32319750Y-67784419D01*
X32339962Y-67791651D01*
X32359368Y-67800830D01*
X32377781Y-67811866D01*
X32395024Y-67824654D01*
X32410930Y-67839070D01*
X32425346Y-67854976D01*
X32438134Y-67872219D01*
X32449170Y-67890632D01*
X32458349Y-67910038D01*
X32465581Y-67930250D01*
X32470797Y-67951074D01*
X32473947Y-67972309D01*
X32475000Y-67993750D01*
X32475000Y-68431250D01*
X32473947Y-68452691D01*
X32470797Y-68473926D01*
X32465581Y-68494750D01*
X32458349Y-68514962D01*
X32449170Y-68534368D01*
X32438134Y-68552781D01*
X32425346Y-68570024D01*
X32410930Y-68585930D01*
X32395024Y-68600346D01*
X32377781Y-68613134D01*
X32359368Y-68624170D01*
X32339962Y-68633349D01*
X32319750Y-68640581D01*
X32298926Y-68645797D01*
X32277691Y-68648947D01*
X32256250Y-68650000D01*
X31743750Y-68650000D01*
X31722309Y-68648947D01*
X31701074Y-68645797D01*
X31680250Y-68640581D01*
X31660038Y-68633349D01*
X31640632Y-68624170D01*
X31622219Y-68613134D01*
X31604976Y-68600346D01*
X31589070Y-68585930D01*
X31574654Y-68570024D01*
X31561866Y-68552781D01*
X31550830Y-68534368D01*
X31541651Y-68514962D01*
X31534419Y-68494750D01*
X31529203Y-68473926D01*
X31526053Y-68452691D01*
X31525000Y-68431250D01*
X31525000Y-67993750D01*
X31526053Y-67972309D01*
X31529203Y-67951074D01*
X31534419Y-67930250D01*
X31541651Y-67910038D01*
X31550830Y-67890632D01*
X31561866Y-67872219D01*
X31574654Y-67854976D01*
X31589070Y-67839070D01*
X31604976Y-67824654D01*
X31622219Y-67811866D01*
X31640632Y-67800830D01*
X31660038Y-67791651D01*
X31680250Y-67784419D01*
X31701074Y-67779203D01*
X31722309Y-67776053D01*
X31743750Y-67775000D01*
X32256250Y-67775000D01*
X32277691Y-67776053D01*
X32277691Y-67776053D01*
G37*
D17*
X32000000Y-68212500D03*
G04 #@! TD*
D10*
G04 #@! TO.C,C923*
G36*
X46277691Y-67776053D02*
X46298926Y-67779203D01*
X46319750Y-67784419D01*
X46339962Y-67791651D01*
X46359368Y-67800830D01*
X46377781Y-67811866D01*
X46395024Y-67824654D01*
X46410930Y-67839070D01*
X46425346Y-67854976D01*
X46438134Y-67872219D01*
X46449170Y-67890632D01*
X46458349Y-67910038D01*
X46465581Y-67930250D01*
X46470797Y-67951074D01*
X46473947Y-67972309D01*
X46475000Y-67993750D01*
X46475000Y-68431250D01*
X46473947Y-68452691D01*
X46470797Y-68473926D01*
X46465581Y-68494750D01*
X46458349Y-68514962D01*
X46449170Y-68534368D01*
X46438134Y-68552781D01*
X46425346Y-68570024D01*
X46410930Y-68585930D01*
X46395024Y-68600346D01*
X46377781Y-68613134D01*
X46359368Y-68624170D01*
X46339962Y-68633349D01*
X46319750Y-68640581D01*
X46298926Y-68645797D01*
X46277691Y-68648947D01*
X46256250Y-68650000D01*
X45743750Y-68650000D01*
X45722309Y-68648947D01*
X45701074Y-68645797D01*
X45680250Y-68640581D01*
X45660038Y-68633349D01*
X45640632Y-68624170D01*
X45622219Y-68613134D01*
X45604976Y-68600346D01*
X45589070Y-68585930D01*
X45574654Y-68570024D01*
X45561866Y-68552781D01*
X45550830Y-68534368D01*
X45541651Y-68514962D01*
X45534419Y-68494750D01*
X45529203Y-68473926D01*
X45526053Y-68452691D01*
X45525000Y-68431250D01*
X45525000Y-67993750D01*
X45526053Y-67972309D01*
X45529203Y-67951074D01*
X45534419Y-67930250D01*
X45541651Y-67910038D01*
X45550830Y-67890632D01*
X45561866Y-67872219D01*
X45574654Y-67854976D01*
X45589070Y-67839070D01*
X45604976Y-67824654D01*
X45622219Y-67811866D01*
X45640632Y-67800830D01*
X45660038Y-67791651D01*
X45680250Y-67784419D01*
X45701074Y-67779203D01*
X45722309Y-67776053D01*
X45743750Y-67775000D01*
X46256250Y-67775000D01*
X46277691Y-67776053D01*
X46277691Y-67776053D01*
G37*
D17*
X46000000Y-68212500D03*
D10*
G36*
X46277691Y-69351053D02*
X46298926Y-69354203D01*
X46319750Y-69359419D01*
X46339962Y-69366651D01*
X46359368Y-69375830D01*
X46377781Y-69386866D01*
X46395024Y-69399654D01*
X46410930Y-69414070D01*
X46425346Y-69429976D01*
X46438134Y-69447219D01*
X46449170Y-69465632D01*
X46458349Y-69485038D01*
X46465581Y-69505250D01*
X46470797Y-69526074D01*
X46473947Y-69547309D01*
X46475000Y-69568750D01*
X46475000Y-70006250D01*
X46473947Y-70027691D01*
X46470797Y-70048926D01*
X46465581Y-70069750D01*
X46458349Y-70089962D01*
X46449170Y-70109368D01*
X46438134Y-70127781D01*
X46425346Y-70145024D01*
X46410930Y-70160930D01*
X46395024Y-70175346D01*
X46377781Y-70188134D01*
X46359368Y-70199170D01*
X46339962Y-70208349D01*
X46319750Y-70215581D01*
X46298926Y-70220797D01*
X46277691Y-70223947D01*
X46256250Y-70225000D01*
X45743750Y-70225000D01*
X45722309Y-70223947D01*
X45701074Y-70220797D01*
X45680250Y-70215581D01*
X45660038Y-70208349D01*
X45640632Y-70199170D01*
X45622219Y-70188134D01*
X45604976Y-70175346D01*
X45589070Y-70160930D01*
X45574654Y-70145024D01*
X45561866Y-70127781D01*
X45550830Y-70109368D01*
X45541651Y-70089962D01*
X45534419Y-70069750D01*
X45529203Y-70048926D01*
X45526053Y-70027691D01*
X45525000Y-70006250D01*
X45525000Y-69568750D01*
X45526053Y-69547309D01*
X45529203Y-69526074D01*
X45534419Y-69505250D01*
X45541651Y-69485038D01*
X45550830Y-69465632D01*
X45561866Y-69447219D01*
X45574654Y-69429976D01*
X45589070Y-69414070D01*
X45604976Y-69399654D01*
X45622219Y-69386866D01*
X45640632Y-69375830D01*
X45660038Y-69366651D01*
X45680250Y-69359419D01*
X45701074Y-69354203D01*
X45722309Y-69351053D01*
X45743750Y-69350000D01*
X46256250Y-69350000D01*
X46277691Y-69351053D01*
X46277691Y-69351053D01*
G37*
D17*
X46000000Y-69787500D03*
G04 #@! TD*
D10*
G04 #@! TO.C,C924*
G36*
X60277691Y-69351053D02*
X60298926Y-69354203D01*
X60319750Y-69359419D01*
X60339962Y-69366651D01*
X60359368Y-69375830D01*
X60377781Y-69386866D01*
X60395024Y-69399654D01*
X60410930Y-69414070D01*
X60425346Y-69429976D01*
X60438134Y-69447219D01*
X60449170Y-69465632D01*
X60458349Y-69485038D01*
X60465581Y-69505250D01*
X60470797Y-69526074D01*
X60473947Y-69547309D01*
X60475000Y-69568750D01*
X60475000Y-70006250D01*
X60473947Y-70027691D01*
X60470797Y-70048926D01*
X60465581Y-70069750D01*
X60458349Y-70089962D01*
X60449170Y-70109368D01*
X60438134Y-70127781D01*
X60425346Y-70145024D01*
X60410930Y-70160930D01*
X60395024Y-70175346D01*
X60377781Y-70188134D01*
X60359368Y-70199170D01*
X60339962Y-70208349D01*
X60319750Y-70215581D01*
X60298926Y-70220797D01*
X60277691Y-70223947D01*
X60256250Y-70225000D01*
X59743750Y-70225000D01*
X59722309Y-70223947D01*
X59701074Y-70220797D01*
X59680250Y-70215581D01*
X59660038Y-70208349D01*
X59640632Y-70199170D01*
X59622219Y-70188134D01*
X59604976Y-70175346D01*
X59589070Y-70160930D01*
X59574654Y-70145024D01*
X59561866Y-70127781D01*
X59550830Y-70109368D01*
X59541651Y-70089962D01*
X59534419Y-70069750D01*
X59529203Y-70048926D01*
X59526053Y-70027691D01*
X59525000Y-70006250D01*
X59525000Y-69568750D01*
X59526053Y-69547309D01*
X59529203Y-69526074D01*
X59534419Y-69505250D01*
X59541651Y-69485038D01*
X59550830Y-69465632D01*
X59561866Y-69447219D01*
X59574654Y-69429976D01*
X59589070Y-69414070D01*
X59604976Y-69399654D01*
X59622219Y-69386866D01*
X59640632Y-69375830D01*
X59660038Y-69366651D01*
X59680250Y-69359419D01*
X59701074Y-69354203D01*
X59722309Y-69351053D01*
X59743750Y-69350000D01*
X60256250Y-69350000D01*
X60277691Y-69351053D01*
X60277691Y-69351053D01*
G37*
D17*
X60000000Y-69787500D03*
D10*
G36*
X60277691Y-67776053D02*
X60298926Y-67779203D01*
X60319750Y-67784419D01*
X60339962Y-67791651D01*
X60359368Y-67800830D01*
X60377781Y-67811866D01*
X60395024Y-67824654D01*
X60410930Y-67839070D01*
X60425346Y-67854976D01*
X60438134Y-67872219D01*
X60449170Y-67890632D01*
X60458349Y-67910038D01*
X60465581Y-67930250D01*
X60470797Y-67951074D01*
X60473947Y-67972309D01*
X60475000Y-67993750D01*
X60475000Y-68431250D01*
X60473947Y-68452691D01*
X60470797Y-68473926D01*
X60465581Y-68494750D01*
X60458349Y-68514962D01*
X60449170Y-68534368D01*
X60438134Y-68552781D01*
X60425346Y-68570024D01*
X60410930Y-68585930D01*
X60395024Y-68600346D01*
X60377781Y-68613134D01*
X60359368Y-68624170D01*
X60339962Y-68633349D01*
X60319750Y-68640581D01*
X60298926Y-68645797D01*
X60277691Y-68648947D01*
X60256250Y-68650000D01*
X59743750Y-68650000D01*
X59722309Y-68648947D01*
X59701074Y-68645797D01*
X59680250Y-68640581D01*
X59660038Y-68633349D01*
X59640632Y-68624170D01*
X59622219Y-68613134D01*
X59604976Y-68600346D01*
X59589070Y-68585930D01*
X59574654Y-68570024D01*
X59561866Y-68552781D01*
X59550830Y-68534368D01*
X59541651Y-68514962D01*
X59534419Y-68494750D01*
X59529203Y-68473926D01*
X59526053Y-68452691D01*
X59525000Y-68431250D01*
X59525000Y-67993750D01*
X59526053Y-67972309D01*
X59529203Y-67951074D01*
X59534419Y-67930250D01*
X59541651Y-67910038D01*
X59550830Y-67890632D01*
X59561866Y-67872219D01*
X59574654Y-67854976D01*
X59589070Y-67839070D01*
X59604976Y-67824654D01*
X59622219Y-67811866D01*
X59640632Y-67800830D01*
X59660038Y-67791651D01*
X59680250Y-67784419D01*
X59701074Y-67779203D01*
X59722309Y-67776053D01*
X59743750Y-67775000D01*
X60256250Y-67775000D01*
X60277691Y-67776053D01*
X60277691Y-67776053D01*
G37*
D17*
X60000000Y-68212500D03*
G04 #@! TD*
D10*
G04 #@! TO.C,C912*
G36*
X88277691Y-39776053D02*
X88298926Y-39779203D01*
X88319750Y-39784419D01*
X88339962Y-39791651D01*
X88359368Y-39800830D01*
X88377781Y-39811866D01*
X88395024Y-39824654D01*
X88410930Y-39839070D01*
X88425346Y-39854976D01*
X88438134Y-39872219D01*
X88449170Y-39890632D01*
X88458349Y-39910038D01*
X88465581Y-39930250D01*
X88470797Y-39951074D01*
X88473947Y-39972309D01*
X88475000Y-39993750D01*
X88475000Y-40431250D01*
X88473947Y-40452691D01*
X88470797Y-40473926D01*
X88465581Y-40494750D01*
X88458349Y-40514962D01*
X88449170Y-40534368D01*
X88438134Y-40552781D01*
X88425346Y-40570024D01*
X88410930Y-40585930D01*
X88395024Y-40600346D01*
X88377781Y-40613134D01*
X88359368Y-40624170D01*
X88339962Y-40633349D01*
X88319750Y-40640581D01*
X88298926Y-40645797D01*
X88277691Y-40648947D01*
X88256250Y-40650000D01*
X87743750Y-40650000D01*
X87722309Y-40648947D01*
X87701074Y-40645797D01*
X87680250Y-40640581D01*
X87660038Y-40633349D01*
X87640632Y-40624170D01*
X87622219Y-40613134D01*
X87604976Y-40600346D01*
X87589070Y-40585930D01*
X87574654Y-40570024D01*
X87561866Y-40552781D01*
X87550830Y-40534368D01*
X87541651Y-40514962D01*
X87534419Y-40494750D01*
X87529203Y-40473926D01*
X87526053Y-40452691D01*
X87525000Y-40431250D01*
X87525000Y-39993750D01*
X87526053Y-39972309D01*
X87529203Y-39951074D01*
X87534419Y-39930250D01*
X87541651Y-39910038D01*
X87550830Y-39890632D01*
X87561866Y-39872219D01*
X87574654Y-39854976D01*
X87589070Y-39839070D01*
X87604976Y-39824654D01*
X87622219Y-39811866D01*
X87640632Y-39800830D01*
X87660038Y-39791651D01*
X87680250Y-39784419D01*
X87701074Y-39779203D01*
X87722309Y-39776053D01*
X87743750Y-39775000D01*
X88256250Y-39775000D01*
X88277691Y-39776053D01*
X88277691Y-39776053D01*
G37*
D17*
X88000000Y-40212500D03*
D10*
G36*
X88277691Y-41351053D02*
X88298926Y-41354203D01*
X88319750Y-41359419D01*
X88339962Y-41366651D01*
X88359368Y-41375830D01*
X88377781Y-41386866D01*
X88395024Y-41399654D01*
X88410930Y-41414070D01*
X88425346Y-41429976D01*
X88438134Y-41447219D01*
X88449170Y-41465632D01*
X88458349Y-41485038D01*
X88465581Y-41505250D01*
X88470797Y-41526074D01*
X88473947Y-41547309D01*
X88475000Y-41568750D01*
X88475000Y-42006250D01*
X88473947Y-42027691D01*
X88470797Y-42048926D01*
X88465581Y-42069750D01*
X88458349Y-42089962D01*
X88449170Y-42109368D01*
X88438134Y-42127781D01*
X88425346Y-42145024D01*
X88410930Y-42160930D01*
X88395024Y-42175346D01*
X88377781Y-42188134D01*
X88359368Y-42199170D01*
X88339962Y-42208349D01*
X88319750Y-42215581D01*
X88298926Y-42220797D01*
X88277691Y-42223947D01*
X88256250Y-42225000D01*
X87743750Y-42225000D01*
X87722309Y-42223947D01*
X87701074Y-42220797D01*
X87680250Y-42215581D01*
X87660038Y-42208349D01*
X87640632Y-42199170D01*
X87622219Y-42188134D01*
X87604976Y-42175346D01*
X87589070Y-42160930D01*
X87574654Y-42145024D01*
X87561866Y-42127781D01*
X87550830Y-42109368D01*
X87541651Y-42089962D01*
X87534419Y-42069750D01*
X87529203Y-42048926D01*
X87526053Y-42027691D01*
X87525000Y-42006250D01*
X87525000Y-41568750D01*
X87526053Y-41547309D01*
X87529203Y-41526074D01*
X87534419Y-41505250D01*
X87541651Y-41485038D01*
X87550830Y-41465632D01*
X87561866Y-41447219D01*
X87574654Y-41429976D01*
X87589070Y-41414070D01*
X87604976Y-41399654D01*
X87622219Y-41386866D01*
X87640632Y-41375830D01*
X87660038Y-41366651D01*
X87680250Y-41359419D01*
X87701074Y-41354203D01*
X87722309Y-41351053D01*
X87743750Y-41350000D01*
X88256250Y-41350000D01*
X88277691Y-41351053D01*
X88277691Y-41351053D01*
G37*
D17*
X88000000Y-41787500D03*
G04 #@! TD*
D10*
G04 #@! TO.C,C902*
G36*
X46277691Y-27351053D02*
X46298926Y-27354203D01*
X46319750Y-27359419D01*
X46339962Y-27366651D01*
X46359368Y-27375830D01*
X46377781Y-27386866D01*
X46395024Y-27399654D01*
X46410930Y-27414070D01*
X46425346Y-27429976D01*
X46438134Y-27447219D01*
X46449170Y-27465632D01*
X46458349Y-27485038D01*
X46465581Y-27505250D01*
X46470797Y-27526074D01*
X46473947Y-27547309D01*
X46475000Y-27568750D01*
X46475000Y-28006250D01*
X46473947Y-28027691D01*
X46470797Y-28048926D01*
X46465581Y-28069750D01*
X46458349Y-28089962D01*
X46449170Y-28109368D01*
X46438134Y-28127781D01*
X46425346Y-28145024D01*
X46410930Y-28160930D01*
X46395024Y-28175346D01*
X46377781Y-28188134D01*
X46359368Y-28199170D01*
X46339962Y-28208349D01*
X46319750Y-28215581D01*
X46298926Y-28220797D01*
X46277691Y-28223947D01*
X46256250Y-28225000D01*
X45743750Y-28225000D01*
X45722309Y-28223947D01*
X45701074Y-28220797D01*
X45680250Y-28215581D01*
X45660038Y-28208349D01*
X45640632Y-28199170D01*
X45622219Y-28188134D01*
X45604976Y-28175346D01*
X45589070Y-28160930D01*
X45574654Y-28145024D01*
X45561866Y-28127781D01*
X45550830Y-28109368D01*
X45541651Y-28089962D01*
X45534419Y-28069750D01*
X45529203Y-28048926D01*
X45526053Y-28027691D01*
X45525000Y-28006250D01*
X45525000Y-27568750D01*
X45526053Y-27547309D01*
X45529203Y-27526074D01*
X45534419Y-27505250D01*
X45541651Y-27485038D01*
X45550830Y-27465632D01*
X45561866Y-27447219D01*
X45574654Y-27429976D01*
X45589070Y-27414070D01*
X45604976Y-27399654D01*
X45622219Y-27386866D01*
X45640632Y-27375830D01*
X45660038Y-27366651D01*
X45680250Y-27359419D01*
X45701074Y-27354203D01*
X45722309Y-27351053D01*
X45743750Y-27350000D01*
X46256250Y-27350000D01*
X46277691Y-27351053D01*
X46277691Y-27351053D01*
G37*
D17*
X46000000Y-27787500D03*
D10*
G36*
X46277691Y-25776053D02*
X46298926Y-25779203D01*
X46319750Y-25784419D01*
X46339962Y-25791651D01*
X46359368Y-25800830D01*
X46377781Y-25811866D01*
X46395024Y-25824654D01*
X46410930Y-25839070D01*
X46425346Y-25854976D01*
X46438134Y-25872219D01*
X46449170Y-25890632D01*
X46458349Y-25910038D01*
X46465581Y-25930250D01*
X46470797Y-25951074D01*
X46473947Y-25972309D01*
X46475000Y-25993750D01*
X46475000Y-26431250D01*
X46473947Y-26452691D01*
X46470797Y-26473926D01*
X46465581Y-26494750D01*
X46458349Y-26514962D01*
X46449170Y-26534368D01*
X46438134Y-26552781D01*
X46425346Y-26570024D01*
X46410930Y-26585930D01*
X46395024Y-26600346D01*
X46377781Y-26613134D01*
X46359368Y-26624170D01*
X46339962Y-26633349D01*
X46319750Y-26640581D01*
X46298926Y-26645797D01*
X46277691Y-26648947D01*
X46256250Y-26650000D01*
X45743750Y-26650000D01*
X45722309Y-26648947D01*
X45701074Y-26645797D01*
X45680250Y-26640581D01*
X45660038Y-26633349D01*
X45640632Y-26624170D01*
X45622219Y-26613134D01*
X45604976Y-26600346D01*
X45589070Y-26585930D01*
X45574654Y-26570024D01*
X45561866Y-26552781D01*
X45550830Y-26534368D01*
X45541651Y-26514962D01*
X45534419Y-26494750D01*
X45529203Y-26473926D01*
X45526053Y-26452691D01*
X45525000Y-26431250D01*
X45525000Y-25993750D01*
X45526053Y-25972309D01*
X45529203Y-25951074D01*
X45534419Y-25930250D01*
X45541651Y-25910038D01*
X45550830Y-25890632D01*
X45561866Y-25872219D01*
X45574654Y-25854976D01*
X45589070Y-25839070D01*
X45604976Y-25824654D01*
X45622219Y-25811866D01*
X45640632Y-25800830D01*
X45660038Y-25791651D01*
X45680250Y-25784419D01*
X45701074Y-25779203D01*
X45722309Y-25776053D01*
X45743750Y-25775000D01*
X46256250Y-25775000D01*
X46277691Y-25776053D01*
X46277691Y-25776053D01*
G37*
D17*
X46000000Y-26212500D03*
G04 #@! TD*
D10*
G04 #@! TO.C,C927*
G36*
X102277691Y-67776053D02*
X102298926Y-67779203D01*
X102319750Y-67784419D01*
X102339962Y-67791651D01*
X102359368Y-67800830D01*
X102377781Y-67811866D01*
X102395024Y-67824654D01*
X102410930Y-67839070D01*
X102425346Y-67854976D01*
X102438134Y-67872219D01*
X102449170Y-67890632D01*
X102458349Y-67910038D01*
X102465581Y-67930250D01*
X102470797Y-67951074D01*
X102473947Y-67972309D01*
X102475000Y-67993750D01*
X102475000Y-68431250D01*
X102473947Y-68452691D01*
X102470797Y-68473926D01*
X102465581Y-68494750D01*
X102458349Y-68514962D01*
X102449170Y-68534368D01*
X102438134Y-68552781D01*
X102425346Y-68570024D01*
X102410930Y-68585930D01*
X102395024Y-68600346D01*
X102377781Y-68613134D01*
X102359368Y-68624170D01*
X102339962Y-68633349D01*
X102319750Y-68640581D01*
X102298926Y-68645797D01*
X102277691Y-68648947D01*
X102256250Y-68650000D01*
X101743750Y-68650000D01*
X101722309Y-68648947D01*
X101701074Y-68645797D01*
X101680250Y-68640581D01*
X101660038Y-68633349D01*
X101640632Y-68624170D01*
X101622219Y-68613134D01*
X101604976Y-68600346D01*
X101589070Y-68585930D01*
X101574654Y-68570024D01*
X101561866Y-68552781D01*
X101550830Y-68534368D01*
X101541651Y-68514962D01*
X101534419Y-68494750D01*
X101529203Y-68473926D01*
X101526053Y-68452691D01*
X101525000Y-68431250D01*
X101525000Y-67993750D01*
X101526053Y-67972309D01*
X101529203Y-67951074D01*
X101534419Y-67930250D01*
X101541651Y-67910038D01*
X101550830Y-67890632D01*
X101561866Y-67872219D01*
X101574654Y-67854976D01*
X101589070Y-67839070D01*
X101604976Y-67824654D01*
X101622219Y-67811866D01*
X101640632Y-67800830D01*
X101660038Y-67791651D01*
X101680250Y-67784419D01*
X101701074Y-67779203D01*
X101722309Y-67776053D01*
X101743750Y-67775000D01*
X102256250Y-67775000D01*
X102277691Y-67776053D01*
X102277691Y-67776053D01*
G37*
D17*
X102000000Y-68212500D03*
D10*
G36*
X102277691Y-69351053D02*
X102298926Y-69354203D01*
X102319750Y-69359419D01*
X102339962Y-69366651D01*
X102359368Y-69375830D01*
X102377781Y-69386866D01*
X102395024Y-69399654D01*
X102410930Y-69414070D01*
X102425346Y-69429976D01*
X102438134Y-69447219D01*
X102449170Y-69465632D01*
X102458349Y-69485038D01*
X102465581Y-69505250D01*
X102470797Y-69526074D01*
X102473947Y-69547309D01*
X102475000Y-69568750D01*
X102475000Y-70006250D01*
X102473947Y-70027691D01*
X102470797Y-70048926D01*
X102465581Y-70069750D01*
X102458349Y-70089962D01*
X102449170Y-70109368D01*
X102438134Y-70127781D01*
X102425346Y-70145024D01*
X102410930Y-70160930D01*
X102395024Y-70175346D01*
X102377781Y-70188134D01*
X102359368Y-70199170D01*
X102339962Y-70208349D01*
X102319750Y-70215581D01*
X102298926Y-70220797D01*
X102277691Y-70223947D01*
X102256250Y-70225000D01*
X101743750Y-70225000D01*
X101722309Y-70223947D01*
X101701074Y-70220797D01*
X101680250Y-70215581D01*
X101660038Y-70208349D01*
X101640632Y-70199170D01*
X101622219Y-70188134D01*
X101604976Y-70175346D01*
X101589070Y-70160930D01*
X101574654Y-70145024D01*
X101561866Y-70127781D01*
X101550830Y-70109368D01*
X101541651Y-70089962D01*
X101534419Y-70069750D01*
X101529203Y-70048926D01*
X101526053Y-70027691D01*
X101525000Y-70006250D01*
X101525000Y-69568750D01*
X101526053Y-69547309D01*
X101529203Y-69526074D01*
X101534419Y-69505250D01*
X101541651Y-69485038D01*
X101550830Y-69465632D01*
X101561866Y-69447219D01*
X101574654Y-69429976D01*
X101589070Y-69414070D01*
X101604976Y-69399654D01*
X101622219Y-69386866D01*
X101640632Y-69375830D01*
X101660038Y-69366651D01*
X101680250Y-69359419D01*
X101701074Y-69354203D01*
X101722309Y-69351053D01*
X101743750Y-69350000D01*
X102256250Y-69350000D01*
X102277691Y-69351053D01*
X102277691Y-69351053D01*
G37*
D17*
X102000000Y-69787500D03*
G04 #@! TD*
D10*
G04 #@! TO.C,C928*
G36*
X113422691Y-62811053D02*
X113443926Y-62814203D01*
X113464750Y-62819419D01*
X113484962Y-62826651D01*
X113504368Y-62835830D01*
X113522781Y-62846866D01*
X113540024Y-62859654D01*
X113555930Y-62874070D01*
X113570346Y-62889976D01*
X113583134Y-62907219D01*
X113594170Y-62925632D01*
X113603349Y-62945038D01*
X113610581Y-62965250D01*
X113615797Y-62986074D01*
X113618947Y-63007309D01*
X113620000Y-63028750D01*
X113620000Y-63541250D01*
X113618947Y-63562691D01*
X113615797Y-63583926D01*
X113610581Y-63604750D01*
X113603349Y-63624962D01*
X113594170Y-63644368D01*
X113583134Y-63662781D01*
X113570346Y-63680024D01*
X113555930Y-63695930D01*
X113540024Y-63710346D01*
X113522781Y-63723134D01*
X113504368Y-63734170D01*
X113484962Y-63743349D01*
X113464750Y-63750581D01*
X113443926Y-63755797D01*
X113422691Y-63758947D01*
X113401250Y-63760000D01*
X112963750Y-63760000D01*
X112942309Y-63758947D01*
X112921074Y-63755797D01*
X112900250Y-63750581D01*
X112880038Y-63743349D01*
X112860632Y-63734170D01*
X112842219Y-63723134D01*
X112824976Y-63710346D01*
X112809070Y-63695930D01*
X112794654Y-63680024D01*
X112781866Y-63662781D01*
X112770830Y-63644368D01*
X112761651Y-63624962D01*
X112754419Y-63604750D01*
X112749203Y-63583926D01*
X112746053Y-63562691D01*
X112745000Y-63541250D01*
X112745000Y-63028750D01*
X112746053Y-63007309D01*
X112749203Y-62986074D01*
X112754419Y-62965250D01*
X112761651Y-62945038D01*
X112770830Y-62925632D01*
X112781866Y-62907219D01*
X112794654Y-62889976D01*
X112809070Y-62874070D01*
X112824976Y-62859654D01*
X112842219Y-62846866D01*
X112860632Y-62835830D01*
X112880038Y-62826651D01*
X112900250Y-62819419D01*
X112921074Y-62814203D01*
X112942309Y-62811053D01*
X112963750Y-62810000D01*
X113401250Y-62810000D01*
X113422691Y-62811053D01*
X113422691Y-62811053D01*
G37*
D17*
X113182500Y-63285000D03*
D10*
G36*
X111847691Y-62811053D02*
X111868926Y-62814203D01*
X111889750Y-62819419D01*
X111909962Y-62826651D01*
X111929368Y-62835830D01*
X111947781Y-62846866D01*
X111965024Y-62859654D01*
X111980930Y-62874070D01*
X111995346Y-62889976D01*
X112008134Y-62907219D01*
X112019170Y-62925632D01*
X112028349Y-62945038D01*
X112035581Y-62965250D01*
X112040797Y-62986074D01*
X112043947Y-63007309D01*
X112045000Y-63028750D01*
X112045000Y-63541250D01*
X112043947Y-63562691D01*
X112040797Y-63583926D01*
X112035581Y-63604750D01*
X112028349Y-63624962D01*
X112019170Y-63644368D01*
X112008134Y-63662781D01*
X111995346Y-63680024D01*
X111980930Y-63695930D01*
X111965024Y-63710346D01*
X111947781Y-63723134D01*
X111929368Y-63734170D01*
X111909962Y-63743349D01*
X111889750Y-63750581D01*
X111868926Y-63755797D01*
X111847691Y-63758947D01*
X111826250Y-63760000D01*
X111388750Y-63760000D01*
X111367309Y-63758947D01*
X111346074Y-63755797D01*
X111325250Y-63750581D01*
X111305038Y-63743349D01*
X111285632Y-63734170D01*
X111267219Y-63723134D01*
X111249976Y-63710346D01*
X111234070Y-63695930D01*
X111219654Y-63680024D01*
X111206866Y-63662781D01*
X111195830Y-63644368D01*
X111186651Y-63624962D01*
X111179419Y-63604750D01*
X111174203Y-63583926D01*
X111171053Y-63562691D01*
X111170000Y-63541250D01*
X111170000Y-63028750D01*
X111171053Y-63007309D01*
X111174203Y-62986074D01*
X111179419Y-62965250D01*
X111186651Y-62945038D01*
X111195830Y-62925632D01*
X111206866Y-62907219D01*
X111219654Y-62889976D01*
X111234070Y-62874070D01*
X111249976Y-62859654D01*
X111267219Y-62846866D01*
X111285632Y-62835830D01*
X111305038Y-62826651D01*
X111325250Y-62819419D01*
X111346074Y-62814203D01*
X111367309Y-62811053D01*
X111388750Y-62810000D01*
X111826250Y-62810000D01*
X111847691Y-62811053D01*
X111847691Y-62811053D01*
G37*
D17*
X111607500Y-63285000D03*
G04 #@! TD*
D10*
G04 #@! TO.C,C929*
G36*
X32277691Y-81776053D02*
X32298926Y-81779203D01*
X32319750Y-81784419D01*
X32339962Y-81791651D01*
X32359368Y-81800830D01*
X32377781Y-81811866D01*
X32395024Y-81824654D01*
X32410930Y-81839070D01*
X32425346Y-81854976D01*
X32438134Y-81872219D01*
X32449170Y-81890632D01*
X32458349Y-81910038D01*
X32465581Y-81930250D01*
X32470797Y-81951074D01*
X32473947Y-81972309D01*
X32475000Y-81993750D01*
X32475000Y-82431250D01*
X32473947Y-82452691D01*
X32470797Y-82473926D01*
X32465581Y-82494750D01*
X32458349Y-82514962D01*
X32449170Y-82534368D01*
X32438134Y-82552781D01*
X32425346Y-82570024D01*
X32410930Y-82585930D01*
X32395024Y-82600346D01*
X32377781Y-82613134D01*
X32359368Y-82624170D01*
X32339962Y-82633349D01*
X32319750Y-82640581D01*
X32298926Y-82645797D01*
X32277691Y-82648947D01*
X32256250Y-82650000D01*
X31743750Y-82650000D01*
X31722309Y-82648947D01*
X31701074Y-82645797D01*
X31680250Y-82640581D01*
X31660038Y-82633349D01*
X31640632Y-82624170D01*
X31622219Y-82613134D01*
X31604976Y-82600346D01*
X31589070Y-82585930D01*
X31574654Y-82570024D01*
X31561866Y-82552781D01*
X31550830Y-82534368D01*
X31541651Y-82514962D01*
X31534419Y-82494750D01*
X31529203Y-82473926D01*
X31526053Y-82452691D01*
X31525000Y-82431250D01*
X31525000Y-81993750D01*
X31526053Y-81972309D01*
X31529203Y-81951074D01*
X31534419Y-81930250D01*
X31541651Y-81910038D01*
X31550830Y-81890632D01*
X31561866Y-81872219D01*
X31574654Y-81854976D01*
X31589070Y-81839070D01*
X31604976Y-81824654D01*
X31622219Y-81811866D01*
X31640632Y-81800830D01*
X31660038Y-81791651D01*
X31680250Y-81784419D01*
X31701074Y-81779203D01*
X31722309Y-81776053D01*
X31743750Y-81775000D01*
X32256250Y-81775000D01*
X32277691Y-81776053D01*
X32277691Y-81776053D01*
G37*
D17*
X32000000Y-82212500D03*
D10*
G36*
X32277691Y-83351053D02*
X32298926Y-83354203D01*
X32319750Y-83359419D01*
X32339962Y-83366651D01*
X32359368Y-83375830D01*
X32377781Y-83386866D01*
X32395024Y-83399654D01*
X32410930Y-83414070D01*
X32425346Y-83429976D01*
X32438134Y-83447219D01*
X32449170Y-83465632D01*
X32458349Y-83485038D01*
X32465581Y-83505250D01*
X32470797Y-83526074D01*
X32473947Y-83547309D01*
X32475000Y-83568750D01*
X32475000Y-84006250D01*
X32473947Y-84027691D01*
X32470797Y-84048926D01*
X32465581Y-84069750D01*
X32458349Y-84089962D01*
X32449170Y-84109368D01*
X32438134Y-84127781D01*
X32425346Y-84145024D01*
X32410930Y-84160930D01*
X32395024Y-84175346D01*
X32377781Y-84188134D01*
X32359368Y-84199170D01*
X32339962Y-84208349D01*
X32319750Y-84215581D01*
X32298926Y-84220797D01*
X32277691Y-84223947D01*
X32256250Y-84225000D01*
X31743750Y-84225000D01*
X31722309Y-84223947D01*
X31701074Y-84220797D01*
X31680250Y-84215581D01*
X31660038Y-84208349D01*
X31640632Y-84199170D01*
X31622219Y-84188134D01*
X31604976Y-84175346D01*
X31589070Y-84160930D01*
X31574654Y-84145024D01*
X31561866Y-84127781D01*
X31550830Y-84109368D01*
X31541651Y-84089962D01*
X31534419Y-84069750D01*
X31529203Y-84048926D01*
X31526053Y-84027691D01*
X31525000Y-84006250D01*
X31525000Y-83568750D01*
X31526053Y-83547309D01*
X31529203Y-83526074D01*
X31534419Y-83505250D01*
X31541651Y-83485038D01*
X31550830Y-83465632D01*
X31561866Y-83447219D01*
X31574654Y-83429976D01*
X31589070Y-83414070D01*
X31604976Y-83399654D01*
X31622219Y-83386866D01*
X31640632Y-83375830D01*
X31660038Y-83366651D01*
X31680250Y-83359419D01*
X31701074Y-83354203D01*
X31722309Y-83351053D01*
X31743750Y-83350000D01*
X32256250Y-83350000D01*
X32277691Y-83351053D01*
X32277691Y-83351053D01*
G37*
D17*
X32000000Y-83787500D03*
G04 #@! TD*
D10*
G04 #@! TO.C,C930*
G36*
X46277691Y-83351053D02*
X46298926Y-83354203D01*
X46319750Y-83359419D01*
X46339962Y-83366651D01*
X46359368Y-83375830D01*
X46377781Y-83386866D01*
X46395024Y-83399654D01*
X46410930Y-83414070D01*
X46425346Y-83429976D01*
X46438134Y-83447219D01*
X46449170Y-83465632D01*
X46458349Y-83485038D01*
X46465581Y-83505250D01*
X46470797Y-83526074D01*
X46473947Y-83547309D01*
X46475000Y-83568750D01*
X46475000Y-84006250D01*
X46473947Y-84027691D01*
X46470797Y-84048926D01*
X46465581Y-84069750D01*
X46458349Y-84089962D01*
X46449170Y-84109368D01*
X46438134Y-84127781D01*
X46425346Y-84145024D01*
X46410930Y-84160930D01*
X46395024Y-84175346D01*
X46377781Y-84188134D01*
X46359368Y-84199170D01*
X46339962Y-84208349D01*
X46319750Y-84215581D01*
X46298926Y-84220797D01*
X46277691Y-84223947D01*
X46256250Y-84225000D01*
X45743750Y-84225000D01*
X45722309Y-84223947D01*
X45701074Y-84220797D01*
X45680250Y-84215581D01*
X45660038Y-84208349D01*
X45640632Y-84199170D01*
X45622219Y-84188134D01*
X45604976Y-84175346D01*
X45589070Y-84160930D01*
X45574654Y-84145024D01*
X45561866Y-84127781D01*
X45550830Y-84109368D01*
X45541651Y-84089962D01*
X45534419Y-84069750D01*
X45529203Y-84048926D01*
X45526053Y-84027691D01*
X45525000Y-84006250D01*
X45525000Y-83568750D01*
X45526053Y-83547309D01*
X45529203Y-83526074D01*
X45534419Y-83505250D01*
X45541651Y-83485038D01*
X45550830Y-83465632D01*
X45561866Y-83447219D01*
X45574654Y-83429976D01*
X45589070Y-83414070D01*
X45604976Y-83399654D01*
X45622219Y-83386866D01*
X45640632Y-83375830D01*
X45660038Y-83366651D01*
X45680250Y-83359419D01*
X45701074Y-83354203D01*
X45722309Y-83351053D01*
X45743750Y-83350000D01*
X46256250Y-83350000D01*
X46277691Y-83351053D01*
X46277691Y-83351053D01*
G37*
D17*
X46000000Y-83787500D03*
D10*
G36*
X46277691Y-81776053D02*
X46298926Y-81779203D01*
X46319750Y-81784419D01*
X46339962Y-81791651D01*
X46359368Y-81800830D01*
X46377781Y-81811866D01*
X46395024Y-81824654D01*
X46410930Y-81839070D01*
X46425346Y-81854976D01*
X46438134Y-81872219D01*
X46449170Y-81890632D01*
X46458349Y-81910038D01*
X46465581Y-81930250D01*
X46470797Y-81951074D01*
X46473947Y-81972309D01*
X46475000Y-81993750D01*
X46475000Y-82431250D01*
X46473947Y-82452691D01*
X46470797Y-82473926D01*
X46465581Y-82494750D01*
X46458349Y-82514962D01*
X46449170Y-82534368D01*
X46438134Y-82552781D01*
X46425346Y-82570024D01*
X46410930Y-82585930D01*
X46395024Y-82600346D01*
X46377781Y-82613134D01*
X46359368Y-82624170D01*
X46339962Y-82633349D01*
X46319750Y-82640581D01*
X46298926Y-82645797D01*
X46277691Y-82648947D01*
X46256250Y-82650000D01*
X45743750Y-82650000D01*
X45722309Y-82648947D01*
X45701074Y-82645797D01*
X45680250Y-82640581D01*
X45660038Y-82633349D01*
X45640632Y-82624170D01*
X45622219Y-82613134D01*
X45604976Y-82600346D01*
X45589070Y-82585930D01*
X45574654Y-82570024D01*
X45561866Y-82552781D01*
X45550830Y-82534368D01*
X45541651Y-82514962D01*
X45534419Y-82494750D01*
X45529203Y-82473926D01*
X45526053Y-82452691D01*
X45525000Y-82431250D01*
X45525000Y-81993750D01*
X45526053Y-81972309D01*
X45529203Y-81951074D01*
X45534419Y-81930250D01*
X45541651Y-81910038D01*
X45550830Y-81890632D01*
X45561866Y-81872219D01*
X45574654Y-81854976D01*
X45589070Y-81839070D01*
X45604976Y-81824654D01*
X45622219Y-81811866D01*
X45640632Y-81800830D01*
X45660038Y-81791651D01*
X45680250Y-81784419D01*
X45701074Y-81779203D01*
X45722309Y-81776053D01*
X45743750Y-81775000D01*
X46256250Y-81775000D01*
X46277691Y-81776053D01*
X46277691Y-81776053D01*
G37*
D17*
X46000000Y-82212500D03*
G04 #@! TD*
D10*
G04 #@! TO.C,C931*
G36*
X60277691Y-81776053D02*
X60298926Y-81779203D01*
X60319750Y-81784419D01*
X60339962Y-81791651D01*
X60359368Y-81800830D01*
X60377781Y-81811866D01*
X60395024Y-81824654D01*
X60410930Y-81839070D01*
X60425346Y-81854976D01*
X60438134Y-81872219D01*
X60449170Y-81890632D01*
X60458349Y-81910038D01*
X60465581Y-81930250D01*
X60470797Y-81951074D01*
X60473947Y-81972309D01*
X60475000Y-81993750D01*
X60475000Y-82431250D01*
X60473947Y-82452691D01*
X60470797Y-82473926D01*
X60465581Y-82494750D01*
X60458349Y-82514962D01*
X60449170Y-82534368D01*
X60438134Y-82552781D01*
X60425346Y-82570024D01*
X60410930Y-82585930D01*
X60395024Y-82600346D01*
X60377781Y-82613134D01*
X60359368Y-82624170D01*
X60339962Y-82633349D01*
X60319750Y-82640581D01*
X60298926Y-82645797D01*
X60277691Y-82648947D01*
X60256250Y-82650000D01*
X59743750Y-82650000D01*
X59722309Y-82648947D01*
X59701074Y-82645797D01*
X59680250Y-82640581D01*
X59660038Y-82633349D01*
X59640632Y-82624170D01*
X59622219Y-82613134D01*
X59604976Y-82600346D01*
X59589070Y-82585930D01*
X59574654Y-82570024D01*
X59561866Y-82552781D01*
X59550830Y-82534368D01*
X59541651Y-82514962D01*
X59534419Y-82494750D01*
X59529203Y-82473926D01*
X59526053Y-82452691D01*
X59525000Y-82431250D01*
X59525000Y-81993750D01*
X59526053Y-81972309D01*
X59529203Y-81951074D01*
X59534419Y-81930250D01*
X59541651Y-81910038D01*
X59550830Y-81890632D01*
X59561866Y-81872219D01*
X59574654Y-81854976D01*
X59589070Y-81839070D01*
X59604976Y-81824654D01*
X59622219Y-81811866D01*
X59640632Y-81800830D01*
X59660038Y-81791651D01*
X59680250Y-81784419D01*
X59701074Y-81779203D01*
X59722309Y-81776053D01*
X59743750Y-81775000D01*
X60256250Y-81775000D01*
X60277691Y-81776053D01*
X60277691Y-81776053D01*
G37*
D17*
X60000000Y-82212500D03*
D10*
G36*
X60277691Y-83351053D02*
X60298926Y-83354203D01*
X60319750Y-83359419D01*
X60339962Y-83366651D01*
X60359368Y-83375830D01*
X60377781Y-83386866D01*
X60395024Y-83399654D01*
X60410930Y-83414070D01*
X60425346Y-83429976D01*
X60438134Y-83447219D01*
X60449170Y-83465632D01*
X60458349Y-83485038D01*
X60465581Y-83505250D01*
X60470797Y-83526074D01*
X60473947Y-83547309D01*
X60475000Y-83568750D01*
X60475000Y-84006250D01*
X60473947Y-84027691D01*
X60470797Y-84048926D01*
X60465581Y-84069750D01*
X60458349Y-84089962D01*
X60449170Y-84109368D01*
X60438134Y-84127781D01*
X60425346Y-84145024D01*
X60410930Y-84160930D01*
X60395024Y-84175346D01*
X60377781Y-84188134D01*
X60359368Y-84199170D01*
X60339962Y-84208349D01*
X60319750Y-84215581D01*
X60298926Y-84220797D01*
X60277691Y-84223947D01*
X60256250Y-84225000D01*
X59743750Y-84225000D01*
X59722309Y-84223947D01*
X59701074Y-84220797D01*
X59680250Y-84215581D01*
X59660038Y-84208349D01*
X59640632Y-84199170D01*
X59622219Y-84188134D01*
X59604976Y-84175346D01*
X59589070Y-84160930D01*
X59574654Y-84145024D01*
X59561866Y-84127781D01*
X59550830Y-84109368D01*
X59541651Y-84089962D01*
X59534419Y-84069750D01*
X59529203Y-84048926D01*
X59526053Y-84027691D01*
X59525000Y-84006250D01*
X59525000Y-83568750D01*
X59526053Y-83547309D01*
X59529203Y-83526074D01*
X59534419Y-83505250D01*
X59541651Y-83485038D01*
X59550830Y-83465632D01*
X59561866Y-83447219D01*
X59574654Y-83429976D01*
X59589070Y-83414070D01*
X59604976Y-83399654D01*
X59622219Y-83386866D01*
X59640632Y-83375830D01*
X59660038Y-83366651D01*
X59680250Y-83359419D01*
X59701074Y-83354203D01*
X59722309Y-83351053D01*
X59743750Y-83350000D01*
X60256250Y-83350000D01*
X60277691Y-83351053D01*
X60277691Y-83351053D01*
G37*
D17*
X60000000Y-83787500D03*
G04 #@! TD*
D10*
G04 #@! TO.C,C932*
G36*
X74277691Y-83351053D02*
X74298926Y-83354203D01*
X74319750Y-83359419D01*
X74339962Y-83366651D01*
X74359368Y-83375830D01*
X74377781Y-83386866D01*
X74395024Y-83399654D01*
X74410930Y-83414070D01*
X74425346Y-83429976D01*
X74438134Y-83447219D01*
X74449170Y-83465632D01*
X74458349Y-83485038D01*
X74465581Y-83505250D01*
X74470797Y-83526074D01*
X74473947Y-83547309D01*
X74475000Y-83568750D01*
X74475000Y-84006250D01*
X74473947Y-84027691D01*
X74470797Y-84048926D01*
X74465581Y-84069750D01*
X74458349Y-84089962D01*
X74449170Y-84109368D01*
X74438134Y-84127781D01*
X74425346Y-84145024D01*
X74410930Y-84160930D01*
X74395024Y-84175346D01*
X74377781Y-84188134D01*
X74359368Y-84199170D01*
X74339962Y-84208349D01*
X74319750Y-84215581D01*
X74298926Y-84220797D01*
X74277691Y-84223947D01*
X74256250Y-84225000D01*
X73743750Y-84225000D01*
X73722309Y-84223947D01*
X73701074Y-84220797D01*
X73680250Y-84215581D01*
X73660038Y-84208349D01*
X73640632Y-84199170D01*
X73622219Y-84188134D01*
X73604976Y-84175346D01*
X73589070Y-84160930D01*
X73574654Y-84145024D01*
X73561866Y-84127781D01*
X73550830Y-84109368D01*
X73541651Y-84089962D01*
X73534419Y-84069750D01*
X73529203Y-84048926D01*
X73526053Y-84027691D01*
X73525000Y-84006250D01*
X73525000Y-83568750D01*
X73526053Y-83547309D01*
X73529203Y-83526074D01*
X73534419Y-83505250D01*
X73541651Y-83485038D01*
X73550830Y-83465632D01*
X73561866Y-83447219D01*
X73574654Y-83429976D01*
X73589070Y-83414070D01*
X73604976Y-83399654D01*
X73622219Y-83386866D01*
X73640632Y-83375830D01*
X73660038Y-83366651D01*
X73680250Y-83359419D01*
X73701074Y-83354203D01*
X73722309Y-83351053D01*
X73743750Y-83350000D01*
X74256250Y-83350000D01*
X74277691Y-83351053D01*
X74277691Y-83351053D01*
G37*
D17*
X74000000Y-83787500D03*
D10*
G36*
X74277691Y-81776053D02*
X74298926Y-81779203D01*
X74319750Y-81784419D01*
X74339962Y-81791651D01*
X74359368Y-81800830D01*
X74377781Y-81811866D01*
X74395024Y-81824654D01*
X74410930Y-81839070D01*
X74425346Y-81854976D01*
X74438134Y-81872219D01*
X74449170Y-81890632D01*
X74458349Y-81910038D01*
X74465581Y-81930250D01*
X74470797Y-81951074D01*
X74473947Y-81972309D01*
X74475000Y-81993750D01*
X74475000Y-82431250D01*
X74473947Y-82452691D01*
X74470797Y-82473926D01*
X74465581Y-82494750D01*
X74458349Y-82514962D01*
X74449170Y-82534368D01*
X74438134Y-82552781D01*
X74425346Y-82570024D01*
X74410930Y-82585930D01*
X74395024Y-82600346D01*
X74377781Y-82613134D01*
X74359368Y-82624170D01*
X74339962Y-82633349D01*
X74319750Y-82640581D01*
X74298926Y-82645797D01*
X74277691Y-82648947D01*
X74256250Y-82650000D01*
X73743750Y-82650000D01*
X73722309Y-82648947D01*
X73701074Y-82645797D01*
X73680250Y-82640581D01*
X73660038Y-82633349D01*
X73640632Y-82624170D01*
X73622219Y-82613134D01*
X73604976Y-82600346D01*
X73589070Y-82585930D01*
X73574654Y-82570024D01*
X73561866Y-82552781D01*
X73550830Y-82534368D01*
X73541651Y-82514962D01*
X73534419Y-82494750D01*
X73529203Y-82473926D01*
X73526053Y-82452691D01*
X73525000Y-82431250D01*
X73525000Y-81993750D01*
X73526053Y-81972309D01*
X73529203Y-81951074D01*
X73534419Y-81930250D01*
X73541651Y-81910038D01*
X73550830Y-81890632D01*
X73561866Y-81872219D01*
X73574654Y-81854976D01*
X73589070Y-81839070D01*
X73604976Y-81824654D01*
X73622219Y-81811866D01*
X73640632Y-81800830D01*
X73660038Y-81791651D01*
X73680250Y-81784419D01*
X73701074Y-81779203D01*
X73722309Y-81776053D01*
X73743750Y-81775000D01*
X74256250Y-81775000D01*
X74277691Y-81776053D01*
X74277691Y-81776053D01*
G37*
D17*
X74000000Y-82212500D03*
G04 #@! TD*
D10*
G04 #@! TO.C,C933*
G36*
X88277691Y-81776053D02*
X88298926Y-81779203D01*
X88319750Y-81784419D01*
X88339962Y-81791651D01*
X88359368Y-81800830D01*
X88377781Y-81811866D01*
X88395024Y-81824654D01*
X88410930Y-81839070D01*
X88425346Y-81854976D01*
X88438134Y-81872219D01*
X88449170Y-81890632D01*
X88458349Y-81910038D01*
X88465581Y-81930250D01*
X88470797Y-81951074D01*
X88473947Y-81972309D01*
X88475000Y-81993750D01*
X88475000Y-82431250D01*
X88473947Y-82452691D01*
X88470797Y-82473926D01*
X88465581Y-82494750D01*
X88458349Y-82514962D01*
X88449170Y-82534368D01*
X88438134Y-82552781D01*
X88425346Y-82570024D01*
X88410930Y-82585930D01*
X88395024Y-82600346D01*
X88377781Y-82613134D01*
X88359368Y-82624170D01*
X88339962Y-82633349D01*
X88319750Y-82640581D01*
X88298926Y-82645797D01*
X88277691Y-82648947D01*
X88256250Y-82650000D01*
X87743750Y-82650000D01*
X87722309Y-82648947D01*
X87701074Y-82645797D01*
X87680250Y-82640581D01*
X87660038Y-82633349D01*
X87640632Y-82624170D01*
X87622219Y-82613134D01*
X87604976Y-82600346D01*
X87589070Y-82585930D01*
X87574654Y-82570024D01*
X87561866Y-82552781D01*
X87550830Y-82534368D01*
X87541651Y-82514962D01*
X87534419Y-82494750D01*
X87529203Y-82473926D01*
X87526053Y-82452691D01*
X87525000Y-82431250D01*
X87525000Y-81993750D01*
X87526053Y-81972309D01*
X87529203Y-81951074D01*
X87534419Y-81930250D01*
X87541651Y-81910038D01*
X87550830Y-81890632D01*
X87561866Y-81872219D01*
X87574654Y-81854976D01*
X87589070Y-81839070D01*
X87604976Y-81824654D01*
X87622219Y-81811866D01*
X87640632Y-81800830D01*
X87660038Y-81791651D01*
X87680250Y-81784419D01*
X87701074Y-81779203D01*
X87722309Y-81776053D01*
X87743750Y-81775000D01*
X88256250Y-81775000D01*
X88277691Y-81776053D01*
X88277691Y-81776053D01*
G37*
D17*
X88000000Y-82212500D03*
D10*
G36*
X88277691Y-83351053D02*
X88298926Y-83354203D01*
X88319750Y-83359419D01*
X88339962Y-83366651D01*
X88359368Y-83375830D01*
X88377781Y-83386866D01*
X88395024Y-83399654D01*
X88410930Y-83414070D01*
X88425346Y-83429976D01*
X88438134Y-83447219D01*
X88449170Y-83465632D01*
X88458349Y-83485038D01*
X88465581Y-83505250D01*
X88470797Y-83526074D01*
X88473947Y-83547309D01*
X88475000Y-83568750D01*
X88475000Y-84006250D01*
X88473947Y-84027691D01*
X88470797Y-84048926D01*
X88465581Y-84069750D01*
X88458349Y-84089962D01*
X88449170Y-84109368D01*
X88438134Y-84127781D01*
X88425346Y-84145024D01*
X88410930Y-84160930D01*
X88395024Y-84175346D01*
X88377781Y-84188134D01*
X88359368Y-84199170D01*
X88339962Y-84208349D01*
X88319750Y-84215581D01*
X88298926Y-84220797D01*
X88277691Y-84223947D01*
X88256250Y-84225000D01*
X87743750Y-84225000D01*
X87722309Y-84223947D01*
X87701074Y-84220797D01*
X87680250Y-84215581D01*
X87660038Y-84208349D01*
X87640632Y-84199170D01*
X87622219Y-84188134D01*
X87604976Y-84175346D01*
X87589070Y-84160930D01*
X87574654Y-84145024D01*
X87561866Y-84127781D01*
X87550830Y-84109368D01*
X87541651Y-84089962D01*
X87534419Y-84069750D01*
X87529203Y-84048926D01*
X87526053Y-84027691D01*
X87525000Y-84006250D01*
X87525000Y-83568750D01*
X87526053Y-83547309D01*
X87529203Y-83526074D01*
X87534419Y-83505250D01*
X87541651Y-83485038D01*
X87550830Y-83465632D01*
X87561866Y-83447219D01*
X87574654Y-83429976D01*
X87589070Y-83414070D01*
X87604976Y-83399654D01*
X87622219Y-83386866D01*
X87640632Y-83375830D01*
X87660038Y-83366651D01*
X87680250Y-83359419D01*
X87701074Y-83354203D01*
X87722309Y-83351053D01*
X87743750Y-83350000D01*
X88256250Y-83350000D01*
X88277691Y-83351053D01*
X88277691Y-83351053D01*
G37*
D17*
X88000000Y-83787500D03*
G04 #@! TD*
D10*
G04 #@! TO.C,C934*
G36*
X102277691Y-83351053D02*
X102298926Y-83354203D01*
X102319750Y-83359419D01*
X102339962Y-83366651D01*
X102359368Y-83375830D01*
X102377781Y-83386866D01*
X102395024Y-83399654D01*
X102410930Y-83414070D01*
X102425346Y-83429976D01*
X102438134Y-83447219D01*
X102449170Y-83465632D01*
X102458349Y-83485038D01*
X102465581Y-83505250D01*
X102470797Y-83526074D01*
X102473947Y-83547309D01*
X102475000Y-83568750D01*
X102475000Y-84006250D01*
X102473947Y-84027691D01*
X102470797Y-84048926D01*
X102465581Y-84069750D01*
X102458349Y-84089962D01*
X102449170Y-84109368D01*
X102438134Y-84127781D01*
X102425346Y-84145024D01*
X102410930Y-84160930D01*
X102395024Y-84175346D01*
X102377781Y-84188134D01*
X102359368Y-84199170D01*
X102339962Y-84208349D01*
X102319750Y-84215581D01*
X102298926Y-84220797D01*
X102277691Y-84223947D01*
X102256250Y-84225000D01*
X101743750Y-84225000D01*
X101722309Y-84223947D01*
X101701074Y-84220797D01*
X101680250Y-84215581D01*
X101660038Y-84208349D01*
X101640632Y-84199170D01*
X101622219Y-84188134D01*
X101604976Y-84175346D01*
X101589070Y-84160930D01*
X101574654Y-84145024D01*
X101561866Y-84127781D01*
X101550830Y-84109368D01*
X101541651Y-84089962D01*
X101534419Y-84069750D01*
X101529203Y-84048926D01*
X101526053Y-84027691D01*
X101525000Y-84006250D01*
X101525000Y-83568750D01*
X101526053Y-83547309D01*
X101529203Y-83526074D01*
X101534419Y-83505250D01*
X101541651Y-83485038D01*
X101550830Y-83465632D01*
X101561866Y-83447219D01*
X101574654Y-83429976D01*
X101589070Y-83414070D01*
X101604976Y-83399654D01*
X101622219Y-83386866D01*
X101640632Y-83375830D01*
X101660038Y-83366651D01*
X101680250Y-83359419D01*
X101701074Y-83354203D01*
X101722309Y-83351053D01*
X101743750Y-83350000D01*
X102256250Y-83350000D01*
X102277691Y-83351053D01*
X102277691Y-83351053D01*
G37*
D17*
X102000000Y-83787500D03*
D10*
G36*
X102277691Y-81776053D02*
X102298926Y-81779203D01*
X102319750Y-81784419D01*
X102339962Y-81791651D01*
X102359368Y-81800830D01*
X102377781Y-81811866D01*
X102395024Y-81824654D01*
X102410930Y-81839070D01*
X102425346Y-81854976D01*
X102438134Y-81872219D01*
X102449170Y-81890632D01*
X102458349Y-81910038D01*
X102465581Y-81930250D01*
X102470797Y-81951074D01*
X102473947Y-81972309D01*
X102475000Y-81993750D01*
X102475000Y-82431250D01*
X102473947Y-82452691D01*
X102470797Y-82473926D01*
X102465581Y-82494750D01*
X102458349Y-82514962D01*
X102449170Y-82534368D01*
X102438134Y-82552781D01*
X102425346Y-82570024D01*
X102410930Y-82585930D01*
X102395024Y-82600346D01*
X102377781Y-82613134D01*
X102359368Y-82624170D01*
X102339962Y-82633349D01*
X102319750Y-82640581D01*
X102298926Y-82645797D01*
X102277691Y-82648947D01*
X102256250Y-82650000D01*
X101743750Y-82650000D01*
X101722309Y-82648947D01*
X101701074Y-82645797D01*
X101680250Y-82640581D01*
X101660038Y-82633349D01*
X101640632Y-82624170D01*
X101622219Y-82613134D01*
X101604976Y-82600346D01*
X101589070Y-82585930D01*
X101574654Y-82570024D01*
X101561866Y-82552781D01*
X101550830Y-82534368D01*
X101541651Y-82514962D01*
X101534419Y-82494750D01*
X101529203Y-82473926D01*
X101526053Y-82452691D01*
X101525000Y-82431250D01*
X101525000Y-81993750D01*
X101526053Y-81972309D01*
X101529203Y-81951074D01*
X101534419Y-81930250D01*
X101541651Y-81910038D01*
X101550830Y-81890632D01*
X101561866Y-81872219D01*
X101574654Y-81854976D01*
X101589070Y-81839070D01*
X101604976Y-81824654D01*
X101622219Y-81811866D01*
X101640632Y-81800830D01*
X101660038Y-81791651D01*
X101680250Y-81784419D01*
X101701074Y-81779203D01*
X101722309Y-81776053D01*
X101743750Y-81775000D01*
X102256250Y-81775000D01*
X102277691Y-81776053D01*
X102277691Y-81776053D01*
G37*
D17*
X102000000Y-82212500D03*
G04 #@! TD*
D10*
G04 #@! TO.C,C935*
G36*
X113117691Y-78051053D02*
X113138926Y-78054203D01*
X113159750Y-78059419D01*
X113179962Y-78066651D01*
X113199368Y-78075830D01*
X113217781Y-78086866D01*
X113235024Y-78099654D01*
X113250930Y-78114070D01*
X113265346Y-78129976D01*
X113278134Y-78147219D01*
X113289170Y-78165632D01*
X113298349Y-78185038D01*
X113305581Y-78205250D01*
X113310797Y-78226074D01*
X113313947Y-78247309D01*
X113315000Y-78268750D01*
X113315000Y-78781250D01*
X113313947Y-78802691D01*
X113310797Y-78823926D01*
X113305581Y-78844750D01*
X113298349Y-78864962D01*
X113289170Y-78884368D01*
X113278134Y-78902781D01*
X113265346Y-78920024D01*
X113250930Y-78935930D01*
X113235024Y-78950346D01*
X113217781Y-78963134D01*
X113199368Y-78974170D01*
X113179962Y-78983349D01*
X113159750Y-78990581D01*
X113138926Y-78995797D01*
X113117691Y-78998947D01*
X113096250Y-79000000D01*
X112658750Y-79000000D01*
X112637309Y-78998947D01*
X112616074Y-78995797D01*
X112595250Y-78990581D01*
X112575038Y-78983349D01*
X112555632Y-78974170D01*
X112537219Y-78963134D01*
X112519976Y-78950346D01*
X112504070Y-78935930D01*
X112489654Y-78920024D01*
X112476866Y-78902781D01*
X112465830Y-78884368D01*
X112456651Y-78864962D01*
X112449419Y-78844750D01*
X112444203Y-78823926D01*
X112441053Y-78802691D01*
X112440000Y-78781250D01*
X112440000Y-78268750D01*
X112441053Y-78247309D01*
X112444203Y-78226074D01*
X112449419Y-78205250D01*
X112456651Y-78185038D01*
X112465830Y-78165632D01*
X112476866Y-78147219D01*
X112489654Y-78129976D01*
X112504070Y-78114070D01*
X112519976Y-78099654D01*
X112537219Y-78086866D01*
X112555632Y-78075830D01*
X112575038Y-78066651D01*
X112595250Y-78059419D01*
X112616074Y-78054203D01*
X112637309Y-78051053D01*
X112658750Y-78050000D01*
X113096250Y-78050000D01*
X113117691Y-78051053D01*
X113117691Y-78051053D01*
G37*
D17*
X112877500Y-78525000D03*
D10*
G36*
X114692691Y-78051053D02*
X114713926Y-78054203D01*
X114734750Y-78059419D01*
X114754962Y-78066651D01*
X114774368Y-78075830D01*
X114792781Y-78086866D01*
X114810024Y-78099654D01*
X114825930Y-78114070D01*
X114840346Y-78129976D01*
X114853134Y-78147219D01*
X114864170Y-78165632D01*
X114873349Y-78185038D01*
X114880581Y-78205250D01*
X114885797Y-78226074D01*
X114888947Y-78247309D01*
X114890000Y-78268750D01*
X114890000Y-78781250D01*
X114888947Y-78802691D01*
X114885797Y-78823926D01*
X114880581Y-78844750D01*
X114873349Y-78864962D01*
X114864170Y-78884368D01*
X114853134Y-78902781D01*
X114840346Y-78920024D01*
X114825930Y-78935930D01*
X114810024Y-78950346D01*
X114792781Y-78963134D01*
X114774368Y-78974170D01*
X114754962Y-78983349D01*
X114734750Y-78990581D01*
X114713926Y-78995797D01*
X114692691Y-78998947D01*
X114671250Y-79000000D01*
X114233750Y-79000000D01*
X114212309Y-78998947D01*
X114191074Y-78995797D01*
X114170250Y-78990581D01*
X114150038Y-78983349D01*
X114130632Y-78974170D01*
X114112219Y-78963134D01*
X114094976Y-78950346D01*
X114079070Y-78935930D01*
X114064654Y-78920024D01*
X114051866Y-78902781D01*
X114040830Y-78884368D01*
X114031651Y-78864962D01*
X114024419Y-78844750D01*
X114019203Y-78823926D01*
X114016053Y-78802691D01*
X114015000Y-78781250D01*
X114015000Y-78268750D01*
X114016053Y-78247309D01*
X114019203Y-78226074D01*
X114024419Y-78205250D01*
X114031651Y-78185038D01*
X114040830Y-78165632D01*
X114051866Y-78147219D01*
X114064654Y-78129976D01*
X114079070Y-78114070D01*
X114094976Y-78099654D01*
X114112219Y-78086866D01*
X114130632Y-78075830D01*
X114150038Y-78066651D01*
X114170250Y-78059419D01*
X114191074Y-78054203D01*
X114212309Y-78051053D01*
X114233750Y-78050000D01*
X114671250Y-78050000D01*
X114692691Y-78051053D01*
X114692691Y-78051053D01*
G37*
D17*
X114452500Y-78525000D03*
G04 #@! TD*
D10*
G04 #@! TO.C,C936*
G36*
X32277691Y-97351053D02*
X32298926Y-97354203D01*
X32319750Y-97359419D01*
X32339962Y-97366651D01*
X32359368Y-97375830D01*
X32377781Y-97386866D01*
X32395024Y-97399654D01*
X32410930Y-97414070D01*
X32425346Y-97429976D01*
X32438134Y-97447219D01*
X32449170Y-97465632D01*
X32458349Y-97485038D01*
X32465581Y-97505250D01*
X32470797Y-97526074D01*
X32473947Y-97547309D01*
X32475000Y-97568750D01*
X32475000Y-98006250D01*
X32473947Y-98027691D01*
X32470797Y-98048926D01*
X32465581Y-98069750D01*
X32458349Y-98089962D01*
X32449170Y-98109368D01*
X32438134Y-98127781D01*
X32425346Y-98145024D01*
X32410930Y-98160930D01*
X32395024Y-98175346D01*
X32377781Y-98188134D01*
X32359368Y-98199170D01*
X32339962Y-98208349D01*
X32319750Y-98215581D01*
X32298926Y-98220797D01*
X32277691Y-98223947D01*
X32256250Y-98225000D01*
X31743750Y-98225000D01*
X31722309Y-98223947D01*
X31701074Y-98220797D01*
X31680250Y-98215581D01*
X31660038Y-98208349D01*
X31640632Y-98199170D01*
X31622219Y-98188134D01*
X31604976Y-98175346D01*
X31589070Y-98160930D01*
X31574654Y-98145024D01*
X31561866Y-98127781D01*
X31550830Y-98109368D01*
X31541651Y-98089962D01*
X31534419Y-98069750D01*
X31529203Y-98048926D01*
X31526053Y-98027691D01*
X31525000Y-98006250D01*
X31525000Y-97568750D01*
X31526053Y-97547309D01*
X31529203Y-97526074D01*
X31534419Y-97505250D01*
X31541651Y-97485038D01*
X31550830Y-97465632D01*
X31561866Y-97447219D01*
X31574654Y-97429976D01*
X31589070Y-97414070D01*
X31604976Y-97399654D01*
X31622219Y-97386866D01*
X31640632Y-97375830D01*
X31660038Y-97366651D01*
X31680250Y-97359419D01*
X31701074Y-97354203D01*
X31722309Y-97351053D01*
X31743750Y-97350000D01*
X32256250Y-97350000D01*
X32277691Y-97351053D01*
X32277691Y-97351053D01*
G37*
D17*
X32000000Y-97787500D03*
D10*
G36*
X32277691Y-95776053D02*
X32298926Y-95779203D01*
X32319750Y-95784419D01*
X32339962Y-95791651D01*
X32359368Y-95800830D01*
X32377781Y-95811866D01*
X32395024Y-95824654D01*
X32410930Y-95839070D01*
X32425346Y-95854976D01*
X32438134Y-95872219D01*
X32449170Y-95890632D01*
X32458349Y-95910038D01*
X32465581Y-95930250D01*
X32470797Y-95951074D01*
X32473947Y-95972309D01*
X32475000Y-95993750D01*
X32475000Y-96431250D01*
X32473947Y-96452691D01*
X32470797Y-96473926D01*
X32465581Y-96494750D01*
X32458349Y-96514962D01*
X32449170Y-96534368D01*
X32438134Y-96552781D01*
X32425346Y-96570024D01*
X32410930Y-96585930D01*
X32395024Y-96600346D01*
X32377781Y-96613134D01*
X32359368Y-96624170D01*
X32339962Y-96633349D01*
X32319750Y-96640581D01*
X32298926Y-96645797D01*
X32277691Y-96648947D01*
X32256250Y-96650000D01*
X31743750Y-96650000D01*
X31722309Y-96648947D01*
X31701074Y-96645797D01*
X31680250Y-96640581D01*
X31660038Y-96633349D01*
X31640632Y-96624170D01*
X31622219Y-96613134D01*
X31604976Y-96600346D01*
X31589070Y-96585930D01*
X31574654Y-96570024D01*
X31561866Y-96552781D01*
X31550830Y-96534368D01*
X31541651Y-96514962D01*
X31534419Y-96494750D01*
X31529203Y-96473926D01*
X31526053Y-96452691D01*
X31525000Y-96431250D01*
X31525000Y-95993750D01*
X31526053Y-95972309D01*
X31529203Y-95951074D01*
X31534419Y-95930250D01*
X31541651Y-95910038D01*
X31550830Y-95890632D01*
X31561866Y-95872219D01*
X31574654Y-95854976D01*
X31589070Y-95839070D01*
X31604976Y-95824654D01*
X31622219Y-95811866D01*
X31640632Y-95800830D01*
X31660038Y-95791651D01*
X31680250Y-95784419D01*
X31701074Y-95779203D01*
X31722309Y-95776053D01*
X31743750Y-95775000D01*
X32256250Y-95775000D01*
X32277691Y-95776053D01*
X32277691Y-95776053D01*
G37*
D17*
X32000000Y-96212500D03*
G04 #@! TD*
D10*
G04 #@! TO.C,C937*
G36*
X46607691Y-95776053D02*
X46628926Y-95779203D01*
X46649750Y-95784419D01*
X46669962Y-95791651D01*
X46689368Y-95800830D01*
X46707781Y-95811866D01*
X46725024Y-95824654D01*
X46740930Y-95839070D01*
X46755346Y-95854976D01*
X46768134Y-95872219D01*
X46779170Y-95890632D01*
X46788349Y-95910038D01*
X46795581Y-95930250D01*
X46800797Y-95951074D01*
X46803947Y-95972309D01*
X46805000Y-95993750D01*
X46805000Y-96431250D01*
X46803947Y-96452691D01*
X46800797Y-96473926D01*
X46795581Y-96494750D01*
X46788349Y-96514962D01*
X46779170Y-96534368D01*
X46768134Y-96552781D01*
X46755346Y-96570024D01*
X46740930Y-96585930D01*
X46725024Y-96600346D01*
X46707781Y-96613134D01*
X46689368Y-96624170D01*
X46669962Y-96633349D01*
X46649750Y-96640581D01*
X46628926Y-96645797D01*
X46607691Y-96648947D01*
X46586250Y-96650000D01*
X46073750Y-96650000D01*
X46052309Y-96648947D01*
X46031074Y-96645797D01*
X46010250Y-96640581D01*
X45990038Y-96633349D01*
X45970632Y-96624170D01*
X45952219Y-96613134D01*
X45934976Y-96600346D01*
X45919070Y-96585930D01*
X45904654Y-96570024D01*
X45891866Y-96552781D01*
X45880830Y-96534368D01*
X45871651Y-96514962D01*
X45864419Y-96494750D01*
X45859203Y-96473926D01*
X45856053Y-96452691D01*
X45855000Y-96431250D01*
X45855000Y-95993750D01*
X45856053Y-95972309D01*
X45859203Y-95951074D01*
X45864419Y-95930250D01*
X45871651Y-95910038D01*
X45880830Y-95890632D01*
X45891866Y-95872219D01*
X45904654Y-95854976D01*
X45919070Y-95839070D01*
X45934976Y-95824654D01*
X45952219Y-95811866D01*
X45970632Y-95800830D01*
X45990038Y-95791651D01*
X46010250Y-95784419D01*
X46031074Y-95779203D01*
X46052309Y-95776053D01*
X46073750Y-95775000D01*
X46586250Y-95775000D01*
X46607691Y-95776053D01*
X46607691Y-95776053D01*
G37*
D17*
X46330000Y-96212500D03*
D10*
G36*
X46607691Y-97351053D02*
X46628926Y-97354203D01*
X46649750Y-97359419D01*
X46669962Y-97366651D01*
X46689368Y-97375830D01*
X46707781Y-97386866D01*
X46725024Y-97399654D01*
X46740930Y-97414070D01*
X46755346Y-97429976D01*
X46768134Y-97447219D01*
X46779170Y-97465632D01*
X46788349Y-97485038D01*
X46795581Y-97505250D01*
X46800797Y-97526074D01*
X46803947Y-97547309D01*
X46805000Y-97568750D01*
X46805000Y-98006250D01*
X46803947Y-98027691D01*
X46800797Y-98048926D01*
X46795581Y-98069750D01*
X46788349Y-98089962D01*
X46779170Y-98109368D01*
X46768134Y-98127781D01*
X46755346Y-98145024D01*
X46740930Y-98160930D01*
X46725024Y-98175346D01*
X46707781Y-98188134D01*
X46689368Y-98199170D01*
X46669962Y-98208349D01*
X46649750Y-98215581D01*
X46628926Y-98220797D01*
X46607691Y-98223947D01*
X46586250Y-98225000D01*
X46073750Y-98225000D01*
X46052309Y-98223947D01*
X46031074Y-98220797D01*
X46010250Y-98215581D01*
X45990038Y-98208349D01*
X45970632Y-98199170D01*
X45952219Y-98188134D01*
X45934976Y-98175346D01*
X45919070Y-98160930D01*
X45904654Y-98145024D01*
X45891866Y-98127781D01*
X45880830Y-98109368D01*
X45871651Y-98089962D01*
X45864419Y-98069750D01*
X45859203Y-98048926D01*
X45856053Y-98027691D01*
X45855000Y-98006250D01*
X45855000Y-97568750D01*
X45856053Y-97547309D01*
X45859203Y-97526074D01*
X45864419Y-97505250D01*
X45871651Y-97485038D01*
X45880830Y-97465632D01*
X45891866Y-97447219D01*
X45904654Y-97429976D01*
X45919070Y-97414070D01*
X45934976Y-97399654D01*
X45952219Y-97386866D01*
X45970632Y-97375830D01*
X45990038Y-97366651D01*
X46010250Y-97359419D01*
X46031074Y-97354203D01*
X46052309Y-97351053D01*
X46073750Y-97350000D01*
X46586250Y-97350000D01*
X46607691Y-97351053D01*
X46607691Y-97351053D01*
G37*
D17*
X46330000Y-97787500D03*
G04 #@! TD*
D10*
G04 #@! TO.C,C938*
G36*
X60277691Y-97351053D02*
X60298926Y-97354203D01*
X60319750Y-97359419D01*
X60339962Y-97366651D01*
X60359368Y-97375830D01*
X60377781Y-97386866D01*
X60395024Y-97399654D01*
X60410930Y-97414070D01*
X60425346Y-97429976D01*
X60438134Y-97447219D01*
X60449170Y-97465632D01*
X60458349Y-97485038D01*
X60465581Y-97505250D01*
X60470797Y-97526074D01*
X60473947Y-97547309D01*
X60475000Y-97568750D01*
X60475000Y-98006250D01*
X60473947Y-98027691D01*
X60470797Y-98048926D01*
X60465581Y-98069750D01*
X60458349Y-98089962D01*
X60449170Y-98109368D01*
X60438134Y-98127781D01*
X60425346Y-98145024D01*
X60410930Y-98160930D01*
X60395024Y-98175346D01*
X60377781Y-98188134D01*
X60359368Y-98199170D01*
X60339962Y-98208349D01*
X60319750Y-98215581D01*
X60298926Y-98220797D01*
X60277691Y-98223947D01*
X60256250Y-98225000D01*
X59743750Y-98225000D01*
X59722309Y-98223947D01*
X59701074Y-98220797D01*
X59680250Y-98215581D01*
X59660038Y-98208349D01*
X59640632Y-98199170D01*
X59622219Y-98188134D01*
X59604976Y-98175346D01*
X59589070Y-98160930D01*
X59574654Y-98145024D01*
X59561866Y-98127781D01*
X59550830Y-98109368D01*
X59541651Y-98089962D01*
X59534419Y-98069750D01*
X59529203Y-98048926D01*
X59526053Y-98027691D01*
X59525000Y-98006250D01*
X59525000Y-97568750D01*
X59526053Y-97547309D01*
X59529203Y-97526074D01*
X59534419Y-97505250D01*
X59541651Y-97485038D01*
X59550830Y-97465632D01*
X59561866Y-97447219D01*
X59574654Y-97429976D01*
X59589070Y-97414070D01*
X59604976Y-97399654D01*
X59622219Y-97386866D01*
X59640632Y-97375830D01*
X59660038Y-97366651D01*
X59680250Y-97359419D01*
X59701074Y-97354203D01*
X59722309Y-97351053D01*
X59743750Y-97350000D01*
X60256250Y-97350000D01*
X60277691Y-97351053D01*
X60277691Y-97351053D01*
G37*
D17*
X60000000Y-97787500D03*
D10*
G36*
X60277691Y-95776053D02*
X60298926Y-95779203D01*
X60319750Y-95784419D01*
X60339962Y-95791651D01*
X60359368Y-95800830D01*
X60377781Y-95811866D01*
X60395024Y-95824654D01*
X60410930Y-95839070D01*
X60425346Y-95854976D01*
X60438134Y-95872219D01*
X60449170Y-95890632D01*
X60458349Y-95910038D01*
X60465581Y-95930250D01*
X60470797Y-95951074D01*
X60473947Y-95972309D01*
X60475000Y-95993750D01*
X60475000Y-96431250D01*
X60473947Y-96452691D01*
X60470797Y-96473926D01*
X60465581Y-96494750D01*
X60458349Y-96514962D01*
X60449170Y-96534368D01*
X60438134Y-96552781D01*
X60425346Y-96570024D01*
X60410930Y-96585930D01*
X60395024Y-96600346D01*
X60377781Y-96613134D01*
X60359368Y-96624170D01*
X60339962Y-96633349D01*
X60319750Y-96640581D01*
X60298926Y-96645797D01*
X60277691Y-96648947D01*
X60256250Y-96650000D01*
X59743750Y-96650000D01*
X59722309Y-96648947D01*
X59701074Y-96645797D01*
X59680250Y-96640581D01*
X59660038Y-96633349D01*
X59640632Y-96624170D01*
X59622219Y-96613134D01*
X59604976Y-96600346D01*
X59589070Y-96585930D01*
X59574654Y-96570024D01*
X59561866Y-96552781D01*
X59550830Y-96534368D01*
X59541651Y-96514962D01*
X59534419Y-96494750D01*
X59529203Y-96473926D01*
X59526053Y-96452691D01*
X59525000Y-96431250D01*
X59525000Y-95993750D01*
X59526053Y-95972309D01*
X59529203Y-95951074D01*
X59534419Y-95930250D01*
X59541651Y-95910038D01*
X59550830Y-95890632D01*
X59561866Y-95872219D01*
X59574654Y-95854976D01*
X59589070Y-95839070D01*
X59604976Y-95824654D01*
X59622219Y-95811866D01*
X59640632Y-95800830D01*
X59660038Y-95791651D01*
X59680250Y-95784419D01*
X59701074Y-95779203D01*
X59722309Y-95776053D01*
X59743750Y-95775000D01*
X60256250Y-95775000D01*
X60277691Y-95776053D01*
X60277691Y-95776053D01*
G37*
D17*
X60000000Y-96212500D03*
G04 #@! TD*
D10*
G04 #@! TO.C,C925*
G36*
X74277691Y-67776053D02*
X74298926Y-67779203D01*
X74319750Y-67784419D01*
X74339962Y-67791651D01*
X74359368Y-67800830D01*
X74377781Y-67811866D01*
X74395024Y-67824654D01*
X74410930Y-67839070D01*
X74425346Y-67854976D01*
X74438134Y-67872219D01*
X74449170Y-67890632D01*
X74458349Y-67910038D01*
X74465581Y-67930250D01*
X74470797Y-67951074D01*
X74473947Y-67972309D01*
X74475000Y-67993750D01*
X74475000Y-68431250D01*
X74473947Y-68452691D01*
X74470797Y-68473926D01*
X74465581Y-68494750D01*
X74458349Y-68514962D01*
X74449170Y-68534368D01*
X74438134Y-68552781D01*
X74425346Y-68570024D01*
X74410930Y-68585930D01*
X74395024Y-68600346D01*
X74377781Y-68613134D01*
X74359368Y-68624170D01*
X74339962Y-68633349D01*
X74319750Y-68640581D01*
X74298926Y-68645797D01*
X74277691Y-68648947D01*
X74256250Y-68650000D01*
X73743750Y-68650000D01*
X73722309Y-68648947D01*
X73701074Y-68645797D01*
X73680250Y-68640581D01*
X73660038Y-68633349D01*
X73640632Y-68624170D01*
X73622219Y-68613134D01*
X73604976Y-68600346D01*
X73589070Y-68585930D01*
X73574654Y-68570024D01*
X73561866Y-68552781D01*
X73550830Y-68534368D01*
X73541651Y-68514962D01*
X73534419Y-68494750D01*
X73529203Y-68473926D01*
X73526053Y-68452691D01*
X73525000Y-68431250D01*
X73525000Y-67993750D01*
X73526053Y-67972309D01*
X73529203Y-67951074D01*
X73534419Y-67930250D01*
X73541651Y-67910038D01*
X73550830Y-67890632D01*
X73561866Y-67872219D01*
X73574654Y-67854976D01*
X73589070Y-67839070D01*
X73604976Y-67824654D01*
X73622219Y-67811866D01*
X73640632Y-67800830D01*
X73660038Y-67791651D01*
X73680250Y-67784419D01*
X73701074Y-67779203D01*
X73722309Y-67776053D01*
X73743750Y-67775000D01*
X74256250Y-67775000D01*
X74277691Y-67776053D01*
X74277691Y-67776053D01*
G37*
D17*
X74000000Y-68212500D03*
D10*
G36*
X74277691Y-69351053D02*
X74298926Y-69354203D01*
X74319750Y-69359419D01*
X74339962Y-69366651D01*
X74359368Y-69375830D01*
X74377781Y-69386866D01*
X74395024Y-69399654D01*
X74410930Y-69414070D01*
X74425346Y-69429976D01*
X74438134Y-69447219D01*
X74449170Y-69465632D01*
X74458349Y-69485038D01*
X74465581Y-69505250D01*
X74470797Y-69526074D01*
X74473947Y-69547309D01*
X74475000Y-69568750D01*
X74475000Y-70006250D01*
X74473947Y-70027691D01*
X74470797Y-70048926D01*
X74465581Y-70069750D01*
X74458349Y-70089962D01*
X74449170Y-70109368D01*
X74438134Y-70127781D01*
X74425346Y-70145024D01*
X74410930Y-70160930D01*
X74395024Y-70175346D01*
X74377781Y-70188134D01*
X74359368Y-70199170D01*
X74339962Y-70208349D01*
X74319750Y-70215581D01*
X74298926Y-70220797D01*
X74277691Y-70223947D01*
X74256250Y-70225000D01*
X73743750Y-70225000D01*
X73722309Y-70223947D01*
X73701074Y-70220797D01*
X73680250Y-70215581D01*
X73660038Y-70208349D01*
X73640632Y-70199170D01*
X73622219Y-70188134D01*
X73604976Y-70175346D01*
X73589070Y-70160930D01*
X73574654Y-70145024D01*
X73561866Y-70127781D01*
X73550830Y-70109368D01*
X73541651Y-70089962D01*
X73534419Y-70069750D01*
X73529203Y-70048926D01*
X73526053Y-70027691D01*
X73525000Y-70006250D01*
X73525000Y-69568750D01*
X73526053Y-69547309D01*
X73529203Y-69526074D01*
X73534419Y-69505250D01*
X73541651Y-69485038D01*
X73550830Y-69465632D01*
X73561866Y-69447219D01*
X73574654Y-69429976D01*
X73589070Y-69414070D01*
X73604976Y-69399654D01*
X73622219Y-69386866D01*
X73640632Y-69375830D01*
X73660038Y-69366651D01*
X73680250Y-69359419D01*
X73701074Y-69354203D01*
X73722309Y-69351053D01*
X73743750Y-69350000D01*
X74256250Y-69350000D01*
X74277691Y-69351053D01*
X74277691Y-69351053D01*
G37*
D17*
X74000000Y-69787500D03*
G04 #@! TD*
D10*
G04 #@! TO.C,C949*
G36*
X114692691Y-106626053D02*
X114713926Y-106629203D01*
X114734750Y-106634419D01*
X114754962Y-106641651D01*
X114774368Y-106650830D01*
X114792781Y-106661866D01*
X114810024Y-106674654D01*
X114825930Y-106689070D01*
X114840346Y-106704976D01*
X114853134Y-106722219D01*
X114864170Y-106740632D01*
X114873349Y-106760038D01*
X114880581Y-106780250D01*
X114885797Y-106801074D01*
X114888947Y-106822309D01*
X114890000Y-106843750D01*
X114890000Y-107356250D01*
X114888947Y-107377691D01*
X114885797Y-107398926D01*
X114880581Y-107419750D01*
X114873349Y-107439962D01*
X114864170Y-107459368D01*
X114853134Y-107477781D01*
X114840346Y-107495024D01*
X114825930Y-107510930D01*
X114810024Y-107525346D01*
X114792781Y-107538134D01*
X114774368Y-107549170D01*
X114754962Y-107558349D01*
X114734750Y-107565581D01*
X114713926Y-107570797D01*
X114692691Y-107573947D01*
X114671250Y-107575000D01*
X114233750Y-107575000D01*
X114212309Y-107573947D01*
X114191074Y-107570797D01*
X114170250Y-107565581D01*
X114150038Y-107558349D01*
X114130632Y-107549170D01*
X114112219Y-107538134D01*
X114094976Y-107525346D01*
X114079070Y-107510930D01*
X114064654Y-107495024D01*
X114051866Y-107477781D01*
X114040830Y-107459368D01*
X114031651Y-107439962D01*
X114024419Y-107419750D01*
X114019203Y-107398926D01*
X114016053Y-107377691D01*
X114015000Y-107356250D01*
X114015000Y-106843750D01*
X114016053Y-106822309D01*
X114019203Y-106801074D01*
X114024419Y-106780250D01*
X114031651Y-106760038D01*
X114040830Y-106740632D01*
X114051866Y-106722219D01*
X114064654Y-106704976D01*
X114079070Y-106689070D01*
X114094976Y-106674654D01*
X114112219Y-106661866D01*
X114130632Y-106650830D01*
X114150038Y-106641651D01*
X114170250Y-106634419D01*
X114191074Y-106629203D01*
X114212309Y-106626053D01*
X114233750Y-106625000D01*
X114671250Y-106625000D01*
X114692691Y-106626053D01*
X114692691Y-106626053D01*
G37*
D17*
X114452500Y-107100000D03*
D10*
G36*
X113117691Y-106626053D02*
X113138926Y-106629203D01*
X113159750Y-106634419D01*
X113179962Y-106641651D01*
X113199368Y-106650830D01*
X113217781Y-106661866D01*
X113235024Y-106674654D01*
X113250930Y-106689070D01*
X113265346Y-106704976D01*
X113278134Y-106722219D01*
X113289170Y-106740632D01*
X113298349Y-106760038D01*
X113305581Y-106780250D01*
X113310797Y-106801074D01*
X113313947Y-106822309D01*
X113315000Y-106843750D01*
X113315000Y-107356250D01*
X113313947Y-107377691D01*
X113310797Y-107398926D01*
X113305581Y-107419750D01*
X113298349Y-107439962D01*
X113289170Y-107459368D01*
X113278134Y-107477781D01*
X113265346Y-107495024D01*
X113250930Y-107510930D01*
X113235024Y-107525346D01*
X113217781Y-107538134D01*
X113199368Y-107549170D01*
X113179962Y-107558349D01*
X113159750Y-107565581D01*
X113138926Y-107570797D01*
X113117691Y-107573947D01*
X113096250Y-107575000D01*
X112658750Y-107575000D01*
X112637309Y-107573947D01*
X112616074Y-107570797D01*
X112595250Y-107565581D01*
X112575038Y-107558349D01*
X112555632Y-107549170D01*
X112537219Y-107538134D01*
X112519976Y-107525346D01*
X112504070Y-107510930D01*
X112489654Y-107495024D01*
X112476866Y-107477781D01*
X112465830Y-107459368D01*
X112456651Y-107439962D01*
X112449419Y-107419750D01*
X112444203Y-107398926D01*
X112441053Y-107377691D01*
X112440000Y-107356250D01*
X112440000Y-106843750D01*
X112441053Y-106822309D01*
X112444203Y-106801074D01*
X112449419Y-106780250D01*
X112456651Y-106760038D01*
X112465830Y-106740632D01*
X112476866Y-106722219D01*
X112489654Y-106704976D01*
X112504070Y-106689070D01*
X112519976Y-106674654D01*
X112537219Y-106661866D01*
X112555632Y-106650830D01*
X112575038Y-106641651D01*
X112595250Y-106634419D01*
X112616074Y-106629203D01*
X112637309Y-106626053D01*
X112658750Y-106625000D01*
X113096250Y-106625000D01*
X113117691Y-106626053D01*
X113117691Y-106626053D01*
G37*
D17*
X112877500Y-107100000D03*
G04 #@! TD*
D10*
G04 #@! TO.C,C926*
G36*
X88277691Y-67776053D02*
X88298926Y-67779203D01*
X88319750Y-67784419D01*
X88339962Y-67791651D01*
X88359368Y-67800830D01*
X88377781Y-67811866D01*
X88395024Y-67824654D01*
X88410930Y-67839070D01*
X88425346Y-67854976D01*
X88438134Y-67872219D01*
X88449170Y-67890632D01*
X88458349Y-67910038D01*
X88465581Y-67930250D01*
X88470797Y-67951074D01*
X88473947Y-67972309D01*
X88475000Y-67993750D01*
X88475000Y-68431250D01*
X88473947Y-68452691D01*
X88470797Y-68473926D01*
X88465581Y-68494750D01*
X88458349Y-68514962D01*
X88449170Y-68534368D01*
X88438134Y-68552781D01*
X88425346Y-68570024D01*
X88410930Y-68585930D01*
X88395024Y-68600346D01*
X88377781Y-68613134D01*
X88359368Y-68624170D01*
X88339962Y-68633349D01*
X88319750Y-68640581D01*
X88298926Y-68645797D01*
X88277691Y-68648947D01*
X88256250Y-68650000D01*
X87743750Y-68650000D01*
X87722309Y-68648947D01*
X87701074Y-68645797D01*
X87680250Y-68640581D01*
X87660038Y-68633349D01*
X87640632Y-68624170D01*
X87622219Y-68613134D01*
X87604976Y-68600346D01*
X87589070Y-68585930D01*
X87574654Y-68570024D01*
X87561866Y-68552781D01*
X87550830Y-68534368D01*
X87541651Y-68514962D01*
X87534419Y-68494750D01*
X87529203Y-68473926D01*
X87526053Y-68452691D01*
X87525000Y-68431250D01*
X87525000Y-67993750D01*
X87526053Y-67972309D01*
X87529203Y-67951074D01*
X87534419Y-67930250D01*
X87541651Y-67910038D01*
X87550830Y-67890632D01*
X87561866Y-67872219D01*
X87574654Y-67854976D01*
X87589070Y-67839070D01*
X87604976Y-67824654D01*
X87622219Y-67811866D01*
X87640632Y-67800830D01*
X87660038Y-67791651D01*
X87680250Y-67784419D01*
X87701074Y-67779203D01*
X87722309Y-67776053D01*
X87743750Y-67775000D01*
X88256250Y-67775000D01*
X88277691Y-67776053D01*
X88277691Y-67776053D01*
G37*
D17*
X88000000Y-68212500D03*
D10*
G36*
X88277691Y-69351053D02*
X88298926Y-69354203D01*
X88319750Y-69359419D01*
X88339962Y-69366651D01*
X88359368Y-69375830D01*
X88377781Y-69386866D01*
X88395024Y-69399654D01*
X88410930Y-69414070D01*
X88425346Y-69429976D01*
X88438134Y-69447219D01*
X88449170Y-69465632D01*
X88458349Y-69485038D01*
X88465581Y-69505250D01*
X88470797Y-69526074D01*
X88473947Y-69547309D01*
X88475000Y-69568750D01*
X88475000Y-70006250D01*
X88473947Y-70027691D01*
X88470797Y-70048926D01*
X88465581Y-70069750D01*
X88458349Y-70089962D01*
X88449170Y-70109368D01*
X88438134Y-70127781D01*
X88425346Y-70145024D01*
X88410930Y-70160930D01*
X88395024Y-70175346D01*
X88377781Y-70188134D01*
X88359368Y-70199170D01*
X88339962Y-70208349D01*
X88319750Y-70215581D01*
X88298926Y-70220797D01*
X88277691Y-70223947D01*
X88256250Y-70225000D01*
X87743750Y-70225000D01*
X87722309Y-70223947D01*
X87701074Y-70220797D01*
X87680250Y-70215581D01*
X87660038Y-70208349D01*
X87640632Y-70199170D01*
X87622219Y-70188134D01*
X87604976Y-70175346D01*
X87589070Y-70160930D01*
X87574654Y-70145024D01*
X87561866Y-70127781D01*
X87550830Y-70109368D01*
X87541651Y-70089962D01*
X87534419Y-70069750D01*
X87529203Y-70048926D01*
X87526053Y-70027691D01*
X87525000Y-70006250D01*
X87525000Y-69568750D01*
X87526053Y-69547309D01*
X87529203Y-69526074D01*
X87534419Y-69505250D01*
X87541651Y-69485038D01*
X87550830Y-69465632D01*
X87561866Y-69447219D01*
X87574654Y-69429976D01*
X87589070Y-69414070D01*
X87604976Y-69399654D01*
X87622219Y-69386866D01*
X87640632Y-69375830D01*
X87660038Y-69366651D01*
X87680250Y-69359419D01*
X87701074Y-69354203D01*
X87722309Y-69351053D01*
X87743750Y-69350000D01*
X88256250Y-69350000D01*
X88277691Y-69351053D01*
X88277691Y-69351053D01*
G37*
D17*
X88000000Y-69787500D03*
G04 #@! TD*
D10*
G04 #@! TO.C,C947*
G36*
X88277691Y-111351053D02*
X88298926Y-111354203D01*
X88319750Y-111359419D01*
X88339962Y-111366651D01*
X88359368Y-111375830D01*
X88377781Y-111386866D01*
X88395024Y-111399654D01*
X88410930Y-111414070D01*
X88425346Y-111429976D01*
X88438134Y-111447219D01*
X88449170Y-111465632D01*
X88458349Y-111485038D01*
X88465581Y-111505250D01*
X88470797Y-111526074D01*
X88473947Y-111547309D01*
X88475000Y-111568750D01*
X88475000Y-112006250D01*
X88473947Y-112027691D01*
X88470797Y-112048926D01*
X88465581Y-112069750D01*
X88458349Y-112089962D01*
X88449170Y-112109368D01*
X88438134Y-112127781D01*
X88425346Y-112145024D01*
X88410930Y-112160930D01*
X88395024Y-112175346D01*
X88377781Y-112188134D01*
X88359368Y-112199170D01*
X88339962Y-112208349D01*
X88319750Y-112215581D01*
X88298926Y-112220797D01*
X88277691Y-112223947D01*
X88256250Y-112225000D01*
X87743750Y-112225000D01*
X87722309Y-112223947D01*
X87701074Y-112220797D01*
X87680250Y-112215581D01*
X87660038Y-112208349D01*
X87640632Y-112199170D01*
X87622219Y-112188134D01*
X87604976Y-112175346D01*
X87589070Y-112160930D01*
X87574654Y-112145024D01*
X87561866Y-112127781D01*
X87550830Y-112109368D01*
X87541651Y-112089962D01*
X87534419Y-112069750D01*
X87529203Y-112048926D01*
X87526053Y-112027691D01*
X87525000Y-112006250D01*
X87525000Y-111568750D01*
X87526053Y-111547309D01*
X87529203Y-111526074D01*
X87534419Y-111505250D01*
X87541651Y-111485038D01*
X87550830Y-111465632D01*
X87561866Y-111447219D01*
X87574654Y-111429976D01*
X87589070Y-111414070D01*
X87604976Y-111399654D01*
X87622219Y-111386866D01*
X87640632Y-111375830D01*
X87660038Y-111366651D01*
X87680250Y-111359419D01*
X87701074Y-111354203D01*
X87722309Y-111351053D01*
X87743750Y-111350000D01*
X88256250Y-111350000D01*
X88277691Y-111351053D01*
X88277691Y-111351053D01*
G37*
D17*
X88000000Y-111787500D03*
D10*
G36*
X88277691Y-109776053D02*
X88298926Y-109779203D01*
X88319750Y-109784419D01*
X88339962Y-109791651D01*
X88359368Y-109800830D01*
X88377781Y-109811866D01*
X88395024Y-109824654D01*
X88410930Y-109839070D01*
X88425346Y-109854976D01*
X88438134Y-109872219D01*
X88449170Y-109890632D01*
X88458349Y-109910038D01*
X88465581Y-109930250D01*
X88470797Y-109951074D01*
X88473947Y-109972309D01*
X88475000Y-109993750D01*
X88475000Y-110431250D01*
X88473947Y-110452691D01*
X88470797Y-110473926D01*
X88465581Y-110494750D01*
X88458349Y-110514962D01*
X88449170Y-110534368D01*
X88438134Y-110552781D01*
X88425346Y-110570024D01*
X88410930Y-110585930D01*
X88395024Y-110600346D01*
X88377781Y-110613134D01*
X88359368Y-110624170D01*
X88339962Y-110633349D01*
X88319750Y-110640581D01*
X88298926Y-110645797D01*
X88277691Y-110648947D01*
X88256250Y-110650000D01*
X87743750Y-110650000D01*
X87722309Y-110648947D01*
X87701074Y-110645797D01*
X87680250Y-110640581D01*
X87660038Y-110633349D01*
X87640632Y-110624170D01*
X87622219Y-110613134D01*
X87604976Y-110600346D01*
X87589070Y-110585930D01*
X87574654Y-110570024D01*
X87561866Y-110552781D01*
X87550830Y-110534368D01*
X87541651Y-110514962D01*
X87534419Y-110494750D01*
X87529203Y-110473926D01*
X87526053Y-110452691D01*
X87525000Y-110431250D01*
X87525000Y-109993750D01*
X87526053Y-109972309D01*
X87529203Y-109951074D01*
X87534419Y-109930250D01*
X87541651Y-109910038D01*
X87550830Y-109890632D01*
X87561866Y-109872219D01*
X87574654Y-109854976D01*
X87589070Y-109839070D01*
X87604976Y-109824654D01*
X87622219Y-109811866D01*
X87640632Y-109800830D01*
X87660038Y-109791651D01*
X87680250Y-109784419D01*
X87701074Y-109779203D01*
X87722309Y-109776053D01*
X87743750Y-109775000D01*
X88256250Y-109775000D01*
X88277691Y-109776053D01*
X88277691Y-109776053D01*
G37*
D17*
X88000000Y-110212500D03*
G04 #@! TD*
D10*
G04 #@! TO.C,C946*
G36*
X74277691Y-109776053D02*
X74298926Y-109779203D01*
X74319750Y-109784419D01*
X74339962Y-109791651D01*
X74359368Y-109800830D01*
X74377781Y-109811866D01*
X74395024Y-109824654D01*
X74410930Y-109839070D01*
X74425346Y-109854976D01*
X74438134Y-109872219D01*
X74449170Y-109890632D01*
X74458349Y-109910038D01*
X74465581Y-109930250D01*
X74470797Y-109951074D01*
X74473947Y-109972309D01*
X74475000Y-109993750D01*
X74475000Y-110431250D01*
X74473947Y-110452691D01*
X74470797Y-110473926D01*
X74465581Y-110494750D01*
X74458349Y-110514962D01*
X74449170Y-110534368D01*
X74438134Y-110552781D01*
X74425346Y-110570024D01*
X74410930Y-110585930D01*
X74395024Y-110600346D01*
X74377781Y-110613134D01*
X74359368Y-110624170D01*
X74339962Y-110633349D01*
X74319750Y-110640581D01*
X74298926Y-110645797D01*
X74277691Y-110648947D01*
X74256250Y-110650000D01*
X73743750Y-110650000D01*
X73722309Y-110648947D01*
X73701074Y-110645797D01*
X73680250Y-110640581D01*
X73660038Y-110633349D01*
X73640632Y-110624170D01*
X73622219Y-110613134D01*
X73604976Y-110600346D01*
X73589070Y-110585930D01*
X73574654Y-110570024D01*
X73561866Y-110552781D01*
X73550830Y-110534368D01*
X73541651Y-110514962D01*
X73534419Y-110494750D01*
X73529203Y-110473926D01*
X73526053Y-110452691D01*
X73525000Y-110431250D01*
X73525000Y-109993750D01*
X73526053Y-109972309D01*
X73529203Y-109951074D01*
X73534419Y-109930250D01*
X73541651Y-109910038D01*
X73550830Y-109890632D01*
X73561866Y-109872219D01*
X73574654Y-109854976D01*
X73589070Y-109839070D01*
X73604976Y-109824654D01*
X73622219Y-109811866D01*
X73640632Y-109800830D01*
X73660038Y-109791651D01*
X73680250Y-109784419D01*
X73701074Y-109779203D01*
X73722309Y-109776053D01*
X73743750Y-109775000D01*
X74256250Y-109775000D01*
X74277691Y-109776053D01*
X74277691Y-109776053D01*
G37*
D17*
X74000000Y-110212500D03*
D10*
G36*
X74277691Y-111351053D02*
X74298926Y-111354203D01*
X74319750Y-111359419D01*
X74339962Y-111366651D01*
X74359368Y-111375830D01*
X74377781Y-111386866D01*
X74395024Y-111399654D01*
X74410930Y-111414070D01*
X74425346Y-111429976D01*
X74438134Y-111447219D01*
X74449170Y-111465632D01*
X74458349Y-111485038D01*
X74465581Y-111505250D01*
X74470797Y-111526074D01*
X74473947Y-111547309D01*
X74475000Y-111568750D01*
X74475000Y-112006250D01*
X74473947Y-112027691D01*
X74470797Y-112048926D01*
X74465581Y-112069750D01*
X74458349Y-112089962D01*
X74449170Y-112109368D01*
X74438134Y-112127781D01*
X74425346Y-112145024D01*
X74410930Y-112160930D01*
X74395024Y-112175346D01*
X74377781Y-112188134D01*
X74359368Y-112199170D01*
X74339962Y-112208349D01*
X74319750Y-112215581D01*
X74298926Y-112220797D01*
X74277691Y-112223947D01*
X74256250Y-112225000D01*
X73743750Y-112225000D01*
X73722309Y-112223947D01*
X73701074Y-112220797D01*
X73680250Y-112215581D01*
X73660038Y-112208349D01*
X73640632Y-112199170D01*
X73622219Y-112188134D01*
X73604976Y-112175346D01*
X73589070Y-112160930D01*
X73574654Y-112145024D01*
X73561866Y-112127781D01*
X73550830Y-112109368D01*
X73541651Y-112089962D01*
X73534419Y-112069750D01*
X73529203Y-112048926D01*
X73526053Y-112027691D01*
X73525000Y-112006250D01*
X73525000Y-111568750D01*
X73526053Y-111547309D01*
X73529203Y-111526074D01*
X73534419Y-111505250D01*
X73541651Y-111485038D01*
X73550830Y-111465632D01*
X73561866Y-111447219D01*
X73574654Y-111429976D01*
X73589070Y-111414070D01*
X73604976Y-111399654D01*
X73622219Y-111386866D01*
X73640632Y-111375830D01*
X73660038Y-111366651D01*
X73680250Y-111359419D01*
X73701074Y-111354203D01*
X73722309Y-111351053D01*
X73743750Y-111350000D01*
X74256250Y-111350000D01*
X74277691Y-111351053D01*
X74277691Y-111351053D01*
G37*
D17*
X74000000Y-111787500D03*
G04 #@! TD*
D10*
G04 #@! TO.C,C945*
G36*
X60277691Y-111351053D02*
X60298926Y-111354203D01*
X60319750Y-111359419D01*
X60339962Y-111366651D01*
X60359368Y-111375830D01*
X60377781Y-111386866D01*
X60395024Y-111399654D01*
X60410930Y-111414070D01*
X60425346Y-111429976D01*
X60438134Y-111447219D01*
X60449170Y-111465632D01*
X60458349Y-111485038D01*
X60465581Y-111505250D01*
X60470797Y-111526074D01*
X60473947Y-111547309D01*
X60475000Y-111568750D01*
X60475000Y-112006250D01*
X60473947Y-112027691D01*
X60470797Y-112048926D01*
X60465581Y-112069750D01*
X60458349Y-112089962D01*
X60449170Y-112109368D01*
X60438134Y-112127781D01*
X60425346Y-112145024D01*
X60410930Y-112160930D01*
X60395024Y-112175346D01*
X60377781Y-112188134D01*
X60359368Y-112199170D01*
X60339962Y-112208349D01*
X60319750Y-112215581D01*
X60298926Y-112220797D01*
X60277691Y-112223947D01*
X60256250Y-112225000D01*
X59743750Y-112225000D01*
X59722309Y-112223947D01*
X59701074Y-112220797D01*
X59680250Y-112215581D01*
X59660038Y-112208349D01*
X59640632Y-112199170D01*
X59622219Y-112188134D01*
X59604976Y-112175346D01*
X59589070Y-112160930D01*
X59574654Y-112145024D01*
X59561866Y-112127781D01*
X59550830Y-112109368D01*
X59541651Y-112089962D01*
X59534419Y-112069750D01*
X59529203Y-112048926D01*
X59526053Y-112027691D01*
X59525000Y-112006250D01*
X59525000Y-111568750D01*
X59526053Y-111547309D01*
X59529203Y-111526074D01*
X59534419Y-111505250D01*
X59541651Y-111485038D01*
X59550830Y-111465632D01*
X59561866Y-111447219D01*
X59574654Y-111429976D01*
X59589070Y-111414070D01*
X59604976Y-111399654D01*
X59622219Y-111386866D01*
X59640632Y-111375830D01*
X59660038Y-111366651D01*
X59680250Y-111359419D01*
X59701074Y-111354203D01*
X59722309Y-111351053D01*
X59743750Y-111350000D01*
X60256250Y-111350000D01*
X60277691Y-111351053D01*
X60277691Y-111351053D01*
G37*
D17*
X60000000Y-111787500D03*
D10*
G36*
X60277691Y-109776053D02*
X60298926Y-109779203D01*
X60319750Y-109784419D01*
X60339962Y-109791651D01*
X60359368Y-109800830D01*
X60377781Y-109811866D01*
X60395024Y-109824654D01*
X60410930Y-109839070D01*
X60425346Y-109854976D01*
X60438134Y-109872219D01*
X60449170Y-109890632D01*
X60458349Y-109910038D01*
X60465581Y-109930250D01*
X60470797Y-109951074D01*
X60473947Y-109972309D01*
X60475000Y-109993750D01*
X60475000Y-110431250D01*
X60473947Y-110452691D01*
X60470797Y-110473926D01*
X60465581Y-110494750D01*
X60458349Y-110514962D01*
X60449170Y-110534368D01*
X60438134Y-110552781D01*
X60425346Y-110570024D01*
X60410930Y-110585930D01*
X60395024Y-110600346D01*
X60377781Y-110613134D01*
X60359368Y-110624170D01*
X60339962Y-110633349D01*
X60319750Y-110640581D01*
X60298926Y-110645797D01*
X60277691Y-110648947D01*
X60256250Y-110650000D01*
X59743750Y-110650000D01*
X59722309Y-110648947D01*
X59701074Y-110645797D01*
X59680250Y-110640581D01*
X59660038Y-110633349D01*
X59640632Y-110624170D01*
X59622219Y-110613134D01*
X59604976Y-110600346D01*
X59589070Y-110585930D01*
X59574654Y-110570024D01*
X59561866Y-110552781D01*
X59550830Y-110534368D01*
X59541651Y-110514962D01*
X59534419Y-110494750D01*
X59529203Y-110473926D01*
X59526053Y-110452691D01*
X59525000Y-110431250D01*
X59525000Y-109993750D01*
X59526053Y-109972309D01*
X59529203Y-109951074D01*
X59534419Y-109930250D01*
X59541651Y-109910038D01*
X59550830Y-109890632D01*
X59561866Y-109872219D01*
X59574654Y-109854976D01*
X59589070Y-109839070D01*
X59604976Y-109824654D01*
X59622219Y-109811866D01*
X59640632Y-109800830D01*
X59660038Y-109791651D01*
X59680250Y-109784419D01*
X59701074Y-109779203D01*
X59722309Y-109776053D01*
X59743750Y-109775000D01*
X60256250Y-109775000D01*
X60277691Y-109776053D01*
X60277691Y-109776053D01*
G37*
D17*
X60000000Y-110212500D03*
G04 #@! TD*
D10*
G04 #@! TO.C,C944*
G36*
X46607691Y-109776053D02*
X46628926Y-109779203D01*
X46649750Y-109784419D01*
X46669962Y-109791651D01*
X46689368Y-109800830D01*
X46707781Y-109811866D01*
X46725024Y-109824654D01*
X46740930Y-109839070D01*
X46755346Y-109854976D01*
X46768134Y-109872219D01*
X46779170Y-109890632D01*
X46788349Y-109910038D01*
X46795581Y-109930250D01*
X46800797Y-109951074D01*
X46803947Y-109972309D01*
X46805000Y-109993750D01*
X46805000Y-110431250D01*
X46803947Y-110452691D01*
X46800797Y-110473926D01*
X46795581Y-110494750D01*
X46788349Y-110514962D01*
X46779170Y-110534368D01*
X46768134Y-110552781D01*
X46755346Y-110570024D01*
X46740930Y-110585930D01*
X46725024Y-110600346D01*
X46707781Y-110613134D01*
X46689368Y-110624170D01*
X46669962Y-110633349D01*
X46649750Y-110640581D01*
X46628926Y-110645797D01*
X46607691Y-110648947D01*
X46586250Y-110650000D01*
X46073750Y-110650000D01*
X46052309Y-110648947D01*
X46031074Y-110645797D01*
X46010250Y-110640581D01*
X45990038Y-110633349D01*
X45970632Y-110624170D01*
X45952219Y-110613134D01*
X45934976Y-110600346D01*
X45919070Y-110585930D01*
X45904654Y-110570024D01*
X45891866Y-110552781D01*
X45880830Y-110534368D01*
X45871651Y-110514962D01*
X45864419Y-110494750D01*
X45859203Y-110473926D01*
X45856053Y-110452691D01*
X45855000Y-110431250D01*
X45855000Y-109993750D01*
X45856053Y-109972309D01*
X45859203Y-109951074D01*
X45864419Y-109930250D01*
X45871651Y-109910038D01*
X45880830Y-109890632D01*
X45891866Y-109872219D01*
X45904654Y-109854976D01*
X45919070Y-109839070D01*
X45934976Y-109824654D01*
X45952219Y-109811866D01*
X45970632Y-109800830D01*
X45990038Y-109791651D01*
X46010250Y-109784419D01*
X46031074Y-109779203D01*
X46052309Y-109776053D01*
X46073750Y-109775000D01*
X46586250Y-109775000D01*
X46607691Y-109776053D01*
X46607691Y-109776053D01*
G37*
D17*
X46330000Y-110212500D03*
D10*
G36*
X46607691Y-111351053D02*
X46628926Y-111354203D01*
X46649750Y-111359419D01*
X46669962Y-111366651D01*
X46689368Y-111375830D01*
X46707781Y-111386866D01*
X46725024Y-111399654D01*
X46740930Y-111414070D01*
X46755346Y-111429976D01*
X46768134Y-111447219D01*
X46779170Y-111465632D01*
X46788349Y-111485038D01*
X46795581Y-111505250D01*
X46800797Y-111526074D01*
X46803947Y-111547309D01*
X46805000Y-111568750D01*
X46805000Y-112006250D01*
X46803947Y-112027691D01*
X46800797Y-112048926D01*
X46795581Y-112069750D01*
X46788349Y-112089962D01*
X46779170Y-112109368D01*
X46768134Y-112127781D01*
X46755346Y-112145024D01*
X46740930Y-112160930D01*
X46725024Y-112175346D01*
X46707781Y-112188134D01*
X46689368Y-112199170D01*
X46669962Y-112208349D01*
X46649750Y-112215581D01*
X46628926Y-112220797D01*
X46607691Y-112223947D01*
X46586250Y-112225000D01*
X46073750Y-112225000D01*
X46052309Y-112223947D01*
X46031074Y-112220797D01*
X46010250Y-112215581D01*
X45990038Y-112208349D01*
X45970632Y-112199170D01*
X45952219Y-112188134D01*
X45934976Y-112175346D01*
X45919070Y-112160930D01*
X45904654Y-112145024D01*
X45891866Y-112127781D01*
X45880830Y-112109368D01*
X45871651Y-112089962D01*
X45864419Y-112069750D01*
X45859203Y-112048926D01*
X45856053Y-112027691D01*
X45855000Y-112006250D01*
X45855000Y-111568750D01*
X45856053Y-111547309D01*
X45859203Y-111526074D01*
X45864419Y-111505250D01*
X45871651Y-111485038D01*
X45880830Y-111465632D01*
X45891866Y-111447219D01*
X45904654Y-111429976D01*
X45919070Y-111414070D01*
X45934976Y-111399654D01*
X45952219Y-111386866D01*
X45970632Y-111375830D01*
X45990038Y-111366651D01*
X46010250Y-111359419D01*
X46031074Y-111354203D01*
X46052309Y-111351053D01*
X46073750Y-111350000D01*
X46586250Y-111350000D01*
X46607691Y-111351053D01*
X46607691Y-111351053D01*
G37*
D17*
X46330000Y-111787500D03*
G04 #@! TD*
D10*
G04 #@! TO.C,C943*
G36*
X32277691Y-111351053D02*
X32298926Y-111354203D01*
X32319750Y-111359419D01*
X32339962Y-111366651D01*
X32359368Y-111375830D01*
X32377781Y-111386866D01*
X32395024Y-111399654D01*
X32410930Y-111414070D01*
X32425346Y-111429976D01*
X32438134Y-111447219D01*
X32449170Y-111465632D01*
X32458349Y-111485038D01*
X32465581Y-111505250D01*
X32470797Y-111526074D01*
X32473947Y-111547309D01*
X32475000Y-111568750D01*
X32475000Y-112006250D01*
X32473947Y-112027691D01*
X32470797Y-112048926D01*
X32465581Y-112069750D01*
X32458349Y-112089962D01*
X32449170Y-112109368D01*
X32438134Y-112127781D01*
X32425346Y-112145024D01*
X32410930Y-112160930D01*
X32395024Y-112175346D01*
X32377781Y-112188134D01*
X32359368Y-112199170D01*
X32339962Y-112208349D01*
X32319750Y-112215581D01*
X32298926Y-112220797D01*
X32277691Y-112223947D01*
X32256250Y-112225000D01*
X31743750Y-112225000D01*
X31722309Y-112223947D01*
X31701074Y-112220797D01*
X31680250Y-112215581D01*
X31660038Y-112208349D01*
X31640632Y-112199170D01*
X31622219Y-112188134D01*
X31604976Y-112175346D01*
X31589070Y-112160930D01*
X31574654Y-112145024D01*
X31561866Y-112127781D01*
X31550830Y-112109368D01*
X31541651Y-112089962D01*
X31534419Y-112069750D01*
X31529203Y-112048926D01*
X31526053Y-112027691D01*
X31525000Y-112006250D01*
X31525000Y-111568750D01*
X31526053Y-111547309D01*
X31529203Y-111526074D01*
X31534419Y-111505250D01*
X31541651Y-111485038D01*
X31550830Y-111465632D01*
X31561866Y-111447219D01*
X31574654Y-111429976D01*
X31589070Y-111414070D01*
X31604976Y-111399654D01*
X31622219Y-111386866D01*
X31640632Y-111375830D01*
X31660038Y-111366651D01*
X31680250Y-111359419D01*
X31701074Y-111354203D01*
X31722309Y-111351053D01*
X31743750Y-111350000D01*
X32256250Y-111350000D01*
X32277691Y-111351053D01*
X32277691Y-111351053D01*
G37*
D17*
X32000000Y-111787500D03*
D10*
G36*
X32277691Y-109776053D02*
X32298926Y-109779203D01*
X32319750Y-109784419D01*
X32339962Y-109791651D01*
X32359368Y-109800830D01*
X32377781Y-109811866D01*
X32395024Y-109824654D01*
X32410930Y-109839070D01*
X32425346Y-109854976D01*
X32438134Y-109872219D01*
X32449170Y-109890632D01*
X32458349Y-109910038D01*
X32465581Y-109930250D01*
X32470797Y-109951074D01*
X32473947Y-109972309D01*
X32475000Y-109993750D01*
X32475000Y-110431250D01*
X32473947Y-110452691D01*
X32470797Y-110473926D01*
X32465581Y-110494750D01*
X32458349Y-110514962D01*
X32449170Y-110534368D01*
X32438134Y-110552781D01*
X32425346Y-110570024D01*
X32410930Y-110585930D01*
X32395024Y-110600346D01*
X32377781Y-110613134D01*
X32359368Y-110624170D01*
X32339962Y-110633349D01*
X32319750Y-110640581D01*
X32298926Y-110645797D01*
X32277691Y-110648947D01*
X32256250Y-110650000D01*
X31743750Y-110650000D01*
X31722309Y-110648947D01*
X31701074Y-110645797D01*
X31680250Y-110640581D01*
X31660038Y-110633349D01*
X31640632Y-110624170D01*
X31622219Y-110613134D01*
X31604976Y-110600346D01*
X31589070Y-110585930D01*
X31574654Y-110570024D01*
X31561866Y-110552781D01*
X31550830Y-110534368D01*
X31541651Y-110514962D01*
X31534419Y-110494750D01*
X31529203Y-110473926D01*
X31526053Y-110452691D01*
X31525000Y-110431250D01*
X31525000Y-109993750D01*
X31526053Y-109972309D01*
X31529203Y-109951074D01*
X31534419Y-109930250D01*
X31541651Y-109910038D01*
X31550830Y-109890632D01*
X31561866Y-109872219D01*
X31574654Y-109854976D01*
X31589070Y-109839070D01*
X31604976Y-109824654D01*
X31622219Y-109811866D01*
X31640632Y-109800830D01*
X31660038Y-109791651D01*
X31680250Y-109784419D01*
X31701074Y-109779203D01*
X31722309Y-109776053D01*
X31743750Y-109775000D01*
X32256250Y-109775000D01*
X32277691Y-109776053D01*
X32277691Y-109776053D01*
G37*
D17*
X32000000Y-110212500D03*
G04 #@! TD*
D10*
G04 #@! TO.C,C942*
G36*
X113117691Y-92656053D02*
X113138926Y-92659203D01*
X113159750Y-92664419D01*
X113179962Y-92671651D01*
X113199368Y-92680830D01*
X113217781Y-92691866D01*
X113235024Y-92704654D01*
X113250930Y-92719070D01*
X113265346Y-92734976D01*
X113278134Y-92752219D01*
X113289170Y-92770632D01*
X113298349Y-92790038D01*
X113305581Y-92810250D01*
X113310797Y-92831074D01*
X113313947Y-92852309D01*
X113315000Y-92873750D01*
X113315000Y-93386250D01*
X113313947Y-93407691D01*
X113310797Y-93428926D01*
X113305581Y-93449750D01*
X113298349Y-93469962D01*
X113289170Y-93489368D01*
X113278134Y-93507781D01*
X113265346Y-93525024D01*
X113250930Y-93540930D01*
X113235024Y-93555346D01*
X113217781Y-93568134D01*
X113199368Y-93579170D01*
X113179962Y-93588349D01*
X113159750Y-93595581D01*
X113138926Y-93600797D01*
X113117691Y-93603947D01*
X113096250Y-93605000D01*
X112658750Y-93605000D01*
X112637309Y-93603947D01*
X112616074Y-93600797D01*
X112595250Y-93595581D01*
X112575038Y-93588349D01*
X112555632Y-93579170D01*
X112537219Y-93568134D01*
X112519976Y-93555346D01*
X112504070Y-93540930D01*
X112489654Y-93525024D01*
X112476866Y-93507781D01*
X112465830Y-93489368D01*
X112456651Y-93469962D01*
X112449419Y-93449750D01*
X112444203Y-93428926D01*
X112441053Y-93407691D01*
X112440000Y-93386250D01*
X112440000Y-92873750D01*
X112441053Y-92852309D01*
X112444203Y-92831074D01*
X112449419Y-92810250D01*
X112456651Y-92790038D01*
X112465830Y-92770632D01*
X112476866Y-92752219D01*
X112489654Y-92734976D01*
X112504070Y-92719070D01*
X112519976Y-92704654D01*
X112537219Y-92691866D01*
X112555632Y-92680830D01*
X112575038Y-92671651D01*
X112595250Y-92664419D01*
X112616074Y-92659203D01*
X112637309Y-92656053D01*
X112658750Y-92655000D01*
X113096250Y-92655000D01*
X113117691Y-92656053D01*
X113117691Y-92656053D01*
G37*
D17*
X112877500Y-93130000D03*
D10*
G36*
X114692691Y-92656053D02*
X114713926Y-92659203D01*
X114734750Y-92664419D01*
X114754962Y-92671651D01*
X114774368Y-92680830D01*
X114792781Y-92691866D01*
X114810024Y-92704654D01*
X114825930Y-92719070D01*
X114840346Y-92734976D01*
X114853134Y-92752219D01*
X114864170Y-92770632D01*
X114873349Y-92790038D01*
X114880581Y-92810250D01*
X114885797Y-92831074D01*
X114888947Y-92852309D01*
X114890000Y-92873750D01*
X114890000Y-93386250D01*
X114888947Y-93407691D01*
X114885797Y-93428926D01*
X114880581Y-93449750D01*
X114873349Y-93469962D01*
X114864170Y-93489368D01*
X114853134Y-93507781D01*
X114840346Y-93525024D01*
X114825930Y-93540930D01*
X114810024Y-93555346D01*
X114792781Y-93568134D01*
X114774368Y-93579170D01*
X114754962Y-93588349D01*
X114734750Y-93595581D01*
X114713926Y-93600797D01*
X114692691Y-93603947D01*
X114671250Y-93605000D01*
X114233750Y-93605000D01*
X114212309Y-93603947D01*
X114191074Y-93600797D01*
X114170250Y-93595581D01*
X114150038Y-93588349D01*
X114130632Y-93579170D01*
X114112219Y-93568134D01*
X114094976Y-93555346D01*
X114079070Y-93540930D01*
X114064654Y-93525024D01*
X114051866Y-93507781D01*
X114040830Y-93489368D01*
X114031651Y-93469962D01*
X114024419Y-93449750D01*
X114019203Y-93428926D01*
X114016053Y-93407691D01*
X114015000Y-93386250D01*
X114015000Y-92873750D01*
X114016053Y-92852309D01*
X114019203Y-92831074D01*
X114024419Y-92810250D01*
X114031651Y-92790038D01*
X114040830Y-92770632D01*
X114051866Y-92752219D01*
X114064654Y-92734976D01*
X114079070Y-92719070D01*
X114094976Y-92704654D01*
X114112219Y-92691866D01*
X114130632Y-92680830D01*
X114150038Y-92671651D01*
X114170250Y-92664419D01*
X114191074Y-92659203D01*
X114212309Y-92656053D01*
X114233750Y-92655000D01*
X114671250Y-92655000D01*
X114692691Y-92656053D01*
X114692691Y-92656053D01*
G37*
D17*
X114452500Y-93130000D03*
G04 #@! TD*
D10*
G04 #@! TO.C,C941*
G36*
X102277691Y-97351053D02*
X102298926Y-97354203D01*
X102319750Y-97359419D01*
X102339962Y-97366651D01*
X102359368Y-97375830D01*
X102377781Y-97386866D01*
X102395024Y-97399654D01*
X102410930Y-97414070D01*
X102425346Y-97429976D01*
X102438134Y-97447219D01*
X102449170Y-97465632D01*
X102458349Y-97485038D01*
X102465581Y-97505250D01*
X102470797Y-97526074D01*
X102473947Y-97547309D01*
X102475000Y-97568750D01*
X102475000Y-98006250D01*
X102473947Y-98027691D01*
X102470797Y-98048926D01*
X102465581Y-98069750D01*
X102458349Y-98089962D01*
X102449170Y-98109368D01*
X102438134Y-98127781D01*
X102425346Y-98145024D01*
X102410930Y-98160930D01*
X102395024Y-98175346D01*
X102377781Y-98188134D01*
X102359368Y-98199170D01*
X102339962Y-98208349D01*
X102319750Y-98215581D01*
X102298926Y-98220797D01*
X102277691Y-98223947D01*
X102256250Y-98225000D01*
X101743750Y-98225000D01*
X101722309Y-98223947D01*
X101701074Y-98220797D01*
X101680250Y-98215581D01*
X101660038Y-98208349D01*
X101640632Y-98199170D01*
X101622219Y-98188134D01*
X101604976Y-98175346D01*
X101589070Y-98160930D01*
X101574654Y-98145024D01*
X101561866Y-98127781D01*
X101550830Y-98109368D01*
X101541651Y-98089962D01*
X101534419Y-98069750D01*
X101529203Y-98048926D01*
X101526053Y-98027691D01*
X101525000Y-98006250D01*
X101525000Y-97568750D01*
X101526053Y-97547309D01*
X101529203Y-97526074D01*
X101534419Y-97505250D01*
X101541651Y-97485038D01*
X101550830Y-97465632D01*
X101561866Y-97447219D01*
X101574654Y-97429976D01*
X101589070Y-97414070D01*
X101604976Y-97399654D01*
X101622219Y-97386866D01*
X101640632Y-97375830D01*
X101660038Y-97366651D01*
X101680250Y-97359419D01*
X101701074Y-97354203D01*
X101722309Y-97351053D01*
X101743750Y-97350000D01*
X102256250Y-97350000D01*
X102277691Y-97351053D01*
X102277691Y-97351053D01*
G37*
D17*
X102000000Y-97787500D03*
D10*
G36*
X102277691Y-95776053D02*
X102298926Y-95779203D01*
X102319750Y-95784419D01*
X102339962Y-95791651D01*
X102359368Y-95800830D01*
X102377781Y-95811866D01*
X102395024Y-95824654D01*
X102410930Y-95839070D01*
X102425346Y-95854976D01*
X102438134Y-95872219D01*
X102449170Y-95890632D01*
X102458349Y-95910038D01*
X102465581Y-95930250D01*
X102470797Y-95951074D01*
X102473947Y-95972309D01*
X102475000Y-95993750D01*
X102475000Y-96431250D01*
X102473947Y-96452691D01*
X102470797Y-96473926D01*
X102465581Y-96494750D01*
X102458349Y-96514962D01*
X102449170Y-96534368D01*
X102438134Y-96552781D01*
X102425346Y-96570024D01*
X102410930Y-96585930D01*
X102395024Y-96600346D01*
X102377781Y-96613134D01*
X102359368Y-96624170D01*
X102339962Y-96633349D01*
X102319750Y-96640581D01*
X102298926Y-96645797D01*
X102277691Y-96648947D01*
X102256250Y-96650000D01*
X101743750Y-96650000D01*
X101722309Y-96648947D01*
X101701074Y-96645797D01*
X101680250Y-96640581D01*
X101660038Y-96633349D01*
X101640632Y-96624170D01*
X101622219Y-96613134D01*
X101604976Y-96600346D01*
X101589070Y-96585930D01*
X101574654Y-96570024D01*
X101561866Y-96552781D01*
X101550830Y-96534368D01*
X101541651Y-96514962D01*
X101534419Y-96494750D01*
X101529203Y-96473926D01*
X101526053Y-96452691D01*
X101525000Y-96431250D01*
X101525000Y-95993750D01*
X101526053Y-95972309D01*
X101529203Y-95951074D01*
X101534419Y-95930250D01*
X101541651Y-95910038D01*
X101550830Y-95890632D01*
X101561866Y-95872219D01*
X101574654Y-95854976D01*
X101589070Y-95839070D01*
X101604976Y-95824654D01*
X101622219Y-95811866D01*
X101640632Y-95800830D01*
X101660038Y-95791651D01*
X101680250Y-95784419D01*
X101701074Y-95779203D01*
X101722309Y-95776053D01*
X101743750Y-95775000D01*
X102256250Y-95775000D01*
X102277691Y-95776053D01*
X102277691Y-95776053D01*
G37*
D17*
X102000000Y-96212500D03*
G04 #@! TD*
D10*
G04 #@! TO.C,C940*
G36*
X88277691Y-95776053D02*
X88298926Y-95779203D01*
X88319750Y-95784419D01*
X88339962Y-95791651D01*
X88359368Y-95800830D01*
X88377781Y-95811866D01*
X88395024Y-95824654D01*
X88410930Y-95839070D01*
X88425346Y-95854976D01*
X88438134Y-95872219D01*
X88449170Y-95890632D01*
X88458349Y-95910038D01*
X88465581Y-95930250D01*
X88470797Y-95951074D01*
X88473947Y-95972309D01*
X88475000Y-95993750D01*
X88475000Y-96431250D01*
X88473947Y-96452691D01*
X88470797Y-96473926D01*
X88465581Y-96494750D01*
X88458349Y-96514962D01*
X88449170Y-96534368D01*
X88438134Y-96552781D01*
X88425346Y-96570024D01*
X88410930Y-96585930D01*
X88395024Y-96600346D01*
X88377781Y-96613134D01*
X88359368Y-96624170D01*
X88339962Y-96633349D01*
X88319750Y-96640581D01*
X88298926Y-96645797D01*
X88277691Y-96648947D01*
X88256250Y-96650000D01*
X87743750Y-96650000D01*
X87722309Y-96648947D01*
X87701074Y-96645797D01*
X87680250Y-96640581D01*
X87660038Y-96633349D01*
X87640632Y-96624170D01*
X87622219Y-96613134D01*
X87604976Y-96600346D01*
X87589070Y-96585930D01*
X87574654Y-96570024D01*
X87561866Y-96552781D01*
X87550830Y-96534368D01*
X87541651Y-96514962D01*
X87534419Y-96494750D01*
X87529203Y-96473926D01*
X87526053Y-96452691D01*
X87525000Y-96431250D01*
X87525000Y-95993750D01*
X87526053Y-95972309D01*
X87529203Y-95951074D01*
X87534419Y-95930250D01*
X87541651Y-95910038D01*
X87550830Y-95890632D01*
X87561866Y-95872219D01*
X87574654Y-95854976D01*
X87589070Y-95839070D01*
X87604976Y-95824654D01*
X87622219Y-95811866D01*
X87640632Y-95800830D01*
X87660038Y-95791651D01*
X87680250Y-95784419D01*
X87701074Y-95779203D01*
X87722309Y-95776053D01*
X87743750Y-95775000D01*
X88256250Y-95775000D01*
X88277691Y-95776053D01*
X88277691Y-95776053D01*
G37*
D17*
X88000000Y-96212500D03*
D10*
G36*
X88277691Y-97351053D02*
X88298926Y-97354203D01*
X88319750Y-97359419D01*
X88339962Y-97366651D01*
X88359368Y-97375830D01*
X88377781Y-97386866D01*
X88395024Y-97399654D01*
X88410930Y-97414070D01*
X88425346Y-97429976D01*
X88438134Y-97447219D01*
X88449170Y-97465632D01*
X88458349Y-97485038D01*
X88465581Y-97505250D01*
X88470797Y-97526074D01*
X88473947Y-97547309D01*
X88475000Y-97568750D01*
X88475000Y-98006250D01*
X88473947Y-98027691D01*
X88470797Y-98048926D01*
X88465581Y-98069750D01*
X88458349Y-98089962D01*
X88449170Y-98109368D01*
X88438134Y-98127781D01*
X88425346Y-98145024D01*
X88410930Y-98160930D01*
X88395024Y-98175346D01*
X88377781Y-98188134D01*
X88359368Y-98199170D01*
X88339962Y-98208349D01*
X88319750Y-98215581D01*
X88298926Y-98220797D01*
X88277691Y-98223947D01*
X88256250Y-98225000D01*
X87743750Y-98225000D01*
X87722309Y-98223947D01*
X87701074Y-98220797D01*
X87680250Y-98215581D01*
X87660038Y-98208349D01*
X87640632Y-98199170D01*
X87622219Y-98188134D01*
X87604976Y-98175346D01*
X87589070Y-98160930D01*
X87574654Y-98145024D01*
X87561866Y-98127781D01*
X87550830Y-98109368D01*
X87541651Y-98089962D01*
X87534419Y-98069750D01*
X87529203Y-98048926D01*
X87526053Y-98027691D01*
X87525000Y-98006250D01*
X87525000Y-97568750D01*
X87526053Y-97547309D01*
X87529203Y-97526074D01*
X87534419Y-97505250D01*
X87541651Y-97485038D01*
X87550830Y-97465632D01*
X87561866Y-97447219D01*
X87574654Y-97429976D01*
X87589070Y-97414070D01*
X87604976Y-97399654D01*
X87622219Y-97386866D01*
X87640632Y-97375830D01*
X87660038Y-97366651D01*
X87680250Y-97359419D01*
X87701074Y-97354203D01*
X87722309Y-97351053D01*
X87743750Y-97350000D01*
X88256250Y-97350000D01*
X88277691Y-97351053D01*
X88277691Y-97351053D01*
G37*
D17*
X88000000Y-97787500D03*
G04 #@! TD*
D10*
G04 #@! TO.C,C939*
G36*
X74277691Y-97351053D02*
X74298926Y-97354203D01*
X74319750Y-97359419D01*
X74339962Y-97366651D01*
X74359368Y-97375830D01*
X74377781Y-97386866D01*
X74395024Y-97399654D01*
X74410930Y-97414070D01*
X74425346Y-97429976D01*
X74438134Y-97447219D01*
X74449170Y-97465632D01*
X74458349Y-97485038D01*
X74465581Y-97505250D01*
X74470797Y-97526074D01*
X74473947Y-97547309D01*
X74475000Y-97568750D01*
X74475000Y-98006250D01*
X74473947Y-98027691D01*
X74470797Y-98048926D01*
X74465581Y-98069750D01*
X74458349Y-98089962D01*
X74449170Y-98109368D01*
X74438134Y-98127781D01*
X74425346Y-98145024D01*
X74410930Y-98160930D01*
X74395024Y-98175346D01*
X74377781Y-98188134D01*
X74359368Y-98199170D01*
X74339962Y-98208349D01*
X74319750Y-98215581D01*
X74298926Y-98220797D01*
X74277691Y-98223947D01*
X74256250Y-98225000D01*
X73743750Y-98225000D01*
X73722309Y-98223947D01*
X73701074Y-98220797D01*
X73680250Y-98215581D01*
X73660038Y-98208349D01*
X73640632Y-98199170D01*
X73622219Y-98188134D01*
X73604976Y-98175346D01*
X73589070Y-98160930D01*
X73574654Y-98145024D01*
X73561866Y-98127781D01*
X73550830Y-98109368D01*
X73541651Y-98089962D01*
X73534419Y-98069750D01*
X73529203Y-98048926D01*
X73526053Y-98027691D01*
X73525000Y-98006250D01*
X73525000Y-97568750D01*
X73526053Y-97547309D01*
X73529203Y-97526074D01*
X73534419Y-97505250D01*
X73541651Y-97485038D01*
X73550830Y-97465632D01*
X73561866Y-97447219D01*
X73574654Y-97429976D01*
X73589070Y-97414070D01*
X73604976Y-97399654D01*
X73622219Y-97386866D01*
X73640632Y-97375830D01*
X73660038Y-97366651D01*
X73680250Y-97359419D01*
X73701074Y-97354203D01*
X73722309Y-97351053D01*
X73743750Y-97350000D01*
X74256250Y-97350000D01*
X74277691Y-97351053D01*
X74277691Y-97351053D01*
G37*
D17*
X74000000Y-97787500D03*
D10*
G36*
X74277691Y-95776053D02*
X74298926Y-95779203D01*
X74319750Y-95784419D01*
X74339962Y-95791651D01*
X74359368Y-95800830D01*
X74377781Y-95811866D01*
X74395024Y-95824654D01*
X74410930Y-95839070D01*
X74425346Y-95854976D01*
X74438134Y-95872219D01*
X74449170Y-95890632D01*
X74458349Y-95910038D01*
X74465581Y-95930250D01*
X74470797Y-95951074D01*
X74473947Y-95972309D01*
X74475000Y-95993750D01*
X74475000Y-96431250D01*
X74473947Y-96452691D01*
X74470797Y-96473926D01*
X74465581Y-96494750D01*
X74458349Y-96514962D01*
X74449170Y-96534368D01*
X74438134Y-96552781D01*
X74425346Y-96570024D01*
X74410930Y-96585930D01*
X74395024Y-96600346D01*
X74377781Y-96613134D01*
X74359368Y-96624170D01*
X74339962Y-96633349D01*
X74319750Y-96640581D01*
X74298926Y-96645797D01*
X74277691Y-96648947D01*
X74256250Y-96650000D01*
X73743750Y-96650000D01*
X73722309Y-96648947D01*
X73701074Y-96645797D01*
X73680250Y-96640581D01*
X73660038Y-96633349D01*
X73640632Y-96624170D01*
X73622219Y-96613134D01*
X73604976Y-96600346D01*
X73589070Y-96585930D01*
X73574654Y-96570024D01*
X73561866Y-96552781D01*
X73550830Y-96534368D01*
X73541651Y-96514962D01*
X73534419Y-96494750D01*
X73529203Y-96473926D01*
X73526053Y-96452691D01*
X73525000Y-96431250D01*
X73525000Y-95993750D01*
X73526053Y-95972309D01*
X73529203Y-95951074D01*
X73534419Y-95930250D01*
X73541651Y-95910038D01*
X73550830Y-95890632D01*
X73561866Y-95872219D01*
X73574654Y-95854976D01*
X73589070Y-95839070D01*
X73604976Y-95824654D01*
X73622219Y-95811866D01*
X73640632Y-95800830D01*
X73660038Y-95791651D01*
X73680250Y-95784419D01*
X73701074Y-95779203D01*
X73722309Y-95776053D01*
X73743750Y-95775000D01*
X74256250Y-95775000D01*
X74277691Y-95776053D01*
X74277691Y-95776053D01*
G37*
D17*
X74000000Y-96212500D03*
G04 #@! TD*
D18*
G04 #@! TO.C,U202*
X87470000Y-46140000D03*
X87470000Y-47410000D03*
X87470000Y-48680000D03*
X87470000Y-49950000D03*
X92870000Y-49950000D03*
X92870000Y-48680000D03*
X92870000Y-47410000D03*
X92870000Y-46140000D03*
G04 #@! TD*
D10*
G04 #@! TO.C,R221*
G36*
X84715779Y-46646144D02*
X84738834Y-46649563D01*
X84761443Y-46655227D01*
X84783387Y-46663079D01*
X84804457Y-46673044D01*
X84824448Y-46685026D01*
X84843168Y-46698910D01*
X84860438Y-46714562D01*
X84876090Y-46731832D01*
X84889974Y-46750552D01*
X84901956Y-46770543D01*
X84911921Y-46791613D01*
X84919773Y-46813557D01*
X84925437Y-46836166D01*
X84928856Y-46859221D01*
X84930000Y-46882500D01*
X84930000Y-47457500D01*
X84928856Y-47480779D01*
X84925437Y-47503834D01*
X84919773Y-47526443D01*
X84911921Y-47548387D01*
X84901956Y-47569457D01*
X84889974Y-47589448D01*
X84876090Y-47608168D01*
X84860438Y-47625438D01*
X84843168Y-47641090D01*
X84824448Y-47654974D01*
X84804457Y-47666956D01*
X84783387Y-47676921D01*
X84761443Y-47684773D01*
X84738834Y-47690437D01*
X84715779Y-47693856D01*
X84692500Y-47695000D01*
X84217500Y-47695000D01*
X84194221Y-47693856D01*
X84171166Y-47690437D01*
X84148557Y-47684773D01*
X84126613Y-47676921D01*
X84105543Y-47666956D01*
X84085552Y-47654974D01*
X84066832Y-47641090D01*
X84049562Y-47625438D01*
X84033910Y-47608168D01*
X84020026Y-47589448D01*
X84008044Y-47569457D01*
X83998079Y-47548387D01*
X83990227Y-47526443D01*
X83984563Y-47503834D01*
X83981144Y-47480779D01*
X83980000Y-47457500D01*
X83980000Y-46882500D01*
X83981144Y-46859221D01*
X83984563Y-46836166D01*
X83990227Y-46813557D01*
X83998079Y-46791613D01*
X84008044Y-46770543D01*
X84020026Y-46750552D01*
X84033910Y-46731832D01*
X84049562Y-46714562D01*
X84066832Y-46698910D01*
X84085552Y-46685026D01*
X84105543Y-46673044D01*
X84126613Y-46663079D01*
X84148557Y-46655227D01*
X84171166Y-46649563D01*
X84194221Y-46646144D01*
X84217500Y-46645000D01*
X84692500Y-46645000D01*
X84715779Y-46646144D01*
X84715779Y-46646144D01*
G37*
D14*
X84455000Y-47170000D03*
D10*
G36*
X84715779Y-48396144D02*
X84738834Y-48399563D01*
X84761443Y-48405227D01*
X84783387Y-48413079D01*
X84804457Y-48423044D01*
X84824448Y-48435026D01*
X84843168Y-48448910D01*
X84860438Y-48464562D01*
X84876090Y-48481832D01*
X84889974Y-48500552D01*
X84901956Y-48520543D01*
X84911921Y-48541613D01*
X84919773Y-48563557D01*
X84925437Y-48586166D01*
X84928856Y-48609221D01*
X84930000Y-48632500D01*
X84930000Y-49207500D01*
X84928856Y-49230779D01*
X84925437Y-49253834D01*
X84919773Y-49276443D01*
X84911921Y-49298387D01*
X84901956Y-49319457D01*
X84889974Y-49339448D01*
X84876090Y-49358168D01*
X84860438Y-49375438D01*
X84843168Y-49391090D01*
X84824448Y-49404974D01*
X84804457Y-49416956D01*
X84783387Y-49426921D01*
X84761443Y-49434773D01*
X84738834Y-49440437D01*
X84715779Y-49443856D01*
X84692500Y-49445000D01*
X84217500Y-49445000D01*
X84194221Y-49443856D01*
X84171166Y-49440437D01*
X84148557Y-49434773D01*
X84126613Y-49426921D01*
X84105543Y-49416956D01*
X84085552Y-49404974D01*
X84066832Y-49391090D01*
X84049562Y-49375438D01*
X84033910Y-49358168D01*
X84020026Y-49339448D01*
X84008044Y-49319457D01*
X83998079Y-49298387D01*
X83990227Y-49276443D01*
X83984563Y-49253834D01*
X83981144Y-49230779D01*
X83980000Y-49207500D01*
X83980000Y-48632500D01*
X83981144Y-48609221D01*
X83984563Y-48586166D01*
X83990227Y-48563557D01*
X83998079Y-48541613D01*
X84008044Y-48520543D01*
X84020026Y-48500552D01*
X84033910Y-48481832D01*
X84049562Y-48464562D01*
X84066832Y-48448910D01*
X84085552Y-48435026D01*
X84105543Y-48423044D01*
X84126613Y-48413079D01*
X84148557Y-48405227D01*
X84171166Y-48399563D01*
X84194221Y-48396144D01*
X84217500Y-48395000D01*
X84692500Y-48395000D01*
X84715779Y-48396144D01*
X84715779Y-48396144D01*
G37*
D14*
X84455000Y-48920000D03*
G04 #@! TD*
D10*
G04 #@! TO.C,R222*
G36*
X80270779Y-46646144D02*
X80293834Y-46649563D01*
X80316443Y-46655227D01*
X80338387Y-46663079D01*
X80359457Y-46673044D01*
X80379448Y-46685026D01*
X80398168Y-46698910D01*
X80415438Y-46714562D01*
X80431090Y-46731832D01*
X80444974Y-46750552D01*
X80456956Y-46770543D01*
X80466921Y-46791613D01*
X80474773Y-46813557D01*
X80480437Y-46836166D01*
X80483856Y-46859221D01*
X80485000Y-46882500D01*
X80485000Y-47457500D01*
X80483856Y-47480779D01*
X80480437Y-47503834D01*
X80474773Y-47526443D01*
X80466921Y-47548387D01*
X80456956Y-47569457D01*
X80444974Y-47589448D01*
X80431090Y-47608168D01*
X80415438Y-47625438D01*
X80398168Y-47641090D01*
X80379448Y-47654974D01*
X80359457Y-47666956D01*
X80338387Y-47676921D01*
X80316443Y-47684773D01*
X80293834Y-47690437D01*
X80270779Y-47693856D01*
X80247500Y-47695000D01*
X79772500Y-47695000D01*
X79749221Y-47693856D01*
X79726166Y-47690437D01*
X79703557Y-47684773D01*
X79681613Y-47676921D01*
X79660543Y-47666956D01*
X79640552Y-47654974D01*
X79621832Y-47641090D01*
X79604562Y-47625438D01*
X79588910Y-47608168D01*
X79575026Y-47589448D01*
X79563044Y-47569457D01*
X79553079Y-47548387D01*
X79545227Y-47526443D01*
X79539563Y-47503834D01*
X79536144Y-47480779D01*
X79535000Y-47457500D01*
X79535000Y-46882500D01*
X79536144Y-46859221D01*
X79539563Y-46836166D01*
X79545227Y-46813557D01*
X79553079Y-46791613D01*
X79563044Y-46770543D01*
X79575026Y-46750552D01*
X79588910Y-46731832D01*
X79604562Y-46714562D01*
X79621832Y-46698910D01*
X79640552Y-46685026D01*
X79660543Y-46673044D01*
X79681613Y-46663079D01*
X79703557Y-46655227D01*
X79726166Y-46649563D01*
X79749221Y-46646144D01*
X79772500Y-46645000D01*
X80247500Y-46645000D01*
X80270779Y-46646144D01*
X80270779Y-46646144D01*
G37*
D14*
X80010000Y-47170000D03*
D10*
G36*
X80270779Y-48396144D02*
X80293834Y-48399563D01*
X80316443Y-48405227D01*
X80338387Y-48413079D01*
X80359457Y-48423044D01*
X80379448Y-48435026D01*
X80398168Y-48448910D01*
X80415438Y-48464562D01*
X80431090Y-48481832D01*
X80444974Y-48500552D01*
X80456956Y-48520543D01*
X80466921Y-48541613D01*
X80474773Y-48563557D01*
X80480437Y-48586166D01*
X80483856Y-48609221D01*
X80485000Y-48632500D01*
X80485000Y-49207500D01*
X80483856Y-49230779D01*
X80480437Y-49253834D01*
X80474773Y-49276443D01*
X80466921Y-49298387D01*
X80456956Y-49319457D01*
X80444974Y-49339448D01*
X80431090Y-49358168D01*
X80415438Y-49375438D01*
X80398168Y-49391090D01*
X80379448Y-49404974D01*
X80359457Y-49416956D01*
X80338387Y-49426921D01*
X80316443Y-49434773D01*
X80293834Y-49440437D01*
X80270779Y-49443856D01*
X80247500Y-49445000D01*
X79772500Y-49445000D01*
X79749221Y-49443856D01*
X79726166Y-49440437D01*
X79703557Y-49434773D01*
X79681613Y-49426921D01*
X79660543Y-49416956D01*
X79640552Y-49404974D01*
X79621832Y-49391090D01*
X79604562Y-49375438D01*
X79588910Y-49358168D01*
X79575026Y-49339448D01*
X79563044Y-49319457D01*
X79553079Y-49298387D01*
X79545227Y-49276443D01*
X79539563Y-49253834D01*
X79536144Y-49230779D01*
X79535000Y-49207500D01*
X79535000Y-48632500D01*
X79536144Y-48609221D01*
X79539563Y-48586166D01*
X79545227Y-48563557D01*
X79553079Y-48541613D01*
X79563044Y-48520543D01*
X79575026Y-48500552D01*
X79588910Y-48481832D01*
X79604562Y-48464562D01*
X79621832Y-48448910D01*
X79640552Y-48435026D01*
X79660543Y-48423044D01*
X79681613Y-48413079D01*
X79703557Y-48405227D01*
X79726166Y-48399563D01*
X79749221Y-48396144D01*
X79772500Y-48395000D01*
X80247500Y-48395000D01*
X80270779Y-48396144D01*
X80270779Y-48396144D01*
G37*
D14*
X80010000Y-48920000D03*
G04 #@! TD*
D10*
G04 #@! TO.C,C903*
G36*
X60277691Y-27351053D02*
X60298926Y-27354203D01*
X60319750Y-27359419D01*
X60339962Y-27366651D01*
X60359368Y-27375830D01*
X60377781Y-27386866D01*
X60395024Y-27399654D01*
X60410930Y-27414070D01*
X60425346Y-27429976D01*
X60438134Y-27447219D01*
X60449170Y-27465632D01*
X60458349Y-27485038D01*
X60465581Y-27505250D01*
X60470797Y-27526074D01*
X60473947Y-27547309D01*
X60475000Y-27568750D01*
X60475000Y-28006250D01*
X60473947Y-28027691D01*
X60470797Y-28048926D01*
X60465581Y-28069750D01*
X60458349Y-28089962D01*
X60449170Y-28109368D01*
X60438134Y-28127781D01*
X60425346Y-28145024D01*
X60410930Y-28160930D01*
X60395024Y-28175346D01*
X60377781Y-28188134D01*
X60359368Y-28199170D01*
X60339962Y-28208349D01*
X60319750Y-28215581D01*
X60298926Y-28220797D01*
X60277691Y-28223947D01*
X60256250Y-28225000D01*
X59743750Y-28225000D01*
X59722309Y-28223947D01*
X59701074Y-28220797D01*
X59680250Y-28215581D01*
X59660038Y-28208349D01*
X59640632Y-28199170D01*
X59622219Y-28188134D01*
X59604976Y-28175346D01*
X59589070Y-28160930D01*
X59574654Y-28145024D01*
X59561866Y-28127781D01*
X59550830Y-28109368D01*
X59541651Y-28089962D01*
X59534419Y-28069750D01*
X59529203Y-28048926D01*
X59526053Y-28027691D01*
X59525000Y-28006250D01*
X59525000Y-27568750D01*
X59526053Y-27547309D01*
X59529203Y-27526074D01*
X59534419Y-27505250D01*
X59541651Y-27485038D01*
X59550830Y-27465632D01*
X59561866Y-27447219D01*
X59574654Y-27429976D01*
X59589070Y-27414070D01*
X59604976Y-27399654D01*
X59622219Y-27386866D01*
X59640632Y-27375830D01*
X59660038Y-27366651D01*
X59680250Y-27359419D01*
X59701074Y-27354203D01*
X59722309Y-27351053D01*
X59743750Y-27350000D01*
X60256250Y-27350000D01*
X60277691Y-27351053D01*
X60277691Y-27351053D01*
G37*
D17*
X60000000Y-27787500D03*
D10*
G36*
X60277691Y-25776053D02*
X60298926Y-25779203D01*
X60319750Y-25784419D01*
X60339962Y-25791651D01*
X60359368Y-25800830D01*
X60377781Y-25811866D01*
X60395024Y-25824654D01*
X60410930Y-25839070D01*
X60425346Y-25854976D01*
X60438134Y-25872219D01*
X60449170Y-25890632D01*
X60458349Y-25910038D01*
X60465581Y-25930250D01*
X60470797Y-25951074D01*
X60473947Y-25972309D01*
X60475000Y-25993750D01*
X60475000Y-26431250D01*
X60473947Y-26452691D01*
X60470797Y-26473926D01*
X60465581Y-26494750D01*
X60458349Y-26514962D01*
X60449170Y-26534368D01*
X60438134Y-26552781D01*
X60425346Y-26570024D01*
X60410930Y-26585930D01*
X60395024Y-26600346D01*
X60377781Y-26613134D01*
X60359368Y-26624170D01*
X60339962Y-26633349D01*
X60319750Y-26640581D01*
X60298926Y-26645797D01*
X60277691Y-26648947D01*
X60256250Y-26650000D01*
X59743750Y-26650000D01*
X59722309Y-26648947D01*
X59701074Y-26645797D01*
X59680250Y-26640581D01*
X59660038Y-26633349D01*
X59640632Y-26624170D01*
X59622219Y-26613134D01*
X59604976Y-26600346D01*
X59589070Y-26585930D01*
X59574654Y-26570024D01*
X59561866Y-26552781D01*
X59550830Y-26534368D01*
X59541651Y-26514962D01*
X59534419Y-26494750D01*
X59529203Y-26473926D01*
X59526053Y-26452691D01*
X59525000Y-26431250D01*
X59525000Y-25993750D01*
X59526053Y-25972309D01*
X59529203Y-25951074D01*
X59534419Y-25930250D01*
X59541651Y-25910038D01*
X59550830Y-25890632D01*
X59561866Y-25872219D01*
X59574654Y-25854976D01*
X59589070Y-25839070D01*
X59604976Y-25824654D01*
X59622219Y-25811866D01*
X59640632Y-25800830D01*
X59660038Y-25791651D01*
X59680250Y-25784419D01*
X59701074Y-25779203D01*
X59722309Y-25776053D01*
X59743750Y-25775000D01*
X60256250Y-25775000D01*
X60277691Y-25776053D01*
X60277691Y-25776053D01*
G37*
D17*
X60000000Y-26212500D03*
G04 #@! TD*
D16*
G04 #@! TO.C,D929*
X28600000Y-80550000D03*
X25400000Y-80550000D03*
X28600000Y-85450000D03*
X25400000Y-85450000D03*
G04 #@! TD*
G04 #@! TO.C,D931*
X53400000Y-85450000D03*
X56600000Y-85450000D03*
X53400000Y-80550000D03*
X56600000Y-80550000D03*
G04 #@! TD*
G04 #@! TO.C,D932*
X70600000Y-80550000D03*
X67400000Y-80550000D03*
X70600000Y-85450000D03*
X67400000Y-85450000D03*
G04 #@! TD*
G04 #@! TO.C,D933*
X81400000Y-85450000D03*
X84600000Y-85450000D03*
X81400000Y-80550000D03*
X84600000Y-80550000D03*
G04 #@! TD*
G04 #@! TO.C,D910*
X56600000Y-38550000D03*
X53400000Y-38550000D03*
X56600000Y-43450000D03*
X53400000Y-43450000D03*
G04 #@! TD*
G04 #@! TO.C,D918*
X67400000Y-57450000D03*
X70600000Y-57450000D03*
X67400000Y-52550000D03*
X70600000Y-52550000D03*
G04 #@! TD*
G04 #@! TO.C,D917*
X56600000Y-52550000D03*
X53400000Y-52550000D03*
X56600000Y-57450000D03*
X53400000Y-57450000D03*
G04 #@! TD*
G04 #@! TO.C,D916*
X39400000Y-57450000D03*
X42600000Y-57450000D03*
X39400000Y-52550000D03*
X42600000Y-52550000D03*
G04 #@! TD*
G04 #@! TO.C,D915*
X28600000Y-52550000D03*
X25400000Y-52550000D03*
X28600000Y-57450000D03*
X25400000Y-57450000D03*
G04 #@! TD*
G04 #@! TO.C,D914*
X109400000Y-43450000D03*
X112600000Y-43450000D03*
X109400000Y-38550000D03*
X112600000Y-38550000D03*
G04 #@! TD*
G04 #@! TO.C,D912*
X84600000Y-38550000D03*
X81400000Y-38550000D03*
X84600000Y-43450000D03*
X81400000Y-43450000D03*
G04 #@! TD*
G04 #@! TO.C,D930*
X39400000Y-85450000D03*
X42600000Y-85450000D03*
X39400000Y-80550000D03*
X42600000Y-80550000D03*
G04 #@! TD*
G04 #@! TO.C,D928*
X112600000Y-66550000D03*
X109400000Y-66550000D03*
X112600000Y-71450000D03*
X109400000Y-71450000D03*
G04 #@! TD*
G04 #@! TO.C,D927*
X95400000Y-71450000D03*
X98600000Y-71450000D03*
X95400000Y-66550000D03*
X98600000Y-66550000D03*
G04 #@! TD*
G04 #@! TO.C,D926*
X84600000Y-66550000D03*
X81400000Y-66550000D03*
X84600000Y-71450000D03*
X81400000Y-71450000D03*
G04 #@! TD*
G04 #@! TO.C,D925*
X67400000Y-71450000D03*
X70600000Y-71450000D03*
X67400000Y-66550000D03*
X70600000Y-66550000D03*
G04 #@! TD*
G04 #@! TO.C,D924*
X56600000Y-66550000D03*
X53400000Y-66550000D03*
X56600000Y-71450000D03*
X53400000Y-71450000D03*
G04 #@! TD*
G04 #@! TO.C,D923*
X39400000Y-71450000D03*
X42600000Y-71450000D03*
X39400000Y-66550000D03*
X42600000Y-66550000D03*
G04 #@! TD*
G04 #@! TO.C,D922*
X28600000Y-66550000D03*
X25400000Y-66550000D03*
X28600000Y-71450000D03*
X25400000Y-71450000D03*
G04 #@! TD*
G04 #@! TO.C,D921*
X109400000Y-57450000D03*
X112600000Y-57450000D03*
X109400000Y-52550000D03*
X112600000Y-52550000D03*
G04 #@! TD*
G04 #@! TO.C,D920*
X98600000Y-52550000D03*
X95400000Y-52550000D03*
X98600000Y-57450000D03*
X95400000Y-57450000D03*
G04 #@! TD*
G04 #@! TO.C,D919*
X81400000Y-57450000D03*
X84600000Y-57450000D03*
X81400000Y-52550000D03*
X84600000Y-52550000D03*
G04 #@! TD*
G04 #@! TO.C,D904*
X70600000Y-24550000D03*
X67400000Y-24550000D03*
X70600000Y-29450000D03*
X67400000Y-29450000D03*
G04 #@! TD*
G04 #@! TO.C,D913*
X95400000Y-43450000D03*
X98600000Y-43450000D03*
X95400000Y-38550000D03*
X98600000Y-38550000D03*
G04 #@! TD*
G04 #@! TO.C,D936*
X28600000Y-94550000D03*
X25400000Y-94550000D03*
X28600000Y-99450000D03*
X25400000Y-99450000D03*
G04 #@! TD*
G04 #@! TO.C,D937*
X39400000Y-99450000D03*
X42600000Y-99450000D03*
X39400000Y-94550000D03*
X42600000Y-94550000D03*
G04 #@! TD*
G04 #@! TO.C,D938*
X56600000Y-94550000D03*
X53400000Y-94550000D03*
X56600000Y-99450000D03*
X53400000Y-99450000D03*
G04 #@! TD*
G04 #@! TO.C,D939*
X67400000Y-99450000D03*
X70600000Y-99450000D03*
X67400000Y-94550000D03*
X70600000Y-94550000D03*
G04 #@! TD*
G04 #@! TO.C,D940*
X84600000Y-94550000D03*
X81400000Y-94550000D03*
X84600000Y-99450000D03*
X81400000Y-99450000D03*
G04 #@! TD*
G04 #@! TO.C,D941*
X95400000Y-99450000D03*
X98600000Y-99450000D03*
X95400000Y-94550000D03*
X98600000Y-94550000D03*
G04 #@! TD*
G04 #@! TO.C,D942*
X112600000Y-94550000D03*
X109400000Y-94550000D03*
X112600000Y-99450000D03*
X109400000Y-99450000D03*
G04 #@! TD*
G04 #@! TO.C,D943*
X25400000Y-113450000D03*
X28600000Y-113450000D03*
X25400000Y-108550000D03*
X28600000Y-108550000D03*
G04 #@! TD*
G04 #@! TO.C,D944*
X42600000Y-108550000D03*
X39400000Y-108550000D03*
X42600000Y-113450000D03*
X39400000Y-113450000D03*
G04 #@! TD*
G04 #@! TO.C,D945*
X53400000Y-113450000D03*
X56600000Y-113450000D03*
X53400000Y-108550000D03*
X56600000Y-108550000D03*
G04 #@! TD*
G04 #@! TO.C,D946*
X70600000Y-108550000D03*
X67400000Y-108550000D03*
X70600000Y-113450000D03*
X67400000Y-113450000D03*
G04 #@! TD*
G04 #@! TO.C,D947*
X81400000Y-113450000D03*
X84600000Y-113450000D03*
X81400000Y-108550000D03*
X84600000Y-108550000D03*
G04 #@! TD*
G04 #@! TO.C,D948*
X98600000Y-108550000D03*
X95400000Y-108550000D03*
X98600000Y-113450000D03*
X95400000Y-113450000D03*
G04 #@! TD*
G04 #@! TO.C,D934*
X98600000Y-80550000D03*
X95400000Y-80550000D03*
X98600000Y-85450000D03*
X95400000Y-85450000D03*
G04 #@! TD*
G04 #@! TO.C,D903*
X53400000Y-29450000D03*
X56600000Y-29450000D03*
X53400000Y-24550000D03*
X56600000Y-24550000D03*
G04 #@! TD*
G04 #@! TO.C,D935*
X112600000Y-80550000D03*
X109400000Y-80550000D03*
X112600000Y-85450000D03*
X109400000Y-85450000D03*
G04 #@! TD*
G04 #@! TO.C,D905*
X81400000Y-29450000D03*
X84600000Y-29450000D03*
X81400000Y-24550000D03*
X84600000Y-24550000D03*
G04 #@! TD*
G04 #@! TO.C,D906*
X98600000Y-24550000D03*
X95400000Y-24550000D03*
X98600000Y-29450000D03*
X95400000Y-29450000D03*
G04 #@! TD*
G04 #@! TO.C,D907*
X109400000Y-29450000D03*
X112600000Y-29450000D03*
X109400000Y-24550000D03*
X112600000Y-24550000D03*
G04 #@! TD*
G04 #@! TO.C,D908*
X28600000Y-38550000D03*
X25400000Y-38550000D03*
X28600000Y-43450000D03*
X25400000Y-43450000D03*
G04 #@! TD*
G04 #@! TO.C,D909*
X39400000Y-43450000D03*
X42600000Y-43450000D03*
X39400000Y-38550000D03*
X42600000Y-38550000D03*
G04 #@! TD*
G04 #@! TO.C,D902*
X42600000Y-24550000D03*
X39400000Y-24550000D03*
X42600000Y-29450000D03*
X39400000Y-29450000D03*
G04 #@! TD*
G04 #@! TO.C,D901*
X25400000Y-29450000D03*
X28600000Y-29450000D03*
X25400000Y-24550000D03*
X28600000Y-24550000D03*
G04 #@! TD*
G04 #@! TO.C,D911*
X70600000Y-38550000D03*
X67400000Y-38550000D03*
X70600000Y-43450000D03*
X67400000Y-43450000D03*
G04 #@! TD*
M02*
